<?xml version="1.0" encoding="utf-8"?>
<!DOCTYPE svg PUBLIC "-//W3C//DTD SVG 1.0//EN" "http://www.w3.org/TR/2001/REC-SVG-20010904/DTD/svg10.dtd">
<svg version="1.0" xmlns="http://www.w3.org/2000/svg" width="2153px" height="434px" viewBox="0 0 2153 434" preserveAspectRatio="xMidYMid meet">
 <g fill="#896a47">
  <g transform="translate(40.000 40.000) scale(0.622801) translate(-491.000 -79.100)">
   <path d="M896.5 647.3 c-9.2 -0.4 -13.5 -1.1 -13.5 -2.5 0 -0.6 1.1 -0.8 2.8 -0.5 2 0.4 3.4 -0.1 5.4 -2.1 3.7 -3.4 13.3 -4.7 19.3 -2.6 2.2 0.8 6.8 1.7 10.3 2.1 3.4 0.3 6.5 1 6.9 1.6 0.4 0.7 -1 0.8 -4 0.4 -5.3 -0.7 -7.7 -0.1 -7.7 1.9 0 0.8 -0.8 1.5 -1.7 1.6 -3.5 0.3 -10.9 0.3 -17.8 0.1z"/>
   <path d="M752.6 646.1 c-1.5 -2.4 0.6 -3.3 6.3 -2.6 7 0.8 10.4 -0.4 15.1 -5.6 2.9 -3.1 4.4 -3.9 7.1 -3.9 1.9 0 4.5 -0.7 5.7 -1.6 1.3 -0.9 2.4 -1.4 2.6 -1.3 0.1 0.2 0.7 1.6 1.4 3.1 1.1 2.7 1 2.7 -3 3 -3.7 0.3 -4.3 0.7 -6.5 4.8 l-2.4 4.5 -11.6 0.3 c-8.2 0.3 -11.3 0 -10.8 -0.8 0.8 -1.2 -1.7 -0.9 -2.6 0.4 -0.4 0.4 -1 0.3 -1.3 -0.3z"/>
   <path d="M854.6 645.3 c-0.3 -0.3 -0.6 -1.4 -0.6 -2.4 0 -1.3 1.1 -1.8 4.8 -2.2 2.6 -0.3 6.2 -0.9 8 -1.2 2.1 -0.5 3.8 -0.3 4.8 0.6 1.3 1.1 0.9 1.4 -3.3 2.6 -2.6 0.7 -6.3 1.5 -8.1 1.7 -1.8 0.3 -3.6 0.7 -4.1 1 -0.4 0.3 -1.1 0.3 -1.5 -0.1z"/>
   <path d="M782 644.1 c0 -1.5 1.6 -2.2 3.4 -1.5 2.5 0.9 1.9 2.4 -0.9 2.4 -1.4 0 -2.5 -0.4 -2.5 -0.9z"/>
   <path d="M969.5 642 c-0.9 -1.4 4 -3.4 6.2 -2.6 1.5 0.6 1.6 0.9 0.3 1.5 -3 1.7 -5.8 2.2 -6.5 1.1z"/>
   <path d="M875.7 641.3 c-1.4 -1.3 -0.6 -2.3 1.7 -2.3 3.8 0 8.6 1.2 8.6 2.1 0 1 -9.3 1.2 -10.3 0.2z"/>
   <path d="M798 639.5 c-6.9 -2.5 -4.7 -3.5 7.2 -3.4 12.3 0.1 22.2 1.2 19.8 2.2 -6.2 2.6 -21.2 3.3 -27 1.2z"/>
   <path d="M888.4 639.9 c-1.1 -1.9 1.3 -3.4 3.1 -1.9 1.3 1.1 1.3 1.5 0.3 2.1 -1.8 1.2 -2.6 1.1 -3.4 -0.2z"/>
   <path d="M940.3 640.4 c-2.5 -1.1 -1.2 -2.4 2.3 -2.4 2.4 0 3.4 0.4 3.2 1.3 -0.5 1.3 -3.5 1.9 -5.5 1.1z"/>
   <path d="M921.1 639.2 c-0.6 -0.2 -1.1 -0.8 -1.1 -1.3 0 -1.3 9.2 -0.7 9.7 0.6 0.3 1 -6.2 1.5 -8.6 0.7z"/>
   <path d="M859.5 638 c-1.1 -0.4 -4.6 -0.6 -7.7 -0.3 -3.8 0.4 -6.3 0.2 -7.2 -0.6 -0.9 -0.7 -4 -1.2 -7.3 -1.1 -7.7 0.2 -8.3 0.2 -8.3 -0.9 0 -0.5 2.6 -1.2 5.8 -1.5 6.3 -0.7 14.9 -3.1 20 -5.8 2.7 -1.3 3.9 -1.4 5.8 -0.6 2.8 1.3 3.1 2.3 0.9 3.2 -1.9 0.7 -2 2.6 -0.1 2.6 0.7 0 2.5 0.6 3.8 1.3 l2.5 1.3 -2.3 1.7 c-2.5 1.9 -3 1.9 -5.9 0.7z"/>
   <path d="M966.1 637 c-1.9 -1.6 -2 -2.1 -0.8 -2.6 0.8 -0.3 3.2 -0.1 5.3 0.5 4.3 1.2 6.3 0.4 9.2 -3.6 1.7 -2.3 2.3 -2.6 3.3 -1.5 0.7 0.6 2.3 1.2 3.6 1.2 2.8 0 5.1 3.6 3.3 5.4 -0.6 0.6 -4.6 1.1 -9.3 1.2 -4.5 0 -9.1 0.3 -10.2 0.7 -1.3 0.5 -2.8 0 -4.4 -1.3z"/>
   <path d="M694.5 637 c-0.8 -1.3 5.4 -3.7 8.2 -3.2 2.6 0.5 2.1 2.2 -0.7 2.2 -1 0 -2.2 0.5 -2.5 1 -0.8 1.3 -4.2 1.3 -5 0z"/>
   <path d="M999 637 c-0.8 -0.5 -1.2 -1.2 -0.8 -1.5 0.8 -0.8 5.8 0.5 5.8 1.6 0 1.2 -3.1 1.1 -5 -0.1z"/>
   <path d="M945.7 636.3 c-2 -0.3 -2.7 -0.9 -2.3 -1.9 0.4 -1.1 -0.2 -1.3 -3.4 -0.8 -3.2 0.5 -4 0.4 -4 -0.9 0 -2.5 -1.7 -2.9 -4.7 -1.3 l-2.8 1.5 3.3 0.1 c4.3 0 3.8 2.4 -0.6 2.8 -2.3 0.2 -3.2 -0.1 -3.2 -1.1 0 -0.8 -3 -2.9 -6.6 -4.7 -3.6 -1.7 -6.3 -3.4 -6.1 -3.6 0.2 -0.3 4.9 -0.7 10.3 -0.9 6.9 -0.2 10.6 0 12.4 1 1.4 0.7 5.5 1.4 9.1 1.5 9.5 0.2 9.7 0.2 7.5 -1.5 -2.3 -1.8 -0.9 -3.9 3.2 -4.9 7.6 -1.9 19.8 -3.3 21.6 -2.7 1.2 0.5 4.1 0.6 6.5 0.4 4.2 -0.3 8.1 1.5 8.1 3.7 0 1.5 -7.2 1.6 -8.7 0.2 -1.8 -1.9 -3 -0.7 -1.3 1.4 1.2 1.3 1.1 1.7 -0.1 2.5 -1.8 1.1 -3.6 1.1 -4.4 0 -0.3 -0.5 0.3 -1.1 1.2 -1.4 1 -0.2 -0.9 -0.3 -4.2 -0.1 -3.3 0.2 -7.5 0.8 -9.4 1.3 -1.9 0.6 -3.8 0.8 -4.3 0.5 -0.8 -0.5 -4.1 0.7 -6.7 2.3 -0.6 0.3 2.2 2.9 4.7 4.2 1.2 0.7 2 1.6 1.7 2.2 -0.8 1.2 -7.2 1.2 -8 -0.1 -0.4 -0.7 -1.2 -0.7 -2.5 0 -1 0.5 -2.2 0.9 -2.7 0.9 -0.4 -0.1 -2.1 -0.4 -3.6 -0.6z"/>
   <path d="M753.5 635 c2.8 -1.2 5.5 -1.2 5.5 0 0 0.6 -1.7 1 -3.7 0.9 -3.1 0 -3.4 -0.2 -1.8 -0.9z"/>
   <path d="M713 632 c0 -0.6 0.8 -1 1.8 -1 0.9 0 2.8 -0.3 4.2 -0.6 1.7 -0.5 2.2 -0.3 1.5 0.3 -1.4 1.5 -7.5 2.5 -7.5 1.3z"/>
   <path d="M874.2 630.3 c-1.3 -0.3 -3.8 -1.4 -5.6 -2.6 -1.9 -1.2 -4.2 -2.7 -5.2 -3.3 -2.2 -1.4 -1.2 -2.8 2.6 -3.8 2.3 -0.6 2.3 -0.6 0.8 0.7 -1.6 1.2 -1.2 1.4 3.2 1.3 3.3 -0.1 5 -0.5 5 -1.3 0 -0.9 1.5 -1.3 4.3 -1.3 2.4 0 4.8 -0.5 5.3 -1 0.7 -0.7 1.8 -0.2 3.4 1.5 1.3 1.4 2.9 2.5 3.6 2.5 0.7 0 1.7 0.7 2.2 1.6 0.7 1.2 1.9 1.5 4.1 1.2 4.1 -0.6 3.5 1.3 -0.9 2.8 -2.1 0.7 -4.9 0.8 -7.7 0.3 -3.2 -0.6 -5.4 -0.5 -8 0.6 -1.9 0.8 -3.8 1.4 -4.2 1.4 -0.3 -0.1 -1.6 -0.4 -2.9 -0.6z"/>
   <path d="M737.8 629.3 c-1 -0.2 -1.8 -0.9 -1.8 -1.4 0 -1.5 4.3 -0.7 4.8 0.9 0.4 1.2 0 1.3 -3 0.5z"/>
   <path d="M759 629.1 c0 -0.5 1.4 -1.1 3.1 -1.5 3.9 -0.7 6.4 0.5 2.9 1.5 -3.6 1 -6 1 -6 0z"/>
   <path d="M836.6 629.1 c-0.4 -0.5 -0.4 -1.6 0 -2.4 0.3 -0.8 -0.2 -1.7 -1 -2 -0.9 -0.4 -1.3 -1.3 -1 -2.2 0.3 -0.8 0.2 -1.5 -0.4 -1.5 -0.6 0 -1.2 0.5 -1.4 1.2 -0.3 0.7 -3.4 1.2 -8.3 1.3 -6.8 0.1 -8.2 -0.2 -9.6 -1.8 -1.2 -1.6 -3 -2 -8.3 -2.2 -3.7 -0.1 -6.9 -0.5 -7.2 -0.8 -0.3 -0.3 1.1 -1 3.1 -1.7 4.8 -1.6 14.7 -0.4 18 2.2 1.4 1.1 2.5 1.5 2.5 0.9 0 -0.6 1.1 -0.6 3 -0.1 3.3 0.9 7.3 0.2 6.4 -1.2 -0.3 -0.5 0 -1.5 0.6 -2.3 1 -1.2 0.6 -1.3 -2.3 -0.8 -1.9 0.3 -4.3 0.1 -5.2 -0.5 -1.7 -0.9 -1.7 -1 0.4 -2.1 3.1 -1.7 7.7 -0.5 10.1 2.7 1.7 2.1 3 2.6 6.8 2.8 5.1 0.1 8.2 1.1 8.2 2.5 0 1.3 -4.7 1.1 -5.5 -0.1 -0.5 -0.8 -1.1 -0.7 -2.1 0.1 -1.9 1.6 -0.8 3 1.9 2.4 5 -1.2 13.8 -1.3 13.4 -0.1 -0.7 2.2 -14.7 8 -14.7 6.1 0 -0.2 1.5 -0.9 3.3 -1.5 3 -0.9 2.9 -0.9 -1.3 -0.4 -2.5 0.3 -4.6 0.9 -4.8 1.4 -0.5 1.3 -3.9 1.3 -4.6 0.1z"/>
   <path d="M1014 629 c0 -0.5 1.2 -1 2.6 -1 1.4 0 2.3 0.4 1.9 1 -0.3 0.6 -1.5 1 -2.6 1 -1 0 -1.9 -0.4 -1.9 -1z"/>
   <path d="M995.7 628.1 c-5.8 -0.9 -4.4 -2.6 2.4 -2.9 5.6 -0.3 8.9 0.8 8.9 2.8 0 0.9 -5.8 0.9 -11.3 0.1z"/>
   <path d="M644.1 627.1 c-0.9 -0.6 -1 -1.1 -0.2 -1.5 1.3 -0.8 3.1 0.1 3.1 1.5 0 1.1 -1.1 1.1 -2.9 0z"/>
   <path d="M791.8 627.3 c-2.7 -0.2 -4.8 -0.8 -4.8 -1.4 0 -1.3 3 -1.4 9.8 -0.3 1.8 0.3 3 0.9 2.7 1.5 -0.4 0.5 -1.2 0.8 -1.8 0.7 -0.7 -0.1 -3.3 -0.3 -5.9 -0.5z"/>
   <path d="M809.5 627.1 c-0.7 -1.2 1.2 -2.4 2.5 -1.6 1.1 0.7 0.4 2.5 -1 2.5 -0.5 0 -1.1 -0.4 -1.5 -0.9z"/>
   <path d="M944.5 626 c-0.4 -0.7 -0.3 -1.6 0.3 -2.2 1.4 -1.4 4.5 -0.2 4 1.5 -0.6 1.6 -3.4 2.1 -4.3 0.7z"/>
   <path d="M747.5 624.7 c-4.9 -1.7 -2.3 -2.4 7.3 -2.2 10.7 0.2 14.5 -0.2 13.6 -1.6 -0.3 -0.6 -3.5 -0.7 -7.2 -0.3 -9.7 0.9 -27.2 -0.4 -26.6 -2.1 0.6 -1.4 -7.9 -3.1 -13.3 -2.7 -3.1 0.3 -3.8 -0.4 -3.4 -3 0 -0.5 -2.5 -0.9 -5.6 -0.9 -3.2 -0.1 -5 -0.3 -4 -0.6 2.6 -0.7 2.1 -2.3 -0.8 -2.3 -1.3 0 -3.6 -0.6 -5.1 -1.2 -2.2 -1 -2.8 -1 -3.2 0 -0.5 1.7 -3.7 1.5 -5.2 -0.3 -0.9 -1.1 -1.6 -1.2 -3.1 -0.2 -1.5 0.9 -2.1 0.9 -2.7 0 -0.4 -0.6 -2.4 -1.4 -4.5 -1.8 -5.1 -1 -4.7 -2.5 0.8 -2.5 2.5 0 4.5 -0.4 4.5 -1 0 -0.5 1.1 -1 2.5 -1 1.4 0 2.5 -0.5 2.5 -1 0 -0.6 1.1 -0.8 2.5 -0.4 1.5 0.4 2.5 0.2 2.5 -0.5 0 -0.6 0.8 -1.1 1.9 -1.1 1 0 3.2 -1.3 4.9 -3 1.8 -1.6 4 -3.1 4.9 -3.1 1 -0.1 2.9 -0.4 4.3 -0.6 1.4 -0.3 3.7 -0.5 5.2 -0.5 1.5 -0.1 2.5 -0.5 2.2 -0.9 -0.6 -1 2.1 -1.2 11.7 -0.9 l6.6 0.2 0.7 -7.5 c0.4 -4.1 1.2 -9.2 1.7 -11.3 0.5 -2.1 1.4 -14.9 1.9 -28.4 1.5 -35 3 -39 14.3 -39 l6.2 0 -4.5 -2.3 c-5.3 -2.6 -6.1 -5.1 -2.8 -9.2 l2.3 -3 0.6 4 c0.6 3.7 0.6 3.5 0.8 -1.8 0.1 -5.7 2.9 -14.4 3.8 -11.9 1.2 3 2.3 0.7 2.3 -4.7 0 -7.7 1.4 -11.4 3.8 -10.7 1.1 0.4 2.5 -0.1 3.4 -1.1 2 -2.4 0.6 -7.9 -2.2 -8.8 -2.6 -0.8 -2.5 -1.8 0.3 -3 1.2 -0.6 2.9 -2.5 3.9 -4.3 2.8 -5.7 4.8 -7.4 8.1 -6.6 2.1 0.4 4.4 -0.2 8.8 -2.6 6.5 -3.5 8.3 -3.4 10.1 0.5 1.6 3.5 3.9 3.1 7 -1.4 1.8 -2.6 3.7 -4.1 5.8 -4.6 1.8 -0.4 5.2 -1.6 7.6 -2.7 3.9 -1.7 4.3 -2.1 3.4 -3.9 -0.6 -1 -1.6 -1.9 -2.2 -1.9 -0.9 0 -0.9 -0.3 -0.1 -1.1 0.7 -0.7 3.5 -1.6 6.4 -2 2.9 -0.5 5.7 -1.3 6.3 -1.9 0.8 -0.8 0.4 -1 -1.6 -0.5 -3.9 1 -3.5 -0.8 0.7 -4.1 1.9 -1.4 3.5 -3.2 3.5 -3.8 0 -0.6 0.9 -1.8 2.1 -2.6 2.5 -1.8 4.9 -6.1 4.9 -8.9 0 -1.1 1.1 -2.8 2.4 -3.6 1.3 -0.9 2.7 -2.3 3 -3.1 0.4 -1.1 0.1 -1.1 -2 0.2 -3.9 2.6 -3.9 0.9 0.1 -2.3 2.2 -1.7 5.1 -5.8 7.6 -10.8 2.2 -4.4 4.9 -8.9 5.9 -10 1 -1.1 3.2 -4.8 5 -8.1 2.9 -5.5 10.4 -14.4 11.3 -13.3 0.8 1 4.7 25.1 4.7 28.9 0 4 0.1 4.2 2.5 3.6 1.7 -0.4 2.5 -0.2 2.5 0.7 0 0.7 -2 1.8 -4.5 2.5 -4.3 1.1 -6.2 3.2 -2.9 3.2 0.8 0 1.2 0.5 0.9 1 -0.3 0.6 -1.5 1 -2.5 1 -2.9 0 -4.3 3.3 -2.8 6.5 0.9 2 0.9 3.1 0 4.5 -0.8 1.4 -0.8 1.9 0.2 2.3 0.7 0.3 1.6 2.4 2 4.7 0.6 3.7 0.9 4.1 2.9 3.4 1.8 -0.5 2 -0.4 1 0.7 -2 2 -1.5 5.3 1.2 8.5 1.4 1.6 2 3.1 1.4 3.4 -0.6 0.4 -0.4 1.7 0.6 3.6 0.8 1.6 1.5 3.4 1.5 4.1 0 0.6 1.6 4.8 3.5 9.4 2.6 6.2 3.2 8.6 2.4 10 -1.9 3.6 2.2 7.9 7.5 7.9 1.4 0 2.6 0.5 2.6 1 0 2.5 -3.2 7 -4.9 7 -1.1 0 -3.9 1.1 -6.2 2.5 -2.5 1.4 -3.6 2.5 -2.6 2.5 1.2 0 1.7 0.8 1.7 2.6 0 1.4 0.4 3.4 1 4.4 1.3 2.4 7 4.2 11.7 3.8 3.1 -0.2 3.8 0.1 4.1 1.7 0.2 1.1 1.4 2.9 2.7 4 2.9 2.4 2.5 6 -0.8 6.9 -2.9 0.7 -3.9 -0.2 -3.3 -3.3 0.5 -2.2 0.3 -2.1 -1.4 0.9 -1.9 3.5 -2.7 9.5 -1.2 10.4 0.7 0.4 14 -0.9 19.2 -1.9 2.4 -0.5 2.4 -0.5 0.5 1 -1.1 0.9 -3.7 2.1 -5.7 2.7 -2.7 0.8 -3.8 1.7 -3.8 3.1 0 1.7 0.5 1.8 6 1.2 6.3 -0.7 7.9 0.4 4.4 3 -1.6 1.1 -1.5 1.4 0.4 4.1 1.1 1.6 3.5 7.3 5.3 12.7 l3.3 9.8 -2.3 5.2 c-1.3 2.9 -2.9 6.8 -3.7 8.7 l-1.5 3.5 2 -2.5 c1.1 -1.4 2.8 -4.5 3.6 -7 0.9 -2.5 2.1 -5.5 2.8 -6.8 1.1 -1.9 1.2 -1.3 0.9 4.5 -0.3 3.8 -0.8 7 -1.3 7.1 -1.2 0.5 -1.2 5.2 0 5.2 0.5 0 1.2 3.9 1.6 8.8 0.4 4.8 1.3 10.1 2.1 11.7 0.8 1.7 1.1 2.1 0.8 1 -0.4 -1.1 -0.9 -4.8 -1.2 -8.2 -0.3 -5.2 0.1 -7.9 2.9 -16.3 1.8 -5.5 3.7 -10 4.2 -10 0.6 0 0.7 3.3 0.4 8.3 -0.8 10.3 0.7 13.7 2 4.6 1 -6.3 1 -6.4 2.2 -3.4 1.2 2.9 1.1 8.4 -0.5 17.8 -0.5 2.8 -0.3 3.7 0.8 3.7 0.8 0 3.4 3 5.8 6.6 2.4 3.6 5 6.8 5.7 7 5 1.5 4.9 1.5 3 2.5 -0.9 0.6 -2.1 0.8 -2.6 0.5 -0.5 -0.3 -1.5 0.1 -2.2 1 -0.9 1.1 -2.2 1.4 -4.3 1 l-3.1 -0.6 2.8 2.1 c2.7 2.1 3.7 4.9 1.5 4.9 -0.6 0 -0.9 0.2 -0.7 0.4 0.2 0.3 3.1 -0.4 6.3 -1.5 3.3 -1 7.1 -1.9 8.5 -1.9 1.9 0 2.2 -0.3 1.3 -1.2 -1.8 -1.8 -1.5 -2.6 1.4 -4.1 3.1 -1.6 7.8 -0.2 6.9 2.1 -0.3 0.8 0.2 2 0.9 2.8 1.3 1.2 1.6 1.2 2.4 -0.2 0.7 -1.2 1.7 -1.5 3.6 -1 3.3 0.8 3.4 2.6 0.1 2.6 -1.4 0 -2.5 0.4 -2.5 0.9 0 0.5 1.1 1.2 2.5 1.5 1.4 0.4 2.5 1.3 2.5 2.1 0 0.9 -1 1.5 -2.5 1.5 -3 0 -3.2 1.1 -0.6 2.7 1.5 1 2 0.9 2.4 -0.1 0.3 -0.7 1.6 -1.2 2.9 -1.1 1.7 0.1 2.2 0.7 2 2.3 -0.4 2.5 1.3 3 2.2 0.6 0.3 -0.8 1.4 -1.4 2.3 -1.3 1 0.1 2.6 -0.2 3.7 -0.6 1.2 -0.5 3.6 -0.1 6.7 1.3 3.9 1.6 4.9 1.7 4.9 0.6 0 -1.7 3.3 -1.8 6.3 -0.3 l2.1 1.2 -2.4 0.9 -2.5 1 2.5 0.9 c3.4 1.4 3.4 1.5 1.2 4 -1.6 1.7 -2.7 2 -4.9 1.4 -2.7 -0.6 -2.8 -0.7 -0.8 -2.2 1.9 -1.4 1.7 -1.5 -2.7 -1 -4.2 0.4 -4.7 0.2 -5.7 -2 -0.9 -2 -1.6 -2.4 -3.4 -1.8 -1.2 0.4 -5.6 1.4 -9.7 2.2 -4.1 0.8 -8.6 2.2 -9.9 3 -3.3 2.1 -11.7 4.3 -16.6 4.3 -2.2 0 -5.7 0.5 -7.9 1.1 -3 0.8 -4.8 0.7 -8.8 -0.6 -5.9 -1.9 -8.4 -1.3 -11.8 2.6 -2.5 2.9 -2.6 3 -7.6 1.9 -5.1 -1.1 -9.4 -3.3 -8.4 -4.4 0.3 -0.3 2.2 -0.1 4.3 0.3 2.8 0.7 3.7 0.6 3.7 -0.4 0 -3.5 -7 -6.1 -9.6 -3.6 -0.5 0.6 -2.9 -1.2 -6.2 -5 -3.4 -3.8 -4.8 -5.9 -3.8 -5.9 0.9 0 1.6 -0.4 1.6 -1 0 -0.5 1.1 -1 2.5 -1 1.4 0 2.5 -0.2 2.5 -0.5 0 -0.3 -3.2 -6.5 -7.2 -13.8 -13.8 -25.3 -22.5 -44.5 -43.4 -95.2 -2.5 -6 -6.7 -15 -9.4 -20 -12.3 -23.1 -22.7 -41.7 -23.6 -41.8 -1.4 -0.3 -12.6 22 -18.4 36.4 -2.8 7 -7.7 20.3 -10.9 29.5 -3.2 9.3 -9.7 27.5 -14.4 40.4 -4.7 13 -9.1 26.7 -9.7 30.5 -1.1 6.7 -3.7 21.7 -4.5 26 -0.2 1.1 0.4 4.7 1.4 8 1.8 6 1.8 6 2.5 2.8 0.7 -3 1.1 -3.3 4.6 -3.3 2.3 0 4.7 0.8 6.1 2 l2.4 1.9 -2.5 0.2 c-1.8 0.1 -2 0.3 -0.7 0.6 1 0.3 2.4 0 3.1 -0.6 1.8 -1.5 4.8 -0.3 4.4 1.7 -0.2 0.8 -1.9 2.1 -3.8 2.7 l-3.5 1.2 3 0.6 c1.7 0.3 7.4 0.9 12.8 1.3 5.4 0.3 9.5 0.9 9.2 1.3 -0.8 0.7 -16.3 2.2 -25.2 2.4 -3.4 0.1 -6.4 0.5 -6.8 0.9 -0.4 0.4 -2 -0.2 -3.5 -1.3 -1.5 -1.1 -4.7 -2.2 -7.1 -2.4 -2.4 -0.3 -3.6 -0.2 -2.6 0.1 0.9 0.3 1.7 1.2 1.7 1.9 0 1 0.9 1.2 3.4 0.8 4.1 -0.7 5.9 1.4 1.9 2.3 -1.5 0.3 -4.1 1 -5.8 1.5 -2.6 0.7 -2.5 0.8 1 0.3 10.4 -1.3 16.9 -0.5 17.9 2.2 0.5 1.2 0.1 1.4 -1.5 0.9 -1.1 -0.4 -3.3 -0.2 -4.7 0.4 -3.3 1.2 -35.3 1.9 -38.7 0.8z m-2 -7.7 c1.3 -0.6 0.2 -0.7 -3 -0.3 -2.7 0.3 -5.2 0.7 -5.4 0.9 -0.9 0.8 6.5 0.2 8.4 -0.6z m-41.2 -14.6 c2 -0.4 4 -1.1 4.4 -1.7 0.4 -0.6 0 -0.8 -1.1 -0.4 -1 0.4 -3.2 0.7 -5 0.7 -1.8 0 -4.1 0.7 -5.2 1.6 -1.8 1.5 -1.8 1.5 0.6 1 1.4 -0.3 4.2 -0.9 6.3 -1.2z m20.7 -5.6 c0 -1 -0.9 -0.9 -3.5 0.2 -1.7 0.8 -1.6 0.8 0.8 0.7 1.5 -0.1 2.7 -0.5 2.7 -0.9z m223 -2.5 c-2.2 -4.3 -10.9 -14.3 -11 -12.7 0 1.8 7 12.8 9.3 14.6 3.4 2.7 3.9 2.1 1.7 -1.9z m-213 0.1 c0 -0.2 -1.6 -0.4 -3.5 -0.4 -1.9 0 -3.5 0.4 -3.5 0.8 0 0.4 1.6 0.6 3.5 0.4 1.9 -0.2 3.5 -0.6 3.5 -0.8z"/>
   <path d="M665.4 623.6 c-3.4 -1.2 -4 -3.2 -0.9 -2.9 3.7 0.5 10.6 2.6 10 3.1 -1 1 -6 0.9 -9.1 -0.2z"/>
   <path d="M704 624 c0 -0.5 0.6 -1 1.4 -1 0.8 0 1.8 0.5 2.1 1 0.3 0.6 -0.3 1 -1.4 1 -1.2 0 -2.1 -0.4 -2.1 -1z"/>
   <path d="M719.5 624 c-0.4 -0.7 -0.3 -1.6 0.3 -2.2 1.4 -1.4 4.7 -0.6 4.7 1.2 0 1.8 -4 2.6 -5 1z"/>
   <path d="M729.5 623.9 c-0.7 -1 3.6 -2.2 6.1 -1.7 0.9 0.1 1.9 0.8 2.1 1.3 0.4 1.2 -7.5 1.6 -8.2 0.4z"/>
   <path d="M681.3 623.3 c-1.5 -0.5 -1.7 -2.9 -0.4 -3.7 0.5 -0.4 2.1 -0.2 3.6 0.4 2.3 0.9 2.5 1.3 1.5 2.5 -1.3 1.5 -2.5 1.7 -4.7 0.8z"/>
   <path d="M894 623 c0 -0.5 2.2 -1 4.9 -1 3.6 0 5.1 -0.4 5.5 -1.6 0.6 -1.4 0 -1.6 -3.5 -1.1 -3.5 0.5 -4.8 0.1 -7.4 -1.9 -1.8 -1.3 -4.3 -2.4 -5.7 -2.4 -1.3 0 -2.7 -0.3 -3.1 -0.6 -1.1 -1.2 0.5 -3.4 2.6 -3.4 1.1 0 3.4 -1.1 5.1 -2.3 3.4 -2.6 10.2 -4.2 11.2 -2.6 0.3 0.6 1.7 0.8 2.9 0.5 1.3 -0.3 3.5 -0.2 5 0.4 2.1 0.8 2.5 1.4 2 3.1 -0.5 1.4 0 2.8 1.5 4.4 2.4 2.6 1.6 3.6 -2.9 3.7 -1.9 0.1 -2.8 0.6 -2.7 1.6 0.1 0.8 -1.4 2 -3.4 2.8 -4.2 1.5 -12 1.8 -12 0.4z m6.3 -7.6 c1.8 -0.6 1.1 -4 -0.9 -4.8 -1.3 -0.5 -3.4 2.1 -3.4 4.3 0 1.2 2 1.4 4.3 0.5z"/>
   <path d="M870.5 620 c0.3 -0.5 1.3 -1 2.1 -1 0.8 0 1.4 0.5 1.4 1 0 0.6 -0.9 1 -2.1 1 -1.1 0 -1.7 -0.4 -1.4 -1z"/>
   <path d="M700.5 617.9 c-1 -1.5 0.1 -2.3 2 -1.5 0.9 0.3 1.3 1 1 1.6 -0.8 1.3 -2.2 1.3 -3 -0.1z"/>
   <path d="M999.5 617 c-1.1 -0.5 -4.2 -0.9 -6.8 -0.9 -3.4 -0.1 -4.7 -0.5 -4.4 -1.3 0.2 -0.9 2.1 -1.2 5.3 -1.1 4.8 0.1 15.4 0.9 16.4 1.2 0.8 0.3 -6.1 3.1 -7.4 3 -0.6 0 -2 -0.4 -3.1 -0.9z"/>
   <path d="M872 616 c0 -0.5 0.7 -1 1.5 -1 0.8 0 1.5 0.5 1.5 1 0 0.6 -0.7 1 -1.5 1 -0.8 0 -1.5 -0.4 -1.5 -1z"/>
   <path d="M876.5 616.1 c-0.3 -0.5 -0.1 -1.2 0.5 -1.6 1.2 -0.7 3 0.2 3 1.6 0 1.2 -2.7 1.2 -3.5 0z"/>
   <path d="M708.5 614.9 c-1 -1.5 0.1 -2.3 2 -1.5 0.9 0.3 1.3 1 1 1.6 -0.8 1.3 -2.2 1.3 -3 -0.1z"/>
   <path d="M688 614 c0 -0.5 1.8 -1 4 -1 2.2 0 4 0.5 4 1 0 0.6 -1.8 1 -4 1 -2.2 0 -4 -0.4 -4 -1z"/>
   <path d="M678 613.2 c0 -1 4.1 -3.5 4.7 -2.8 0.9 0.8 -1.7 3.6 -3.3 3.6 -0.8 0 -1.4 -0.3 -1.4 -0.8z"/>
   <path d="M663 612.2 c0 -0.5 0.3 -1.2 0.8 -1.6 0.4 -0.4 0.7 -1.3 0.7 -1.9 0 -0.7 0.8 -1.3 1.8 -1.5 2.2 -0.5 2.4 4.3 0.1 5.2 -2.2 0.8 -3.4 0.8 -3.4 -0.2z"/>
   <path d="M1033.5 612.3 c-4.3 -1.1 -3.8 -2.3 1.1 -2.3 5.5 0 8.7 1.3 5.9 2.4 -1.8 0.7 -3.9 0.6 -7 -0.1z"/>
   <path d="M649 610 c0 -0.5 1.6 -1 3.6 -1 2.1 0 3.3 0.4 2.9 1 -0.3 0.6 -1.9 1 -3.6 1 -1.6 0 -2.9 -0.4 -2.9 -1z"/>
   <path d="M684.4 609.9 c-0.4 -0.7 -2.2 -0.9 -5 -0.4 -3.6 0.5 -4.4 0.3 -5.3 -1.4 -1.4 -2.6 0.2 -3.6 3.7 -2.3 1.5 0.5 4.6 1.5 7 2.1 2.3 0.7 4.2 1.6 4.2 2.1 0 1.4 -3.7 1.3 -4.6 -0.1z"/>
   <path d="M697.7 596.3 c-1.5 -1.4 -0.6 -2.3 2.3 -2.3 3.2 0 4 1.4 1.4 2.4 -2 0.8 -2.9 0.8 -3.7 -0.1z"/>
   <path d="M954.8 570.6 c-1 -0.7 -1.8 -2.3 -1.8 -3.6 0 -2.2 0 -2.2 2.1 0.4 2.4 3.1 2.2 5 -0.3 3.2z"/>
   <path d="M635 559.2 c0 -1.5 1.7 -13.3 3.1 -21.4 1.3 -7.8 7.2 -22.4 10.9 -26.9 1.6 -2.1 3 -4 3 -4.3 0 -0.3 -1.6 -0.2 -3.7 0.1 -2.6 0.4 -3.4 0.3 -2.9 -0.5 1 -1.7 1 -1.7 -11.5 3.9 -14.7 6.5 -14.4 6.3 -14.4 8.5 0 1.6 0.9 2 5.5 2.4 l5.5 0.5 -4.1 1.2 c-4 1.3 -15.1 9 -18.8 13.2 -1.1 1.1 -2.4 2.1 -3 2.1 -0.5 0 0.4 -1.5 2.1 -3.2 1.6 -1.8 5.5 -8.5 8.6 -14.8 3 -6.3 6.5 -13 7.7 -14.7 l2.2 -3.3 -8.9 0.3 c-4.8 0.2 -12.6 1.1 -17.2 2.1 -4.6 0.9 -8.4 1.6 -8.6 1.4 -0.2 -0.2 2.7 -2.9 6.3 -6.1 4.1 -3.6 10 -7.4 15.2 -9.9 4.7 -2.1 9.4 -4.4 10.5 -5.1 10.5 -5.9 13.5 -6.8 10.5 -3.2 -1 1.2 -1 1.5 0.4 1.5 0.9 0 1.6 0.6 1.6 1.4 0 2.7 5.2 2.5 11.5 -0.5 3.3 -1.6 5.1 -2.7 4 -2.3 -4.8 1.3 -7.8 1.7 -7.2 0.7 0.3 -0.5 3.9 -2 7.9 -3.2 4 -1.2 10 -3.2 13.3 -4.4 3.3 -1.1 7.7 -2.1 9.8 -2.1 2 0 3.7 -0.1 3.7 -0.2 0 -0.1 -0.7 -2.1 -1.5 -4.4 -0.8 -2.3 -1.3 -4.6 -1 -5 0.3 -0.5 2.8 -1.6 5.6 -2.5 3 -1 4.6 -2 4 -2.5 -1.3 -0.7 -0.2 -4.2 2.1 -7 1.4 -1.7 8.2 -4 11.6 -4 2.7 0 3.8 3.8 2.3 8 -0.9 2.7 -0.8 3.1 0.7 2.6 4.9 -1.4 10.1 -1.6 12.7 -0.5 7.4 2.9 9.8 2.9 13.7 0.4 2.1 -1.4 4.2 -2.5 4.7 -2.5 0.6 0 2.6 -1.4 4.6 -3.1 2 -1.8 3.8 -2.9 4.1 -2.6 0.6 0.6 -7.6 10.7 -9.6 11.8 -8.4 4.2 -12.6 6 -16.7 7 -6.3 1.6 -10 3.5 -14.4 7.4 -2 1.8 -5.2 3.8 -7.2 4.4 -1.9 0.7 -3.8 1.8 -4.1 2.6 -0.3 0.8 -1.6 1.5 -3 1.5 -1.8 0 -3.1 1.1 -5.1 4.8 -1.5 2.6 -3.8 6.1 -5.1 7.8 l-2.3 3.1 4.6 0.7 c2.5 0.3 6.1 0.6 7.9 0.6 1.9 0 3.4 0.5 3.4 1.1 0 1.2 -10.9 0.7 -15.7 -0.7 -1.8 -0.5 -2.4 0 -3.7 3 -0.8 2 -4.3 7.2 -7.7 11.8 -6.1 7.9 -14.9 21.7 -23.6 36.8 -2.3 4.1 -4.3 6.9 -4.3 6.2z m-8.5 -60.3 c1.3 -0.6 0.5 -0.6 -2 -0.3 -2.2 0.4 -4.7 1 -5.5 1.5 -1.8 1 4.6 0 7.5 -1.2z m48.8 -21.2 c-1.7 -3 -2.1 -3.3 -3.6 -2.2 -1.6 1.1 -1.4 1.5 1.5 3.8 1.8 1.4 3.4 2.4 3.6 2.2 0.2 -0.2 -0.5 -1.9 -1.5 -3.8z"/>
   <path d="M491 515.4 c0 -0.5 7.8 -8.8 17.3 -18.4 9.4 -9.7 21.5 -22.3 26.8 -28.1 6.1 -6.6 15.3 -14.9 25.3 -22.7 l15.7 -12.2 2.9 2.2 c1.6 1.3 2.9 2.5 2.9 2.8 0 0.3 -2.9 1.8 -6.4 3.4 -3.5 1.6 -8.3 4.5 -10.6 6.4 -7.5 6.4 -37.1 41.2 -35.1 41.2 0.5 0 4.8 -1.3 9.7 -3 4.9 -1.6 9 -2.8 9.2 -2.6 0.9 0.8 -1.1 3.4 -5.2 6.6 -4.8 3.8 -13.9 7.9 -27.5 12.6 -7.8 2.6 -15.4 6.3 -22.2 10.8 -1.6 1 -2.8 1.5 -2.8 1z"/>
   <path d="M694 501.5 c0 -1.1 1.2 -1.5 4.8 -1.5 2.6 0 6 -0.7 7.6 -1.5 1.5 -0.8 3.4 -1.5 4.1 -1.5 0.7 0 3.6 -1.6 6.4 -3.5 4.8 -3.3 8.9 -4.7 7.6 -2.5 -1.3 2.1 -11.6 8.1 -17.1 10 -7.3 2.4 -13.4 2.6 -13.4 0.5z"/>
   <path d="M919 490.5 c0 -0.9 0.9 -1.5 2.5 -1.5 2.8 0 3.4 1.5 0.9 2.4 -2.5 1 -3.4 0.7 -3.4 -0.9z"/>
   <path d="M653.2 471.7 c1 -0.8 1.5 -1.7 1.1 -2 -0.6 -0.7 -14.9 -0.1 -20.5 0.8 -1.8 0.3 -2.8 0 -2.8 -0.8 0 -0.6 -2.3 -2.5 -5.1 -4.1 -2.8 -1.5 -7.4 -5 -10.2 -7.7 -2.8 -2.7 -5.8 -4.9 -6.7 -4.9 -3.1 0 1.3 -1.8 7.7 -3.1 l6.3 -1.3 -13.2 -5.6 c-16.2 -6.9 -17.6 -7.6 -21 -10.7 -1.4 -1.4 -3.1 -2.2 -3.7 -1.9 -1.5 1 -1.4 4.6 0.2 4.6 0.7 0 3 2 5.1 4.5 2 2.5 4.2 4.3 4.7 4 0.5 -0.4 0.9 -0.2 0.9 0.4 0 0.5 -0.5 1.3 -1 1.6 -1.4 0.9 -9.8 -6.1 -11.2 -9.1 -0.6 -1.3 -1.9 -2.4 -3 -2.4 -2.9 0 -2.1 -1.8 2 -4.4 l3.7 -2.4 3 3.3 c3.9 4.3 6.2 4.8 23.6 4.5 12.1 -0.1 14.8 0.1 15.8 1.4 0.8 0.9 1.9 1.6 2.5 1.6 1.8 0 18.5 8.9 25.5 13.6 3.6 2.4 7.7 4.4 9.1 4.4 4.4 0 5.9 1.9 6.1 8.3 0.2 3.4 -0.2 6.2 -0.9 6.9 -0.7 0.7 -5.2 1.3 -10.4 1.5 -8.1 0.4 -9.1 0.2 -7.6 -1z m-19.7 -8.3 c-1.7 -1.3 -1.8 -1.6 -0.5 -2.4 1.3 -0.8 1.3 -0.9 0 -1.3 -6.7 -2 -13.8 -4 -15 -4.5 -3.7 -1.2 3.1 4 9.4 7.3 6.6 3.4 10.3 4 6.1 0.9z"/>
   <path d="M674 461.4 c0 -1 4.1 -6.4 4.9 -6.4 1.9 0 0.2 4.4 -2.2 5.7 -1.5 0.7 -2.7 1.1 -2.7 0.7z"/>
   <path d="M933 461.1 c-0.8 -0.5 -3.1 -1.1 -5.1 -1.5 -2 -0.3 -4.6 -1.8 -5.9 -3.1 -2.7 -2.8 -2.9 -5.4 -1.5 -17.2 l0.8 -7.1 -4.2 -2.9 c-2.2 -1.5 -4.4 -3.8 -4.7 -5 -0.3 -1.2 0.4 -4.9 1.7 -8.2 1.6 -4.5 2 -7.4 1.6 -10.9 -0.7 -5.9 -15.9 -41.8 -17.5 -41.5 -0.7 0.2 -1.2 -1.1 -1.2 -3.1 0 -1.9 -1.3 -7.5 -3 -12.4 -1.6 -5 -3 -9.9 -3 -11 0 -1.4 -1 -2.4 -3.2 -3.1 -3.6 -1.3 -3.4 -1.3 -4.7 1.9 -0.9 2.4 -1 2.4 -1 -0.8 -0.1 -3.9 -1.7 -3.4 -2.6 0.8 -0.3 1.6 -2.4 4.8 -4.6 7.2 -4.3 4.8 -4.6 4.7 -2.3 -0.7 2.2 -5.4 1.1 -5.3 -2.5 0.2 -4.7 7.2 -6.4 8.9 -9.4 9.5 -3.8 0.7 -3.4 -0.9 1.6 -6 4 -4.2 4 -4.3 1.1 -2.9 -1.7 0.9 -5.4 3.4 -8.2 5.6 -5.5 4.4 -8.8 5.5 -5.6 2 l1.8 -2 -5.4 2 c-3 1.2 -6.3 2.6 -7.2 3.1 -1 0.6 -2.2 1 -2.8 1 -1.6 0 -1.2 -3.6 0.5 -5 0.9 -0.7 1.3 -1.5 1 -1.8 -0.3 -0.3 0.2 -1.4 1.2 -2.4 1.4 -1.6 1.4 -1.8 0 -1.8 -0.9 0 -2.8 0.5 -4.2 1 -2.4 0.9 -2.6 0.8 -1.9 -1.2 0.4 -1.3 1 -6.5 1.3 -11.6 0.5 -7.9 0.4 -9.5 -1 -10.8 -2.6 -2.3 -3.1 -6.9 -1.1 -10.4 1.4 -2.5 2.3 -3 5.5 -3 2.6 0 3.7 0.4 3.7 1.5 0 0.8 1.2 1.8 2.6 2.1 1.4 0.4 2.9 1.7 3.4 3 0.7 1.8 1.6 2.2 4.4 2.1 4 -0.2 4.4 -0.8 2 -2.8 -0.8 -0.7 -2.6 -3.4 -3.9 -5.9 -1.3 -2.5 -4.8 -6.7 -7.8 -9.3 -6 -5.1 -6.7 -5.4 -6.7 -3.2 0 0.8 -0.9 1.5 -2.1 1.5 -1.7 0 -1.9 -0.4 -1.3 -2.2 1.9 -6.3 5.5 -12.8 7.8 -14.3 1.4 -1 2.6 -2.3 2.6 -3 0 -1.4 2.2 -2.5 5 -2.5 1.2 0 1.8 0.8 1.8 2.5 0 4.8 1.6 5.5 7.5 3.4 2.9 -1 5.7 -2.6 6.4 -3.5 1.6 -2.2 5.8 -1.1 9.4 2.6 4.2 4.1 3.6 2.8 -1.6 -3.6 -2.5 -3 -4.5 -5.9 -4.5 -6.4 0 -0.6 2.1 -1 4.8 -1 3.4 0 4.3 -0.3 3.2 -1 -1.2 -0.8 -1.1 -1 0.8 -1 1.3 0 2.2 -0.6 2.1 -1.2 -0.3 -2.9 0.2 -5.8 1 -5.8 1.2 0 3.9 4.2 4.7 7.6 0.7 2.7 0.6 2.7 -3.2 2.1 -2.1 -0.4 -3.4 -0.3 -2.7 0.1 1.7 1.1 3.4 6.2 2.8 8.3 -0.5 1.4 0.1 1.9 3.2 2.4 2.1 0.4 4.7 0.9 5.7 1.2 1.7 0.5 1.6 0.1 -0.7 -2.8 -1.5 -1.9 -3.4 -4.2 -4.3 -5.1 -1.6 -1.6 -1.4 -1.7 2.2 -1.2 2.1 0.3 5.1 0.6 6.6 0.6 1.9 0.1 2.8 0.7 3.2 2.3 0.3 1.2 1.9 2.8 3.5 3.5 3.6 1.5 8.1 6 6 6.1 -1.3 0 2.5 1.7 7.5 3.3 1.5 0.5 1.6 0.9 0.6 2.1 -0.9 1 -0.9 1.5 -0.1 1.5 1.1 0 4.5 7 3.7 7.7 -0.7 0.7 -27.1 -7.8 -27.4 -8.8 -0.2 -0.5 -0.8 -0.7 -1.3 -0.4 -0.5 0.3 -5.4 -1.7 -11.1 -4.5 -5.6 -2.8 -10.6 -4.9 -11.2 -4.7 -1.3 0.4 7.2 6.7 9.1 6.7 0.7 0 1.3 0.5 1.3 1 0 0.6 -1.7 1 -3.7 1 l-3.8 0.1 2.5 1.4 c1.4 0.8 4.8 2.2 7.5 3.1 2.8 0.9 13.6 4.7 24.1 8.5 10.5 3.7 22.5 7.5 26.7 8.3 4.1 0.9 10.2 2.3 13.4 3.1 3.2 0.9 11.4 1.9 18.3 2.2 6.9 0.3 12.8 1 13.1 1.5 0.3 0.5 4.4 0.7 9 0.5 5.8 -0.2 7.7 -0.6 6.2 -1.1 -3.2 -1.2 -2.9 -2.2 0.8 -3 5 -1 6.2 -0.8 5.5 1 -0.6 1.5 0.4 1.6 8.4 1.2 7.4 -0.3 9.2 -0.8 10.4 -2.3 1.1 -1.6 1.8 -1.7 3.8 -0.8 1.5 0.7 4.1 0.8 7.3 0.2 6.2 -1 16.2 -4.5 14.5 -5.1 -0.7 -0.2 1.7 -2.3 5.4 -4.7 3.7 -2.4 7.7 -5.7 9 -7.4 3.1 -3.9 5.6 -3.1 5.6 1.7 0 1.9 0.3 4.1 0.6 5 0.9 2.3 -8.8 10.6 -12.4 10.6 -1.1 0 -3.4 1.1 -5 2.5 -1.6 1.4 -6.1 3.8 -9.8 5.3 -8.1 3.3 -20.5 11.3 -23.5 15 -1.1 1.5 -3.7 5.6 -5.8 9.2 -4 6.9 -8.5 10.2 -12.3 9.2 -1.1 -0.3 -3.9 -2.5 -6.2 -5 -10.9 -12 -11.4 -12.2 -37.1 -12.2 l-18.7 0 0.6 8.8 c1.9 28.8 2.9 39.6 4.1 46.7 0.8 4.4 1.5 9.7 1.5 11.7 0 2.1 1.3 6.6 2.9 10.2 1.7 3.5 3.7 9.9 4.6 14.2 1.9 9.6 5.2 19.1 7.7 22.3 2.4 3.1 2.3 6.8 -0.1 8.1 -1.1 0.5 -4.5 0.8 -7.6 0.6 -3 -0.2 -5.8 0 -6.1 0.5 -0.6 1.1 -2.4 1.1 -4.4 0z"/>
   <path d="M745 452.2 c0 -0.5 1.1 -1.4 2.5 -2 2.9 -1.4 3.4 0.2 0.6 1.8 -2.4 1.2 -3.1 1.3 -3.1 0.2z"/>
   <path d="M698 443.5 c2.9 -3.1 3.5 -3.1 3.6 0 0.2 2.2 -0.2 2.5 -2.9 2.5 l-3 0 2.3 -2.5z"/>
   <path d="M760.4 441.1 c1 -1.6 8.5 -5.3 9.9 -4.8 0.7 0.2 -1 1.4 -3.8 2.7 -2.7 1.3 -5.4 2.6 -5.9 2.8 -0.5 0.3 -0.6 0 -0.2 -0.7z"/>
   <path d="M614.6 425.8 c1.6 -8.2 7.4 -14.3 15.8 -16.4 4.4 -1.1 2.5 1 -4.4 4.8 -3.3 1.8 -5.9 3.7 -5.7 4.3 0.2 0.5 -0.7 2.3 -1.9 3.8 -1.3 1.6 -2.4 3.5 -2.4 4.2 0 0.8 -0.4 1.7 -1 2 -0.6 0.4 -0.7 -0.6 -0.4 -2.7z"/>
   <path d="M686 419.4 c0 -7 0.3 -9.5 1.2 -9.2 1.2 0.4 2.4 3.7 3.2 9.3 0.4 2.5 -2.5 9.5 -4 9.5 -0.2 0 -0.4 -4.3 -0.4 -9.6z"/>
   <path d="M624.4 425.3 c-0.6 -2.3 0.1 -3.4 6.7 -9.6 6.7 -6.3 11.4 -9.8 19.2 -14.2 5.1 -2.9 2.7 0.1 -4.3 5.3 -15 11.3 -19 15.1 -19 18.2 0 3.7 -1.7 3.9 -2.6 0.3z"/>
   <path d="M664.7 411.4 c-5.7 -3.7 -12.1 -13.4 -8.8 -13.4 0.5 0 1.8 1.7 2.8 3.8 1.1 2 4.3 5.6 7.2 8 5.6 4.6 4.9 5.6 -1.2 1.6z"/>
   <path d="M553.5 406 c-0.3 -0.5 -1.7 -1 -3.1 -1 -3.2 0 -3 -1 1 -4.9 2.2 -2.2 3.6 -4.5 3.8 -6.5 0.2 -2.1 0.9 -3.2 2.2 -3.4 1.7 -0.4 1.8 -0.3 0.2 1.9 -0.9 1.3 -1.6 2.9 -1.6 3.7 0 1.9 3.3 0 10 -5.8 3 -2.6 8.1 -6.2 11.3 -8 6.6 -3.7 7.8 -5.5 5.1 -7.5 -1.3 -1 -1.4 -1.4 -0.6 -1.5 1.5 0 5.7 -3.8 17.6 -16 7.2 -7.3 22.6 -19 22.6 -17.1 0 0.5 -3.5 3.8 -7.8 7.3 -7 5.9 -26.6 26 -28.5 29.4 -1 1.8 12.8 -4.8 17.5 -8.4 2.1 -1.6 10.1 -8.6 17.9 -15.6 7.7 -7 14.3 -12.5 14.7 -12.2 0.3 0.3 -0.2 1.4 -1.1 2.3 -0.8 1 -2 3 -2.6 4.5 -0.6 1.6 -4 4.7 -8.6 7.8 -4.2 2.8 -11.2 8 -15.6 11.6 -4.4 3.5 -8.5 6.4 -9.1 6.4 -0.6 0 -4.4 3.2 -8.4 7 -6.9 6.7 -9.6 8.2 -10.9 6 -0.3 -0.5 -1.4 -1 -2.3 -1 -1.5 0.1 -1.4 0.2 0.2 1.2 1.8 1 1.7 1.2 -1.3 2.7 -1.7 0.9 -7.1 5.4 -12 9.9 -4.9 4.5 -9.2 8.2 -9.5 8.2 -0.3 0 -0.8 -0.4 -1.1 -1z"/>
   <path d="M686.7 405.3 c-1 -1 -0.8 -4.3 0.3 -4.3 0.5 0 0.2 -1.3 -0.7 -2.8 -1.9 -3.3 -1.2 -6.2 1.6 -6.2 1.5 0 1.9 -0.7 1.8 -3.6 -0.1 -3.1 -0.6 -3.8 -2.9 -4.6 -3.1 -1.1 -3 -0.7 -1.2 -11.5 0.4 -2.1 0.6 -5.4 0.5 -7.4 -0.1 -2.2 0.4 -4 1.3 -4.8 2 -1.7 2 -5 0 -7.9 -1.1 -1.6 -1.3 -3.4 -0.8 -6.7 0.5 -3.3 0.2 -5.1 -1 -7 -0.9 -1.3 -1.6 -2.9 -1.6 -3.4 0 -0.5 -1 -2.5 -2.2 -4.3 l-2.2 -3.3 -5.8 11.7 c-4.1 8.1 -5.8 12.7 -5.7 15 0.2 3.2 -5.7 16.6 -11.6 26.4 -2.4 4 -2.5 4.3 -1 8.5 1.4 4 1.4 4.4 -0.2 6.1 -2.1 2.1 -15.6 4.3 -18 2.9 -0.9 -0.4 -2.5 -0.6 -3.6 -0.3 -1.8 0.5 -10.7 -3.5 -10.7 -4.8 0 -0.3 3 -3.9 6.7 -8 8.3 -9.4 20.5 -27.8 23.4 -35.4 2.1 -5.5 2.2 -5.9 0.6 -8.6 -2 -3.2 -2.1 -4 -0.7 -4 0.6 0 1 0.7 1 1.5 0 0.8 1 2 2.2 2.6 1.9 1 2.5 0.8 4.7 -1.7 2.2 -2.6 2.3 -2.9 0.6 -3.3 -2 -0.3 -6.8 -5.1 -6 -5.9 0.3 -0.3 1.4 0.3 2.5 1.3 2 1.8 2 1.8 2 -1.5 0 -3.9 -4 -17 -5.2 -17 -1.1 0 -1 7.8 0.1 11.8 0.6 1.8 0.6 3.2 0.1 3.2 -1.6 0 -3.2 -8.3 -2.7 -13.5 0.3 -2.8 0.1 -5.9 -0.4 -6.8 -0.6 -0.9 -0.6 -1.7 -0.2 -1.7 0.4 0 0.8 -2.4 0.8 -5.3 0.1 -3.5 0.8 -6.5 2.1 -8.8 1.1 -1.9 2.6 -6.3 3.3 -9.8 0.7 -3.5 1.7 -7.6 2.3 -9 l1.1 -2.6 0.7 2.5 c0.5 1.6 0.8 -0.5 0.9 -6.1 0.1 -8.4 -1.7 -23 -4.1 -33.9 -1 -4.6 -1.3 -5.1 -1.9 -3 l-0.6 2.5 -1.2 -3 c-1.1 -2.5 -1 -3.8 0.3 -7.5 0.9 -2.5 1.6 -6.2 1.6 -8.3 0 -7.7 2.3 -18.3 5.2 -24 1.6 -3.3 2.4 -5.6 1.8 -5.2 -0.7 0.4 -0.5 -0.5 0.3 -2.1 2.3 -4.4 8.6 -9.9 14.7 -12.9 4.9 -2.5 6.1 -2.7 12.6 -2.2 3.9 0.4 7.8 0.9 8.6 1.2 2 0.8 4.8 6.9 4.2 9.2 -0.4 1.2 0.7 3.6 2.9 6.4 1.8 2.5 3.2 5 2.9 5.7 -0.3 0.9 0.3 1.1 2.2 0.6 2.6 -0.6 3.7 0.8 1.6 2.1 -0.5 0.3 -1 1.1 -1 1.7 0 0.7 0.5 0.7 1.4 -0.1 1.6 -1.3 5.9 0 8.8 2.6 1.4 1.2 2.1 1.3 3.2 0.4 1.9 -1.6 3.2 0.4 1.6 2.4 -0.8 1 -0.8 1.5 0 2 0.7 0.4 1 1.8 0.7 3.1 -0.3 1.8 0 2.4 1.4 2.4 2.8 0 2.3 2.7 -0.7 4.3 l-2.6 1.4 5.6 2.3 c3.1 1.2 5.9 2.6 6.1 3.1 0.5 0.7 -1.8 3.1 -9 9.2 -2.5 2.1 -2.8 2.7 -1.6 4.1 0.7 0.9 2.6 1.6 4.2 1.6 2.5 0 2.9 0.4 2.8 2.8 -0.2 3.3 -1.9 9.1 -3.5 11.5 -0.9 1.4 -0.8 2.9 0.8 6.9 1 2.8 1.7 5.2 1.5 5.4 -0.7 0.7 -3.7 -0.8 -3.7 -1.8 0 -0.5 -1.2 -3.4 -2.6 -6.4 -2.6 -5.6 -4.4 -6.5 -8.4 -4.4 -1.5 0.8 -2.4 0.5 -4.4 -1.5 -1.4 -1.4 -3.2 -2.5 -4.1 -2.5 -2.9 0 -9.3 7.2 -10 11.2 -0.5 3.1 -0.3 3.7 1 3.2 0.8 -0.3 2.2 -0.3 3.1 0 1.3 0.5 0.9 1.4 -2.5 5.1 -3.6 3.9 -4.1 5 -4.1 9.3 0 2.6 0.5 5.3 1.2 6 0.8 0.8 1.2 4.1 1.1 9 -0.1 5.5 0.3 8.8 1.6 11.7 1.8 4 6.1 8.8 6.1 6.7 0 -0.6 1.2 0 2.6 1.3 1.5 1.4 2.3 2.9 1.9 3.7 -0.3 0.7 0.4 0.2 1.7 -1.2 1.3 -1.4 3.2 -3.2 4.2 -4 1.9 -1.5 1.9 -1.4 0.2 1.8 -0.9 1.7 -1.5 3.2 -1.2 3.2 0.2 0 3.7 -3.4 7.7 -7.6 4.1 -4.2 8.3 -8 9.4 -8.6 1.1 -0.6 -0.3 1.4 -3.1 4.3 -6.6 6.9 -12.4 14.6 -12.4 16.5 0 0.9 0.5 1.2 1.1 0.8 0.6 -0.3 1.5 -0.1 1.9 0.5 0.5 0.8 4.7 -2.6 12.6 -10.2 6.5 -6.3 12.1 -11.3 12.3 -11.1 0.3 0.2 -1.5 2.4 -3.9 4.9 -2.4 2.5 -4.1 4.8 -3.7 5.2 0.4 0.4 -0.7 2.2 -2.5 4 l-3.2 3.3 3 -0.3 c1.6 -0.2 3.5 -0.7 4.2 -1.1 0.7 -0.4 1.2 -0.2 1.2 0.3 0 1.8 2.2 1.2 4.7 -1.1 1.3 -1.2 2.5 -1.9 2.8 -1.7 0.3 0.3 -1 1.9 -2.8 3.6 -3.1 3 -3.4 3.1 -8.7 2.2 -7.8 -1.2 -8.4 -0.3 -5.9 8.6 2.3 8.4 2.4 10.9 0.4 12.5 -1.2 1 -1.5 1 -1.5 0 0 -0.8 -0.8 -1 -2.5 -0.6 -1.9 0.5 -2.8 0.1 -4.2 -2.1 -1 -1.6 -2 -3 -2.4 -3.3 -0.3 -0.3 -0.9 -1.2 -1.2 -2 -0.3 -0.8 -0.3 1.2 -0.1 4.5 0.3 3.3 1.1 6.7 1.9 7.6 2.1 2.2 1.9 3.6 -0.7 5 -1.3 0.6 -3.3 2.1 -4.6 3.2 -1.9 1.8 -2.4 1.9 -3.2 0.7 -2.4 -3.9 -3.9 6.4 -1.6 11.1 2 4 2 3.9 -0.7 3.9 -2.4 0 -5.6 3 -14.2 13.3 -4.6 5.6 -4.8 5.9 -3.7 9.3 1 3.3 0.8 4 -1.9 7.6 -3.5 4.9 -3.7 6.5 -0.7 6.4 2.6 -0.1 3.6 2.7 1.8 4.9 -1.3 1.5 -5.1 2 -6.3 0.8z m-40.2 -25.4 c3.6 -1.1 9.7 -5.8 7.6 -5.9 -2.4 0 -16.5 5.1 -18 6.5 -1.2 1.1 -0.7 1.3 3 0.8 2.4 -0.2 5.8 -0.9 7.4 -1.4z m65.8 -40.4 c1.8 -1.2 2.3 -2.3 2.2 -5.7 -0.4 -11 -0.2 -10.5 -5 -13.1 -3.3 -1.9 -4.5 -2.2 -4.5 -1.2 0 2.1 4.2 21.5 4.7 21.5 0.2 0 1.4 -0.7 2.6 -1.5z m-37.9 -25.5 c-2.1 -5.1 -2.5 -7.4 -2 -11.4 0.4 -2.8 0.9 -9.3 1.2 -14.3 0.6 -8.8 0.8 -9.4 3.6 -11.8 1.6 -1.4 3.6 -2.5 4.3 -2.5 0.8 0 1.9 -0.8 2.4 -1.8 0.8 -1.6 0.4 -2 -2.6 -3.2 -3.6 -1.2 -3.7 -1.2 -6.8 2.2 -2.9 3.1 -3.3 4.3 -4.3 13.6 -1.9 16.7 -1.5 20.6 3.6 31 3.4 7 3.8 6 0.6 -1.8z m-5.7 -3.5 c-1.3 -1.2 -1.6 -1.1 -2.1 0.8 -1.1 4.3 -0.7 5.2 1.5 2.9 1.7 -2 1.8 -2.4 0.6 -3.7z m-5.4 -3.5 c0.4 -4.6 0.3 -6.5 -0.3 -5 -0.8 2.4 -1.4 13.7 -0.6 12.9 0.2 -0.2 0.6 -3.8 0.9 -7.9z m70.4 3 c2.8 -2.7 4.8 -5 4.6 -5 -0.8 0 -10.3 8.5 -10.3 9.3 0 1.3 0.6 0.8 5.7 -4.3z m-10.1 -96.2 c-0.9 -1.2 -1.6 -3.7 -1.6 -5.5 0 -2.6 0.4 -3.3 2 -3.3 1.7 0 1.4 -0.6 -1.7 -3.8 l-3.8 -3.8 -2.1 2 -2.1 2.1 2.8 2.7 c1.6 1.5 3.1 4 3.5 5.5 0.4 1.5 1.4 3.6 2.2 4.6 2.1 2.4 2.6 2.1 0.8 -0.5z"/>
   <path d="M657.7 389.5 c-2 -4.2 -0.8 -5.3 3.3 -2.8 3.4 2 3.7 3 1.3 4.9 -2.5 1.9 -2.7 1.8 -4.6 -2.1z"/>
   <path d="M557 387.8 c0 -0.6 1.1 -2.6 2.5 -4.4 1.4 -1.8 2.5 -3.7 2.5 -4.1 0 -0.5 2.2 -3.2 5 -6 4.5 -4.6 5 -5.6 6 -11.9 2.9 -18.9 4.6 -22.4 15.9 -31.5 7.6 -6.1 29.9 -19.7 35 -21.4 3.5 -1.1 2.6 2.2 -1.1 4.1 -1.8 0.9 -4.1 2.3 -5.1 3.2 -1.7 1.5 -1.7 1.6 0.5 2.9 3.3 1.8 5.2 1.6 7.4 -0.8 1 -1.1 2.8 -2.5 3.9 -3.1 1.1 -0.6 0.2 0.8 -2 3.1 -4.4 4.6 -5 4.8 -9.9 2.4 -4.5 -2.1 -6.8 -1.1 -18.8 7.5 -4.9 3.5 -10.2 6.8 -11.7 7.3 -1.6 0.6 -3.4 2.2 -4 3.7 -2 4.2 -2.5 11.8 -1.1 16.6 l1.2 4.4 5.6 -3.8 c7 -4.5 9.7 -6 11.3 -6 0.7 0 -0.9 1.4 -3.5 3.1 -2.6 1.8 -5.9 4.8 -7.4 6.8 -1.5 1.9 -4.3 5.1 -6.2 7.1 -3.8 3.7 -6.5 7.4 -9.1 12.2 -1.4 2.6 -1.7 2.8 -2.9 1.3 -1 -1.2 -1 -2.1 -0.1 -4.1 0.6 -1.4 1.1 -2.8 1.1 -3.2 0 -1.1 -7.3 7 -10.3 11.6 -2.6 4.1 -4.7 5.4 -4.7 3z"/>
   <path d="M700 385.6 c0 -0.2 1.6 -2.3 3.5 -4.6 1.9 -2.3 3.5 -4.6 3.5 -5.1 0 -2 1.9 -0.7 4.4 3.1 2.9 4.3 3.1 5 1.6 5 -0.5 0 -1.7 -1.4 -2.6 -3.2 -1.6 -3 -1.7 -3.1 -3 -1.3 -0.8 1 -1.4 2.6 -1.4 3.6 0 0.9 -1 1.9 -2.2 2.3 -2.7 0.7 -3.8 0.7 -3.8 0.2z"/>
   <path d="M618 381.2 c0 -1.5 7.8 -8.2 9.5 -8.2 2.2 0 -0.2 6 -2.9 6.9 -4.8 1.9 -6.6 2.2 -6.6 1.3z"/>
   <path d="M772 377.4 c0 -3.6 38.8 -52.2 39 -48.8 0 0.6 -5.5 7.8 -12.3 16 -6.7 8.2 -15.1 18.7 -18.6 23.4 -7.7 10.3 -8.1 10.7 -8.1 9.4z"/>
   <path d="M828 367.7 c0.3 -0.3 4.1 -1.3 8.5 -2.2 4.4 -0.9 8.9 -1.9 10 -2.4 1.1 -0.4 3.4 -1.3 5 -1.8 1.7 -0.6 3.9 -1.4 5 -1.8 2 -0.8 2 -0.8 0.1 1.4 -1.1 1.2 -2.6 1.9 -3.3 1.7 -0.8 -0.3 -1.8 0.5 -2.5 1.9 -0.9 1.9 -1.9 2.5 -4.3 2.5 -1.8 0 -6.8 0.3 -11.1 0.6 -4.3 0.4 -7.7 0.4 -7.4 0.1z"/>
   <path d="M714 355 c1.2 -2.2 5.5 -4.3 7.4 -3.7 1 0.3 -6.1 5.7 -7.7 5.7 -0.4 0 -0.3 -0.9 0.3 -2z"/>
   <path d="M810 349.1 c0 -0.4 3.8 -7.5 8.5 -15.6 4.7 -8.2 8.5 -15.2 8.5 -15.7 0 -1.8 1.8 -0.6 2.4 1.6 0.5 1.9 -0.6 4.2 -5 10.3 -3.1 4.3 -6.9 10.3 -8.5 13.4 -2.4 4.9 -5.9 8.4 -5.9 6z"/>
   <path d="M726.6 341.2 c-0.7 -1.2 1.9 -3.5 3.4 -3 0.7 0.2 0.3 1.1 -0.8 2.1 -1.1 1 -2.3 1.4 -2.6 0.9z"/>
   <path d="M737 322.5 c1.3 -1.4 2.6 -2.3 2.8 -2 0.7 0.7 -2.9 4.5 -4.1 4.5 -0.6 0 0 -1.1 1.3 -2.5z"/>
   <path d="M627 308.5 c0 -0.9 4 -3.5 10 -6.5 5.5 -2.8 10 -4.7 10 -4.4 0 1 -4.3 4.3 -11.1 8.4 -7 4.3 -8.9 4.8 -8.9 2.5z"/>
   <path d="M922.6 302.4 c-2.2 -0.8 -4.1 -1.6 -4.3 -1.8 -0.8 -0.8 3.8 -8.6 5 -8.6 2.7 0 6.7 10.9 4.2 11.6 -0.5 0.1 -2.8 -0.4 -4.9 -1.2z"/>
   <path d="M921 285.5 c0 -2.6 0.8 -6.1 2 -8.2 2.6 -4.9 2.5 -6.3 -0.6 -14.2 -2.4 -6.2 -4.3 -8.7 -9 -11.9 -1.7 -1.1 -1.6 -1.2 1.1 -0.7 1.7 0.4 4.2 1.8 5.8 3.3 2.6 2.5 3.6 2.1 1.8 -0.7 -1 -1.6 0.8 -5.3 2.1 -4.5 0.4 0.3 0.8 2.5 0.8 4.9 0 2.4 0.5 6.8 1.1 9.6 1.2 5.7 -0.2 15.4 -2.4 16.2 -0.6 0.2 0.8 1.1 3.2 2 4.9 2 4.9 3.2 0.1 6.5 -4.9 3.3 -6 2.9 -6 -2.3z"/>
   <path d="M779.4 286.3 c-0.9 -1.5 -1.4 -3.8 -1.2 -5.4 0.6 -3.6 -1 -3.8 -7.8 -0.9 -2.6 1.1 -4.9 1.8 -5.1 1.6 -0.6 -0.5 4.6 -3.3 9.6 -5.1 2.8 -1.1 3.1 -1.4 1.4 -1.4 -3.1 -0.1 -2.9 -1.7 0.2 -2.5 2.8 -0.7 3.6 -4.6 0.9 -4.6 -0.8 0 -1.2 -0.4 -0.9 -1 0.3 -0.6 -0.4 -1 -1.7 -1 -2.3 -0.1 -2.3 -0.1 -0.3 -1.6 1.6 -1.2 1.7 -1.6 0.6 -2.3 -0.7 -0.5 -1 -1.4 -0.7 -2 0.4 -0.6 0 -1.1 -0.8 -1.1 -2 0 -2 -1.9 0 -4.1 1.2 -1.3 1.3 -2.2 0.5 -3.7 -0.6 -1.2 -0.8 -2.7 -0.5 -3.6 0.3 -0.9 -0.3 -2 -1.5 -2.8 -2.9 -1.8 -2.6 -2.9 0.5 -1.8 3.9 1.5 4 1.2 0.9 -2 -5.6 -5.9 -11.7 -9 -17.3 -9 -5.3 0 -6.9 -1.3 -3.1 -2.5 1.7 -0.6 1.8 -0.9 0.7 -2.3 -1.2 -1.4 -0.9 -1.5 2.1 -0.9 3.2 0.7 3.3 0.6 2.5 -2.1 -0.4 -1.5 -0.7 -4.4 -0.5 -6.4 0.1 -3 -0.2 -3.8 -1.6 -3.8 -1.3 0 -1.1 -0.6 1.2 -3 1.7 -1.8 3.9 -3 5.5 -3 1.4 0 3.5 -0.7 4.6 -1.5 2.4 -1.6 4 -0.9 2.3 1.1 -0.8 0.9 -0.5 1.1 1 0.7 1.6 -0.4 2.1 -1.3 2.1 -3.9 0 -1.8 0.5 -3.6 1 -3.9 1.9 -1.1 1 -2.5 -1.5 -2.5 -1.4 0 -4.2 -0.7 -6.3 -1.6 -4.1 -1.8 -3.8 -2.1 4.3 -4.3 3.1 -0.8 4.3 -1.7 5.2 -4.1 1.1 -2.8 1.4 -3 6.5 -3 4.2 0 5.6 -0.4 6.6 -2 0.7 -1.2 0.8 -2 0.2 -2 -0.5 0 -1 -1 -1 -2.3 0 -2.2 -0.3 -2.3 -6.7 -2 l-6.8 0.3 7.7 -2.3 c5 -1.4 8.3 -3 9.3 -4.3 1.4 -2.1 1.3 -2.2 -3.8 -2.8 -6.4 -0.9 -7.7 -1.9 -7.7 -6.1 0 -2.4 -0.5 -3.4 -2 -3.8 -1.4 -0.4 -1.9 -1.2 -1.7 -3.5 0.1 -1.7 0.6 -3 1.1 -2.9 0.5 0.1 1.1 -0.4 1.3 -1 0.5 -1.5 -1.6 -1.7 -3.7 -0.3 -1 0.6 -2 0.4 -3 -0.5 -0.8 -0.7 -2.6 -1.5 -4 -1.7 -2 -0.2 -2.5 -0.8 -2.3 -2.8 0.8 -10.5 0.7 -11.9 -1 -13.8 -2.5 -2.7 -2.1 -4.7 1.4 -7.6 2.6 -2.2 2.8 -2.6 1.1 -2.6 -2.3 0 -3.6 -3.7 -2.6 -7.5 0.7 -3 -1.2 -3.4 -2.1 -0.5 -0.3 1.1 -1 2 -1.5 2 -1.5 0 -5 -5.2 -5 -7.3 0 -6.3 11.4 -18.1 22.7 -23.4 9.8 -4.7 15 -5.2 24.4 -2.3 6.6 2.1 8.1 3 13.7 8.9 8 8.4 11.2 17.1 12.2 32.6 0 0.6 0.7 0.1 1.5 -0.9 1.9 -2.6 1.9 -1.6 -0.2 3.5 -1.2 3.2 -1.4 4.6 -0.5 5.9 0.9 1.5 0.7 2.4 -0.9 4.4 -1.8 2.2 -1.9 2.9 -0.8 4.2 0.7 0.9 1.3 2.8 1.4 4.2 0 1.9 0.5 2.7 1.8 2.6 2 -0.2 2.1 0.1 0.6 2.8 -0.6 1.1 -0.7 1.8 -0.1 1.4 0.5 -0.3 1.5 -1.9 2.2 -3.6 1 -2.5 1 -3.6 0 -5.5 -1.9 -3.6 -0.2 -4.4 2.5 -1.2 1.5 1.6 3.4 2.7 5 2.7 3.3 0 3.2 1.1 -0.7 5.7 l-3.2 3.8 3.5 -3.1 c4.2 -3.8 6.4 -4.7 7.8 -3 1.3 1.6 -0.3 3.8 -4.4 6 -4 2 -1.3 2.1 3.1 0 4.2 -2 4.8 -1.6 3.4 2.1 -0.8 2.2 -1.4 2.5 -2.2 1.7 -1.8 -1.8 -2.6 -1.4 -3.3 1.8 -0.9 4.2 -9.5 11.4 -9.5 8 0 -0.5 -0.9 -0.2 -1.9 0.7 -1.9 1.6 -1.9 1.7 0.6 3 2.3 1.2 2.8 1.1 4.5 -0.3 2.4 -2.3 3.2 -1.3 1.2 1.5 -1 1.4 -2.3 2.1 -3.4 1.8 -1.4 -0.4 -2 0.3 -2.4 2.8 -0.8 4.2 -3.9 8.1 -7 8.9 -1.8 0.4 -2.4 1.1 -1.9 2.3 0.5 1.3 0.3 1.5 -1.3 0.8 -1 -0.4 -3 -0.9 -4.4 -1.2 -2.2 -0.4 -2.2 -0.2 0.5 1 1.7 0.8 4.1 2.7 5.5 4.1 2.4 2.6 2.4 2.8 0.9 7 -1.3 3.7 -1.4 4.5 -0.1 5.2 1.2 0.8 1 1.8 -1 6.7 -2.3 5.8 -4 6.8 -4.6 2.8 -0.3 -1.5 -0.8 -2.1 -1.9 -1.7 -0.8 0.3 -1.7 0.6 -2 0.6 -0.3 0 0.9 1.4 2.7 3 2.2 2 3.1 3.6 2.7 4.9 -0.3 1.1 0.1 2.8 0.8 3.9 0.8 1 2 4.8 2.8 8.3 1.7 7.1 3.3 24.9 2.3 24.9 -0.3 0 -1.5 -0.5 -2.5 -1.2 -1 -0.6 -2.6 -0.8 -3.5 -0.5 -0.9 0.4 -2 0.7 -2.4 0.7 -1.2 0.2 -3 4.3 -2.5 5.6 0.3 0.9 -0.5 1.2 -2.6 1.2 -5.3 -0.2 -6.4 1.7 -5.6 9.4 0.5 5.2 0.3 6.9 -0.7 7.2 -0.7 0.2 -5.2 1.8 -9.9 3.5 -4.7 1.7 -10.7 3.5 -13.2 4 -4.3 0.8 -4.8 0.6 -6.3 -1.6z m33.1 -26 c-0.8 -0.8 -1.5 -2.8 -1.5 -4.4 0 -2.2 0.5 -2.9 2 -2.9 1 0 2.4 0.8 2.9 1.8 2.2 3.6 1 0.1 -1.6 -4.9 l-2.8 -5.4 -0.3 3.4 c-0.3 3 -0.6 3.2 -2.8 2.7 -2.1 -0.6 -2.5 -0.4 -2 1.1 0.3 1 0.7 3.8 0.8 6.3 0.3 4.5 0.3 4.5 3.5 4.2 2.8 -0.4 3.1 -0.6 1.8 -1.9z m-14.8 -15.8 c-0.2 -3.8 -0.8 -4.3 -2.7 -2 -1 1.3 -1 1.9 0.5 3.5 1 1.1 1.9 2 2.1 2 0.1 0 0.2 -1.6 0.1 -3.5z m-16.7 -2.7 c0.7 -1.8 1.5 -3.7 1.7 -4.3 0.3 -0.5 -0.5 0.1 -1.6 1.5 l-2.1 2.5 0 -3.2 c0 -3.7 1.6 -8.4 3.2 -9.5 0.9 -0.5 0.8 -1.1 -0.2 -2.3 -1.1 -1.4 -1.1 -2 -0.1 -3.7 1.6 -2.5 -0.1 -5 -2.1 -3 -1.8 1.8 -2.7 1.5 -3.8 -1.2 -0.7 -1.8 -1.4 -2.3 -3 -1.9 -1.8 0.5 -2.1 1.1 -1.6 4.2 0.3 2 0.8 6.8 1.2 10.6 0.4 3.9 0.9 6.2 1.1 5.3 0.8 -3.2 2.1 -1.9 3.4 3.2 0.7 2.8 1.5 5 1.9 5 0.3 0 1.2 -1.5 2 -3.2z m13.5 -3.2 c4.7 -2 4.4 -2.6 -0.5 -1.4 -2.2 0.6 -4 1.4 -4 1.9 0 1.2 0.5 1.1 4.5 -0.5z m22.5 -12.3 c-0.1 -2.4 -0.2 -2.6 -1.1 -1 -0.5 0.9 -0.7 2.2 -0.4 2.7 1 1.7 1.5 1.1 1.5 -1.7z m-27.2 -4.4 l4.1 -4 -4.2 0.3 c-4.1 0.3 -4.2 0.4 -4.5 4.1 -0.2 2 -0.1 3.7 0.1 3.7 0.3 0 2.3 -1.8 4.5 -4.1z m24 -4.4 c-0.2 -1.3 -0.8 -0.6 -2.1 2.1 l-1.8 3.9 2.1 -2.1 c1.2 -1.2 2 -2.9 1.8 -3.9z m-14.1 -2.5 c-1.4 -1.1 -2.8 -2 -3.1 -2 -0.3 0 -0.1 0.9 0.6 2 0.7 1.1 2.1 2 3.2 2 1.6 0 1.5 -0.3 -0.7 -2z m-2.1 -7.1 c4.6 -0.9 5.7 -1.8 4.4 -3.4 -0.9 -1 -0.7 -2 0.5 -3.8 1.4 -2.2 1.4 -2.7 0 -5.3 -0.8 -1.6 -1.5 -3.4 -1.5 -4.1 0 -1.9 -1.8 -2.5 -3.9 -1.3 -1.1 0.6 -2.5 2.9 -3.1 5.1 -0.7 2.7 -1.8 4.3 -3.1 4.6 -2.5 0.7 -3.5 4.7 -2 7.9 0.6 1.4 0.9 2.9 0.6 3.4 -0.3 0.5 0.3 1 1.2 1.2 1 0.2 2.2 -0.5 2.8 -1.6 0.6 -1.1 2.4 -2.3 4.1 -2.7z m-10.3 -15.1 c1.2 -0.6 2.8 -1.9 3.5 -3 0.7 -1 2 -1.8 2.9 -1.8 0.9 0 1.4 -0.3 1 -0.6 -1.2 -1.2 -8.9 0.9 -10.8 2.9 -1 1.1 -1.9 2.4 -1.9 2.9 0 1.2 2.8 1 5.3 -0.4z m16.7 -9.8 c0 -1 -0.4 -2.2 -1 -2.5 -1.2 -0.7 -1.3 -3.5 -0.2 -3.5 0.5 0 1.7 0.6 2.8 1.4 1.5 1.2 1.7 1.7 0.7 2.7 -0.7 0.7 -1.3 2.2 -1.3 3.4 0.1 1.5 0.4 1.3 1.4 -1.1 1 -2.3 2.3 -3.3 4.7 -3.8 2 -0.4 3.5 -0.2 4 0.5 0.3 0.6 1.1 -0.2 1.7 -2 1.1 -3.1 1.1 -3.1 -1.1 -1.6 -3.1 2.2 -4.7 1.9 -4.7 -0.9 0 -3.5 -3.8 -7.9 -6.3 -7.2 -1.1 0.3 -2.9 0.1 -3.9 -0.5 -2.5 -1.3 -2.3 -0.1 0.5 2.2 1.9 1.6 1.9 1.8 0.5 1.9 -1.4 0 -1.8 0.9 -1.8 4 0 2.7 -0.5 4.2 -1.7 4.9 -1 0.5 -1.6 1.1 -1.3 1.4 2.4 2 5.5 3.5 6.2 3.1 0.4 -0.3 0.8 -1.4 0.8 -2.4z m10.4 -21.2 c0.6 -4.3 0.5 -4.8 -1.9 -6.4 -3.6 -2.4 -5.3 -0.6 -3.1 3.3 0.8 1.5 2.1 4 2.8 5.5 0.7 1.5 1.3 2.6 1.4 2.5 0.1 -0.1 0.5 -2.3 0.8 -4.9z m9.2 -8.4 c2.4 -4 2.5 -4.8 1.4 -7 -1.8 -3.2 -2.3 -3.1 -4.3 1.1 -1.8 3.9 -2.3 10.5 -0.7 10.5 0.5 0 2.1 -2.1 3.6 -4.6z m-16 -13.9 c-0.4 -1.1 -1.1 -1.2 -3.6 -0.4 -1.6 0.6 -3 1.2 -3 1.3 0 0.2 0.5 1.7 1.1 3.4 l1.1 3.1 2.5 -2.9 c1.4 -1.7 2.3 -3.7 1.9 -4.5z m-33.1 -4.4 c0 -5.1 -1 -5.6 -2.6 -1.4 -0.7 2 -0.6 3 0.7 4.4 1 1.1 1.8 1.9 1.8 1.9 0.1 0 0.1 -2.2 0.1 -4.9z m37.2 -3 c-0.4 -1.7 -0.1 -1.9 3.2 -1.4 l3.6 0.6 -3.4 -3.6 c-1.8 -1.9 -4.4 -5.2 -5.8 -7.4 -2.4 -3.7 -2.4 -3.7 -1.8 -0.8 0.4 1.7 0.9 4.6 1.1 6.5 0.9 6.3 1.4 8 2.5 8 0.6 0 0.9 -0.9 0.6 -1.9z"/>
   <path d="M893.4 270.4 c0.3 -0.9 0.6 -2.7 0.6 -4 0 -1.3 0.5 -2.4 1 -2.4 0.6 0 1 0.9 1 2.1 0 1.1 0.5 2.9 1 4 0.9 1.7 0.7 1.9 -1.6 1.9 -2 0 -2.5 -0.4 -2 -1.6z"/>
   <path d="M834.7 268.4 c-1.8 -1 -3.9 -1.3 -5.9 -0.9 -2.1 0.5 -2.8 0.4 -2.4 -0.4 1 -1.6 8.2 -1.3 11.6 0.4 1.7 0.9 3 1.8 3 2 0 1 -3.6 0.4 -6.3 -1.1z"/>
   <path d="M903 256.2 c0 -0.5 0.7 -1.3 1.6 -1.6 2.5 -1 9.4 -0.7 9.4 0.4 0 0.6 -1.1 1 -2.4 1 -1.3 0 -3.8 0.3 -5.5 0.6 -1.8 0.4 -3.1 0.2 -3.1 -0.4z"/>
   <path d="M862.5 237.4 c-0.3 -2 -0.4 -3.8 -0.1 -4.1 1.2 -1.2 5.8 1 6.8 3.2 1.3 2.9 1.3 3 -2.8 3.8 -3 0.6 -3.2 0.4 -3.9 -2.9z"/>
   <path d="M915.2 234.3 c-2.9 -5.6 -8.3 -19.5 -7.8 -20 0.6 -0.6 5.4 8 6.2 11.3 0.4 1.6 1.6 4.9 2.6 7.3 2.3 5.5 1.6 6.6 -1 1.4z"/>
   <path d="M860.1 227.6 c-1.6 -6.4 -1.3 -7.5 1 -4.6 l2.1 2.5 -0.5 -2.5 c-3.1 -15 -3.1 -26 -0.2 -33.7 1.5 -3.8 1.5 -3.8 0.7 2.2 -1 8.6 -0.5 19.2 1.3 27.7 0.9 4 1.8 8.5 2.2 10.1 0.5 2.5 0.3 2.7 -2.5 2.7 -2.7 0 -3.1 -0.4 -4.1 -4.4z"/>
   <path d="M828.4 211.5 c0.4 -2.1 3.4 -10 6.7 -17.6 3.2 -7.6 5.9 -14.3 5.9 -14.9 0 -0.6 0.4 -0.9 0.9 -0.5 1.4 0.8 -1.1 8.6 -6.4 20.3 -2.4 5.3 -4.7 10.9 -5 12.5 -1.1 4.4 -2.9 4.6 -2.1 0.2z"/>
   <path d="M903.5 205.7 c-1.6 -2.8 -3.2 -5.6 -3.4 -6.1 -0.2 -0.4 1.1 -0.5 2.9 -0.1 l3.2 0.7 -2.3 -3.1 c-1.2 -1.7 -2 -3.3 -1.7 -3.6 0.3 -0.3 2 1.6 3.7 4.3 2.7 4.3 3.1 5.5 2.5 9.1 -0.4 2.2 -0.9 4.1 -1.3 4.1 -0.3 0 -1.9 -2.4 -3.6 -5.3z"/>
   <path d="M715.9 188.4 c-1.2 -2.5 -1.8 -4.8 -1.6 -5.1 0.9 -0.8 2.7 0.7 2.7 2.3 0 0.8 0.7 1.4 1.5 1.4 0.8 0 1.5 0.6 1.5 1.4 0 0.8 0.3 2.1 0.6 3 0.4 1.1 0.1 1.6 -1 1.6 -1.1 0 -2.5 -1.8 -3.7 -4.6z"/>
   <path d="M897.7 186.1 c-1 -1.7 -1.7 -5 -1.7 -7.8 0 -2.9 -0.8 -6.5 -2 -8.8 -2.4 -4.8 -2.4 -4.8 -0.1 -3.5 1.1 0.5 2.4 2.5 3 4.2 1.1 3.6 3.3 17.9 2.8 18.4 -0.2 0.2 -1.1 -1 -2 -2.5z"/>
   <path d="M844 174.6 c0 -0.2 1.8 -1.3 4 -2.5 2.2 -1.1 4 -1.6 4 -1.1 0 0.5 -1.3 1.6 -3 2.5 -2.8 1.4 -5 1.9 -5 1.1z"/>
   <path d="M847.2 165.8 c-1.6 -1.6 -1.5 -2.8 0.2 -2.8 0.7 0 2.5 -1.8 4 -4 1.4 -2.2 3 -4 3.4 -4 0.4 0 2.9 0.7 5.6 1.5 2.7 0.8 6.7 1.5 9 1.5 2.9 0 3.7 0.3 2.9 1.1 -1.1 1.1 -9.3 0.8 -14.5 -0.6 -2.2 -0.6 -2.7 -0.4 -3 1.5 -0.4 3.2 -6 7.4 -7.6 5.8z"/>
   <path d="M760.5 646 l-3 -0.8 3.1 -0.1 c1.7 0 4.6 -0.6 6.4 -1.2 3.1 -1.1 4.9 -0.3 5 2.4 0 0.9 -7.5 0.7 -11.5 -0.3z"/>
   <path d="M900 645.8 c0.1 -0.7 0.9 -2.3 1.9 -3.5 2.4 -2.9 6.7 -3 8.1 -0.3 0.6 1.1 1.7 2 2.5 2 0.8 0 1.5 0.7 1.5 1.5 0 1.2 -1.4 1.5 -7 1.5 -5 0 -7 -0.4 -7 -1.2z"/>
   <path d="M855 644 c0 -0.5 1.2 -1.2 2.8 -1.5 1.5 -0.3 4.1 -1 5.8 -1.5 3.8 -1.2 7.1 -1.3 7.8 -0.2 0.3 0.5 -1.8 1.4 -4.7 2 -8.8 1.9 -11.7 2.2 -11.7 1.2z"/>
   <path d="M970.5 641 c0.3 -0.5 1.3 -1 2.1 -1 0.8 0 1.2 0.5 0.9 1 -0.3 0.6 -1.3 1 -2.1 1 -0.8 0 -1.2 -0.4 -0.9 -1z"/>
   <path d="M877.3 640.3 c0.9 -0.2 2.5 -0.2 3.5 0 0.9 0.3 0.1 0.5 -1.8 0.5 -1.9 0 -2.7 -0.2 -1.7 -0.5z"/>
   <path d="M889 639 c0 -0.5 0.7 -1 1.5 -1 0.8 0 1.5 0.5 1.5 1 0 0.6 -0.7 1 -1.5 1 -0.8 0 -1.5 -0.4 -1.5 -1z"/>
   <path d="M814.5 638 c-0.4 -0.6 1.3 -1 4.5 -1 3.2 0 4.9 0.4 4.5 1 -0.3 0.6 -2.4 1 -4.5 1 -2.1 0 -4.2 -0.4 -4.5 -1z"/>
   <path d="M920 638 c0 -0.5 0.7 -1 1.5 -1 0.8 0 1.5 0.5 1.5 1 0 0.6 -0.7 1 -1.5 1 -0.8 0 -1.5 -0.4 -1.5 -1z"/>
   <path d="M967 636.5 c-1.2 -1.5 -1.1 -1.6 1.6 -1.3 1.6 0.1 2.8 0.8 2.7 1.3 -0.3 1.7 -2.9 1.7 -4.3 0z"/>
   <path d="M847.5 636 c-1.5 -0.6 -0.8 -0.9 2.8 -0.9 2.6 -0.1 4.7 0.4 4.7 0.9 0 1.2 -4.7 1.2 -7.5 0z"/>
   <path d="M981.2 634.3 c0.3 -2.5 0.7 -2.8 3.6 -2.6 1.8 0 3.6 0.3 3.9 0.6 0.9 1 -3.7 4.7 -5.8 4.7 -1.6 0 -2 -0.5 -1.7 -2.7z"/>
   <path d="M786.4 634.9 c-0.3 -0.6 0 -1.5 0.7 -2 1.3 -0.7 2.8 0.5 2.9 2.4 0 1.1 -2.8 0.8 -3.6 -0.4z"/>
   <path d="M830 635.1 c0 -1.1 5.9 -1.8 9.1 -1.1 l2.4 0.6 -2.5 0.7 c-3.6 1 -9 0.9 -9 -0.2z"/>
   <path d="M944.5 632 c-0.8 -2.6 -0.8 -2.6 3.2 -3.3 2.2 -0.4 3.7 -0.2 4.7 0.8 0.8 0.8 1.9 1.5 2.5 1.5 0.5 0 1.2 0.4 1.5 0.8 0.2 0.4 -1.2 0.8 -3.2 0.8 -2 0.1 -4.7 0.4 -5.9 0.8 -1.6 0.6 -2.3 0.3 -2.8 -1.4z"/>
   <path d="M846.3 632.4 c1.3 -1.3 8.1 -3.6 10.5 -3.6 2.8 0 3.9 0.9 2.6 2.1 -1.1 1.1 -14.2 2.5 -13.1 1.5z"/>
   <path d="M837.4 628.6 c-0.4 -1 -0.2 -2.2 0.3 -2.7 1.1 -1.1 16.1 -3.1 17.4 -2.3 3.1 1.9 -3.2 5.2 -11.3 6.1 -4.9 0.5 -5.9 0.3 -6.4 -1.1z"/>
   <path d="M892 627.4 c0 -1.1 0.5 -1.4 1.6 -1 0.9 0.3 2.2 0.6 3 0.6 0.9 0 1.2 0.5 0.9 1 -1 1.7 -5.5 1.2 -5.5 -0.6z"/>
   <path d="M1001.5 628.2 c-9 -0.4 -10.7 -1.5 -3.5 -2.2 4.7 -0.5 6.9 -0.3 7.9 0.6 2 1.8 1.5 1.9 -4.4 1.6z"/>
   <path d="M790.5 626 l-3 -0.8 3 0 c1.7 0 4.1 0.4 5.5 0.8 l2.5 0.8 -2.5 0 c-1.4 0 -3.8 -0.4 -5.5 -0.8z"/>
   <path d="M945 625 c0 -0.5 0.7 -1 1.5 -1 0.8 0 1.5 0.5 1.5 1 0 0.6 -0.7 1 -1.5 1 -0.8 0 -1.5 -0.4 -1.5 -1z"/>
   <path d="M750.5 624 c1.1 -0.5 4 -0.8 6.5 -0.8 3.7 0 4.1 0.1 2 0.8 -3.6 1.1 -11.2 1.1 -8.5 0z"/>
   <path d="M787.5 622 c-0.3 -0.5 0.3 -1 1.4 -1 1.1 0 2.3 0.5 2.6 1 0.3 0.6 -0.3 1 -1.4 1 -1.1 0 -2.3 -0.4 -2.6 -1z"/>
   <path d="M809.1 618.9 c-7 -1.4 -7.1 -1.7 -0.3 -1.8 4.9 -0.1 6.2 0.2 6.2 1.4 0 0.8 -0.3 1.5 -0.7 1.4 -0.5 -0.1 -2.8 -0.5 -5.2 -1z"/>
   <path d="M895 618 c0 -0.5 1.2 -1 2.6 -1 1.4 0 2.3 0.4 1.9 1 -0.3 0.6 -1.5 1 -2.6 1 -1 0 -1.9 -0.4 -1.9 -1z"/>
   <path d="M776.5 617 c0.3 -0.5 1.2 -1 2 -1 0.8 0 1.7 0.5 2 1 0.4 0.6 -0.5 1 -2 1 -1.5 0 -2.4 -0.4 -2 -1z"/>
   <path d="M999.5 616 c-0.4 -0.7 0.3 -0.8 2.2 -0.4 3.8 0.9 4.2 1.4 1 1.4 -1.4 0 -2.9 -0.5 -3.2 -1z"/>
   <path d="M825.5 614 c0.3 -0.5 1.9 -1 3.6 -1 1.6 0 2.9 0.5 2.9 1 0 0.6 -1.6 1 -3.6 1 -2.1 0 -3.3 -0.4 -2.9 -1z"/>
   <path d="M885.7 614.4 c-1 -1 0.2 -2.4 2 -2.4 0.9 0 2.1 -0.7 2.8 -1.6 1.2 -1.7 5.5 -1.2 5.5 0.7 0 0.8 -0.7 1 -4.9 1.3 -0.8 0.1 -1.6 0.7 -1.9 1.4 -0.4 1.3 -2.4 1.6 -3.5 0.6z"/>
   <path d="M807.8 613.3 c1.8 -0.2 4.5 -0.2 6 0 1.5 0.2 0 0.4 -3.3 0.4 -3.3 0 -4.5 -0.2 -2.7 -0.4z"/>
   <path d="M1020.3 612.2 c-1.8 -0.2 -3.3 -0.7 -3.3 -1.3 0 -1.3 5.7 -1.1 6.5 0.2 0.9 1.4 0.6 1.5 -3.2 1.1z"/>
   <path d="M1010 611.1 c0 -2.2 1.3 -4.1 2.9 -4.1 2.5 0 3.2 1 2 3.1 -1 1.9 -4.9 2.7 -4.9 1z"/>
   <path d="M1031.5 611 c-0.4 -0.6 1 -1 3.4 -1 2.2 0 4.3 0.5 4.6 1 0.4 0.6 -1 1 -3.4 1 -2.2 0 -4.3 -0.4 -4.6 -1z"/>
   <path d="M1001 607.5 c0 -1.7 0.2 -1.8 2.4 -0.9 1.8 0.7 1.2 2.4 -1 2.4 -0.8 0 -1.4 -0.7 -1.4 -1.5z"/>
   <path d="M1017 606.4 c0 -1.1 0.5 -1.4 1.6 -1 0.9 0.3 2 0.6 2.5 0.6 0.5 0 0.9 0.5 0.9 1 0 0.6 -1.1 1 -2.5 1 -1.6 0 -2.5 -0.6 -2.5 -1.6z"/>
   <path d="M692.3 603.3 c-3.6 -0.7 -2.7 -2.1 1.6 -2.5 3.8 -0.3 3.9 -0.2 2.4 1.4 -0.9 1 -1.7 1.7 -1.7 1.7 -0.1 -0.1 -1.1 -0.4 -2.3 -0.6z"/>
   <path d="M700 600.1 c0 -0.6 0.8 -1.4 1.8 -1.7 0.9 -0.3 2.5 -1 3.5 -1.5 1.3 -0.7 1.7 -0.5 1.7 1.1 0 1.1 -0.6 2 -1.2 2 -0.7 0 -2.3 0.3 -3.5 0.6 -1.4 0.4 -2.3 0.2 -2.3 -0.5z"/>
   <path d="M698 595 c0 -0.5 0.9 -1 2 -1 1.1 0 2 0.5 2 1 0 0.6 -0.9 1 -2 1 -1.1 0 -2 -0.4 -2 -1z"/>
   <path d="M940.6 583.8 c-2 -2.7 -2 -3.8 -0.3 -3.8 1.7 0 4 4.7 2.7 5.5 -0.5 0.3 -1.6 -0.5 -2.4 -1.7z"/>
   <path d="M778 575.5 c0 -0.8 0.7 -1.5 1.5 -1.5 0.8 0 1.5 0.7 1.5 1.5 0 0.8 -0.7 1.5 -1.5 1.5 -0.8 0 -1.5 -0.7 -1.5 -1.5z"/>
   <path d="M931.7 557.3 l-2.7 -1.4 1.8 -2.7 c1 -1.5 2.5 -4.2 3.3 -5.9 2.5 -5.8 4 -4.2 3.7 3.9 -0.3 8 -1.1 8.8 -6.1 6.1z"/>
   <path d="M609.6 531 c2.4 -3.6 5.4 -5.4 5.4 -3.2 0 1 -6.3 7.2 -7.3 7.2 -0.4 0 0.5 -1.8 1.9 -4z"/>
   <path d="M623 522 c0 -0.5 1.4 -1 3.2 -1 3.6 0 3.5 0.4 -0.4 1.4 -1.7 0.4 -2.8 0.2 -2.8 -0.4z"/>
   <path d="M651.3 519.2 c-2 -1.3 -2.6 -5.9 -0.8 -6.5 1 -0.4 1.8 0 2.2 1.1 0.4 0.9 1.1 2 1.7 2.4 1.5 1 -1.5 4 -3.1 3z"/>
   <path d="M494.4 512.2 c3 -3.3 4.6 -4 4.6 -2.2 0 0.6 -0.8 1.3 -1.7 1.7 -1 0.3 -2.7 1.3 -3.8 2.2 -1.1 0.9 -0.7 0.1 0.9 -1.7z"/>
   <path d="M628.5 510 c-0.3 -0.5 0.3 -1 1.4 -1 1.2 0 2.1 0.5 2.1 1 0 0.6 -0.6 1 -1.4 1 -0.8 0 -1.8 -0.4 -2.1 -1z"/>
   <path d="M633 508 c-1.2 -0.8 -1.1 -1 0.8 -1 1.2 0 2.2 0.5 2.2 1 0 1.3 -1.1 1.3 -3 0z"/>
   <path d="M502.3 507.3 c-2.1 -0.8 -1.5 -3 1.3 -5.2 2.5 -2 2.8 -2 5.5 -0.4 3.8 2.2 3.7 3.1 -0.6 4.9 -3.6 1.5 -4.2 1.6 -6.2 0.7z"/>
   <path d="M603.4 500.5 c0.5 -1.8 0.2 -2.7 -0.9 -3.1 -1.4 -0.6 -1.3 -0.8 0.2 -1.9 1 -0.7 2 -1 2.3 -0.6 0.3 0.3 1.6 1.2 3 1.8 1.8 0.9 2 1.2 0.8 1.2 -2 0.1 -2.4 1.7 -0.6 2.3 2 0.7 -0.2 2.8 -2.9 2.8 -2.2 0 -2.4 -0.3 -1.9 -2.5z"/>
   <path d="M687 502.1 c0 -1 8.7 -2.1 10.7 -1.4 3.1 1.2 0.9 2.3 -4.7 2.3 -3.3 0 -6 -0.4 -6 -0.9z"/>
   <path d="M917 502 c-1.1 -0.7 -0.6 -1 2.2 -1 2 0 4.5 -0.3 5.5 -0.6 1.6 -0.6 1.6 -0.5 -0.2 0.9 -2.3 1.9 -5.3 2.1 -7.5 0.7z"/>
   <path d="M701.5 501 c-0.3 -0.6 0.4 -1 1.7 -1.1 2.1 0 7.9 -2.7 17.9 -8.3 l3.4 -1.9 -2.4 2.7 c-1.4 1.4 -3 2.6 -3.6 2.6 -0.7 0 -2 0.9 -3 2 -1 1.1 -4.1 2.7 -6.8 3.5 -6 1.8 -6.4 1.8 -7.2 0.5z"/>
   <path d="M759.3 500 c-3.8 -2.3 -3.8 -2.2 -1.6 -6.3 l1.7 -3.2 0.6 2.9 c0.6 3.3 2.9 4.8 3.1 1.9 0.1 -1.3 0.3 -1.1 0.9 0.7 2 6.3 0.8 7.4 -4.7 4z"/>
   <path d="M532.3 495.3 c-0.7 -0.2 -1.3 -1.1 -1.3 -1.8 0 -0.7 -0.8 -1.5 -1.7 -1.7 -1.5 -0.3 -1.4 -0.5 0.5 -1 1.2 -0.3 2 -0.2 1.6 0.3 -0.3 0.5 1.3 0.9 3.5 0.9 4.5 0 5 0.6 2.4 2.6 -1.9 1.4 -3 1.6 -5 0.7z"/>
   <path d="M612.7 492.2 c-2.6 -0.5 -1.6 -2.5 1.8 -3.4 3.6 -0.9 3.7 -0.8 1.7 1.7 -1 1.1 -2.5 1.9 -3.5 1.7z"/>
   <path d="M910 491.4 c0 -4.1 1.5 -4.9 6.2 -3.5 2.4 0.7 4.9 1.5 5.7 1.8 2.7 0.7 -0.4 2.2 -6.2 2.9 -5.2 0.6 -5.7 0.5 -5.7 -1.2z"/>
   <path d="M520.7 485.8 c2.5 -2.6 2.8 -2.7 4.4 -1.2 2.8 2.5 1.3 4.5 -3.2 4.2 l-3.8 -0.3 2.6 -2.7z"/>
   <path d="M769.3 471 c0 -2.5 0.2 -3.5 0.4 -2.2 0.2 1.2 0.2 3.2 0 4.5 -0.2 1.2 -0.4 0.2 -0.4 -2.3z"/>
   <path d="M537.2 472 c-2.7 -1.5 -3 -1.9 -1.7 -3 1.2 -1 2.1 -1 4.5 0 3.3 1.4 3.7 2.2 1.8 3.8 -0.9 0.7 -2.3 0.4 -4.6 -0.8z"/>
   <path d="M890 472 c0 -0.5 0.7 -1 1.5 -1 0.8 0 1.5 0.5 1.5 1 0 0.6 -0.7 1 -1.5 1 -0.8 0 -1.5 -0.4 -1.5 -1z"/>
   <path d="M635 468.5 c0 -0.8 0.9 -1.5 2 -1.5 1.1 0 2 0.7 2 1.5 0 0.8 -0.9 1.5 -2 1.5 -1.1 0 -2 -0.7 -2 -1.5z"/>
   <path d="M626.5 465 c-4.7 -2.7 -14.8 -11 -11.5 -9.4 0.8 0.4 2.2 1.3 3.1 2 1.9 1.7 9.8 6.2 12.2 7 0.9 0.4 1.7 1.3 1.7 2 0 1.8 0.4 1.9 -5.5 -1.6z"/>
   <path d="M715.7 465.8 c-0.2 -0.7 0 -2.3 0.4 -3.5 0.5 -1.4 0.4 -2.3 -0.4 -2.7 -0.9 -0.3 -0.9 -0.5 0 -0.5 1.9 -0.2 6.7 5.5 5.8 6.9 -0.9 1.4 -5.3 1.2 -5.8 -0.2z"/>
   <path d="M549.1 459.6 c-3 -1.1 -3.1 -1.3 -1.7 -2.5 1.4 -1.2 2 -1.1 3.7 0.8 2.6 2.8 2.3 3.1 -2 1.7z"/>
   <path d="M675 460.2 c0 -0.5 0.9 -1.7 2 -2.7 1.6 -1.4 2 -1.5 2 -0.4 0 1.6 -1.9 3.9 -3.2 3.9 -0.4 0 -0.8 -0.4 -0.8 -0.8z"/>
   <path d="M932.6 460.3 c-1.2 -1.3 -0.5 -2 3.3 -3.3 3 -1 4.6 -1 7.4 -0.1 1.9 0.7 4.7 0.9 6.1 0.5 2.6 -0.6 3.9 1.3 1.4 2 -2.5 0.8 -17.6 1.5 -18.2 0.9z"/>
   <path d="M618 453.9 c0 -0.5 -0.4 -0.7 -1 -0.4 -0.5 0.3 -1 0.1 -1 -0.5 0 -0.7 -0.7 -1 -1.5 -0.6 -0.8 0.3 -1.5 0.1 -1.5 -0.3 0 -1.1 7.9 -2.6 8.7 -1.7 0.4 0.3 0.1 0.6 -0.5 0.6 -0.7 0 -1.2 0.9 -1.2 2 0 1.1 -0.4 2 -1 2 -0.5 0 -1 -0.5 -1 -1.1z"/>
   <path d="M698.3 451.3 c-0.3 -1 -0.8 -2.1 -1 -2.5 -0.2 -0.5 0.5 -0.8 1.6 -0.8 1.6 0 2.1 0.6 2.1 2.5 0 2.9 -1.8 3.4 -2.7 0.8z"/>
   <path d="M559.7 450.1 c-1.7 -0.6 -1.7 -0.8 0.3 -2.6 1.6 -1.4 2.3 -1.6 3.2 -0.7 1.7 1.7 -1.1 4.2 -3.5 3.3z"/>
   <path d="M620.2 446.8 c-2.6 -1.3 -2.4 -3.1 0.3 -3.6 1.8 -0.4 3.5 1.3 3.5 3.6 0 1.4 -0.7 1.4 -3.8 0z"/>
   <path d="M825.1 446 c-1.6 -0.9 -0.6 -3 1.5 -3 1.5 0 2 2.5 0.6 3.4 -0.4 0.2 -1.4 0.1 -2.1 -0.4z"/>
   <path d="M699.2 445.1 c-1 -0.6 -1 -1 0.2 -2 1.2 -1 1.5 -0.9 1.3 0.8 -0.1 1.2 -0.1 2.1 -0.2 2.1 0 0 -0.6 -0.4 -1.3 -0.9z"/>
   <path d="M590.5 443.1 c-2.7 -1.6 -6.5 -6 -6.5 -7.6 0 -1.5 1.9 0 5.8 4.5 2.4 2.8 4.2 5 4 5 -0.2 0 -1.7 -0.8 -3.3 -1.9z"/>
   <path d="M809 439.3 c0 -0.5 0.9 -1.9 2 -3.3 1.8 -2.3 2 -2.4 2 -0.4 0 2 -1.7 4.4 -3.2 4.4 -0.4 0 -0.8 -0.3 -0.8 -0.7z"/>
   <path d="M799.3 438.3 c-2.7 -0.5 -3 -1.8 -0.7 -2.7 2.6 -1 3.9 -0.7 5.2 1.4 1.3 2.1 0.7 2.3 -4.5 1.3z"/>
   <path d="M595.5 436.3 c-1.8 -1.4 -1.8 -1.5 -0.2 -0.9 1 0.3 2.3 0.6 2.8 0.6 0.5 0 0.9 0.5 0.9 1 0 1.4 -1.2 1.2 -3.5 -0.7z"/>
   <path d="M687 420.2 c0 -3.9 -0.3 -7.7 -0.6 -8.6 -0.3 -0.9 -0.2 -1.6 0.3 -1.6 0.5 0 1.7 2.7 2.7 6 1.8 5.9 1.8 6 -0.3 8.6 l-2.1 2.7 0 -7.1z"/>
   <path d="M625 424.4 c0 -2.8 15.1 -16.8 21.6 -20 4.8 -2.4 4.8 -2.4 1.9 -0.2 -1.6 1.3 -4.6 3.7 -6.5 5.4 -1.9 1.6 -5.9 4.8 -8.9 6.9 -2.9 2.1 -5.9 5.2 -6.7 6.9 -1 2.5 -1.3 2.7 -1.4 1z"/>
   <path d="M616.7 421.5 c0.6 -1.1 1.2 -2.7 1.5 -3.4 0.4 -1.3 0.5 -1.2 1 0.1 0.4 1 -0.2 2.3 -1.4 3.5 -2 1.8 -2.1 1.8 -1.1 -0.2z"/>
   <path d="M621.4 414.1 c2.1 -2.3 11.3 -5.7 9.5 -3.5 -0.6 0.8 -1.7 1.4 -2.4 1.4 -0.7 0 -2.4 0.9 -3.8 2 -3.3 2.6 -5.6 2.7 -3.3 0.1z"/>
   <path d="M661.3 407.8 c-3.1 -3.5 -5.6 -7.8 -4.9 -8.5 0.3 -0.3 0.6 -0.1 0.6 0.5 0 0.6 1.6 3.1 3.5 5.6 3.7 4.9 4.1 6 0.8 2.4z"/>
   <path d="M686.8 404.1 c-0.4 -1.6 3.1 -5.1 5.1 -5.1 1 0 1.2 0.5 1.5 4.2 0.1 0.7 -1.3 1.5 -3.1 1.9 -2.5 0.5 -3.3 0.3 -3.5 -1z"/>
   <path d="M549 403.6 c0 -0.2 0.7 -0.9 1.5 -1.6 1.2 -1 1.5 -1 1.5 0.4 0 0.9 -0.7 1.6 -1.5 1.6 -0.8 0 -1.5 -0.2 -1.5 -0.4z"/>
   <path d="M558.6 400.1 c-1.6 -0.6 -1.4 -1.1 2.1 -4.9 2.1 -2.3 5 -4.3 6.3 -4.6 1.4 -0.2 2.4 -0.8 2.3 -1.3 -0.1 -0.5 1 -1 2.4 -1.1 1.3 -0.1 2.3 0.2 2.1 0.7 -0.4 0.9 -12.4 12.1 -12.9 12 -0.2 0 -1.2 -0.4 -2.3 -0.8z"/>
   <path d="M686 396.1 c0 -1.6 0.6 -3.1 1.5 -3.4 1.9 -0.8 2.4 0.2 1.8 3.6 -0.7 3.7 -3.3 3.6 -3.3 -0.2z"/>
   <path d="M690 388 c0 -1 -0.7 -3.1 -1.5 -4.6 -0.8 -1.6 -1.5 -2.3 -1.5 -1.6 0 0.6 -0.4 1.2 -1 1.2 -0.9 0 -0.8 -10.6 0.1 -11.5 0.3 -0.2 1.1 0 1.9 0.5 1 0.7 1.1 1 0.3 1 -0.8 0 -1.3 1.4 -1.3 3.4 0 3.5 0 3.5 2.8 2 2.6 -1.3 5.2 -1.8 5.2 -1 0 0.2 -0.6 1.6 -1.4 3.1 -1 1.9 -1.2 3.5 -0.5 5.2 1.2 3.1 1.2 3 -1.1 3.6 -1.5 0.4 -2 0 -2 -1.3z"/>
   <path d="M558 387.7 c0 -1.4 3.4 -6.7 4.2 -6.7 0.4 0 0.8 0.3 0.8 0.8 -0.1 1 -5 6.9 -5 5.9z"/>
   <path d="M701.2 385.3 c1.2 -2.9 7.3 -10.2 7.7 -9.2 0.2 0.6 -0.1 1.4 -0.7 1.8 -0.6 0.3 -1.4 1.9 -1.7 3.4 -0.4 1.5 -1.5 3.2 -2.5 3.7 -2.2 1.2 -3.3 1.3 -2.8 0.3z"/>
   <path d="M582.8 384.3 c-1 -0.2 -1.8 -0.8 -1.8 -1.2 0 -1.5 3.9 -4.3 9.2 -6.8 l5.3 -2.4 -5.5 5.5 c-3 3.1 -5.4 5.5 -5.5 5.5 0 -0.1 -0.8 -0.3 -1.7 -0.6z"/>
   <path d="M857 384.9 c0 -0.4 0.7 -2.2 1.5 -4 0.8 -1.9 1.4 -2.7 1.4 -1.9 0 1.4 -2.8 7.2 -2.9 5.9z"/>
   <path d="M620.5 379 c1.2 -1.3 2.2 -1.7 2.8 -1.1 1.3 1.3 -0.1 3.1 -2.5 3.1 -2.1 0 -2.1 -0.1 -0.3 -2z"/>
   <path d="M563.7 379.3 c-0.7 -1.1 4.1 -6.9 4.9 -6.1 0.3 0.4 -0.5 2.1 -1.9 3.8 -1.4 1.6 -2.8 2.7 -3 2.3z"/>
   <path d="M655.3 378.3 c-2 -0.7 -1.5 -2.3 0.7 -2.3 1.1 0 2 0.4 2 0.9 0 1.3 -1.2 1.9 -2.7 1.4z"/>
   <path d="M587.6 371.1 c-0.8 -1.2 3.6 -6.1 5.4 -6.1 1.7 0 1.1 1.5 -1.9 4.4 -1.8 1.7 -3.1 2.4 -3.5 1.7z"/>
   <path d="M699.3 371.3 c-2 -0.7 -1.5 -2.3 0.7 -2.3 1.1 0 2 0.4 2 0.9 0 1.3 -1.2 1.9 -2.7 1.4z"/>
   <path d="M881.6 368.7 c-1 -3.7 -0.7 -5.7 0.9 -5.7 0.8 0 1.5 0.6 1.5 1.3 0 0.6 0.3 2.2 0.6 3.3 0.4 1.4 0 2.3 -0.9 2.7 -1 0.4 -1.7 -0.2 -2.1 -1.6z"/>
   <path d="M582.2 364.2 c-1.9 -0.3 -2.1 -0.6 -1.1 -1.8 1.2 -1.5 4.9 -2 4.9 -0.6 -0.1 1.7 -1.6 2.7 -3.8 2.4z"/>
   <path d="M610 363.8 c0 -0.4 3.7 -3.8 8.1 -7.8 5.8 -5.1 8.5 -6.8 9.2 -6.1 1.2 1.2 0.7 1.7 -7 7.1 -2.3 1.7 -4.5 3 -4.9 3 -0.4 0 -1.8 1 -3.1 2.2 -1.3 1.2 -2.3 1.9 -2.3 1.6z"/>
   <path d="M708.2 361.1 c-1.9 -1.1 -1.1 -4.5 1.1 -4.9 1.1 -0.2 1.7 0.3 1.7 1.5 0 1.1 0.5 2.4 1.2 3.1 0.9 0.9 0.8 1.2 -0.7 1.2 -1.1 0 -2.6 -0.4 -3.3 -0.9z"/>
   <path d="M602 355.4 c2.5 -2.5 7.7 -6.8 11.5 -9.5 5.4 -3.8 6 -4.1 2.5 -1.2 -2.4 2.1 -7.2 6.4 -10.5 9.6 -7.3 6.8 -9.8 7.6 -3.5 1.1z"/>
   <path d="M787.9 355.3 c1.1 -1.6 4.1 -5 6.7 -7.8 3.3 -3.6 2.8 -2.8 -1.6 2.8 -6 7.4 -9.3 10.7 -5.1 5z"/>
   <path d="M715.9 354 c3 -2.6 4.9 -2.6 2.6 0 -1 1.1 -2.5 2 -3.4 2 -1.2 -0.1 -1 -0.5 0.8 -2z"/>
   <path d="M836 352.7 c0 -1.4 2 -3.7 3.2 -3.7 1.5 0 0.8 3.8 -0.8 4.4 -2.2 0.8 -2.4 0.8 -2.4 -0.7z"/>
   <path d="M707.2 350.3 c0.2 -1.7 1 -2.9 2.1 -3.1 1.5 -0.3 1.8 0.2 1.5 2.5 -0.2 1.7 -1 2.9 -2.1 3.1 -1.5 0.3 -1.8 -0.2 -1.5 -2.5z"/>
   <path d="M859.5 350 c1.9 -2.1 4.5 -2.7 4.5 -1 0 0.6 -1.2 1.5 -2.6 2 -3.6 1.4 -3.9 1.3 -1.9 -1z"/>
   <path d="M702 350 c0 -0.5 0.7 -1 1.5 -1 0.8 0 1.5 0.5 1.5 1 0 0.6 -0.7 1 -1.5 1 -0.8 0 -1.5 -0.4 -1.5 -1z"/>
   <path d="M811.6 346.3 c0.8 -1.6 2.4 -4.1 3.4 -5.8 1.1 -1.6 2.6 -4.3 3.5 -6 4.9 -9.6 8.1 -14.9 9.3 -15.3 2.5 -0.8 1 3.1 -4 10.6 -6.2 9 -7.1 10.5 -9.8 15.5 -1.1 2 -2.4 3.7 -2.9 3.7 -0.5 0 -0.3 -1.2 0.5 -2.7z"/>
   <path d="M577.2 345.8 c0.2 -1.2 1.1 -2.4 2.1 -2.6 1.4 -0.3 1.8 0.1 1.5 2 -0.2 1.2 -1.1 2.4 -2.1 2.6 -1.4 0.3 -1.8 -0.1 -1.5 -2z"/>
   <path d="M630.7 344.5 c1 -1.3 2.4 -2.7 3.2 -3 1.1 -0.4 1 -0.1 -0.2 1.3 -0.9 1 -1.7 2.4 -1.7 3 0 0.7 -0.7 1.2 -1.5 1.2 -1.4 0 -1.3 -0.3 0.2 -2.5z"/>
   <path d="M717.6 343.7 c-2.7 -2 -1.8 -6.2 1.3 -6.2 3.1 0 5 2.8 3.5 5.2 -1.4 2.3 -2.7 2.6 -4.8 1z"/>
   <path d="M874.2 340 c0.8 -1.9 2.1 -3.5 2.9 -3.6 0.8 -0.1 0.9 0.1 0.2 0.3 -0.7 0.2 -1 1 -0.7 1.7 0.3 0.7 -0.5 2.1 -1.7 3.2 l-2.1 1.9 1.4 -3.5z"/>
   <path d="M728.5 334.1 c-3.7 -0.8 -4.6 -4.4 -1.6 -6.3 1.2 -0.7 2.1 -1.8 2.1 -2.5 0 -0.7 0.7 -1.3 1.5 -1.3 0.8 0 1.5 0.8 1.5 1.8 0 1 0.5 2.3 1.1 2.9 1.3 1.3 0.8 5.6 -0.6 5.8 -0.5 0.2 -2.3 0 -4 -0.4z"/>
   <path d="M680 326 c0 -1.9 1.1 -2.6 2.3 -1.4 0.8 0.8 -0.3 3.4 -1.4 3.4 -0.5 0 -0.9 -0.9 -0.9 -2z"/>
   <path d="M599.7 324.3 c-1.6 -0.4 -1.5 -0.6 0.5 -2.2 3.3 -2.5 5.6 -3.2 6.4 -1.9 0.7 1.1 -3.1 4.9 -4.5 4.7 -0.3 -0.1 -1.4 -0.3 -2.4 -0.6z"/>
   <path d="M698.4 318.5 c-0.9 -2.2 1.3 -4.4 3.6 -3.8 1.3 0.3 2 1.4 2 2.9 0 1.9 -0.5 2.4 -2.5 2.4 -1.4 0 -2.8 -0.7 -3.1 -1.5z"/>
   <path d="M658 315 c0 -1.1 0.7 -2 1.5 -2 0.8 0 1.5 0.9 1.5 2 0 1.1 -0.7 2 -1.5 2 -0.8 0 -1.5 -0.9 -1.5 -2z"/>
   <path d="M663.5 310.8 c0.3 -3.5 0.9 -7.1 1.1 -8 0.7 -2.2 3 -2.3 3.8 -0.2 0.9 2.3 0.8 2.4 -1.4 2.4 -1.7 0 -1.9 0.5 -1.4 6 0.5 5.2 0.4 6 -1.1 6 -1.5 0 -1.6 -0.8 -1 -6.2z"/>
   <path d="M616.5 314.1 c-0.6 -1.1 -0.3 -1.3 7.2 -5.3 5.1 -2.7 7.3 -2.9 7.3 -0.8 0 0.6 -1.6 1.7 -3.5 2.5 -1.9 0.8 -5.1 2.2 -6.9 3 -2 0.8 -3.7 1.1 -4.1 0.6z"/>
   <path d="M708.3 308.5 c-0.8 -0.9 -0.9 -1.6 -0.3 -2 0.6 -0.3 1 -0.1 1 0.4 0 0.6 0.7 1.1 1.5 1.1 0.8 0 1.5 0.5 1.5 1 0 1.5 -2.3 1.2 -3.7 -0.5z"/>
   <path d="M632 306 c-1 -0.6 -0.6 -1.2 1.6 -2 1.6 -0.7 4.7 -2.1 6.8 -3.1 5.3 -2.7 5.5 -1.8 0.4 1.7 -5.6 3.8 -7.2 4.4 -8.8 3.4z"/>
   <path d="M910.3 297.8 c-4.5 -1.5 -4.1 -2.7 0.6 -2.6 3 0 4 0.5 4.4 1.9 0.6 2.1 -0.2 2.2 -5 0.7z"/>
   <path d="M921 295.1 c1.5 -2.9 2.6 -3.3 4 -1.6 1.5 1.8 1.4 2 -2.3 2.9 -2.6 0.6 -2.7 0.5 -1.7 -1.3z"/>
   <path d="M695.2 293.8 c-1.8 -1.8 -1.5 -6.8 0.3 -6.8 0.8 0 1.5 -0.4 1.5 -1 0 -0.5 0.7 -1 1.6 -1 1.3 0 1.5 0.7 1 3.3 -0.4 1.7 -1.1 3.4 -1.6 3.5 -1.6 0.6 -1.1 2 0.8 2.5 1.4 0.4 1.3 0.5 -0.3 0.6 -1.2 0 -2.6 -0.4 -3.3 -1.1z"/>
   <path d="M892 292.2 c-5.5 -1.4 -8 -2.7 -8 -4.3 0 -0.5 1.2 -0.9 2.7 -0.9 1.5 0 3.7 -1 5 -2.1 2 -2 2.3 -2 2.9 -0.5 0.7 1.9 3.3 2.2 3.5 0.4 0.1 -0.7 0 -2.3 -0.1 -3.6 -0.2 -2.3 -0.1 -2.3 2.4 -0.7 3.2 2.1 3.2 2.9 0.2 4.9 -1.6 1 -2.6 2.7 -2.8 4.8 l-0.3 3.3 -5.5 -1.3z"/>
   <path d="M666 288 c0 -0.5 0.7 -1 1.5 -1 0.8 0 1.5 0.5 1.5 1 0 0.6 -0.7 1 -1.5 1 -0.8 0 -1.5 -0.4 -1.5 -1z"/>
   <path d="M868.7 288.3 c-1.5 -1.4 -0.6 -2.4 1.6 -1.8 3.5 1.1 4.4 2.5 1.6 2.5 -1.4 0 -2.9 -0.3 -3.2 -0.7z"/>
   <path d="M871.3 282.3 c-1.1 -1 -3 -1.9 -4.3 -2.1 -3.2 -0.3 -4.7 -1.9 -3.3 -3.3 0.8 -0.8 2.2 -0.4 5.1 1.5 4.2 2.6 5.8 4.4 4.9 5.2 -0.3 0.3 -1.4 -0.3 -2.4 -1.3z"/>
   <path d="M888.2 277.9 c-0.5 -1.1 -1.2 -2 -1.7 -2 -0.6 0.1 -1 -0.5 -1 -1.1 0 -0.7 0.6 -1.3 1.3 -1.2 4.4 0.4 4.5 0.4 3.3 1.8 -0.6 0.7 -0.9 2.1 -0.5 3 0.3 0.9 0.3 1.6 0 1.6 -0.4 0 -1 -0.9 -1.4 -2.1z"/>
   <path d="M875.8 277.9 c-1.5 -0.4 -2.9 -0.5 -3.1 -0.3 -0.6 0.6 -5.7 -6.2 -5.7 -7.5 0 -0.6 1.9 -1.1 4.3 -1.1 5.3 0 8 2.4 7.5 6.7 -0.3 2.7 -0.6 2.9 -3 2.2z"/>
   <path d="M678.2 276.8 c0.3 -0.7 1.5 -1.5 2.7 -1.6 1.6 -0.3 2.2 0.1 1.9 1 -0.3 0.7 -1.5 1.5 -2.7 1.6 -1.6 0.3 -2.2 -0.1 -1.9 -1z"/>
   <path d="M879.8 269.3 c-2.1 -0.5 -3.4 -4.1 -2 -5.5 1.9 -1.9 4.2 0 4.2 3.2 0 1.6 -0.1 2.9 -0.2 2.9 -0.2 -0.1 -1.1 -0.3 -2 -0.6z"/>
   <path d="M923.6 265.8 c-2 -2.8 -2.1 -5.8 -0.2 -5.8 0.8 0 1.7 1.5 2.1 3.6 0.8 4.5 0.2 5.2 -1.9 2.2z"/>
   <path d="M804.2 262.1 c-1.6 -1 -0.5 -4.1 1.4 -4.1 1.5 0 2 3.5 0.6 4.4 -0.4 0.2 -1.4 0.1 -2 -0.3z"/>
   <path d="M813 260.6 c-2.5 -2.8 -2.1 -5.6 0.8 -5.6 2.8 0 4.1 2.1 3.5 5.3 -0.7 3.3 -1.3 3.4 -4.3 0.3z"/>
   <path d="M701 259 c0 -0.5 0.9 -1 2 -1 1.1 0 2 0.5 2 1 0 0.6 -0.9 1 -2 1 -1.1 0 -2 -0.4 -2 -1z"/>
   <path d="M729.7 256.1 c-0.9 -1.6 -1.7 -3.8 -1.7 -4.8 0 -1 -0.6 -2.5 -1.2 -3.2 -0.7 -0.8 -0.1 -0.6 1.5 0.4 1.5 1 3 2.9 3.3 4.4 0.3 1.4 0.8 3.4 1.1 4.4 0.7 2.7 -1.1 2 -3 -1.2z"/>
   <path d="M696 256.5 c0 -0.8 0.7 -1.5 1.5 -1.5 0.8 0 1.5 0.7 1.5 1.5 0 0.8 -0.7 1.5 -1.5 1.5 -0.8 0 -1.5 -0.7 -1.5 -1.5z"/>
   <path d="M922.7 253 c-0.3 -1.1 -0.1 -2.3 0.4 -2.6 0.5 -0.3 0.9 0.6 0.9 2 0 3.1 -0.6 3.4 -1.3 0.6z"/>
   <path d="M824.1 252.6 c-0.9 -1.1 -0.8 -1.5 0.5 -2 2.5 -1 3.1 -0.7 3.7 1.4 0.6 2.4 -2.4 2.8 -4.2 0.6z"/>
   <path d="M793.2 240.8 c0.3 -0.7 1.3 -1.5 2.2 -1.6 1.2 -0.3 1.7 0.1 1.4 1 -0.3 0.7 -1.3 1.5 -2.2 1.6 -1.2 0.3 -1.7 -0.1 -1.4 -1z"/>
   <path d="M862.7 236 c-0.9 -2.2 -1.7 -4.7 -1.7 -5.4 0 -1.6 3.4 -3.1 4.9 -2.2 1.3 0.8 3.4 9.3 2.6 10.5 -1.4 2.4 -4.1 1 -5.8 -2.9z"/>
   <path d="M819.2 234.7 c-1.2 -1.3 -2.2 -3.1 -2.2 -4 0 -2 0.4 -2.1 3.1 -0.6 1.8 0.9 1.9 0.8 1.3 -1.6 -0.6 -2.3 -0.4 -2.6 1.2 -2.3 1.9 0.3 3.4 4.8 1.7 4.8 -1.3 0 -1.3 3.8 0 4.3 0.7 0.2 0.4 0.3 -0.5 0.2 -0.9 -0.2 -1.8 0.1 -2 0.7 -0.2 0.5 -1.3 -0.1 -2.6 -1.5z"/>
   <path d="M753.8 230.3 c2.5 -0.5 2.8 -1.3 1 -3.2 -0.9 -0.8 -0.2 -0.8 2.2 0.2 5.2 2.3 5 3.7 -0.7 3.6 -2.6 -0.1 -3.8 -0.4 -2.5 -0.6z"/>
   <path d="M860.7 226.7 c-1.1 -2.9 -0.9 -4.3 0.4 -3 0.6 0.6 0.9 1.9 0.7 2.9 -0.3 1.8 -0.4 1.8 -1.1 0.1z"/>
   <path d="M863.5 223 c-0.4 -1.7 -0.5 -3.4 -0.2 -3.6 0.2 -0.3 0.7 1 1.1 2.7 0.8 4.2 0 5 -0.9 0.9z"/>
   <path d="M735.3 220.3 c-2 -0.7 -1.5 -2.3 0.7 -2.3 1.1 0 2 0.4 2 0.9 0 1.3 -1.2 1.9 -2.7 1.4z"/>
   <path d="M726.3 215.5 c-0.3 -0.9 -0.3 -1.9 0.1 -2.2 0.9 -1 5.8 1.6 5.1 2.7 -1 1.6 -4.5 1.2 -5.2 -0.5z"/>
   <path d="M814.5 216 c-0.2 -0.4 -1.6 -0.5 -3 -0.2 -2.2 0.4 -2.5 0.1 -2.5 -2.5 0 -2 -1.1 -3.9 -3.5 -6.3 -5.9 -5.7 -4.1 -7.5 4.4 -4.5 4.8 1.7 8.3 4.5 5.7 4.5 -0.9 0 -1.6 0.7 -1.6 1.6 0 0.8 0.5 1.2 1 0.9 0.6 -0.3 1.3 0.2 1.7 1.1 0.4 1.1 0.1 2 -0.7 2.2 -0.9 0.3 -0.6 0.9 1 1.7 2.2 1.2 2.2 1.2 0.1 1.8 -1.1 0.3 -2.3 0.2 -2.6 -0.3z"/>
   <path d="M821.6 215.2 c-0.9 -1.5 0.5 -5.2 2 -5.2 0.8 0 1.4 0.8 1.4 1.9 0 2.1 -2.5 4.6 -3.4 3.3z"/>
   <path d="M861.3 203.5 c0 -3.8 0.2 -5.3 0.4 -3.2 0.2 2 0.2 5.2 0 7 -0.2 1.7 -0.4 0.1 -0.4 -3.8z"/>
   <path d="M906 208.9 c0 -0.7 -1.1 -2.7 -2.5 -4.5 -2.9 -3.8 -3 -4.4 -1 -4.4 0.8 0 1.5 0.6 1.5 1.4 0 0.9 0.7 1.2 2 0.9 1.7 -0.5 2 0 2 3 0 2 -0.4 3.9 -1 4.2 -0.5 0.3 -1 0.1 -1 -0.6z"/>
   <path d="M833 200.8 c0 -0.4 1.1 -3.3 2.5 -6.4 1.4 -3.1 2.5 -6.2 2.5 -6.8 0 -0.6 0.8 -2 1.6 -3.1 1.5 -1.9 1.5 -1.9 0.8 1 -0.3 1.7 -1.1 3.4 -1.5 3.9 -0.5 0.6 -0.9 1.7 -0.9 2.5 -0.1 1.6 -5 10.3 -5 8.9z"/>
   <path d="M719.5 196.9 c-1 -1.5 0.3 -2.5 1.6 -1.2 0.7 0.7 0.7 1.3 0.1 1.7 -0.6 0.3 -1.4 0.1 -1.7 -0.5z"/>
   <path d="M790 195.1 c0 -1.5 0.6 -2.1 2.1 -2.1 2.5 0 2.2 3.3 -0.4 3.8 -1.2 0.2 -1.7 -0.3 -1.7 -1.7z"/>
   <path d="M896.4 175 c-0.7 -3 -1 -5.7 -0.9 -5.9 0.6 -0.6 2.6 8 2.3 9.7 -0.2 0.9 -0.8 -0.8 -1.4 -3.8z"/>
   <path d="M848.9 163.7 c1 -2.7 4.4 -3.7 3.9 -1.2 -0.1 1 -1.3 2.1 -2.5 2.6 -2 0.7 -2.1 0.6 -1.4 -1.4z"/>
   <path d="M830 155.4 c0 -0.6 0.7 -1.7 1.5 -2.4 1 -0.9 1.5 -0.9 1.5 -0.1 0 0.6 0.7 1.1 1.5 1.1 2.7 0 1.5 1.8 -1.5 2.2 -1.9 0.3 -3 0 -3 -0.8z"/>
   <path d="M848.5 156 c-0.7 -1.2 0.2 -3 1.6 -3 1.2 0 1.2 2.7 0 3.5 -0.5 0.3 -1.2 0.1 -1.6 -0.5z"/>
   <path d="M842.2 150.5 c3.9 -3.6 6.8 -4.5 6.8 -2.2 0 1.9 -5.5 5.7 -8.2 5.7 -2.1 -0.1 -2 -0.3 1.4 -3.5z"/>
   <path d="M766 145.4 c0 -0.9 0.5 -1.4 1.2 -1.2 1.8 0.6 2.1 2.8 0.4 2.8 -0.9 0 -1.6 -0.7 -1.6 -1.6z"/>
  </g>
  <g transform="translate(465.308 67.000) scale(1.587302) translate(-251.000 -682.900)">
   <path d="M388.1 864.5 c-0.6 -1.6 -1.6 -4.3 -2.2 -6 -0.6 -1.6 -1.7 -4.3 -2.4 -6 -0.8 -1.6 -2.1 -4.9 -3 -7.2 -1 -2.4 -2.1 -4.3 -2.6 -4.3 -0.5 0 -0.9 -0.4 -0.9 -0.8 0 -0.6 5.2 -0.8 9 -0.2 0.3 0 -0.1 0.4 -0.9 0.9 -1.2 0.8 -0.8 2.5 2.2 10.3 l3.6 9.3 2.1 -4.9 c2.1 -4.7 2.1 -4.9 0.5 -9.3 -1 -2.4 -2.3 -4.7 -3.1 -5 -2.7 -1 -1.4 -2.3 2.4 -2.3 3.6 0 3.9 0.2 3.9 3 0 5 2.4 5.6 2.7 0.6 0.1 -1.7 0.8 -2.6 2.4 -2.9 1.2 -0.2 2.2 0 2.2 0.4 0 0.5 -0.4 0.9 -1 0.9 -0.5 0 -1.7 1.7 -2.5 3.7 -1.2 2.8 -1.3 4.4 -0.5 6.6 1.3 3.8 1.3 3.7 -0.9 3.7 -1.1 0 -2.1 -0.6 -2.4 -1.2 -0.2 -0.7 -2 2.1 -3.9 6.2 l-3.5 7.5 -1.2 -3z"/>
   <path d="M438 866.3 c-3.1 -0.3 -4 -0.7 -3 -1.3 2 -1.2 2.2 -23.1 0.3 -23.7 -3.5 -1.2 -0.3 -1.9 8 -1.9 l9.2 0.1 0.3 3.5 0.2 3.5 -1.5 -2.7 c-1.3 -2.4 -2.2 -2.8 -6 -2.8 l-4.5 0 0 5.5 c0 4.8 0.2 5.5 2 5.5 1.1 0 2.9 -0.9 4 -2 l2 -2 -0.1 4.8 c0 4.1 -0.2 4.4 -1.1 2.5 -0.8 -1.6 -2 -2.3 -4 -2.3 -2.8 0 -2.8 0.1 -2.8 6 l0 6 4.4 0 c4.2 0 7.6 -1.8 7.6 -4.1 0 -0.5 0.4 -0.9 0.8 -0.9 0.5 0 0.7 1.3 0.4 2.9 -0.3 2.4 -1 3 -4 3.5 -2.1 0.3 -4.6 0.5 -5.7 0.4 -1.1 -0.1 -4 -0.3 -6.5 -0.5z"/>
   <path d="M479 866.3 c-2.4 -0.2 -3.9 -0.7 -3.3 -1.1 1.6 -1 2.1 -23.4 0.5 -24 -3.4 -1.1 -0.3 -1.8 7.1 -1.7 6.1 0.1 9.2 0.7 11.5 2 6 3.6 7.9 12.1 4.2 18.2 -3.3 5.4 -9.8 7.6 -20 6.6z m13.3 -3.4 c3.5 -2.7 5.1 -8.7 3.7 -13.8 -1.3 -5.1 -5.1 -8.1 -10 -8.1 -4.8 0 -5.1 1.1 -4.3 14.2 l0.6 9.8 3.7 0 c2.2 0 4.8 -0.8 6.3 -2.1z"/>
   <path d="M525.5 866 c-2.2 -0.4 -3.4 -0.8 -2.7 -0.9 1.5 -0.1 1.8 -24.1 0.2 -24.1 -0.5 0 -1 -0.5 -1 -1 0 -1.5 15.3 -0.5 18.7 1.2 8.9 4.4 9.3 18 0.7 23 -3.7 2.1 -10.4 2.9 -15.9 1.8z m12.6 -2 c1 -0.6 2.6 -2.4 3.4 -4 3 -5.8 1.1 -15.5 -3.4 -18 -1.1 -0.5 -3.8 -1 -6 -1 l-4.1 0 0 11.3 c0 6.3 0.3 11.7 0.7 12 1 1.1 7.2 0.8 9.4 -0.3z"/>
   <path d="M600 866.2 c0 -0.2 0.7 -1 1.5 -1.8 1.1 -1.2 1.5 -4 1.5 -12 0 -8.4 -0.3 -10.6 -1.5 -11 -2.3 -0.9 -1.8 -2.4 0.8 -2.4 3 0 3.3 0.3 11.2 10.4 l7 8.8 0.3 -8.3 c0.2 -5.2 -0.1 -8.5 -0.8 -8.7 -2.1 -0.7 -0.9 -1.9 2 -1.9 1.7 0 3 0.4 3 0.9 0 0.4 -0.4 0.8 -1 0.8 -0.6 0 -1 4.8 -1 12.5 0 6.9 -0.4 12.5 -0.9 12.5 -0.5 0 -3.7 -3.7 -7.2 -8.2 -3.5 -4.5 -7.4 -9.3 -8.6 -10.7 l-2.2 -2.6 -0.1 9.7 c0 8 0.3 9.9 1.6 10.6 1.3 0.7 0.9 1 -2 1.4 -2 0.2 -3.6 0.2 -3.6 0z"/>
   <path d="M653.3 865.5 c-5.9 -2.5 -10.2 -13.5 -5.3 -13.5 1.1 0 2 0.7 2 1.5 0 0.8 0.7 3.3 1.7 5.6 1.9 4.9 6.6 7.5 10.6 6 3.9 -1.5 5.1 -7.2 2 -9 -1.4 -0.8 -0.7 -1 3 -1.1 4.3 0 4.7 0.2 3.3 1.5 -1 1 -1.3 2.6 -0.9 4.9 0.5 3.2 0.4 3.3 -4 4.5 -5.9 1.4 -8.4 1.4 -12.4 -0.4z"/>
   <path d="M723 866 c-3.1 -0.3 -4 -0.7 -2.7 -1.2 1.5 -0.6 1.7 -2.2 1.7 -12.3 0 -9.7 -0.2 -11.5 -1.6 -11.5 -0.8 0 -1.3 -0.4 -1 -0.9 0.8 -1.2 12.7 -0.6 15.4 0.8 3 1.6 4.4 5.4 3.2 8.6 -1.1 2.9 -7.2 5.9 -10.2 5.2 -1.6 -0.5 -1.8 0.1 -1.8 4.8 0 4.3 0.3 5.4 1.8 5.7 3.4 0.7 -0.4 1.4 -4.8 0.8z m10.4 -16.2 c1.6 -4.5 -0.3 -8.2 -4.2 -8.6 l-3.2 -0.3 0 6.1 0 6.1 3.2 -0.3 c2.5 -0.2 3.5 -0.9 4.2 -3z"/>
   <path d="M758.4 865.8 c-0.3 -0.4 0.2 -0.8 1 -0.8 0.9 0 1.6 -0.9 1.6 -2 0 -1.5 0.7 -2 2.5 -2 1.8 0 2.5 0.5 2.5 2 0 1.2 0.7 2 1.7 2 0.9 0 1.4 0.3 1 0.6 -0.9 0.9 -9.8 1.1 -10.3 0.2z"/>
   <path d="M813.2 865 c-7 -4.3 -9.2 -12.8 -4.9 -19.1 6 -9.1 19.4 -8.7 23.3 0.6 5.3 12.9 -7.1 25.4 -18.4 18.5z m12.3 -2.1 c2.9 -2.8 3.3 -14.3 0.6 -18.5 -3.8 -6.1 -10.7 -5.2 -14.1 1.7 -2.4 5.2 -2.5 6.2 -0.4 12.3 2.5 7.3 8.8 9.3 13.9 4.5z"/>
   <path d="M899.1 865.2 c-9.3 -5 -9.2 -18.5 0.1 -24.2 11.4 -6.9 24.1 6 18.3 18.4 -1.8 3.8 -8 7.6 -12.2 7.6 -1.5 0 -4.4 -0.8 -6.2 -1.8z m9.3 -0.2 c3.4 -1.3 5.6 -5.9 5.6 -12 0 -8.8 -4.4 -13.9 -10.7 -12.4 -7.6 1.9 -8.7 20 -1.4 23.9 3.2 1.7 3.3 1.7 6.5 0.5z"/>
   <path d="M946.1 865.3 c-4.3 -2.1 -7.1 -6.7 -7.1 -11.6 0 -4 1.4 -7.7 2.9 -7.7 0.5 0 1.2 2.8 1.6 6.3 0.9 8.1 2.7 11.3 6.8 12.6 4.4 1.5 8.7 0 8.7 -2.9 0 -1.3 0.7 -2 2 -2 1.4 0 2 0.7 2 2.4 0 2 -0.7 2.5 -4.4 3.5 -6 1.5 -8.5 1.4 -12.5 -0.6z"/>
   <path d="M1002.8 866 c-0.9 -0.6 -2.8 -3.5 -4.2 -6.5 -1.8 -4.1 -3 -5.5 -4.5 -5.5 -1.9 0 -2.1 0.6 -2.1 5.4 0 4.4 0.4 5.5 1.8 5.9 0.9 0.3 -0.8 0.5 -3.8 0.5 -3 0 -4.7 -0.2 -3.7 -0.5 1.4 -0.4 1.7 -1.6 1.7 -6.3 0 -3.7 0.5 -6 1.3 -6.4 1 -0.5 1 -0.7 0 -1.2 -0.8 -0.3 -1.3 -2.5 -1.3 -5.5 0 -3.8 -0.4 -4.9 -1.6 -4.9 -0.8 0 -1.3 -0.4 -1 -0.9 0.3 -0.4 3.8 -0.7 7.8 -0.5 6.4 0.2 7.5 0.5 9.5 2.9 3 3.4 2.9 5.1 -0.6 8.5 -2.4 2.4 -2.6 3.1 -1.5 4.1 0.8 0.6 1.4 1.8 1.4 2.6 0 1.4 0.8 2.5 4.2 6.3 2.5 2.8 0.2 4.1 -3.4 2z m-4 -15.2 c0.7 -0.7 1.2 -2.6 1.2 -4.3 0 -3.8 -1.6 -5.5 -5.2 -5.5 -2.7 0 -2.8 0.1 -2.8 5.5 0 5.4 0.1 5.5 2.8 5.5 1.5 0 3.3 -0.5 4 -1.2z"/>
   <path d="M1027.7 866.3 c-2.4 -0.4 -2.6 -0.6 -1.3 -1.6 0.8 -0.7 3.3 -5.9 5.6 -11.6 6.5 -16.4 5.6 -16.3 11.1 -1.6 2.6 7 5.4 13.2 6.1 13.6 0.8 0.5 -0.7 0.9 -3.7 0.9 -3.2 0 -4.5 -0.3 -3.6 -0.9 1.1 -0.7 1.1 -1.5 0.2 -4.4 -1 -3 -1.7 -3.6 -4.9 -4 -2.1 -0.2 -4.2 0.1 -4.9 0.7 -1.8 1.6 -2.9 7.6 -1.4 7.6 0.6 0 1.1 0.5 1.1 1 0 0.6 -0.3 0.9 -0.7 0.9 -0.5 -0.1 -2.1 -0.4 -3.6 -0.6z m10.6 -16 l-1.6 -4.8 -1.8 4 c-2.4 5.4 -2.4 5.5 1.5 5.5 l3.5 0 -1.6 -4.7z"/>
   <path d="M1069.4 865.9 c-0.2 -0.4 0.3 -0.9 1.1 -1.3 2.2 -0.8 2.2 -22.4 0 -23.2 -3.4 -1.4 -1.1 -2.2 5.3 -2 7.7 0.4 10.9 1.7 12.2 5.2 1.9 4.8 -1.4 9 -7.6 10 l-4.4 0.6 0 4.9 c0 3.9 0.3 4.9 1.7 4.9 0.9 0 1.3 0.3 1 0.6 -0.9 0.9 -8.8 1.1 -9.3 0.3z m14 -16.1 c1.6 -4.5 -0.3 -8.2 -4.2 -8.6 l-3.2 -0.3 0 6.1 0 6.1 3.2 -0.3 c2.5 -0.2 3.5 -0.9 4.2 -3z"/>
   <path d="M1166 865.9 c-2.5 -0.3 -3.9 -0.7 -3.2 -0.7 0.8 -0.1 1.2 -2.1 1.2 -5.7 0 -4.6 -0.7 -6.7 -3.7 -12 -2.1 -3.6 -4.3 -6.5 -5 -6.5 -0.7 0 -1.3 -0.4 -1.3 -0.9 0 -0.6 2.3 -0.9 5 -0.9 4.6 0.1 6.5 1.1 3.8 2 -0.7 0.3 -0.1 2.2 1.8 5.6 1.6 2.9 3.1 5.2 3.4 5.2 0.6 0 6 -9.4 6 -10.4 0 -0.3 -0.7 -0.6 -1.7 -0.6 -2.8 0 -0.3 -1.5 2.8 -1.6 3 -0.2 3.9 1 1.6 1.9 -0.7 0.3 -2.7 3.2 -4.5 6.5 -2.5 4.6 -3.2 7.2 -3.2 11.5 0 3.5 0.5 5.7 1.3 6 2.4 0.9 0.1 1.2 -4.3 0.6z"/>
   <path d="M401.1 864.2 c-1.6 -3 -1.4 -7.2 0.3 -7.2 0.8 0 1.6 0.8 1.8 1.8 0.2 0.9 1.8 -2.1 3.6 -6.6 3.4 -8.8 3.8 -11.2 2.2 -11.2 -0.5 0 -1 -0.4 -1 -0.9 0 -0.7 2.8 -0.8 6.9 -0.2 0.3 0.1 -0.3 0.7 -1.2 1.4 -0.9 0.6 -3.5 6.2 -5.8 12.2 -2.2 6.1 -4.5 11.4 -4.9 11.9 -0.4 0.4 -1.3 -0.1 -1.9 -1.2z"/>
   <path d="M569.3 865.3 c1.5 -0.4 1.7 -1.9 1.7 -12.4 0 -7.3 -0.4 -11.9 -1 -11.9 -0.5 0 -1 -0.3 -1 -0.7 0 -0.5 2 -0.8 4.5 -0.8 4.5 0 5.8 0.8 3 1.9 -1.2 0.4 -1.5 2.7 -1.5 11.5 0 9.4 0.3 11.1 1.8 12 1.3 0.8 0.4 1 -3.8 1 -3 -0.1 -4.7 -0.3 -3.7 -0.6z"/>
   <path d="M776.8 865.3 c0.8 -0.3 1.2 -2.6 1.2 -6.4 0 -5.4 -0.2 -5.9 -2.2 -6 -2.2 -0.1 -2.2 -0.1 0.2 -0.8 2.2 -0.6 2.5 -1.2 2.5 -5.6 -0.1 -2.9 -0.6 -5 -1.3 -5.3 -2.8 -0.9 -0.9 -2.2 3.3 -2.2 2.5 0 4.5 0.5 4.5 1 0 0.6 -0.4 1 -1 1 -0.6 0 -1 4.6 -1 11.9 0 10.5 0.2 12 1.8 12.4 0.9 0.3 -0.8 0.5 -3.8 0.5 -3 0 -4.9 -0.2 -4.2 -0.5z"/>
   <path d="M859.3 864.9 c1.5 -0.9 1.7 -2.6 1.7 -12.4 l0 -11.5 -3 0 c-2.1 0 -3.5 0.8 -4.6 2.5 -2 3.1 -2.8 2.6 -2 -1.2 l0.7 -2.9 10.7 0.1 10.7 0 0.3 3.5 0.2 3.5 -1.5 -2.7 c-1.2 -2.1 -2.3 -2.8 -4.5 -2.8 l-3 0 0 11.9 c0 10.5 0.2 12 1.8 12.4 0.9 0.3 -0.8 0.5 -3.8 0.6 -4.2 0 -5.1 -0.2 -3.7 -1z"/>
   <path d="M1109.8 865.3 c1.5 -0.6 1.8 -24.3 0.2 -24.3 -0.5 0 -1 -0.4 -1 -1 0 -0.5 2 -0.9 4.5 -0.8 2.5 0 4.5 0.4 4.5 0.9 0 0.5 -0.4 0.9 -0.9 0.9 -1.4 0 -2.3 5.3 -1.5 8.4 0.6 2.4 1 2.6 6.4 2.6 l5.7 0 0.7 -4.7 c0.5 -3.9 0.3 -5 -1.1 -6 -2.3 -1.7 -1.6 -1.9 3.7 -1.2 2.5 0.3 3.9 0.7 3.3 0.7 -1 0.2 -1.3 3.3 -1.3 12.1 0 8.6 0.3 12.1 1.3 12.4 0.6 0.3 -1 0.6 -3.8 0.6 -2.7 0 -4.5 -0.3 -3.9 -0.7 1.8 -1.1 2.6 -5.1 1.9 -8.8 l-0.6 -3.4 -5.9 0 -6 0 0 5.9 c0 3.8 0.4 6.1 1.3 6.4 0.6 0.3 -1 0.5 -3.8 0.5 -2.7 0 -4.4 -0.2 -3.7 -0.5z"/>
   <path d="M957.8 856.9 c-1.8 -1.8 -1.7 -1.9 2.9 -1.9 l4.6 0 -2.3 2 c-2.8 2.4 -3 2.4 -5.2 -0.1z"/>
   <path d="M646.5 848.8 c1.8 -6 8.8 -10.4 14.9 -9.3 2.3 0.3 4.9 0.7 5.9 0.8 1.3 0.1 1.7 1 1.7 3.7 l-0.1 3.5 -1.4 -2.6 c-1.8 -3.3 -6.3 -5.2 -9.9 -4.3 -2.9 0.7 -6.6 5.6 -6.6 8.7 0 1.2 -0.8 1.7 -2.6 1.7 -2.2 0 -2.4 -0.3 -1.9 -2.2z"/>
   <path d="M961.1 845.7 c0 -0.9 -1.6 -2.6 -3.3 -3.8 -3.7 -2.2 -8 -1.9 -11 0.8 -1 0.9 -2.1 1.3 -2.6 0.9 -0.9 -0.9 2.5 -3.5 5.7 -4.3 2.1 -0.5 10.8 1.1 11.9 2.2 0.2 0.2 0.2 1.6 -0.1 3.2 -0.2 1.5 -0.5 2 -0.6 1z"/>
   <path d="M761 842.6 c0 -0.8 -0.6 -1.6 -1.2 -1.9 -2.8 -0.9 -0.1 -1.4 4.2 -0.7 2.5 0.4 3.9 0.8 3.3 0.9 -0.7 0 -1.3 0.8 -1.3 1.6 0 0.9 -0.9 1.5 -2.5 1.5 -1.5 0 -2.5 -0.6 -2.5 -1.4z"/>
   <path d="M668.5 786.3 c-1.1 -0.3 -5.5 -1.9 -9.8 -3.5 -7.5 -2.9 -7.9 -2.9 -9.2 -1.1 -1.4 1.7 -1.4 1.7 -1.5 -0.6 0 -1.3 0.8 -3 1.8 -3.7 1.6 -1.3 1.6 -1.4 -0.5 -2 -1.7 -0.5 -2.3 -1.4 -2.3 -3.3 0 -1.4 -0.3 -5.7 -0.7 -9.5 -0.4 -5.1 -0.3 -6.7 0.5 -6.2 0.7 0.4 1.2 1.5 1.2 2.5 0 1 1.6 5 3.5 8.9 2.7 5.3 4.8 7.9 8.3 10.4 6.6 4.8 9.7 5.9 17.7 6.5 13.6 1.1 24.4 -4.6 27.3 -14.3 1.8 -6 1.5 -9.5 -1.2 -14.8 l-2.4 -4.7 3.2 0.3 c2.8 0.3 3.1 0.7 3.4 4.1 0.2 2 0.8 3.7 1.3 3.7 0.7 0 0.9 2.9 0.6 7.8 -0.4 7.1 -0.7 8 -3.7 11.1 -2.5 2.5 -3.5 3 -4.1 2 -0.7 -1.1 -0.9 -1 -0.9 0.4 0 3.5 -8.3 6.1 -20 6.3 -5.8 0.2 -11.4 0 -12.5 -0.3z"/>
   <path d="M1091.1 785.5 c-6.8 -1.9 -15.8 -6.7 -21.1 -11.2 -5.2 -4.5 -10.7 -12.3 -8.6 -12.3 0.9 0 1.8 -1.3 2.2 -3.4 0.8 -4.6 0 -5.8 -3.2 -4.6 -3.9 1.5 -4.1 1.4 -5.5 -4.2 -2 -8.3 -1.6 -22.2 1 -29.7 7.6 -22.1 26.9 -35.5 51.1 -35.5 14.6 0 26.8 4.6 36.6 13.6 3.9 3.6 10.4 12.5 10.4 14.1 0 1.1 -4.8 0.8 -5.5 -0.3 -0.3 -0.5 -1.6 -1 -2.9 -1 -1.7 0 -3.2 -1.4 -5.5 -5.1 -1.7 -2.8 -3.1 -5.6 -3.1 -6.3 0 -1.6 -13.5 -9.3 -19.7 -11.3 -7.9 -2.4 -20.4 -1.3 -28.5 2.6 -7.9 3.7 -14.4 10.5 -17.9 18.5 -2.4 5.5 -4.9 7.4 -4.9 3.6 0 -1.3 -0.5 -1.8 -1.5 -1.4 -0.8 0.4 -1.5 1.4 -1.5 2.4 0 1 -0.7 2.6 -1.6 3.4 -0.8 0.9 -1.1 1.6 -0.5 1.6 0.6 0 1.1 1.8 1.1 4.1 0 3.2 -0.4 4.2 -1.9 4.6 -1.8 0.5 -3.1 4 -3.1 8.4 0 1.5 0.8 1.9 3.8 1.9 l3.8 0 1.6 8.5 c2.2 11.9 6.5 20.4 13.7 27.5 8.3 8.1 14.5 10.4 27.6 10.5 9.2 0 10.5 -0.3 16.7 -3.3 14.8 -7.2 23.8 -24 23.8 -44.7 0 -6.4 -1.8 -17.4 -3.5 -21.7 -0.6 -1.4 -0.2 -1.8 1.8 -1.8 2.2 0 2.7 0.6 3.3 3.5 0.8 4.4 3.4 4.8 3.4 0.5 0 -1.6 0.5 -3 1.1 -3 1.7 0 4 6.7 5.1 15.4 1.2 9.1 0.5 15.6 -1.7 15.6 -1.2 0 -1.5 -1.7 -1.5 -8 0 -7.3 -0.2 -8 -2 -8 -1.8 0 -2 0.7 -2 5.8 0 5.5 -1.4 17 -2.6 21.8 -0.5 2.1 -0.3 2.4 2 2.4 1.4 0 2.6 0.4 2.6 0.9 0 2.5 -10.1 13.9 -15.7 17.7 -10 6.9 -15.9 8.6 -29.8 9 -8.5 0.3 -13.5 0 -17.4 -1.1z"/>
   <path d="M251.6 785.3 c-0.4 -0.4 1.2 -1.2 3.6 -1.8 2.9 -0.7 4.6 -1.8 5.5 -3.5 1 -1.9 1.3 -12.8 1.3 -44.8 l0 -42.3 -2.5 -2.4 c-1.5 -1.6 -3.6 -2.5 -5.5 -2.5 -1.6 0 -3 -0.4 -3 -1 0 -0.6 6.2 -1 16.5 -1 10.3 0 16.5 0.4 16.5 1 0 0.6 -1.4 1 -3 1 -1.9 0 -4 0.9 -5.5 2.5 l-2.5 2.4 0 25.3 0.1 25.3 2.7 -3.2 c1.5 -1.7 4.4 -4.5 6.5 -6.3 l3.7 -3.2 0 3.1 c0 2.1 -0.4 2.9 -1.3 2.5 -0.7 -0.2 -3.9 2.2 -7.1 5.6 -3.2 3.3 -5.9 6 -6.2 6 -0.2 0 -0.4 -0.9 -0.4 -2 0 -1.1 -0.5 -2 -1.1 -2 -0.7 0 -1 -8.1 -0.7 -27 0.3 -26.4 0.3 -27 -1.7 -27 -2 0 -2 0.7 -2 46 0 45.6 0 46 2 46 2 0 2.1 -0.5 1.7 -16.5 -0.4 -16.3 -0.4 -16.5 1.7 -16.5 2 0 2.1 0.4 2.1 14.3 0 16.9 0.7 18.7 6.8 20.2 2.4 0.6 4 1.4 3.6 1.8 -0.4 0.4 -7.6 0.7 -15.9 0.7 -8.3 0 -15.5 -0.3 -15.9 -0.7z"/>
   <path d="M331.3 785.3 c-2.2 -0.4 -6.2 -4.5 -31.9 -32.8 -11.3 -12.5 -11.7 -13 -9 -13.3 3.5 -0.4 8.6 4.1 8.6 7.5 0 1.5 0.6 2.3 1.7 2.3 0.9 0 3.5 1.7 5.7 3.8 2.3 2 3.1 2.5 1.8 1.1 -1.2 -1.4 -2.2 -3.5 -2.2 -4.7 0 -1.4 -0.6 -2.2 -1.8 -2.2 -1 0 -3.7 -2 -6.1 -4.4 -3.6 -3.6 -4.2 -4.9 -3.9 -7.7 0.3 -3.3 0.7 -3 22 20.3 11.9 12.9 23.2 24.5 25 25.6 1.8 1.1 5 2.3 7.1 2.7 6.7 1.3 3.9 2.5 -5.5 2.4 -5.1 -0.1 -10.3 -0.4 -11.5 -0.6z m-1.4 -8.2 c-1.9 -2.2 -3.6 -4 -3.9 -4 -0.4 -0.1 -0.4 1.4 -0.2 3.3 0.4 3 0.8 3.5 3.6 3.9 1.7 0.2 3.3 0.5 3.5 0.5 0.2 0.1 -1.2 -1.6 -3 -3.7z m-10.2 -10.9 c-2.6 -2.6 -4.7 -5.5 -4.7 -6.4 0 -0.8 -0.9 -1.8 -2 -2.1 -1.5 -0.4 -2 0 -2 1.4 0 1 0.5 1.9 1.2 1.9 2.1 0 5.8 4.3 5.8 6.7 0 1.6 0.6 2.3 1.9 2.3 1.1 0 2.3 0.5 2.6 1.1 0.4 0.6 1 0.8 1.3 0.4 0.3 -0.3 -1.5 -2.7 -4.1 -5.3z"/>
   <path d="M381 785.1 c0 -0.5 1.7 -1.1 3.9 -1.5 4.4 -0.7 5.6 -1.8 6.6 -6.3 1 -4.8 3.5 -4.3 3.5 0.7 0 3.6 0.3 4 2.5 4 2.1 0 2.5 -0.5 2.5 -3 0 -4 2.1 -3.8 4 0.3 1.2 2.5 2.4 3.4 5.8 4.2 2.4 0.6 4 1.4 3.6 1.8 -1.1 1 -32.4 0.9 -32.4 -0.2z"/>
   <path d="M448 785.1 c0 -0.5 1.6 -1.2 3.5 -1.5 6.5 -1.2 6.6 -1.8 7.6 -38.8 1.1 -35.4 1.4 -39.8 3 -39.8 0.8 0 0.9 11.5 0.3 37 -0.8 41.7 -1 40.4 6.8 41.6 2 0.4 3.5 1 3.2 1.5 -0.7 1.2 -24.4 1.2 -24.4 0z"/>
   <path d="M532.6 785.1 c-0.3 -0.5 1.2 -1.1 3.3 -1.5 5 -0.8 6.7 -2.4 7.5 -7.5 0.4 -2.7 1.1 -4.1 2.1 -4.1 1.1 0 1.5 1.3 1.6 5.3 0.1 2.8 0.4 4.2 0.6 3 0.2 -1.3 1.1 -2.3 1.9 -2.3 1 0 1.4 -1.3 1.4 -4.5 0 -4.4 0 -4.5 -3.4 -4.5 -4.3 0 -4.3 -0.1 -4.5 -23.6 -0.2 -18 -0.2 -18.4 1.8 -18.4 2 0 2.1 0.5 2.1 13.5 l0 13.5 2.8 0 c2.5 0 2.9 0.5 4 5.3 0.6 2.9 1.2 8.7 1.2 12.8 0 8.5 1.1 10.4 6.8 11.5 1.8 0.4 3.2 1 3.2 1.5 0 1.2 -31.7 1.2 -32.4 0z"/>
   <path d="M749 785.2 c0 -0.5 1.7 -1.3 3.8 -1.8 2.8 -0.7 4.1 -1.7 5.2 -4.1 1.9 -4.1 4 -4.3 4 -0.3 0 2.5 0.4 3 2.5 3 2.3 0 2.5 -0.4 2.5 -4.5 0 -4.5 0 -4.5 -3.5 -4.5 -3.3 0 -3.5 -0.2 -3.5 -3.5 0 -3.3 0.2 -3.5 3.5 -3.5 3.2 0 3.5 0.2 3.5 3 0 2 0.5 3 1.5 3 0.8 0 1.7 1.4 2.1 3.8 1 5.8 2.1 7.1 6.4 7.8 8.5 1.4 3.3 2.4 -12 2.4 -8.8 0 -16 -0.4 -16 -0.8z"/>
   <path d="M815.6 785.1 c-0.3 -0.5 1.2 -1.1 3.4 -1.5 7.5 -1.2 7.5 -1 7.8 -42.8 0.2 -20.9 0.7 -36.8 1.2 -36.8 1.8 0 2.1 7.1 1.8 42.2 l-0.3 35.7 5.7 1.2 c3.1 0.7 5.5 1.6 5.2 2.1 -0.7 1.1 -24.1 1 -24.8 -0.1z"/>
   <path d="M898.3 784.6 c-0.9 -1.6 -15.7 -20.4 -46.2 -58.9 -17.7 -22.2 -21.6 -26.7 -22.2 -25.1 -0.6 1.4 -0.8 1.1 -0.5 -1.1 0.3 -3.2 2.3 -4.1 9.3 -4.4 3 -0.1 4 0.9 13.1 12.7 5.5 7 14.9 19 21 26.7 10.5 13.2 11 14 8.6 14.3 -2.7 0.4 -5.4 -1.3 -5.4 -3.2 0 -0.6 -0.9 -1.7 -2 -2.4 -1.1 -0.7 -2 -1.9 -2 -2.7 0 -0.8 -0.6 -1.5 -1.4 -1.5 -2 0 -0.8 4.7 1.5 5.3 1 0.3 2.2 1.3 2.6 2.4 0.3 1 1.2 2.2 2 2.6 0.7 0.4 1.3 1.4 1.3 2.1 0 0.8 0.7 1.6 1.5 2 0.8 0.3 1.5 1.1 1.5 1.8 0 0.7 0.8 1.8 1.9 2.5 1.7 1.1 1.8 0.9 1.3 -3.3 -0.2 -2.4 -0.1 -4.4 0.4 -4.4 0.5 0 4 3.9 7.7 8.7 l6.8 8.6 -0.3 -37.7 -0.3 -37.8 -2.4 -1.9 c-1.3 -1 -3.6 -1.9 -5.2 -1.9 -1.6 0 -2.9 -0.4 -2.9 -1 0 -0.6 4.7 -1 12 -1 7.3 0 12 0.4 12 1 0 0.6 -0.9 1 -2 1 -3.2 0 -6.8 2.1 -7.4 4.4 -0.3 1.1 -0.6 22.7 -0.6 47.9 0 39.2 -0.2 45.7 -1.5 45.7 -0.7 0 -1.8 -0.6 -2.2 -1.4z m-0.3 -10.9 c0 -3.3 -0.4 -3.7 -6.3 -6.5 -1.4 -0.7 1.7 4.2 3.6 5.6 0.9 0.7 1.7 2 1.7 2.8 0 0.8 0.2 1.4 0.5 1.4 0.3 0 0.5 -1.5 0.5 -3.3z m-34 -46.2 c0 -1.8 -0.5 -2.5 -1.9 -2.5 -1.1 0 -2.8 -0.3 -3.8 -0.6 -1.5 -0.6 -1.6 -0.4 -0.5 0.7 0.6 0.7 1.2 2.1 1.2 3.1 0 1.3 0.8 1.8 2.5 1.8 2 0 2.5 -0.5 2.5 -2.5z m-17.5 -18.9 c-1 -1.4 -2.2 -2.6 -2.7 -2.6 -0.5 0 0 1.4 1.2 3.1 2.6 3.6 3.9 3.2 1.5 -0.5z"/>
   <path d="M967.6 785.3 c-0.4 -0.4 1.2 -1.2 3.6 -1.8 3.4 -0.8 4.6 -1.7 5.8 -4.2 1.9 -4.1 4 -4.3 4 -0.3 0 2.9 0.1 3 5.3 3 5.8 0.1 15.1 2.2 14.1 3.3 -1 0.9 -31.9 0.9 -32.8 0z"/>
   <path d="M1190 785.2 c0 -0.4 2 -1.3 4.4 -2 4 -1 4.6 -1.6 5.5 -4.9 0.6 -2.1 1.1 -6.8 1.1 -10.5 0 -5.1 0.3 -6.8 1.4 -6.8 1 0 1.5 2.3 1.8 9.4 0.4 10.7 1.3 12.3 6.9 13.2 7.7 1.3 3.6 2.4 -8.6 2.4 -6.9 0 -12.5 -0.4 -12.5 -0.8z"/>
   <path d="M1259.4 767.3 c-8.2 -10.4 -20.9 -26.4 -28.3 -35.8 -28.7 -36.3 -26.6 -33.9 -26.9 -30.5 -0.2 1.8 -0.9 3 -1.8 3 -1 0 -1.4 -1.3 -1.4 -4.9 0 -6 -2.6 -9.8 -7.5 -10.7 -6.5 -1.2 -3.5 -2.4 5.9 -2.4 l9.5 0 3.1 3.8 3.1 3.7 -2.6 0.3 c-1.4 0.2 -3.8 1 -5.3 1.8 l-2.7 1.4 2.7 0 c1.5 0 3 0.5 3.3 1 0.3 0.6 2.5 1 4.8 1 4 0 4.4 0.3 9.4 6.8 5.1 6.6 5.1 6.7 2.7 7 -2.7 0.4 -5.4 -1.3 -5.4 -3.2 0 -1.4 -4 -4 -4.8 -3.1 -0.4 0.4 0.1 1.1 1.1 1.6 0.9 0.6 1.7 1.6 1.7 2.3 0 0.7 1.1 1.8 2.4 2.6 1.3 0.7 2.7 2 3 2.9 0.8 2.4 2.9 5.5 4.4 6.4 0.6 0.4 1.2 1.5 1.2 2.2 0 0.8 0.5 1.5 1 1.5 0.6 0 1 1.4 1 3 0 2.5 0.4 3 2.5 3 1.5 0 2.8 0.7 3.2 1.8 0.4 0.9 1.5 2.3 2.5 3 1 0.7 1.8 1.9 1.8 2.5 0 0.7 0.9 1.8 2 2.5 1.1 0.7 2 1.8 2 2.6 0 0.8 0.7 1.6 1.5 2 0.8 0.3 1.5 1.2 1.5 2.1 0 0.8 0.5 1.5 1 1.5 0.6 0 1 1.1 1 2.4 0 1.8 0.6 2.5 2.3 2.8 1.2 0.2 2.6 1.3 3.2 2.6 1.5 3.4 3.3 2.6 3.7 -1.5 l0.3 -3.8 6 7.3 6 7.3 0.3 -11.1 c0.1 -6.2 0.7 -11 1.2 -11 0.6 0 1 1.4 1 3.2 0 1.7 0.2 9 0.5 16.2 0.5 13.1 -0.1 21.6 -1.5 21.6 -0.4 0 -7.4 -8.4 -15.6 -18.7z m13.4 4.2 c-0.2 -0.1 -1.3 -0.5 -2.4 -0.9 -1.8 -0.6 -2.1 -0.3 -1.7 1.8 0.6 3 3.7 4 4.1 1.3 0.2 -1 0.2 -2 0 -2.2z"/>
   <path d="M499.7 776.3 c-0.8 -1.6 -1.8 -3.8 -2.1 -5 -0.6 -2 -0.4 -2.3 1.7 -2.3 2.8 0 3.7 1.6 3.7 6.6 0 4.1 -1.4 4.4 -3.3 0.7z"/>
   <path d="M504 770.1 c0 -2.6 0.6 -4.3 1.9 -5.2 1 -0.8 7.8 -14.4 15.1 -30.4 7.3 -15.9 13.9 -30.1 14.6 -31.5 0.7 -1.4 2.2 -4.6 3.3 -7.2 2.2 -5.4 3.6 -6 4.5 -2.3 0.4 1.4 1.1 2.5 1.6 2.5 0.6 0 1 0.9 1 2 0 1.1 0.5 2 1 2 0.6 0 1 1.8 1 4 0 2.2 -0.4 4 -1 4 -0.6 0 -1 3.2 -1 7.5 0 6 -0.3 7.5 -1.5 7.5 -0.8 0 -1.6 -0.1 -1.6 -0.2 -0.1 -0.2 -0.5 -6.1 -0.8 -13.2 l-0.6 -12.8 -14.2 30.8 c-7.8 17 -15.8 34.4 -17.7 38.7 -2 4.2 -4 7.7 -4.6 7.7 -0.5 0 -1 -1.7 -1 -3.9z"/>
   <path d="M392 766.5 c0 -2.8 0.4 -3.5 2 -3.5 1.6 0 2 0.7 2 3.5 0 2.8 -0.4 3.5 -2 3.5 -1.6 0 -2 -0.7 -2 -3.5z"/>
   <path d="M767 752 c0 -9.6 0.3 -12 1.4 -12 1.9 0 2.6 3.2 2.6 12 0 8.8 -0.7 12 -2.6 12 -1.1 0 -1.4 -2.4 -1.4 -12z"/>
   <path d="M500 759 c0 -4.9 1.6 -5.2 3.6 -0.5 1.8 4.5 1.8 4.5 -1.1 4.5 -2.2 0 -2.5 -0.4 -2.5 -4z"/>
   <path d="M490.4 755.5 c-1.8 -4.5 -1.8 -4.5 1.1 -4.5 2.3 0 2.5 0.4 2.5 4 0 4.9 -1.6 5.2 -3.6 0.5z"/>
   <path d="M710 756.3 c0 -1 -0.7 -3.1 -1.5 -4.7 -0.8 -1.5 -1.5 -3.9 -1.5 -5.2 0 -1.9 -0.5 -2.4 -2.4 -2.4 -3.1 0 -4.8 -2.2 -4.4 -5.5 l0.3 -2.7 4.7 4.1 c7.4 6.6 11.8 18.1 6.8 18.1 -1.2 0 -2 -0.7 -2 -1.7z"/>
   <path d="M495 748 c0 -4.9 1.6 -5.2 3.6 -0.5 1.8 4.5 1.8 4.5 -1.1 4.5 -2.2 0 -2.5 -0.4 -2.5 -4z"/>
   <path d="M548 746.5 c0 -1.9 0.5 -3.5 1 -3.5 0.6 0 1 -5 1 -13 0 -10.4 0.3 -13 1.4 -13 2.1 0 2.6 3.3 2.6 18.8 l0 14.2 -3 0 c-2.8 0 -3 -0.3 -3 -3.5z"/>
   <path d="M485.4 744.5 c-1.8 -4.5 -1.8 -4.5 1.1 -4.5 2.3 0 2.5 0.4 2.5 4 0 4.9 -1.6 5.2 -3.6 0.5z"/>
   <path d="M678.1 739.2 c-11.9 -4.9 -14.8 -7.2 -9 -7.2 3.7 0 9.9 2 9.9 3.2 0 0.4 1.1 0.8 2.5 0.8 1.6 0 2.5 0.6 2.5 1.5 0 1 1.1 1.5 3.5 1.5 3.1 0 3.5 0.3 3.5 2.5 0 1.4 -0.3 2.5 -0.7 2.4 -0.5 0 -5.9 -2.1 -12.2 -4.7z"/>
   <path d="M490 737 c0 -4.9 1.6 -5.2 3.6 -0.5 1.8 4.5 1.8 4.5 -1.1 4.5 -2.2 0 -2.5 -0.4 -2.5 -4z"/>
   <path d="M481 735 c-1.1 -2.3 -2.5 -5.2 -3 -6.5 -0.9 -2.2 -0.7 -2.5 1.5 -2.5 3 0 5.5 4.3 5.5 9.5 0 4.6 -1.5 4.4 -4 -0.5z"/>
   <path d="M687.5 735 c-0.3 -0.5 -1.9 -1 -3.6 -1 -1.6 0 -2.9 -0.4 -2.9 -1 0 -0.5 -0.7 -1 -1.5 -1 -0.8 0 -1.5 -0.4 -1.5 -1 0 -0.5 -1.1 -1 -2.5 -1 -2.6 0 -3.9 -1.7 -3.3 -4.3 0.2 -1.1 2.8 -0.4 11.7 3.2 12.4 5 14.8 7.1 8.2 7.1 -2.2 0 -4.3 -0.4 -4.6 -1z"/>
   <path d="M656.8 728.9 c-2.4 -1.8 -6.8 -7.7 -6.8 -9.3 0 -0.3 1.1 -0.6 2.5 -0.6 1.4 0 2.5 -0.1 2.5 -0.2 0 -0.2 -0.7 -2.3 -1.4 -4.8 l-1.5 -4.5 0 4.3 c-0.1 5.1 -2.6 5.9 -3.6 1.1 -2.5 -11.3 5.5 -24.4 17.6 -28.5 10.3 -3.5 31.1 -1.3 32.7 3.5 0.5 1.6 -3.1 1.1 -9.3 -1.3 -4.7 -1.8 -14.3 -2 -19.8 -0.5 -4.7 1.3 -10.6 6.3 -12.3 10.6 -3.1 7.3 -0.3 16.4 6.5 20.9 2.3 1.5 4.1 3.1 4.1 3.5 0 1.2 -6.7 1.1 -7.5 -0.1 -0.3 -0.5 -1.3 -1 -2.2 -1 -1.4 0 -1.4 0.2 0.1 1.9 1 1.1 1.6 3.1 1.4 4.4 l-0.3 2.6 -2.7 -2z"/>
   <path d="M484.6 728.4 c-1 -2.5 -0.7 -8.4 0.4 -8.4 1 0 3.3 3.9 4.4 7.8 0.6 1.9 0.4 2.2 -1.7 2.2 -1.4 0 -2.8 -0.7 -3.1 -1.6z"/>
   <path d="M307.3 709.2 c15.5 -15.6 18 -19.1 14.1 -20.6 -0.9 -0.3 -2.4 -0.6 -3.5 -0.6 -1 0 -1.9 -0.4 -1.9 -1 0 -0.6 5.2 -1 13.5 -1 8.3 0 13.5 0.4 13.5 1 0 0.6 -1 1 -2.2 1 -5.5 0 -12.1 4.8 -28.7 20.8 -22.2 21.3 -26 21.7 -4.8 0.4z"/>
   <path d="M473 717.8 c-1.7 -3.7 -1.7 -4.3 -0.4 -4.6 3.1 -0.7 4.4 0.7 4.4 4.8 0 5.2 -1.6 5.1 -4 -0.2z"/>
   <path d="M479.6 717.4 c-1 -2.5 -0.7 -8.4 0.4 -8.4 1 0 3.3 3.9 4.4 7.8 0.6 1.9 0.4 2.2 -1.7 2.2 -1.4 0 -2.8 -0.7 -3.1 -1.6z"/>
   <path d="M1273.8 703.8 c-0.6 -12.5 -1.5 -14.6 -6.9 -15.4 -8.1 -1.3 -4.6 -2.4 7.7 -2.4 12.9 0 14.4 0.7 6.7 2.9 l-4.3 1.2 -0.1 5.7 c-0.2 6.2 -0.5 13.7 -0.7 16.5 -0.1 0.9 -0.6 1.7 -1.1 1.7 -0.4 0 -1 -4.6 -1.3 -10.2z"/>
   <path d="M705.6 706.8 c-0.8 -2.9 -2.7 -7 -4.1 -9 -1.4 -2.1 -2.1 -3.8 -1.5 -3.8 0.5 0 1 -0.9 1 -2 0 -1.3 0.7 -2 1.8 -2 1 0 2.3 -0.5 2.9 -1.1 0.8 -0.8 1.3 1.6 1.7 8.8 0.4 5.4 0.9 10.8 1.2 12.1 0.9 4.5 -1.5 2 -3 -3z"/>
   <path d="M466.6 704.3 c-2.1 -4.1 -2.5 -4.4 -2.6 -2.3 -0.1 3.4 -1.5 0.9 -2.4 -4.4 -1 -5.1 -5.4 -9.6 -9.5 -9.6 -1.7 0 -3.1 -0.4 -3.1 -1 0 -0.6 4.3 -1 10.9 -1 10 0 10.9 0.2 11.4 2 0.4 1.7 0 2 -2.4 2 -2.4 0 -2.9 0.4 -2.9 2.5 0 1.4 -0.4 2.5 -1 2.5 -0.5 0 -1 0.5 -1 1 0 0.6 1.1 1 2.3 1 2.8 0 4.7 3.5 4.7 8.5 0 4.8 -1.5 4.4 -4.4 -1.2z"/>
   <path d="M941.3 705.8 c0.4 -1.8 1.1 -7 1.8 -11.5 l1.1 -8.3 39.8 0 39.8 0 0.6 2.8 c1.2 6.1 2.7 19.4 2.2 19.9 -0.3 0.3 -0.7 0 -1 -0.8 -1.8 -6.1 -4.2 -11.4 -6.2 -13.9 l-2.5 -2.9 2.3 -0.3 c3.1 -0.5 -14.3 -2.2 -21.2 -2.1 -8 0.1 -17 1.4 -17 2.4 0 0.5 -0.7 0.9 -1.5 0.9 -0.8 0 -1.5 -0.6 -1.5 -1.4 0 -2 -6 -2.6 -15 -1.6 -12.5 1.4 -16.4 4.5 -19.1 15.2 -1.4 5.4 -3.4 6.6 -2.6 1.6z"/>
   <path d="M549 700.8 c-0.1 -6.7 -2.2 -10.8 -5.5 -10.8 -1.2 0 -1.5 -0.5 -1.1 -1.6 0.3 -0.9 0.6 -1.8 0.6 -2 0 -0.2 4.7 -0.4 10.5 -0.4 6.3 0 10.5 0.4 10.5 1 0 0.6 -1.3 1 -2.9 1 -1.6 0 -3.9 0.9 -5.2 1.9 -2 1.6 -2.4 3 -2.7 9.5 -0.4 6.7 -0.7 7.6 -2.3 7.6 -1.7 0 -1.9 -0.8 -1.9 -6.2z"/>
   <path d="M474 702 c0 -4.9 1.6 -5.2 3.6 -0.5 1.8 4.5 1.8 4.5 -1.1 4.5 -2.2 0 -2.5 -0.4 -2.5 -4z"/>
   <path d="M391.5 694 c-0.8 -3.6 -3.9 -6 -7.7 -6 -1.6 0 -2.8 -0.4 -2.8 -1 0 -0.6 6.2 -1 16.6 -1 10.7 0 16.3 0.3 15.9 1 -0.3 0.6 -1.9 1 -3.5 1 -2.9 0 -7 3.9 -7 6.6 0 0.8 -0.7 1.4 -1.5 1.4 -1 0 -1.5 -1 -1.5 -3 0 -2.5 -0.4 -3 -2.5 -3 -2.2 0 -2.5 0.4 -2.5 3.5 0 4.4 -2.6 4.8 -3.5 0.5z"/>
   <path d="M826 693 c0 -1.5 -6.1 -5 -8.7 -5 -1.3 0 -2.3 -0.4 -2.3 -1 0 -0.6 3.9 -1 9.8 -1 8.6 0 10.1 0.3 11.7 2 1.8 2 1.7 2 -1.4 2 -1.8 0 -4.1 0.9 -5.3 2 -2.4 2.2 -3.8 2.6 -3.8 1z"/>
   <path d="M756 689 c-0.8 -0.5 -2.7 -1 -4.2 -1 -1.6 0 -2.8 -0.4 -2.8 -1 0 -0.6 6 -1 16 -1 15.3 0 20.2 1 12.3 2.5 -6.8 1.2 -19.8 1.6 -21.3 0.5z"/>
   <path d="M387.7 862.7 c-2.8 -6 -4.7 -10.9 -4.7 -12.3 0 -3.3 4.9 0.2 5 3.6 0 0.8 0.7 2.8 1.5 4.4 0.8 1.5 1.5 3.7 1.5 4.7 0 3.2 -1.7 3 -3.3 -0.4z"/>
   <path d="M400.1 861.8 c-1 -2.4 -2.1 -5.3 -2.5 -6.5 -0.4 -1.3 -1 -2.3 -1.4 -2.3 -0.4 0 -0.8 -1.1 -0.8 -2.5 -0.1 -1.4 -1.1 -4.3 -2.2 -6.5 -1.9 -3.9 -1.9 -4 -0.1 -4 1.1 0 1.9 0.5 1.9 1.1 0 0.5 1.8 4.6 3.9 8.9 4.4 8.7 5.9 14.4 4.2 15.4 -0.7 0.5 -1.9 -1 -3 -3.6z"/>
   <path d="M436 853 c0 -12.8 0 -13 2.3 -13 2.2 0 2.2 0.2 2.2 13 0 12.8 0 13 -2.2 13 -2.3 0 -2.3 -0.2 -2.3 -13z"/>
   <path d="M477.7 864 c0.3 -1.1 1.1 -2 1.8 -2 0.7 0 1.5 0.9 1.8 2 0.4 1.6 0 2 -1.8 2 -1.8 0 -2.2 -0.4 -1.8 -2z"/>
   <path d="M524.4 864.4 c0.3 -0.9 0.6 -5.1 0.6 -9.5 0 -6.4 0.3 -7.9 1.5 -7.9 1.2 0 1.5 1.6 1.5 8.5 0 6.9 0.3 8.6 1.8 9.4 1.4 0.8 0.9 1 -2.2 1.1 -3.1 0 -3.7 -0.3 -3.2 -1.6z"/>
   <path d="M570.9 864.6 c0.8 -1 1.1 -5.2 0.9 -13 -0.3 -10.5 -0.1 -11.6 1.5 -11.6 1.5 0 1.7 1.2 1.7 11.8 0 7.8 0.4 12.2 1.2 13 0.9 0.9 0.4 1.2 -2.6 1.2 -3.2 0 -3.7 -0.2 -2.7 -1.4z"/>
   <path d="M652.5 864.2 c-4.2 -2.6 -5.2 -4.1 -6 -9 -1 -6.3 2.4 -12.6 7.9 -14.6 1.5 -0.5 1.3 -0.1 -0.7 1.8 -2.5 2.3 -2.7 3.1 -2.7 10.2 0 7.1 0.2 8 2.7 10.6 3.1 3.3 2.9 3.5 -1.2 1z"/>
   <path d="M665.1 863.8 c0.6 -1.1 0.9 -3.6 0.7 -5.4 -0.4 -3.1 -0.2 -3.4 2.2 -3.4 2.4 0 2.6 0.3 2.2 3.8 -0.5 4.3 -1.5 5.8 -4.2 6.5 -1.7 0.4 -1.8 0.2 -0.9 -1.5z"/>
   <path d="M721.5 853 c0 -12.3 0.1 -13 2 -13 1.9 0 2 0.6 1.9 11.8 -0.1 6.4 0.3 12.3 0.9 13 0.7 0.9 0.2 1.2 -1.9 1.2 l-2.9 0 0 -13z"/>
   <path d="M761.1 853 l-0.2 -13 2.6 0 c2.4 0 2.5 0.2 2.5 6 l0 5.9 5.8 0.4 5.7 0.3 -5.7 0.2 -5.8 0.2 -0.1 5.8 c-0.1 3.1 -0.1 6 0 6.5 0 0.4 -1 0.7 -2.3 0.7 l-2.4 0 -0.1 -13z"/>
   <path d="M778.5 853 c0 -12.3 0.1 -13 2 -13 1.9 0 2 0.7 2 13 0 12.3 -0.1 13 -2 13 -1.9 0 -2 -0.7 -2 -13z"/>
   <path d="M813.4 865 c-4.2 -1.7 -6.4 -5.8 -6.4 -11.9 0 -5.1 0.4 -6.1 3.1 -8.9 1.8 -1.8 3.4 -3.1 3.6 -2.9 0.2 0.2 -0.4 2 -1.2 4 -2.4 5.8 -2 13.4 1.1 17.4 1.4 1.8 2.4 3.3 2.2 3.2 -0.2 0 -1.3 -0.4 -2.4 -0.9z"/>
   <path d="M860.4 864.4 c0.3 -0.9 0.6 -4 0.6 -7 0 -4.1 0.4 -5.4 1.5 -5.4 1.2 0 1.5 1.3 1.5 5.8 0 3.2 0.5 6.3 1.2 7 0.9 0.9 0.5 1.2 -2.1 1.2 -2.6 0 -3.2 -0.3 -2.7 -1.6z"/>
   <path d="M946.4 865 c-4.2 -1.7 -6.4 -5.8 -6.4 -12.1 0 -4.7 0.5 -6.3 2.5 -8.7 1.4 -1.6 3.3 -3.2 4.4 -3.5 1.7 -0.4 1.7 -0.1 -0.5 3.1 -1.5 2.2 -2.4 4.9 -2.4 7.4 0 2.5 -0.5 4.1 -1.5 4.4 -2 0.8 -1.9 3.3 0.3 4.1 1.7 0.7 7.6 6.4 6.4 6.2 -0.4 0 -1.7 -0.4 -2.8 -0.9z"/>
   <path d="M958.1 864.4 c0.7 -0.8 0.9 -3 0.6 -5.4 -0.5 -3.8 -0.4 -4 2.2 -4 2.5 0 2.7 0.2 2.3 3.8 -0.5 4.3 -1.5 5.8 -4.3 6.5 -1.7 0.4 -1.8 0.3 -0.8 -0.9z"/>
   <path d="M988.2 864.3 c0.2 -1 1 -1.8 1.8 -1.8 0.8 0 1.6 0.8 1.8 1.8 0.2 1.2 -0.3 1.7 -1.8 1.7 -1.5 0 -2 -0.5 -1.8 -1.7z"/>
   <path d="M1001.1 863.4 c-1.2 -1.5 -2.1 -3.4 -2.1 -4.2 0 -0.9 -1 -2.6 -2.2 -3.9 -1.6 -1.7 -1.8 -2.3 -0.7 -2.3 1.6 0 4.9 -4.9 4.9 -7.3 0 -0.9 -1.2 -2.5 -2.6 -3.6 -2 -1.6 -2.2 -2.1 -1 -2.1 0.9 0 2.8 0.7 4.1 1.6 3.3 2.2 3.3 6.3 0 9.4 -2.1 2 -2.3 2.6 -1.2 3.9 0.8 0.9 2.5 3.7 4 6.4 2.3 4.3 2.4 4.7 0.7 4.7 -1 0 -2.8 -1.2 -3.9 -2.6z"/>
   <path d="M1042.5 861.8 c-0.7 -4.2 -1.1 -5.2 -3.3 -9.5 -0.7 -1.3 -1.2 -3.1 -1.2 -4.1 0 -1 -0.5 -2.3 -1.1 -2.9 -1.2 -1.2 -0.6 -4.3 0.8 -4.3 0.5 0 1.4 1.5 2.1 3.3 0.8 1.7 1.7 4.1 2.2 5.2 0.5 1.1 1.4 3.8 2.1 5.9 0.6 2.2 2.1 5.4 3.1 7.3 l2 3.3 -3 0 c-2.8 0 -3.1 -0.4 -3.7 -4.2z"/>
   <path d="M1071.4 864.4 c0.3 -0.9 0.6 -6.7 0.6 -13 0 -10.2 0.2 -11.4 1.8 -11.4 1.5 0 1.7 1.2 1.6 11.7 -0.1 6.6 0.3 12.4 0.8 13.1 0.8 0.9 0.3 1.2 -2.2 1.2 -2.5 0 -3.1 -0.3 -2.6 -1.6z"/>
   <path d="M1111.5 853 l0 -13 2.4 0 2.3 0 -0.7 11.5 c-0.5 8.5 -0.4 11.9 0.5 13 1.1 1.3 0.8 1.5 -1.6 1.5 l-2.9 0 0 -13z"/>
   <path d="M1128 861.3 c0 -2.7 0.3 -8.5 0.7 -13 0.5 -6.7 0.9 -8.3 2.2 -8.3 1.4 0 1.6 1.7 1.6 13 0 12.8 0 13 -2.2 13 -2.1 0 -2.3 -0.5 -2.3 -4.7z"/>
   <path d="M1164.8 860 c0.3 -5.3 0 -6.5 -2.7 -10.5 -1.7 -2.5 -3.1 -4.9 -3.1 -5.2 0 -0.4 -0.7 -1.5 -1.7 -2.5 -1.5 -1.7 -1.5 -1.8 0.8 -1.8 2.4 0 2.9 0.6 6.3 7.7 0.9 1.7 2 3.4 2.6 3.8 0.5 0.3 1 3.5 1 7 0 4.1 0.4 6.5 1.3 6.8 0.6 0.3 -0.1 0.6 -1.8 0.6 l-3 0.1 0.3 -6z"/>
   <path d="M493.4 861.9 c2.2 -2.5 2.6 -4.1 2.6 -8.9 0 -5.2 -0.4 -6.4 -3.1 -9.5 -3.3 -3.7 -2.2 -4.8 1.9 -1.9 3.3 2.3 5.2 6.7 5.2 12 0 3.9 -0.5 5.1 -3.4 8 -4.2 4.2 -6.7 4.5 -3.2 0.3z"/>
   <path d="M540.5 862.6 c1.6 -1.6 2.5 -4 3 -8 0.5 -3.8 1.2 -5.6 2.1 -5.6 1 0 1.4 1.4 1.4 4.9 0 4.3 -0.4 5.2 -3.5 8 -4.2 3.6 -6.5 4.2 -3 0.7z"/>
   <path d="M615.4 857.8 c-3.1 -4 -7.1 -8.9 -8.9 -10.8 -4.1 -4.5 -5.2 -7.3 -2.6 -6.8 2.6 0.4 18.1 19.7 18.1 22.6 0 1.2 -0.2 2.2 -0.5 2.2 -0.2 0 -3 -3.3 -6.1 -7.2z"/>
   <path d="M827.1 861.3 c2.5 -4.9 2.4 -11.8 -0.1 -16.6 -1.9 -3.6 -1.9 -3.7 -0.2 -2.8 2.6 1.4 4.8 4.1 3.3 4.1 -0.6 0 -1.1 0.5 -1.1 1 0 0.6 0.7 1 1.5 1 0.8 0 1.5 0.5 1.5 1 0 0.6 -0.4 1 -1 1 -0.5 0 -1 0.7 -1 1.5 0 0.8 0.5 1.5 1 1.5 2.8 0 -0.5 9.1 -3.9 10.9 -1.8 1 -1.8 0.9 0 -2.6z"/>
   <path d="M897.4 863.6 c-1 -0.8 -1.5 -1.8 -1.1 -2.2 0.4 -0.4 1.5 0 2.4 0.9 2.2 2.1 1.2 3.1 -1.3 1.3z"/>
   <path d="M912.3 862.6 c3 -4.5 3.4 -12.7 0.8 -17.6 -2.2 -4.2 -1.5 -4.4 2.7 -0.7 1.9 1.7 2.2 3.1 2.2 8.7 0 5.6 -0.3 7 -2.2 8.7 -4.1 3.7 -5.5 4 -3.5 0.9z"/>
   <path d="M988.8 859.8 c-0.2 -0.7 -0.5 -4.6 -0.7 -8.5 -0.2 -5.8 0 -7.3 1.1 -7.3 2.2 0 3.8 8.1 2.5 13 -1.1 4 -2.1 5 -2.9 2.8z"/>
   <path d="M893 853.1 c0 -3.9 0.4 -5.1 1.5 -5.1 1.1 0 1.5 1.1 1.5 3.6 0 1.9 -0.7 4.2 -1.5 5 -1.3 1.4 -1.5 1 -1.5 -3.5z"/>
   <path d="M478 849.8 c0 -2.9 -0.3 -6.3 -0.6 -7.5 -0.5 -2 -0.2 -2.3 2 -2.3 l2.7 0 -0.3 7.2 c-0.2 6 -0.6 7.3 -2 7.6 -1.5 0.3 -1.8 -0.5 -1.8 -5z"/>
   <path d="M732.4 851.8 c2.4 -3.3 2 -8.4 -0.6 -10.2 -1.7 -1.2 -1.8 -1.6 -0.7 -1.6 0.9 0 2.8 0.9 4.3 2.1 3.5 2.8 3.5 7 0 9.8 -3.5 2.7 -4.9 2.7 -3 -0.1z"/>
   <path d="M1083.4 849.5 c2.3 -4.8 4.6 -5.9 4.6 -2.2 0 2.3 -3.7 6.7 -5.7 6.7 -0.5 0 -0.1 -2 1.1 -4.5z"/>
   <path d="M861 844.5 c0 -3.6 0.3 -4.5 1.8 -4.5 1.4 0 1.7 0.7 1.4 4.5 -0.3 3 -0.9 4.5 -1.8 4.5 -1 0 -1.4 -1.3 -1.4 -4.5z"/>
   <path d="M540.9 844 c-3.4 -3.9 -1.9 -3.9 2.3 0 2.1 1.8 2.7 2.9 1.8 2.9 -0.8 0 -2.7 -1.3 -4.1 -2.9z"/>
   <path d="M380.3 843 c-1 -2.7 -0.9 -3 0.8 -3 1 0 1.9 0.3 1.9 0.8 0 0.4 0.3 1.7 0.6 3 1 3.4 -1.9 2.8 -3.3 -0.8z"/>
   <path d="M1083.3 842.6 c-0.4 -0.7 -1.5 -1.6 -2.3 -1.9 -1.3 -0.4 -1.2 -0.6 0.1 -0.6 0.9 -0.1 2.7 0.8 4 1.9 2 1.6 2.1 1.9 0.7 2 -0.9 0 -2.1 -0.6 -2.5 -1.4z"/>
   <path d="M988 841 c0 -0.5 0.9 -1 2 -1 1.1 0 2 0.5 2 1 0 0.6 -0.9 1 -2 1 -1.1 0 -2 -0.4 -2 -1z"/>
   <path d="M1096.5 786 c-14 -2.8 -23.1 -8 -31.7 -18.1 -7 -8.3 -10.8 -16.9 -7.5 -16.9 2.3 0 4.7 -3.5 4.7 -6.8 0 -1.8 -0.5 -3.2 -1.1 -3.2 -2.3 0 -4.9 2.2 -4.9 4.1 0 1.3 -0.4 1.8 -1.1 1.3 -1.5 -0.9 -0.6 -21.7 1.1 -25.9 4.8 -11.8 10.1 -18.9 18.9 -25.5 6 -4.5 15.7 -8.6 18.3 -7.8 1.7 0.6 -7.2 5 -10.5 5.2 -2 0.1 -3.1 0.6 -2.9 1.4 0.1 0.7 -2 4.2 -4.8 7.8 -2.7 3.6 -5.3 7.7 -5.6 9.2 -0.3 1.5 -1.3 5 -2.1 7.7 -0.8 2.8 -1.7 10 -2 16 -0.3 6.2 -1.1 11.3 -1.7 11.7 -0.7 0.5 -0.6 0.8 0.4 0.8 1.7 0 5.5 12.3 3.9 12.8 -0.5 0.2 -0.7 0.8 -0.3 1.3 0.3 0.5 0 0.9 -0.5 0.9 -0.6 0 -1.1 0.7 -1.1 1.5 0 1 1 1.5 2.8 1.5 2.9 0 5.3 2 8.6 7.3 2.4 3.9 9.8 8.4 17.9 10.8 3.7 1.2 6.7 2.5 6.7 3 0 1 0.1 1 -5.5 -0.1z"/>
   <path d="M663.5 784.1 c-2.7 -0.9 -6 -2.2 -7.2 -2.9 -2.7 -1.5 -5.6 -1.5 -7 -0.1 -1.4 1.4 -2.1 -3.4 -2.5 -16 l-0.3 -8.4 1.8 4.3 c1.1 2.4 1.9 5.8 2 7.6 0.1 1.9 0.5 3.4 1 3.4 0.5 0 3.3 2.1 6.1 4.8 4.7 4.2 10.9 7.2 15 7.2 0.8 0 1.8 0.5 2.1 1 0.9 1.5 -5.3 1 -11 -0.9z"/>
   <path d="M897.5 782.6 c-1.6 -2.1 -5 -6.3 -7.5 -9.4 -2.5 -3.1 -7.9 -10 -12 -15.3 -4.1 -5.3 -12.1 -15.5 -17.7 -22.7 -5.7 -7.1 -10.3 -13.3 -10.3 -13.7 0 -0.3 0.8 -0.5 1.8 -0.3 1.1 0.2 3.1 -0.3 4.6 -1.1 2.5 -1.4 2.8 -1.3 6.2 2 1.9 1.8 4.1 4.6 4.8 6 1.2 2.3 1.1 2.8 -0.5 4 -2 1.4 -2.6 3.9 -0.9 3.9 0.6 0 1.9 -0.6 3.1 -1.2 2.2 -1.4 1.7 -1.9 12.2 11 2.9 3.5 6.9 8.3 9 10.6 2 2.4 3.7 4.6 3.7 5 0 0.3 -1.2 0.5 -2.7 0.4 -1.6 -0.2 -3 0.2 -3.3 0.7 -0.3 0.6 1.1 1.1 3.3 1.2 2.1 0 4.6 0.8 5.6 1.7 1 0.9 2.1 1.6 2.5 1.6 0.4 0 0.6 -16.9 0.4 -37.5 -0.2 -24.6 0 -37.5 0.7 -37.5 0.9 0 1 51.5 0.2 84.5 l-0.2 10 -3 -3.9z"/>
   <path d="M1118 784.5 c1.9 -0.7 5.7 -2.5 8.4 -4 3.6 -1.9 5.2 -2.3 6 -1.5 0.8 0.8 0.6 1.5 -0.8 2.6 -1.1 0.8 -2.5 1.4 -3.2 1.4 -0.6 0 -2.5 0.7 -4 1.5 -1.6 0.8 -4.5 1.5 -6.4 1.4 l-3.5 0 3.5 -1.4z"/>
   <path d="M1269.3 778.9 c-3.2 -4 -7.4 -9.1 -9.3 -11.4 -1.9 -2.4 -5.4 -6.7 -7.7 -9.6 -2.3 -3 -7.9 -10.1 -12.5 -15.8 -11.9 -14.9 -17.8 -23 -17.8 -24.1 0 -0.6 -0.4 -1 -0.9 -1 -1 0 -10 -11.3 -10.2 -12.7 0 -0.4 -1.6 -2.1 -3.5 -3.6 l-3.4 -2.9 -0.2 35.4 c-0.2 51 -0.5 48.6 7 50.6 2.9 0.8 1.1 1 -8.8 0.9 -6.9 0 -10.9 -0.2 -8.9 -0.4 2.2 -0.2 4.6 -1.4 5.9 -2.8 l2.2 -2.4 -0.1 -36.3 c-0.2 -38.8 0.4 -49.8 2.4 -49.8 0.7 0 1.8 -0.6 2.4 -1.4 1 -1.1 0.7 -1.7 -1.1 -3 -2.2 -1.6 -2.2 -1.6 1.2 -1.5 3 0 4.2 0.9 9 6.5 3 3.6 5.7 7.1 5.9 7.7 0.2 0.7 3.4 4.8 7.1 9.2 10.3 12.3 30.3 37.5 34.2 43.1 2 2.7 3.4 5.4 3.2 5.9 -0.2 0.6 0.6 1.5 1.8 2 1.3 0.6 2.2 1.6 2.1 2.3 -0.2 0.7 0.3 1.2 1.1 1.2 0.8 0 1.7 0.7 2 1.6 1.1 3 2.3 0.4 2 -4.6 -0.2 -2.8 0.1 -5 0.6 -5 0.6 0 1 5.7 1 14.5 0 8 -0.2 14.5 -0.5 14.5 -0.3 0 -3.1 -3.2 -6.2 -7.1z m-2.4 -12.8 c1.7 -1.1 0.7 -4.1 -1.3 -4.1 -1.9 0 -2.9 1.7 -2.2 3.5 0.6 1.7 1.5 1.8 3.5 0.6z"/>
   <path d="M254.6 784.3 c1.7 -0.2 4.2 -1.5 5.5 -2.9 l2.4 -2.6 0 -43.5 0 -43.5 -2.8 -2.4 -2.8 -2.4 11.3 0 c11.8 0.1 12.2 0.3 5.8 4 -1.2 0.7 -1.6 4.7 -1.9 23.9 -0.2 12.7 0 24.3 0.3 25.6 l0.7 2.6 4.4 -3.7 c5.7 -4.6 5.7 -4 0.1 1.7 -4.1 4.2 -4.5 5 -5.1 11.3 -1.1 10 -0.1 25 1.8 27.9 0.9 1.4 3.3 2.9 5.4 3.5 3 0.8 0.3 1 -12.2 0.9 -8.8 0 -14.6 -0.2 -12.9 -0.4z"/>
   <path d="M329.3 783.8 c-1.7 -0.8 -21.3 -21.9 -21.3 -23 0 -0.2 -5.6 -6.2 -12.5 -13.3 -6.9 -7.2 -12.5 -13.2 -12.5 -13.5 0 -0.3 9.2 -9.4 20.5 -20.3 17.2 -16.7 20.5 -20.3 20.5 -22.7 0 -1.9 -0.6 -3 -1.7 -3.3 -1 -0.3 2.4 -0.5 7.5 -0.6 5 0 9.2 0.1 9.2 0.4 0 1.1 -5.7 2.7 -9.5 2.7 -2.7 -0.1 -3.5 0.2 -2.5 0.8 1.2 0.7 -2.5 5 -16.7 19.1 l-18.2 18.3 3.2 4.2 c1.8 2.3 9.7 11.3 17.7 20 8 8.7 14.4 16.1 14.2 16.6 -0.1 0.4 0.1 0.8 0.6 0.8 0.4 0 3.5 2.6 7 5.9 4.6 4.3 7.6 6.2 11.5 7.3 l5.2 1.6 -10 0 c-5.5 0 -11 -0.4 -12.2 -1z"/>
   <path d="M385.4 784 c5.3 -1 6.6 -3.1 6.6 -10.9 0 -3.6 0 -23.5 0 -44.1 l0 -37.5 -2.6 -2.2 -2.5 -2.3 11.3 0.1 c7 0 10.5 0.3 9.3 0.9 -4.6 1.8 -4.5 1.4 -4.3 48.6 l0.3 44.8 4.5 1.8 4.5 1.7 -15.5 -0.1 c-9.9 0 -14.1 -0.3 -11.6 -0.8z"/>
   <path d="M451.2 784.1 c2 -0.4 4.3 -1.2 5 -1.8 1.9 -1.5 4.6 -1.3 10.8 0.8 l5.5 1.8 -12.5 0 c-8.1 -0.1 -11.2 -0.4 -8.8 -0.8z"/>
   <path d="M536.2 784.3 c5.5 -0.6 7.8 -4.3 7.8 -12.5 0 -6.3 0 -6.4 2.8 -6.3 2.5 0 2.7 -0.3 3 -4.2 0.2 -3 -0.1 -4.3 -1 -4.3 -1.8 0 -3.4 1.2 -4.1 3 -0.3 0.8 -0.6 -1.9 -0.6 -6 -0.2 -18.9 -1.3 -52.7 -1.7 -54.7 -0.5 -2.5 -2.4 -3.2 -2.4 -0.8 0 1.3 -8.5 18.2 -9.7 19.5 -1.5 1.5 1.4 -6.3 6.4 -17 1.7 -3.6 3.8 -8.2 4.7 -10.2 l1.6 -3.8 8 0 c5 0 7.9 0.4 7.5 1 -0.3 0.5 -2.7 0.7 -5.3 0.4 -4.6 -0.5 -4.7 -0.5 -2.7 1.3 2 1.7 2.1 3 2.4 28.7 0.2 21.4 0 27.1 -1.1 27.7 -1 0.7 -0.9 0.9 0.5 0.9 1.5 0 1.7 1.4 1.7 15.2 0 14.1 0.2 15.4 2.2 18.4 1.5 2.2 3.3 3.4 5.3 3.7 1.6 0.2 -4.2 0.4 -13 0.4 -8.8 0 -14.3 -0.2 -12.3 -0.4z"/>
   <path d="M690.5 784.1 c0.3 -0.5 1.8 -1.2 3.4 -1.6 4.6 -1 10.7 -8.3 12 -14.4 0.7 -3.5 0.8 -5.8 0.1 -7.1 -0.5 -1 -1 -2.8 -1 -3.8 0 -3.9 -9.9 -11.2 -22.5 -16.7 -1.6 -0.7 -5.1 -2.2 -7.7 -3.4 -2.6 -1.2 -5.3 -2.1 -6 -2.1 -3.2 -0.1 -11.6 -6 -15.6 -10.9 l-4.4 -5.5 0.4 -8.5 c0.2 -4.8 0.8 -9.2 1.2 -9.9 1.4 -2.3 4 1.7 5.4 8 0.7 3.1 2 6.2 2.8 6.9 1.2 1 1.2 1.4 0.2 2 -0.9 0.6 -0.7 1 0.7 1.4 1.1 0.4 5.6 2.4 10 4.5 4.4 2 9.5 4.4 11.3 5.1 1.7 0.8 3.2 1.7 3.2 2.1 0 0.5 1.1 0.8 2.5 0.8 1.4 0 3.3 0.4 4.3 0.9 0.9 0.5 3.4 1.6 5.5 2.5 5.9 2.5 12.6 8.6 15 13.6 3 6.3 3 16.9 0 22.5 -2.5 4.7 -8.5 10.6 -13 12.9 -3.4 1.7 -8.8 2.2 -7.8 0.7z"/>
   <path d="M752.5 784.3 c6.8 -1 6.5 1.2 6.5 -48 l0 -44.4 -2.6 -2.4 -2.7 -2.5 11.4 0 c11.1 0 11.3 0.1 9.1 1.8 -1.3 1 -2.7 3.6 -3.2 5.7 -0.5 2.2 -1 22 -1 44 0 45 -0.2 43.6 7.5 45.4 3 0.7 0 0.9 -12 0.8 -8.8 0 -14.6 -0.2 -13 -0.4z"/>
   <path d="M819.1 784.3 c2 -0.2 4.5 -1.3 5.5 -2.5 1.8 -1.9 1.9 -4.7 2.2 -43.6 0.2 -27.7 -0.1 -42.5 -0.8 -44.6 -0.9 -2.5 -0.8 -3.3 0.5 -4.2 1.2 -0.9 1.3 -1.3 0.3 -1.7 -0.7 -0.3 1 -0.6 3.8 -0.6 5.1 -0.1 5.1 -0.1 9.8 6 3.7 4.8 4.5 6.4 3.4 7 -1 0.7 -1 0.9 0.3 0.9 1.7 0 12.7 12.3 11.2 12.6 -0.4 0.1 -2.1 0.5 -3.6 0.8 -1.5 0.4 -3.1 1.6 -3.5 2.7 -0.7 1.8 -1.6 1 -7 -6 -3.4 -4.4 -6.2 -8.2 -6.2 -8.4 0 -0.3 1.4 -0.4 3.2 -0.3 2.3 0.1 3.3 -0.4 3.6 -1.7 0.5 -2.5 -2.5 -3.2 -5 -1.1 -1.5 1.4 -2.2 1.6 -2.5 0.6 -0.3 -0.6 -0.9 -0.9 -1.4 -0.6 -0.6 0.3 -1.6 0.1 -2.3 -0.5 -1.1 -0.9 -1.4 5.5 -1.5 37.6 -0.1 35.4 0 39.1 1.6 42.3 1.3 2.6 2.8 3.8 5.8 4.7 3.6 1 2.7 1.1 -8.5 1.1 -6.9 -0.1 -10.9 -0.3 -8.9 -0.5z"/>
   <path d="M971 784.3 c7.4 -0.9 7 1.8 7 -50 l0 -46.3 -3.7 0.1 c-2.1 0 -7.6 0.4 -12.3 0.8 -6.3 0.6 -9.2 0.4 -11 -0.5 -2.1 -1.1 3.7 -1.3 35.2 -1.4 l37.6 0 0.7 5.3 c1.6 13.5 1.7 14.2 0.6 12.7 -0.6 -0.8 -1.1 -2.3 -1.1 -3.3 0 -7.1 -10.9 -13.7 -22.6 -13.7 -3.8 0 -7.9 0.3 -9.1 0.6 l-2.3 0.6 0 45.2 c0 24.8 0.4 45.7 0.9 46.4 0.4 0.7 2.8 1.9 5.2 2.7 4.1 1.3 3.3 1.4 -12.1 1.3 -9.1 -0.1 -14.9 -0.3 -13 -0.5z"/>
   <path d="M500.9 778.4 c-0.7 -1.6 -3.2 -7 -5.5 -12.1 -2.4 -5.1 -4.4 -9.6 -4.4 -10 0 -0.4 -1.2 -3.3 -2.7 -6.3 -1.5 -3 -3.6 -7.5 -4.6 -10 -1.1 -2.5 -3.7 -8.1 -5.8 -12.5 -6.2 -12.9 -9.7 -20.8 -11 -24.2 -2.7 -7.7 -3.5 -3.6 -4.9 25.2 -0.5 11.6 -1 27.3 -1.1 34.9 -0.1 10.9 -0.4 14.3 -1.6 15.4 -1.3 1.3 -1.4 1 -0.9 -2.9 0.9 -6.5 2.6 -51.9 2.6 -70.4 0 -10.7 0.4 -15.5 1 -14.5 1.1 1.7 1.3 1 0.4 -1.4 -0.8 -2.1 -2.4 -2 -2.4 0.1 0 1.5 -0.2 1.5 -1.7 0.1 -1 -0.9 -2.7 -1.8 -3.8 -2.1 -1.1 -0.2 2.1 -0.5 7.1 -0.6 l9 -0.1 3.4 7.3 c3.5 7.5 6.8 14.7 10.6 23.2 1.2 2.8 3.6 7.9 5.2 11.5 1.7 3.6 4.2 9 5.6 12 4 8.8 7.8 17.2 9.5 20.7 1.8 3.8 3 3.2 5.6 -2.9 3.3 -7.9 17.9 -37.7 18.3 -37.4 0.3 0.4 -1.2 4.1 -6.7 15.6 -1.9 4.1 -4.1 9.1 -4.9 11 -1.3 3.3 -3 7.1 -7.9 18 -1.1 2.5 -2.9 6.5 -3.9 9 -2.5 6.2 -3.1 6.7 -4.5 3.4z"/>
   <path d="M1135.2 777.1 c-1.1 -0.7 -0.6 -1.9 2.1 -5.7 1.9 -2.7 4 -4.8 4.7 -4.6 0.6 0.1 0.8 -0.3 0.5 -0.9 -0.7 -1 -0.1 -2.7 2.5 -8 1.5 -2.9 3.2 -13.1 3.3 -19.7 0.2 -9.4 -1.7 -19.8 -4.7 -25.7 -2.9 -5.8 -3.3 -8 -1.1 -7.1 2 0.7 2 -2.7 0 -4.4 -1.2 -1 -1.6 -0.8 -2.3 0.9 -0.7 2 -1.3 1.7 -7.5 -4.8 -3.7 -3.8 -6.7 -6.7 -6.7 -6.6 0 0.2 -1.7 -0.3 -3.7 -1.2 -2.1 -0.8 -7.2 -2.1 -11.3 -2.8 l-7.5 -1.3 7.1 -0.1 c8.1 -0.1 11.3 0.7 20.3 5.2 12.4 6.2 22.6 18 26.1 30.3 2.6 9.1 2.7 24.7 0.2 32.1 -2.4 6.6 -8.4 15.4 -14.6 20.9 -5.2 4.7 -5.4 4.8 -7.4 3.5z m18.6 -52.3 c-0.3 -0.7 -1.1 -1.3 -1.8 -1.3 -0.7 0 -1.5 0.6 -1.7 1.3 -0.3 0.7 0.4 1.2 1.7 1.2 1.3 0 2 -0.5 1.8 -1.2z"/>
   <path d="M1274 754.5 c0 -0.8 0.5 -1.5 1 -1.5 0.6 0 1 0.7 1 1.5 0 0.8 -0.4 1.5 -1 1.5 -0.5 0 -1 -0.7 -1 -1.5z"/>
   <path d="M1274 750.5 c0 -0.8 0.5 -1.5 1 -1.5 0.6 0 1 0.7 1 1.5 0 0.8 -0.4 1.5 -1 1.5 -0.5 0 -1 -0.7 -1 -1.5z"/>
   <path d="M1274 720.9 c0 -25.6 -0.1 -27.2 -2 -29.9 -1.1 -1.6 -3 -3.1 -4.3 -3.3 -1.2 -0.2 1.8 -0.5 6.6 -0.6 5.7 -0.1 8.6 0.3 8.2 0.9 -0.3 0.6 -1.3 1 -2 1 -3.3 0 -3.9 4.2 -4.3 31.8 -0.2 14.9 -0.8 27.2 -1.3 27.2 -0.5 0 -0.9 -12 -0.9 -27.1z"/>
   <path d="M706.6 709.9 c-4.2 -14.1 -9.2 -19.3 -22 -23 l-6.1 -1.8 5.3 0 c2.9 -0.1 6 0.4 7 0.9 3.5 2.1 14.1 4.7 15 3.8 0.6 -0.6 1.1 3.1 1.4 9.9 0.5 10.3 0.3 13.3 -0.6 10.2z"/>
   <path d="M942.4 703 c0.4 -2.5 1 -6.4 1.3 -8.7 0.4 -2.8 1.1 -4.3 2 -4.3 0.8 0 1.1 0.5 0.7 1.1 -0.3 0.6 -0.2 1.4 0.4 1.8 0.8 0.5 0.3 2.7 -1.5 7.1 -3.2 8.1 -3.8 8.7 -2.9 3z"/>
   <path d="M655.8 696.2 c-1 -0.2 -1.8 -0.8 -1.8 -1.3 0 -2.2 15.3 -9.9 16.7 -8.5 0.2 0.2 -1.6 1.4 -4.1 2.6 -2.5 1.2 -5.6 3.4 -6.8 4.8 -1.3 1.6 -3.1 2.6 -4 2.4z"/>
   <path d="M893.4 687.8 c-0.3 -0.4 2.7 -0.8 6.7 -0.8 4 0 6.9 0.3 6.6 0.6 -1 1 -12.7 1.1 -13.3 0.2z"/>
   <path d="M1194.5 688 c-1.8 -0.8 -1.7 -0.9 0.8 -0.9 1.5 -0.1 2.7 0.4 2.7 0.9 0 1.2 -0.8 1.2 -3.5 0z"/>
  </g>
 </g>
</svg>