<?xml version="1.0" encoding="utf-8"?>
<!DOCTYPE svg PUBLIC "-//W3C//DTD SVG 1.0//EN" "http://www.w3.org/TR/2001/REC-SVG-20010904/DTD/svg10.dtd">
<svg version="1.0" xmlns="http://www.w3.org/2000/svg" width="1536px" height="1024px" viewBox="0 0 1536 1024" preserveAspectRatio="xMidYMid meet">
 <g fill="#000000">
  <path d="M383.88 869.29 c-6.28 -17.11 -7.75 -20.80 -8.62 -21.78 -0.62 -0.74 -1.11 -3.08 -1.11 -5.29 l0 -4.06 22.15 0 22.15 0 0 4.06 c0 2.22 -0.49 4.55 -1.23 5.29 -0.62 0.62 -2.95 6.40 -5.17 12.80 -4.06 11.57 -4.18 11.69 -8.37 12.06 -2.95 0.37 -4.68 -0.25 -5.91 -1.85 -1.48 -2.09 -1.72 -2.09 -2.83 0 -0.86 1.35 -2.71 2.09 -5.54 2.09 -3.57 0 -4.43 -0.62 -5.54 -3.32z"/>
  <path d="M429.54 868.31 c0 -2.34 0.62 -4.31 1.23 -4.31 0.74 0 1.23 -3.69 1.23 -8.62 0 -4.92 -0.49 -8.62 -1.23 -8.62 -0.62 0 -1.23 -1.97 -1.23 -4.31 l0 -4.31 13.54 0 13.54 0 0 6.77 c0 5.17 -0.37 6.77 -1.85 6.77 -1.23 0 -1.85 1.23 -1.85 3.69 0 2.83 0.49 3.69 2.46 3.69 2.22 0 2.46 0.86 2.46 6.77 l0 6.77 -14.15 0 -14.15 0 0 -4.31z"/>
  <path d="M470.15 868.80 c0 -2.09 0.86 -4.55 1.85 -5.54 1.11 -1.23 1.85 -4.18 1.85 -7.88 0 -3.69 -0.74 -6.65 -1.85 -7.88 -0.98 -0.98 -1.85 -3.45 -1.85 -5.54 l0 -3.82 13.29 0 c10.22 0 13.91 0.49 16.12 1.97 8.37 5.91 8.25 24.86 -0.25 30.03 -3.20 1.97 -6.28 2.46 -16.49 2.46 l-12.68 0 0 -3.82z m20.43 -9.11 c2.22 -3.32 1.60 -6.65 -1.97 -9.85 -2.46 -2.22 -2.46 -2.09 -2.46 5.29 0 8.12 1.23 9.48 4.43 4.55z"/>
  <path d="M518.15 868.43 c0 -2.34 0.62 -4.68 1.23 -5.05 0.74 -0.37 1.23 -4.06 1.23 -8 0 -3.94 -0.49 -7.63 -1.23 -8 -0.62 -0.37 -1.23 -2.71 -1.23 -5.05 l0 -4.18 12.92 0 c12.43 0 13.05 0.12 16.74 3.45 3.32 2.95 4.06 4.55 4.55 10.34 0.74 9.11 -1.48 15.38 -6.40 18.34 -3.08 1.85 -6.15 2.34 -15.75 2.34 l-12.06 0 0 -4.18z m19.69 -9.72 c1.60 -2.95 1.60 -3.69 0 -6.65 -3.32 -6.03 -4.92 -4.92 -4.92 3.32 0 8.25 1.60 9.35 4.92 3.32z"/>
  <path d="M564.92 868.43 c0 -2.34 0.62 -4.68 1.23 -5.05 0.74 -0.37 1.23 -4.06 1.23 -8 0 -3.94 -0.49 -7.63 -1.23 -8 -0.62 -0.37 -1.23 -2.71 -1.23 -5.05 l0 -4.18 8.62 0 8.62 0 0 4.31 c0 2.34 -0.49 4.31 -1.23 4.31 -0.74 0 -1.23 3.69 -1.23 8.62 0 4.92 0.49 8.62 1.23 8.62 0.74 0 1.23 1.97 1.23 4.31 l0 4.31 -8.62 0 -8.62 0 0 -4.18z"/>
  <path d="M594.46 868.43 c0 -2.58 0.74 -4.43 1.85 -4.92 2.09 -0.74 2.71 -14.89 0.62 -16.12 -0.62 -0.37 -1.23 -2.71 -1.23 -5.05 l0 -4.18 7.02 0 c4.68 0 7.63 0.62 9.23 2.09 2.09 1.85 2.22 1.85 2.22 0 0 -1.72 1.35 -2.09 7.38 -2.09 l7.38 0 0 4.18 c0 2.34 -0.49 4.68 -1.23 5.05 -0.74 0.37 -1.23 6.15 -1.23 13.05 l0 12.18 -4.92 0 c-2.71 0 -4.92 -0.37 -4.92 -0.86 -0.12 -0.62 -1.85 -2.95 -4.06 -5.29 -2.22 -2.34 -3.57 -3.82 -2.95 -3.20 0.49 0.74 0.86 3.08 0.86 5.29 l0 4.06 -8 0 -8 0 0 -4.18z"/>
  <path d="M646.65 870.40 c-4.18 -3.32 -5.42 -6.89 -5.42 -15.38 0 -6.28 0.62 -8.62 2.71 -11.32 4.68 -5.91 14.40 -8.25 25.48 -6.03 3.69 0.74 3.82 0.86 3.82 8 0 4.06 0.49 7.26 1.23 7.26 0.74 0 1.23 1.85 1.23 4.18 0 2.34 -0.49 4.68 -1.23 5.05 -0.62 0.37 -1.23 2.34 -1.23 4.31 0 4.92 -2.95 6.15 -14.40 6.15 -7.26 0 -10.22 -0.62 -12.18 -2.22z m13.29 -12.43 c-0.37 -4.18 -0.12 -4.92 2.22 -5.29 2.71 -0.37 2.71 -0.37 0.37 -3.32 l-2.46 -2.95 -2.58 2.58 c-2.95 2.95 -3.45 7.63 -1.48 11.45 2.34 4.18 4.43 2.83 3.94 -2.46z"/>
  <path d="M715.08 868.43 c0 -2.58 0.74 -4.43 1.85 -4.92 2.09 -0.74 2.71 -14.89 0.62 -16.12 -0.62 -0.37 -1.23 -2.71 -1.23 -5.05 l0 -4.18 11.45 0 c14.03 0 15.63 1.11 15.63 10.83 0 7.51 -2.83 11.32 -8.62 11.32 -2.46 0 -3.69 0.62 -3.69 1.85 0 0.98 0.62 1.85 1.23 1.85 0.74 0 1.23 1.97 1.23 4.31 l0 4.31 -9.23 0 -9.23 0 0 -4.18z"/>
  <path d="M754.46 868.43 c0 -2.58 0.74 -4.43 1.85 -4.92 1.35 -0.49 1.85 -2.58 1.85 -7.38 0 -4.31 -0.62 -7.38 -1.85 -8.62 -0.98 -0.98 -1.85 -3.45 -1.85 -5.54 l0 -3.82 17.85 0 17.85 0 0 4.18 c0 2.34 -0.49 4.68 -1.23 5.05 -0.62 0.37 -1.23 4.06 -1.23 8 0 3.94 0.62 7.63 1.23 8 0.74 0.37 1.23 2.71 1.23 5.05 l0 4.18 -17.85 0 -17.85 0 0 -4.18z m20.68 -7.26 c0.25 -1.48 -0.37 -2.09 -2.09 -2.09 -1.48 0 -2.58 0.74 -2.58 1.60 0 3.82 3.94 4.18 4.68 0.49z m0 -12.80 c0.25 -0.98 -0.62 -1.60 -2.09 -1.60 -1.48 0 -2.58 0.74 -2.58 1.97 0 2.22 3.82 1.85 4.68 -0.37z"/>
  <path d="M808.62 871.02 c-4.55 -3.57 -6.15 -7.63 -6.15 -15.38 0 -12.92 5.54 -18.71 17.72 -18.71 12.43 0 17.97 5.54 17.97 17.85 0 7.51 -2.22 12.92 -6.40 15.88 -3.45 2.46 -20.31 2.71 -23.14 0.37z m14.77 -10.58 c1.85 -3.45 1.48 -7.75 -0.74 -10.95 -1.85 -2.71 -2.09 -2.71 -4.31 -0.74 -3.82 3.45 -2.34 14.03 1.97 14.03 0.98 0 2.34 -1.11 3.08 -2.34z"/>
  <path d="M854.15 868.43 c0 -2.58 0.74 -4.43 1.85 -4.92 1.23 -0.49 1.85 -2.46 1.85 -6.52 l0 -6.03 -5.05 0.49 -4.92 0.49 0.37 -7.14 0.37 -7.26 15.14 -0.25 15.02 -0.25 0 7.38 0 7.26 -4.31 0 -4.31 0 0 6.15 c0 3.45 0.62 6.15 1.23 6.15 0.74 0 1.23 1.97 1.23 4.31 l0 4.31 -9.23 0 -9.23 0 0 -4.18z"/>
  <path d="M894.77 871.02 c-4.68 -3.57 -6.15 -7.51 -6.15 -15.88 0 -7.75 0.25 -8.74 4.06 -12.92 3.57 -3.82 5.05 -4.55 10.95 -5.05 14.77 -1.23 20.68 4.18 20.68 18.71 0 7.88 -0.25 8.62 -4.18 12.55 -4.06 4.06 -4.43 4.18 -13.78 4.18 -5.78 -0.12 -10.46 -0.74 -11.57 -1.60z m14.77 -10.58 c1.72 -3.32 1.48 -7.63 -0.49 -10.22 -2.09 -2.83 -4.06 -2.83 -5.66 0.12 -2.46 4.80 -0.62 12.43 3.08 12.43 0.98 0 2.34 -1.11 3.08 -2.34z"/>
  <path d="M940.06 869.05 c-3.57 -3.20 -4.06 -4.31 -4.43 -11.94 -0.25 -6.89 0.12 -9.23 2.22 -12.55 4.06 -6.52 13.91 -9.23 25.72 -6.89 3.69 0.74 3.82 0.98 3.82 7.38 l0 6.65 -4.18 0 c-2.83 0 -4.68 -0.86 -6.03 -2.71 l-1.97 -2.83 -3.20 3.45 c-3.82 4.31 -3.94 7.14 -0.12 11.57 l2.95 3.45 -0.62 -5.91 -0.74 -5.78 8.37 0 8.25 0 -0.62 5.29 c-0.98 7.63 -2.34 12.43 -3.82 13.42 -0.74 0.49 -5.91 0.98 -11.45 0.98 -9.48 0 -10.46 -0.25 -14.15 -3.57z"/>
  <path d="M982.15 868.43 c0 -2.34 0.62 -4.68 1.23 -5.05 0.74 -0.37 1.23 -4.06 1.23 -8 0 -3.94 -0.49 -7.63 -1.23 -8 -0.62 -0.37 -1.23 -2.71 -1.23 -5.05 l0 -4.18 11.20 0 c6.15 0 12.18 0.62 13.42 1.23 3.08 1.60 4.43 8.98 2.58 14.65 -1.11 3.82 -0.98 4.92 1.11 7.75 1.35 1.85 2.46 5.05 2.46 7.14 l0 3.69 -15.38 0 -15.38 0 0 -4.18z"/>
  <path d="M1021.54 868.80 c0 -2.22 0.74 -4.55 1.72 -5.29 0.86 -0.74 3.69 -6.77 6.15 -13.29 l4.68 -12.06 4.68 0 4.68 0 3.32 8.98 c1.85 4.80 4.43 11.08 5.66 13.91 1.23 2.71 2.34 6.40 2.34 8.25 l0 3.32 -16.62 0 -16.62 0 0 -3.82z"/>
  <path d="M1065.85 868.43 c0 -2.34 0.62 -4.68 1.23 -5.05 0.74 -0.37 1.23 -4.06 1.23 -8 0 -3.94 -0.49 -7.63 -1.23 -8 -0.62 -0.37 -1.23 -2.71 -1.23 -5.05 l0 -4.18 11.69 0 c14.40 0 16.62 1.48 16.62 11.08 0 7.63 -2.83 11.08 -9.23 11.08 -4.31 0 -5.78 1.97 -2.46 3.20 1.11 0.49 1.85 2.34 1.85 4.92 l0 4.18 -9.23 0 -9.23 0 0 -4.18z"/>
  <path d="M1105.23 868.43 c0 -2.34 0.62 -4.68 1.23 -5.05 0.74 -0.37 1.23 -4.06 1.23 -8 0 -3.94 -0.49 -7.63 -1.23 -8 -0.62 -0.37 -1.23 -2.71 -1.23 -5.05 l0 -4.18 17.85 0 17.85 0 0 4.31 c0 2.34 -0.49 4.31 -1.23 4.31 -0.74 0 -1.23 3.69 -1.23 8.62 0 4.92 0.49 8.62 1.23 8.62 0.74 0 1.23 1.97 1.23 4.31 l0 4.31 -17.85 0 -17.85 0 0 -4.18z m19.69 -6.89 c0 -1.60 -0.86 -2.46 -2.46 -2.46 -2.34 0 -3.32 2.46 -1.60 4.06 1.60 1.72 4.06 0.74 4.06 -1.60z m0 -12.92 c0 -0.98 -1.11 -1.85 -2.46 -1.85 -1.35 0 -2.46 0.86 -2.46 1.85 0 0.98 1.11 1.85 2.46 1.85 1.35 0 2.46 -0.86 2.46 -1.85z"/>
  <path d="M1159.38 868.43 c0 -2.34 0.49 -4.55 1.23 -5.05 1.48 -0.98 -0.37 -5.66 -4.92 -12.55 -2.09 -2.95 -3.69 -7.02 -3.69 -9.11 l0 -3.57 16 0 16 0 0 4.18 c0 2.22 -0.86 4.80 -1.85 5.66 -2.46 2.09 -8 11.69 -8 14.03 0 1.11 0.86 1.97 1.85 1.97 1.23 0 1.85 1.35 1.85 4.31 l0 4.31 -9.23 0 -9.23 0 0 -4.18z"/>
  <path d="M870.15 761.72 c-15.88 -20.43 -29.91 -38.28 -31.02 -39.75 -2.09 -2.46 -2.09 -1.11 -2.22 27.20 0 29.42 0 29.78 2.71 31.63 1.48 1.11 4.06 1.97 5.54 1.97 2.58 0 2.83 0.62 2.83 6.15 l0 6.15 -18.46 0 -18.46 0 0 -6.15 c0 -5.42 0.37 -6.15 2.58 -6.15 1.35 0 3.57 -0.62 4.92 -1.23 2.22 -1.23 2.34 -3.08 2.34 -42.22 0 -30.28 -0.37 -41.35 -1.48 -42.46 -0.86 -0.86 -3.08 -1.48 -4.92 -1.48 -3.32 0 -3.45 -0.12 -3.45 -6.77 l0 -6.77 14.52 0 c9.85 0 15.14 0.49 16.49 1.60 0.98 0.74 7.63 8.98 14.52 18.09 7.02 9.11 18.34 23.75 25.11 32.62 l12.43 15.88 0.37 -24.86 c0.12 -15.51 -0.25 -25.85 -0.98 -27.32 -0.74 -1.23 -3.20 -2.71 -5.54 -3.20 -4.18 -0.74 -4.31 -0.86 -4.31 -6.77 l0 -6.03 17.85 0 17.85 0 0 6.03 c0 5.78 -0.25 6.15 -3.69 6.89 -2.09 0.49 -4.31 1.85 -4.92 3.08 -0.74 1.48 -1.23 21.42 -1.23 51.57 l0 49.35 -5.29 0 -5.17 0 -28.92 -37.05z"/>
  <path d="M1268.92 791.51 c-3.08 -3.94 -16.86 -21.66 -30.77 -39.26 l-25.23 -32.12 -0.37 29.17 c-0.25 28.55 -0.25 29.17 2.34 31.38 1.48 1.11 3.94 2.09 5.54 2.09 2.71 0 2.95 0.49 2.95 6.15 l0 6.28 -18.71 -0.37 -18.83 -0.37 -0.37 -5.66 -0.37 -5.66 4.92 -0.86 c3.82 -0.62 5.17 -1.48 5.66 -3.57 0.37 -1.48 0.49 -20.43 0.37 -41.97 -0.37 -42.71 0 -40.37 -7.51 -41.97 -3.32 -0.62 -3.45 -0.98 -3.08 -6.52 l0.37 -5.78 14.52 -0.37 c8 -0.12 15.26 0.12 16.12 0.62 0.98 0.49 9.48 10.95 18.83 23.14 9.35 12.18 20.92 27.08 25.60 33.11 l8.62 10.95 0.37 -25.60 c0.25 -17.48 -0.12 -26.09 -1.11 -27.20 -0.74 -0.86 -3.20 -1.97 -5.54 -2.46 -4.06 -0.74 -4.18 -0.86 -4.18 -6.77 l0 -6.03 18.58 0 18.46 0 -0.37 6.52 c-0.37 6.15 -0.49 6.40 -4.06 6.77 -1.97 0.25 -4.18 0.86 -4.68 1.35 -0.62 0.62 -0.98 19.32 -0.86 41.72 0 22.28 -0.25 45.05 -0.74 50.58 l-0.86 9.97 -5.05 0 c-4.68 -0.12 -5.42 -0.62 -10.58 -7.26z"/>
  <path d="M1093.78 796.31 c-17.60 -2.83 -33.11 -14.77 -41.23 -31.63 l-4.55 -9.60 0 -17.23 c0 -19.94 1.85 -26.34 10.58 -36.92 11.69 -14.15 24.25 -20.31 43.69 -21.29 25.11 -1.23 42.83 6.52 54.77 23.88 11.08 16.12 12.55 43.32 3.45 62.52 -3.45 7.38 -14.28 19.20 -21.17 23.26 -10.95 6.40 -30.28 9.35 -45.54 7.02z m20.43 -15.02 c7.38 -2.22 17.11 -11.69 21.29 -20.92 3.20 -7.02 3.57 -8.98 3.57 -21.29 0 -11.20 -0.49 -14.77 -2.83 -20.43 -5.54 -13.78 -18.71 -24.49 -30.15 -24.49 -16.74 0 -31.51 18.09 -32.62 40.12 -1.11 20.31 8.25 38.15 23.75 45.54 7.02 3.32 9.97 3.57 16.98 1.48z"/>
  <path d="M658.46 794.22 c-3.69 -0.98 -8.74 -2.22 -11.08 -2.71 l-4.31 -0.74 -0.37 -18.22 -0.37 -18.22 6.52 0.37 6.52 0.37 0.86 5.17 c3.08 18.34 24.25 27.69 37.17 16.25 5.54 -4.80 7.14 -9.35 5.05 -14.40 -2.22 -4.92 -8.62 -8.98 -21.78 -13.66 -14.89 -5.17 -22.28 -9.11 -26.58 -14.40 -6.03 -7.26 -8 -19.08 -4.92 -31.02 1.97 -8 11.57 -17.48 20.68 -20.68 9.11 -3.08 29.29 -2.95 40.62 0.49 l8 2.34 0.37 16.74 0.37 16.86 -4.80 0 c-5.54 0 -7.02 -1.35 -8.25 -7.14 -1.11 -5.17 -7.38 -12.43 -12.55 -14.52 -8.49 -3.57 -18.22 -0.49 -22.52 7.26 -1.60 2.95 -1.60 3.69 0 6.65 2.71 4.92 8.12 8.12 21.05 12.55 16 5.66 21.91 8.62 26.95 13.66 5.29 5.29 7.38 11.69 7.38 23.02 0 16 -8.74 28.18 -24.37 33.85 -7.63 2.83 -30.03 2.83 -39.63 0.12z"/>
  <path d="M244.92 789.17 c0 -5.91 0.12 -6.03 4.68 -7.14 l4.55 -1.11 0.62 -28.92 c0.37 -15.88 0.37 -34.95 0 -42.46 l-0.62 -13.54 -4.55 -0.37 -4.68 -0.37 0 -6.77 0 -6.65 22.52 0.25 22.40 0.37 0 6.15 0 6.15 -4.92 0.62 -4.92 0.62 -0.37 16 -0.37 16 16.12 -16 c10.34 -10.34 15.38 -16.12 14.15 -16.37 -1.35 -0.37 -1.85 -2.09 -1.85 -7.14 l0 -6.65 21.54 0 21.54 0 0 6.77 0 6.77 -4.43 0 c-2.34 0 -5.54 0.62 -7.02 1.35 -3.57 1.97 -35.32 31.75 -35.32 33.23 0 1.48 35.08 43.32 40.12 48.12 1.97 1.72 5.29 3.45 7.26 3.69 3.57 0.37 3.69 0.62 4.06 6.89 l0.37 6.40 -17.35 0 c-14.89 0 -17.48 -0.25 -19.08 -2.09 -0.98 -1.23 -8.25 -10.46 -16.12 -20.68 -19.45 -25.11 -18.83 -24.49 -21.66 -21.91 -1.97 1.85 -2.22 3.69 -1.97 16.25 l0.37 14.15 5.29 1.11 5.29 0.98 -0.37 5.78 -0.37 5.78 -22.40 0.37 -22.52 0.25 0 -5.91z"/>
  <path d="M374.40 788.68 c0.37 -6.40 0.49 -6.52 4.68 -7.14 l4.31 -0.62 0 -42.46 0 -42.46 -4.55 -0.37 -4.68 -0.37 0 -6.77 0 -6.65 22.52 0.25 22.40 0.37 0 6.15 0 6.15 -4.92 0.62 -4.92 0.62 0 42.46 0 42.46 3.94 0.37 c5.05 0.49 6.77 2.71 6.28 8.49 l-0.37 4.68 -22.52 0.37 -22.52 0.25 0.37 -6.40z"/>
  <path d="M441.85 789.05 c0 -5.78 0.25 -6.15 3.32 -6.52 2.22 -0.25 3.94 -1.48 4.80 -3.45 0.86 -1.85 2.09 -18.95 2.95 -42.34 1.60 -43.08 1.85 -41.35 -5.78 -41.35 l-4.06 0 0 -6.77 0 -6.89 17.48 0.37 17.60 0.37 14.77 33.48 c8.12 18.34 15.02 33.23 15.38 32.98 0.49 -0.25 7.02 -14.77 14.77 -32.25 7.63 -17.48 14.52 -32.49 15.14 -33.23 0.86 -1.11 6.15 -1.60 18.95 -1.60 l17.72 0 -0.37 6.52 c-0.37 6.40 -0.37 6.40 -4.68 6.77 -2.34 0.25 -5.05 0.98 -5.78 1.72 -1.97 1.60 -2.34 78.65 -0.37 82.22 0.74 1.35 3.20 2.58 6.15 3.08 l4.92 0.86 0 6.03 0 6.03 -23.38 0 -23.38 0 0 -6.03 c0 -5.91 0.12 -6.03 4.31 -6.77 2.95 -0.62 4.80 -1.72 5.42 -3.69 0.62 -1.48 0.74 -13.78 0.37 -27.20 l-0.86 -24.49 -7.63 17.11 c-4.18 9.48 -10.71 23.88 -14.40 32 l-6.89 14.77 -4.92 0 -4.92 0 -12.43 -27.69 c-6.77 -15.26 -13.42 -29.91 -14.65 -32.62 l-2.09 -4.92 -0.86 11.69 c-0.49 6.40 -0.74 18.95 -0.49 27.69 l0.37 16 5.29 1.11 5.17 1.23 0 5.91 0 5.91 -18.46 0 -18.46 0 0 -6.03z"/>
  <path d="M743.63 788.68 c0.37 -6.40 0.49 -6.52 4.68 -7.14 3.45 -0.49 4.43 -1.35 5.29 -4.43 0.62 -2.09 0.62 -20.31 0 -42.46 l-0.98 -38.65 -4.55 -0.37 -4.68 -0.37 0 -6.77 0 -6.65 22.52 0.25 22.40 0.37 0 6.15 0 6.15 -4.92 0.62 -4.92 0.62 0 42.46 0 42.46 4.92 0.62 4.92 0.62 0 6.15 0 6.15 -22.52 0.37 -22.52 0.25 0.37 -6.40z"/>
  <path d="M963.69 789.05 c0 -5.91 0 -6.03 4.68 -7.14 l4.55 -1.11 0.37 -41.11 c0.12 -22.52 -0.12 -41.48 -0.62 -41.97 -0.62 -0.49 -4.55 -0.49 -8.86 0 -9.23 1.11 -11.45 3.08 -14.40 13.17 l-1.85 6.65 -6.28 0 -6.28 0 0.86 -16.86 c0.49 -9.23 1.23 -17.35 1.48 -17.85 0.98 -1.48 95.02 -1.23 95.88 0.25 0.49 0.74 1.11 8.74 1.48 17.85 l0.74 16.62 -6.15 0 -6.15 0 -1.97 -7.26 c-2.71 -9.72 -6.15 -12.43 -15.75 -12.43 l-7.26 0 0.25 41.48 0.37 41.60 5.29 1.11 5.17 1.11 0 5.91 0 6.03 -22.77 0 -22.77 0 0 -6.03z"/>
  <path d="M923.45 641.23 c-4.68 -1.85 -5.66 -5.66 -4.92 -17.35 0.74 -10.34 0.74 -10.71 -2.09 -12.68 -2.22 -1.35 -3.32 -3.82 -4.43 -8.98 -0.86 -4.31 -6.40 -17.60 -14.15 -33.60 -7.02 -14.52 -18.34 -40 -25.11 -56.62 -8.25 -19.82 -16.49 -37.29 -24 -50.95 l-11.57 -20.68 -2.09 3.20 c-4.06 6.03 -15.51 33.23 -22.65 53.54 -4.06 11.20 -10.71 29.54 -14.77 40.62 -4.18 11.08 -8.12 22.28 -8.74 24.86 -2.22 8.12 -3.82 23.63 -3.69 35.69 0.12 12.80 -0.49 15.88 -3.20 15.88 -1.23 0 -1.72 1.60 -1.72 5.42 0 3.08 -0.62 5.91 -1.23 6.28 -0.74 0.37 -8.25 0.98 -16.98 1.23 -8.74 0.25 -18.58 1.35 -22.40 2.34 -8.12 2.34 -32.98 2.58 -39.38 0.37 -3.94 -1.35 -4.31 -1.97 -4.68 -6.65 -0.62 -8 0.98 -9.72 12.55 -13.17 10.22 -3.20 24.37 -11.32 26.46 -15.26 0.62 -1.23 1.48 -5.17 1.97 -8.86 0.49 -3.69 1.60 -9.85 2.58 -13.54 0.98 -3.69 2.34 -18.58 2.95 -33.23 0.98 -21.29 1.85 -29.66 4.80 -43.08 1.97 -9.11 3.32 -16.86 3.08 -17.11 -0.25 -0.25 -3.57 2.46 -7.51 5.91 -19.20 17.11 -31.26 22.52 -50.83 22.77 l-13.05 0.12 -5.91 6.77 c-5.05 5.78 -17.35 23.63 -29.42 42.83 -2.95 4.43 -3.94 5.17 -7.63 5.17 -5.05 0 -5.17 -0.86 -2.95 -14.77 1.23 -7.38 1.23 -8.86 -0.86 -13.17 -1.35 -2.58 -3.20 -4.80 -4.31 -5.05 -1.11 -0.25 -5.78 2.46 -10.22 5.78 -5.54 4.31 -9.48 6.28 -11.94 6.28 -3.20 0 -3.57 -0.37 -3.57 -3.94 0 -2.22 1.11 -5.66 2.58 -7.75 3.82 -5.66 11.20 -20.43 10.46 -21.17 -0.37 -0.37 -4.18 0 -8.49 0.74 -4.31 0.74 -10.95 1.35 -14.77 1.35 -6.77 0 -7.02 -0.12 -9.35 -4.55 -4.43 -8.74 -13.91 -15.14 -22.15 -15.14 -1.97 0 -7.38 1.97 -12.06 4.43 -4.55 2.46 -14.77 7.02 -22.52 9.97 -7.75 2.95 -17.60 7.38 -21.91 9.72 -4.18 2.34 -9.35 4.18 -11.32 4.18 -3.45 0 -3.69 -0.37 -3.69 -4.43 0 -4.06 1.85 -6.28 20.55 -26.09 11.32 -12.06 24.49 -25.72 29.29 -30.40 11.69 -11.69 33.11 -27.69 36.92 -27.69 1.97 0 3.08 -0.74 3.08 -1.85 0 -2.46 12.55 -2.46 19.69 0 8.25 2.95 11.08 2.46 11.08 -1.48 0.12 -4.80 3.94 -12.68 8.12 -16.62 4.18 -3.94 9.11 -5.91 14.40 -5.91 2.22 0 4.80 -0.62 5.78 -1.23 1.35 -0.86 -0.25 -1.23 -5.17 -1.23 -5.54 0 -7.75 -0.62 -9.60 -2.46 -2.95 -2.95 -3.32 -10.58 -0.62 -14.40 1.72 -2.34 1.60 -2.58 -2.09 -3.32 -5.78 -1.11 -14.65 -0.86 -19.94 0.62 -8.12 2.22 -22.52 11.08 -32.37 19.82 -7.63 6.89 -10.09 8.37 -13.54 8.37 -6.65 0 -8.98 -1.85 -8.98 -7.14 0 -5.17 7.38 -18.83 17.48 -32.25 3.32 -4.43 6.15 -9.11 6.40 -10.46 0.37 -1.35 1.11 -6.28 1.97 -11.08 0.74 -4.68 2.71 -10.83 4.31 -13.66 4.92 -8.49 22.89 -20.92 49.48 -34.22 20.06 -9.97 24.25 -13.54 29.54 -25.11 4.68 -10.34 5.17 -16.86 2.09 -32.86 -2.71 -14.52 -3.57 -35.94 -1.85 -44.80 1.60 -8.37 7.14 -21.17 11.32 -26.46 4.80 -6.15 13.66 -9.35 26.09 -9.35 11.57 0 10.34 -0.49 17.72 7.51 0.49 0.62 3.82 2.95 7.14 5.17 5.29 3.45 6.28 4.55 6.77 8.74 0.62 4.43 1.11 5.05 5.66 6.52 l5.05 1.72 0.86 7.63 c0.62 6.15 1.35 8.12 3.82 10.09 2.34 1.97 3.08 3.69 3.08 7.38 l0.12 4.92 4.31 -4.92 c6.52 -7.38 11.45 -15.38 12.92 -20.92 2.71 -10.83 4.68 -13.66 14.03 -19.82 8.49 -5.54 8.98 -5.91 6.40 -7.26 -1.48 -0.74 -2.95 -2.71 -3.08 -4.31 -0.25 -1.72 -1.23 -3.57 -2.22 -4.06 -0.98 -0.49 -1.72 -2.34 -1.72 -3.94 0 -2.58 -0.86 -3.20 -5.66 -4.43 l-5.54 -1.48 0.25 -7.75 c0.12 -4.92 -0.25 -8.49 -1.35 -9.72 -1.11 -1.35 -1.35 -4.06 -0.86 -9.23 0.62 -5.66 0.49 -7.38 -0.86 -7.38 -3.45 0 -5.66 -4.43 -5.66 -11.57 0 -6.89 0.12 -7.26 7.02 -14.40 4.43 -4.68 9.85 -8.74 15.02 -11.32 7.26 -3.57 8.98 -3.94 19.08 -3.82 8.98 0 12.55 0.62 17.72 2.83 13.29 5.91 21.17 22.03 21.17 43.32 0 8.98 2.34 15.88 5.42 15.88 0.98 0 4.68 2.09 8.25 4.55 4.43 3.08 13.78 7.02 28.18 12.06 l21.54 7.38 3.94 7.38 c4.31 8.12 9.23 20.68 11.20 28.31 0.62 2.71 3.45 10.22 6.03 16.62 2.71 6.40 7.14 18.09 9.72 25.85 l4.80 14.15 -0.37 22.40 -0.25 22.40 15.38 5.05 c22.40 7.26 36.55 9.35 50.46 7.63 22.40 -2.83 41.23 -9.35 51.94 -18.22 4.31 -3.57 6.15 -4.31 9.85 -3.94 l4.68 0.37 0.37 8.98 c0.49 12.31 0.37 12.43 -28.06 25.97 -14.89 7.02 -22.28 12.80 -26.46 20.92 -5.42 10.22 -8.37 12.43 -16.74 12.43 -4.80 0 -5.78 -0.62 -12.06 -7.26 -3.82 -3.94 -8.25 -8 -9.97 -8.86 -3.69 -1.85 -34.09 -3.20 -35.82 -1.48 -2.71 2.71 3.69 56.37 8.49 70.65 1.35 3.69 3.32 10.83 4.55 15.88 1.23 5.05 3.57 12.18 5.05 15.88 1.97 4.18 2.95 8.98 2.95 13.17 0 6.40 -0.12 6.52 -4.06 7.26 -2.22 0.49 -9.35 0.49 -16 0.25 -13.17 -0.74 -17.35 -2.34 -19.45 -8 -1.23 -3.08 -0.86 -13.42 0.74 -19.32 0.49 -1.85 -0.37 -3.20 -3.69 -5.29 -4.06 -2.58 -4.31 -3.08 -4.31 -9.35 0 -3.57 0.86 -8.62 1.85 -10.95 1.97 -4.80 1.60 -6.65 -4.80 -20.80 -2.34 -5.29 -3.82 -7.14 -5.66 -7.14 -1.48 0 -2.46 0.86 -2.46 1.97 0 2.34 14.15 72 16.12 79.88 0.74 2.71 2.95 7.38 4.80 10.46 6.03 9.48 18.95 46.52 24 68.31 6.03 26.83 6.65 28.80 9.97 33.85 3.20 4.80 3.32 5.42 2.58 17.60 -0.49 8.74 -0.12 14.77 1.11 19.94 4.92 21.17 0.98 26.46 -19.45 26.34 -6.28 0 -12.68 -0.49 -14.15 -1.11z m-274.22 -119.02 c2.58 -3.94 6.40 -9.35 8.62 -12.06 l4.06 -5.05 -9.97 -3.45 -9.97 -3.57 -2.95 3.57 c-1.60 1.97 -4.55 5.78 -6.52 8.37 l-3.69 4.92 5.29 1.85 c4.18 1.60 5.78 3.08 7.75 7.14 1.35 2.83 2.46 5.17 2.58 5.29 0.12 0 2.22 -3.20 4.80 -7.02z m-51.94 -29.17 c5.05 -3.82 15.75 -9.11 23.63 -11.82 5.42 -1.85 6.28 -2.58 6.77 -6.15 0.62 -3.57 1.60 -4.43 11.08 -9.23 9.97 -5.05 10.34 -5.29 6.77 -6.15 -9.48 -2.09 -25.60 -7.51 -35.08 -11.82 l-10.46 -4.68 -0.37 2.95 c-0.49 3.69 -4.80 4.06 -11.94 1.11 -5.29 -2.22 -8.62 -1.35 -17.48 4.68 -5.91 3.94 -29.29 30.28 -25.60 28.80 5.54 -2.22 22.15 -2.34 29.29 -0.25 7.38 2.09 16.12 8.74 17.48 13.17 0.98 2.95 1.23 2.95 5.91 -0.62z m104.37 0.98 c8.62 -2.58 12.80 -5.05 26.71 -16.25 12.06 -9.72 15.63 -13.42 8.74 -9.23 -7.14 4.43 -24.62 11.08 -34.34 13.05 -5.05 1.11 -17.11 2.34 -26.71 2.71 -9.60 0.49 -18.95 1.23 -20.68 1.72 -2.95 0.74 -2.34 1.23 6.28 4.18 17.35 6.03 28.80 7.14 40 3.82z m-1.60 -25.11 c6.65 -1.72 19.82 -7.51 36.31 -15.88 22.52 -11.32 28.43 -13.78 43.32 -17.72 45.29 -12.18 64.37 -30.03 91.20 -85.17 8 -16.37 8.86 -19.94 6.15 -26.83 l-1.97 -5.17 -10.22 0 -10.34 0 -1.48 11.57 c-2.46 20.43 -12.92 46.77 -25.23 63.88 -4.06 5.54 -5.17 6.40 -8.86 6.40 -3.82 0 -4.18 -0.25 -4.18 -3.82 0 -2.22 2.95 -9.35 7.26 -17.48 4.06 -7.63 8.49 -16.86 9.97 -20.55 7.75 -19.45 12.31 -42.22 9.85 -48.74 -1.35 -3.45 -1.48 -3.32 -5.42 7.02 -4.31 11.69 -12.06 25.85 -19.08 35.08 -3.82 5.05 -5.29 6.03 -9.11 6.40 -4.31 0.37 -4.55 0.25 -4.55 -3.45 0 -2.09 0.62 -5.05 1.23 -6.52 2.34 -4.92 -5.54 4.92 -17.85 22.28 -15.63 21.91 -17.23 23.63 -22.40 23.63 -3.82 0 -4.06 -0.25 -4.06 -4.06 0 -4.80 12.18 -24.12 30.89 -48.86 6.40 -8.49 13.42 -18.34 15.75 -21.91 3.57 -5.66 4.55 -6.40 8.25 -6.40 3.94 0 4.18 0.25 4.18 4.06 l0.12 3.94 1.85 -3.57 c4.18 -7.63 12.55 -38.28 10.95 -39.88 -1.72 -1.85 -58.46 36.80 -83.69 56.98 -42.46 33.97 -51.32 47.26 -53.42 80.25 -0.86 13.42 -1.48 16 -4.92 23.14 -4.55 9.23 -15.38 21.29 -26.46 29.66 l-7.51 5.78 16.62 -0.62 c11.94 -0.49 19.45 -1.35 26.83 -3.45z m-22.77 -36.80 c4.68 -8.37 5.78 -15.51 4.92 -28.80 l-0.74 -11.82 -4.43 2.22 c-2.46 1.23 -6.28 2.71 -8.37 3.20 l-4.06 0.74 4.92 6.65 c3.82 5.17 4.92 7.75 4.92 11.69 0 4.68 -0.12 4.92 -3.94 4.92 -3.20 0 -5.29 -1.35 -10.46 -6.40 l-6.40 -6.28 -9.23 7.02 c-5.17 3.94 -10.46 9.11 -12.06 11.57 -1.48 2.46 -3.20 4.80 -3.82 5.05 -0.62 0.25 7.63 3.32 18.34 7.02 l19.57 6.52 3.82 -3.69 c2.22 -2.09 5.29 -6.40 7.02 -9.60z m-7.14 -51.20 c2.09 -0.86 5.42 -2.95 7.38 -4.68 3.69 -3.08 3.69 -3.32 4.06 -16.74 0.49 -16 -0.25 -19.69 -2.95 -14.52 -0.98 1.85 -3.82 8.49 -6.15 14.77 -2.34 6.15 -5.91 14.28 -7.88 17.85 -3.94 7.26 -3.69 7.26 5.54 3.32z m216.37 -6.77 l7.02 -1.35 0 -6.15 c0 -6.40 -3.57 -20.80 -5.17 -20.80 -0.62 0 -0.98 0.74 -0.98 1.72 0 0.86 -3.08 7.63 -6.77 14.89 -3.69 7.26 -6.77 13.42 -6.77 13.78 0 0.37 1.23 0.37 2.83 0 1.48 -0.37 5.91 -1.35 9.85 -2.09z m-248.12 -8 c8.12 -10.71 9.60 -15.02 8.98 -26.46 -0.25 -5.78 -0.49 -15.51 -0.37 -21.66 l0.12 -11.20 -16.86 8.49 c-17.48 8.86 -38.15 22.65 -42.34 28.18 -1.23 1.85 -2.09 4.18 -1.85 5.29 0.37 1.72 0.98 1.60 4.92 -1.11 2.71 -1.85 6.28 -3.08 8.74 -3.08 2.34 0 4.92 -0.86 5.78 -1.85 0.86 -0.98 3.45 -1.85 5.66 -1.85 3.94 0 4.18 0.25 4.18 4.31 0 2.34 0.37 4.31 0.74 4.31 0.37 0 4.92 -3.57 10.09 -8 7.38 -6.40 10.09 -8 13.42 -8 3.94 0 4.06 0.25 4.06 4.68 0 4.31 -0.86 5.54 -8.25 12.68 -4.68 4.43 -11.08 10.34 -14.52 13.17 l-6.15 5.17 6.15 0 c3.45 0 7.51 0.74 9.23 1.72 1.72 0.86 3.45 1.23 3.82 0.86 0.37 -0.37 2.34 -2.95 4.43 -5.66z m81.97 -27.57 c1.85 -1.72 3.32 -3.69 3.32 -4.43 0 -1.97 -6.28 -7.63 -9.97 -9.11 -3.20 -1.23 -3.32 -1.11 -2.22 3.32 0.62 2.46 1.11 7.26 1.11 10.58 0 6.65 0 6.65 7.75 -0.37z m30.28 -24.62 c7.14 -5.29 14.65 -10.58 16.49 -11.82 1.85 -1.23 3.08 -2.46 2.83 -2.83 -0.37 -0.25 -6.52 -1.23 -13.66 -1.97 -12.06 -1.35 -13.17 -1.35 -15.02 0.74 -1.35 1.60 -3.82 2.22 -8.12 2.22 -5.17 0 -6.65 -0.62 -10.22 -4.18 -4.06 -4.06 -4.18 -4.06 -4.18 -1.23 0 2.46 -0.62 2.95 -3.57 2.95 -1.97 0 -5.05 -0.49 -6.89 -1.23 -4.55 -1.72 -2.95 0.25 5.54 6.65 8.37 6.40 9.72 6.65 12.92 3.20 1.48 -1.60 3.82 -2.46 7.02 -2.46 4.43 0 4.68 0.25 4.68 3.69 0 1.97 -1.11 5.42 -2.34 7.51 -1.85 2.95 -2.09 4.55 -1.23 6.28 0.62 1.23 1.48 2.22 1.97 2.22 0.37 0 6.65 -4.31 13.78 -9.72z m149.42 -32 c17.97 -8.74 20.55 -10.58 20.55 -14.40 0 -6.28 -12.80 -43.69 -19.08 -55.88 -1.60 -3.08 -3.20 -7.75 -3.45 -10.46 -0.62 -5.17 -8.12 -23.14 -10.95 -25.97 -0.98 -0.98 -8.12 -3.94 -16.12 -6.52 l-14.40 -4.92 0 5.05 c0 3.69 -0.49 5.05 -2.22 5.42 -1.72 0.49 -1.97 1.72 -1.72 6.03 0.37 3.94 -0.25 6.65 -1.97 9.48 -10.09 16.62 -41.60 80.62 -40.37 81.85 0.12 0.12 4.92 -1.97 10.58 -4.80 9.48 -4.80 11.08 -5.17 23.26 -5.91 11.08 -0.62 14.03 -1.23 19.82 -4.18 3.69 -1.97 6.89 -3.57 7.14 -3.82 0.12 -0.12 -2.58 -6.15 -6.03 -13.54 -3.57 -7.26 -6.65 -15.63 -7.02 -18.71 l-0.62 -5.42 5.42 0.37 5.42 0.37 8.12 15.38 8 15.38 8.86 -0.37 8.86 -0.49 0 4.55 c0 3.57 -0.49 4.68 -2.58 5.17 -1.48 0.49 -7.63 3.08 -13.54 6.03 l-10.95 5.29 4.31 5.78 c2.34 3.08 4.68 7.75 5.05 10.46 0.49 2.58 1.35 4.80 1.97 4.80 0.62 0 6.77 -2.71 13.66 -6.03z m-183.14 -8.25 l0 -13.05 4.06 -3.57 3.94 -3.57 -4.92 0 c-2.71 0 -6.89 0.86 -9.35 1.85 -4.06 1.72 -4.31 1.97 -3.57 6.40 0.98 5.78 5.05 16.98 7.75 21.54 1.11 1.85 1.97 3.45 2.09 3.45 0 0 0 -5.91 0 -13.05z m74.46 -10.34 c-8.62 -16.98 -14.65 -42.83 -14.77 -62.52 0 -4.80 -0.49 -7.51 -1.23 -7.02 -0.62 0.37 -2.58 5.29 -4.31 10.83 -2.34 7.75 -4.55 12.06 -9.23 17.85 l-6.03 7.51 5.78 5.17 5.78 5.05 0.37 -3.20 c0.37 -3.08 0.86 -3.32 4.92 -2.95 4.43 0.37 4.55 0.49 5.91 7.14 0.74 3.69 2.58 10.71 4.18 15.38 1.48 4.80 2.95 9.35 3.20 10.22 0.49 1.60 4.68 3.69 7.63 3.82 0.98 0.12 0.12 -2.58 -2.22 -7.26z m-20.92 -0.37 c0 -0.25 -1.60 -1.97 -3.69 -3.94 l-3.69 -3.57 0 3.20 c0 2.09 0.74 3.45 2.22 3.82 2.71 0.74 5.17 0.98 5.17 0.49z m-24.98 -21.17 c-3.32 -2.95 -8.25 -4.18 -8.25 -1.97 0 0.98 7.88 4.68 10.46 4.92 0.74 0 -0.37 -1.35 -2.22 -2.95z m90.58 -60.43 c-1.23 -0.86 -2.58 -1.72 -2.95 -1.72 -0.74 0 -12.18 32.98 -12.18 35.08 0 0.74 3.94 -6.15 8.74 -15.14 8.12 -15.51 8.49 -16.62 6.40 -18.22z m5.66 -16.37 c1.11 -0.74 1.48 -2.22 0.86 -4.55 -0.98 -3.69 -1.97 -2.95 -3.69 2.95 -0.98 2.83 0 3.45 2.83 1.60z"/>
 </g>
 <g fill="#ffffff">
  <path d="M0 512 l0 -512 768 0 768 0 0 512 0 512 -768 0 -768 0 0 -512z m393.23 349.54 c1.11 -3.45 2.34 -6.15 2.58 -6.15 0.25 0 1.85 3.08 3.57 6.89 1.60 3.69 3.57 6.52 4.18 6.15 0.62 -0.49 2.71 -5.29 4.43 -10.95 1.85 -5.54 4.18 -11.32 5.05 -12.80 1.72 -2.71 1.60 -2.83 -2.22 -2.71 -2.22 0 -3.32 0.37 -2.46 0.74 0.74 0.25 1.48 1.35 1.48 2.22 0 3.08 -5.29 15.51 -6.15 14.52 -1.11 -1.23 -5.42 -14.28 -5.05 -15.14 0.12 -0.37 1.11 -0.49 2.09 -0.25 0.98 0.25 1.72 -0.25 1.72 -0.98 0 -0.62 -2.71 -1.23 -6.40 -1.23 -5.91 0 -6.15 0.12 -4.43 2.22 3.20 3.57 3.69 7.14 1.60 12.18 l-1.97 4.68 -3.08 -7.38 c-1.72 -4.06 -2.83 -8.37 -2.46 -9.48 0.37 -1.85 -0.37 -2.22 -3.82 -2.22 -3.32 0 -4.06 0.37 -3.20 1.60 1.11 1.23 2.83 5.66 8.98 22.15 1.60 4.55 3.08 3.45 5.54 -4.06z m60.92 4.06 l0 -3.32 -2.46 2.71 c-3.45 3.69 -9.35 3.69 -10.34 0 -2.09 -7.88 0.86 -11.94 5.42 -7.75 2.34 2.22 2.46 2.09 2.46 -1.48 0 -4.55 -1.23 -5.78 -3.08 -3.20 -3.32 4.55 -7.14 -1.48 -4.80 -7.51 1.11 -2.95 7.38 -2.46 9.60 0.74 l1.97 2.71 0 -3.32 0 -3.32 -10.09 0.12 c-5.66 0 -9.48 0.37 -8.62 0.74 0.98 0.37 1.48 4.18 1.48 12.68 0 8.49 -0.49 12.31 -1.48 12.68 -0.86 0.37 3.20 0.74 9.23 0.74 l10.71 0.12 0 -3.32z m41.48 0.86 c5.29 -3.20 7.38 -10.34 4.80 -16.37 -2.71 -6.65 -6.03 -8.25 -17.11 -8.25 -8.74 0 -9.48 0.12 -7.75 1.97 1.48 1.35 1.97 4.43 1.97 11.57 0 7.14 -0.49 10.22 -1.97 11.57 -3.20 3.20 14.77 2.83 20.06 -0.49z m46.03 0.49 c8 -4.06 9.23 -16.12 2.22 -21.91 -3.32 -2.83 -4.92 -3.20 -13.17 -3.20 -7.26 0 -8.98 0.37 -7.88 1.48 1.97 1.97 1.97 22.15 0 24.12 -2.34 2.34 14.28 1.97 18.83 -0.49z m35.94 1.11 c-1.11 -0.37 -1.60 -4.18 -1.60 -12.68 0 -8.49 0.49 -12.31 1.60 -12.68 0.74 -0.37 -0.98 -0.74 -3.94 -0.74 -4.31 -0.12 -5.17 0.25 -4.06 1.35 1.97 1.97 1.97 22.15 0 24.12 -1.11 1.11 -0.25 1.48 4.06 1.35 2.95 0 4.68 -0.37 3.94 -0.74z m27.45 -1.85 c-1.97 -2.83 -2.83 -18.22 -0.98 -18.22 0.49 0.12 4.43 4.80 8.86 10.46 4.43 5.66 8.37 10.34 8.98 10.46 0.49 0 0.86 -5.42 0.86 -12.06 0 -7.75 0.49 -12.55 1.48 -13.54 1.11 -1.11 0.62 -1.48 -2.58 -1.48 -3.57 0 -3.82 0.12 -2.09 1.97 1.97 1.97 2.95 15.38 1.11 15.14 -0.62 0 -3.94 -3.82 -7.51 -8.62 -5.66 -7.38 -7.02 -8.49 -10.46 -8.49 -2.95 0 -3.45 0.37 -2.34 1.48 0.98 0.98 1.48 5.54 1.48 12.31 0 8.86 -0.37 10.95 -2.09 11.94 -1.85 0.98 -1.35 1.23 2.46 1.35 4.55 0 4.68 0 2.83 -2.71z m62.15 1.48 c1.48 -0.86 2.34 -2.58 2.34 -4.68 0 -1.97 0.62 -4.06 1.48 -4.92 1.11 -1.11 0.49 -1.48 -2.71 -1.48 -4.18 0 -4.31 0.12 -4.31 5.17 0 4.80 -0.25 5.29 -3.32 5.66 -4.80 0.62 -8 -1.60 -9.60 -6.65 -3.08 -9.11 1.35 -17.72 9.11 -17.72 3.20 0 4.80 0.86 6.77 3.45 l2.46 3.32 0.12 -3.94 c0 -3.57 -0.37 -3.94 -4.92 -4.68 -16.49 -2.83 -26.71 15.51 -14.28 25.48 2.95 2.46 13.05 2.95 16.86 0.98z m61.78 0.37 c-0.98 -0.37 -1.60 -2.83 -1.60 -6.03 0 -5.17 0.12 -5.42 3.69 -5.42 7.02 0 11.08 -7.63 6.52 -12.55 -1.48 -1.72 -3.82 -2.22 -10.09 -2.22 -6.15 0 -7.63 0.37 -6.52 1.48 0.98 0.98 1.48 5.54 1.48 12.31 0 8.86 -0.37 10.95 -2.09 11.94 -1.72 0.98 -0.86 1.23 3.94 1.23 3.45 0 5.42 -0.37 4.68 -0.74z m39.26 -0.62 c-0.86 -0.86 -1.48 -3.82 -1.48 -6.77 l0 -5.29 6.15 0 6.15 0 0 5.29 c0 2.95 -0.62 5.91 -1.48 6.77 -1.11 1.11 -0.25 1.48 3.94 1.48 4.18 0 5.05 -0.37 3.94 -1.48 -0.86 -0.86 -1.48 -5.42 -1.48 -12.06 0 -6.65 0.62 -11.20 1.48 -12.06 1.11 -1.11 0.25 -1.48 -3.94 -1.48 -3.45 0 -4.92 0.37 -3.94 1.11 0.98 0.62 1.48 2.83 1.23 5.78 -0.37 4.80 -0.37 4.80 -6.15 5.17 l-5.91 0.37 0 -5.54 c0 -3.20 0.62 -5.66 1.60 -6.03 0.74 -0.37 -1.23 -0.74 -4.43 -0.74 -5.42 -0.12 -5.78 0 -4.06 1.85 2.95 2.95 2.83 22.03 -0.12 23.75 -1.72 0.98 -0.86 1.23 3.94 1.35 4.68 0 5.66 -0.37 4.55 -1.48z m59.82 -0.49 c8.98 -6.28 8 -20.55 -1.60 -24.62 -5.29 -2.22 -7.26 -2.22 -12.18 0.12 -9.72 4.68 -10.83 17.97 -1.97 24.86 2.71 2.22 12.43 1.97 15.75 -0.37z m40 1.11 c-1.11 -0.37 -1.60 -4.18 -1.60 -12.80 0 -11.20 0.12 -12.18 2.34 -12.18 1.35 0 3.32 1.23 4.31 2.71 l1.97 2.71 0 -3.57 0 -3.69 -11.45 0 -11.32 0.12 -0.37 3.57 -0.49 3.69 2.71 -2.83 c1.48 -1.60 3.57 -2.71 4.68 -2.46 3.20 0.62 3.69 21.78 0.74 24 -1.85 1.35 -1.35 1.60 3.94 1.48 3.32 0 5.29 -0.37 4.55 -0.74z m48.37 -3.32 c3.20 -3.20 4.18 -5.17 4.18 -8.62 0 -9.72 -7.75 -16.62 -16.74 -14.89 -5.78 0.98 -11.57 8 -11.57 13.91 0 8.49 5.29 13.66 14.03 13.78 5.17 0 6.52 -0.62 10.09 -4.18z m45.54 3.20 c0.74 -0.49 1.60 -2.22 1.97 -3.94 0.37 -1.72 1.11 -4.06 1.60 -5.17 0.74 -1.85 0.12 -2.22 -3.69 -2.22 -3.82 0 -4.43 0.25 -3.20 1.72 0.86 0.98 1.35 3.32 1.11 5.29 -0.37 2.95 -0.98 3.45 -4.80 3.82 -3.69 0.37 -5.05 -0.25 -7.14 -2.95 -3.57 -4.43 -3.57 -13.66 0 -18.22 3.32 -4.31 10.95 -4.55 13.78 -0.37 l1.97 2.71 0 -3.32 c0.12 -2.95 -0.37 -3.32 -5.17 -4.06 -15.51 -2.34 -25.48 14.40 -14.40 24.37 3.08 2.71 4.92 3.32 10.22 3.32 3.45 0 7.02 -0.49 7.75 -0.98z m32.74 -0.49 c-0.86 -0.86 -1.48 -3.57 -1.48 -6.15 0 -6.65 2.95 -6.03 6.40 1.23 2.34 4.68 3.45 5.91 6.52 6.15 3.45 0.49 3.57 0.37 1.72 -1.85 -1.11 -1.23 -3.08 -4.31 -4.18 -7.02 -2.22 -4.55 -2.22 -4.80 -0.12 -6.40 2.95 -2.09 2.95 -7.88 0 -9.97 -2.95 -2.09 -18.95 -2.34 -16.74 -0.12 0.86 0.86 1.48 5.42 1.48 12.06 0 6.65 -0.62 11.20 -1.48 12.06 -1.11 1.11 -0.25 1.48 3.94 1.48 4.18 0 5.05 -0.37 3.94 -1.48z m37.66 0.25 c-1.72 -1.11 -1.85 -1.97 -0.74 -4.92 0.98 -2.83 1.97 -3.69 4.43 -3.69 4.18 0 5.91 1.11 7.02 4.80 0.62 1.97 0.37 3.20 -0.74 3.94 -1.11 0.74 0 1.11 3.32 1.11 l5.05 0 -2.09 -4.55 c-1.23 -2.58 -3.69 -8.74 -5.54 -13.54 -1.85 -4.92 -3.82 -8.98 -4.31 -8.98 -0.62 0 -3.08 5.42 -5.66 12.06 -2.46 6.52 -5.42 12.68 -6.40 13.54 -1.60 1.23 -1.23 1.48 2.95 1.48 3.69 -0.12 4.31 -0.37 2.71 -1.23z m46.77 -0.12 c-1.48 -0.86 -2.22 -2.71 -2.22 -6.03 0 -4.80 0.12 -4.92 4.31 -4.92 4.80 0 9.23 -3.45 9.23 -7.38 0 -5.05 -4.18 -7.38 -13.17 -7.38 -6.40 0 -7.88 0.37 -6.77 1.48 0.86 0.86 1.48 5.42 1.48 12.06 0 6.65 -0.62 11.20 -1.48 12.06 -1.11 1.11 -0.12 1.48 4.68 1.48 4.68 -0.12 5.54 -0.37 3.94 -1.35z m38.65 -0.12 c-0.86 -0.86 -1.48 -3.82 -1.48 -6.77 l0 -5.29 6.15 0 6.15 0 0 6.03 c0 3.69 -0.62 6.28 -1.48 6.65 -0.86 0.37 1.23 0.62 4.55 0.62 3.45 0 5.42 -0.25 4.68 -0.62 -1.11 -0.37 -1.60 -4.18 -1.60 -12.68 0 -8.49 0.49 -12.31 1.60 -12.68 0.74 -0.37 -1.23 -0.74 -4.68 -0.74 -3.32 0 -5.54 0.37 -4.68 0.86 0.74 0.49 1.60 3.08 1.85 5.78 l0.37 4.92 -6.40 0.37 -6.52 0.37 0 -5.54 c0 -3.20 0.62 -5.66 1.60 -6.03 0.74 -0.37 -0.98 -0.74 -3.94 -0.74 -4.31 -0.12 -5.17 0.25 -4.06 1.35 0.86 0.86 1.48 5.42 1.48 12.06 0 6.65 -0.62 11.20 -1.48 12.06 -1.11 1.11 -0.25 1.48 3.94 1.48 4.18 0 5.05 -0.37 3.94 -1.48z m54.89 0.62 c-1.72 -0.37 -2.22 -1.85 -2.22 -6.15 0 -5.66 2.71 -11.57 7.75 -17.23 l2.46 -2.83 -4.18 0 c-2.71 0 -3.57 0.37 -2.58 1.11 1.35 0.86 1.23 1.97 -0.98 6.15 -2.95 5.78 -4.68 5.54 -7.51 -1.23 -1.23 -3.20 -1.23 -3.94 0.25 -4.92 1.11 -0.74 -0.25 -1.11 -4.31 -1.11 -5.66 0 -5.91 0.12 -4.06 2.22 6.40 7.14 10.09 20.06 6.77 23.38 -1.11 1.11 -0.12 1.48 4.68 1.35 3.32 -0.12 5.05 -0.37 3.94 -0.74z m-266.83 -122.34 c0 -30.15 0.49 -50.09 1.23 -51.57 0.62 -1.23 2.83 -2.58 4.92 -3.08 2.58 -0.62 3.69 -1.60 3.69 -3.20 0 -2.22 -0.98 -2.34 -14.15 -2.34 -13.05 0 -14.15 0.12 -14.15 2.34 0 1.72 1.23 2.58 4.31 3.08 2.34 0.49 4.80 1.85 5.54 3.20 1.60 2.95 1.72 68.06 0.12 67.45 -1.11 -0.37 -16.37 -19.69 -42.46 -53.91 -8 -10.46 -15.51 -19.82 -16.49 -20.55 -1.23 -0.98 -5.91 -1.60 -12.80 -1.60 -10.71 0 -10.83 0 -10.83 3.08 0 2.58 0.62 3.08 3.45 3.08 1.85 0 4.06 0.62 4.92 1.48 1.11 1.11 1.48 13.05 1.48 46.15 0 42.83 -0.12 44.68 -2.34 45.91 -1.35 0.62 -3.57 1.23 -4.92 1.23 -1.72 0 -2.58 0.74 -2.58 2.46 0 2.34 0.86 2.46 14.77 2.46 13.91 0 14.77 -0.12 14.77 -2.46 0 -1.72 -0.86 -2.46 -2.83 -2.46 -1.48 0 -4.06 -0.86 -5.54 -1.97 -2.71 -1.85 -2.71 -1.97 -2.71 -39.38 0 -20.55 0.37 -37.42 0.98 -37.29 0.49 0 3.82 3.94 7.51 8.86 23.26 30.77 61.29 78.40 62.65 78.40 1.11 0 1.48 -10.71 1.48 -49.35z m375.75 40.49 c0.49 -4.92 0.74 -27.69 0.62 -50.58 -0.12 -24.12 0.25 -41.97 0.98 -42.58 0.62 -0.62 2.83 -1.35 4.80 -1.60 2.71 -0.25 3.82 -1.11 4.06 -3.08 0.37 -2.83 0.25 -2.83 -14.40 -2.83 -13.78 0 -14.89 0.12 -14.89 2.34 0 1.60 1.23 2.46 3.94 3.08 7.26 1.48 7.14 0.49 7.14 37.17 0 18.58 -0.37 33.72 -0.86 33.72 -0.98 -0.12 -4.43 -4.43 -40.74 -51.57 -9.72 -12.55 -18.46 -23.38 -19.45 -23.88 -0.86 -0.49 -6.52 -0.74 -12.43 -0.62 -9.11 0.37 -10.83 0.74 -11.20 2.46 -0.25 1.48 0.62 2.34 3.08 2.83 7.51 1.60 7.14 -1.11 7.51 45.66 0.12 23.63 0 44.18 -0.37 45.66 -0.49 2.09 -1.85 2.95 -5.66 3.57 -3.57 0.62 -4.80 1.35 -4.55 2.83 0.37 1.60 2.71 1.97 15.51 2.34 14.40 0.25 15.02 0.25 15.02 -2.22 0 -1.72 -0.86 -2.46 -2.95 -2.46 -1.60 0 -4.06 -0.98 -5.54 -2.09 -2.58 -2.22 -2.58 -2.71 -2.34 -39.75 l0.37 -37.54 28.92 36.80 c15.88 20.18 31.38 40 34.46 43.94 3.08 3.94 6.15 7.26 6.89 7.26 0.86 0 1.72 -3.69 2.09 -8.86z m-157.91 4.31 c3.69 -0.98 9.11 -3.20 11.94 -4.92 6.89 -4.06 17.72 -15.88 21.17 -23.26 18.58 -39.51 -10.95 -82.22 -54.65 -78.89 -15.88 1.23 -29.29 8.37 -39.88 21.17 -8.25 9.97 -10.58 17.35 -10.58 33.23 0 13.05 0.12 13.91 4.55 23.14 12.43 25.97 38.89 37.54 67.45 29.54z m-429.29 -0.12 c10.22 -3.69 16.25 -8.98 20.68 -17.97 3.45 -6.77 3.94 -9.11 3.45 -14.52 -1.23 -14.03 -8 -21.05 -27.32 -28.06 -26.09 -9.48 -29.05 -11.82 -29.05 -22.40 0 -5.29 0.49 -6.65 4.06 -10.22 11.69 -11.69 34.71 -5.91 39.26 9.72 1.60 5.54 3.08 8.12 4.92 8.12 0.62 0 0.86 -5.78 0.74 -13.17 l-0.37 -13.05 -8 -2.34 c-10.83 -3.20 -24.62 -3.32 -33.23 -0.37 -9.60 3.20 -18.83 12.55 -20.80 21.29 -3.08 12.55 2.71 24.37 14.77 30.40 3.32 1.72 11.32 5.05 17.85 7.26 14.28 5.17 19.57 8.98 21.54 15.38 3.45 11.32 -3.69 22.03 -16.25 24.62 -16.62 3.45 -31.51 -5.91 -34.09 -21.17 -0.74 -4.06 -1.48 -5.29 -3.69 -5.54 -2.83 -0.37 -2.83 -0.37 -2.46 14.03 0.37 13.42 0.49 14.40 2.83 14.65 1.35 0.12 5.29 1.11 8.62 2.22 8.98 2.83 10.09 3.08 20.92 3.08 6.40 0.12 11.82 -0.62 15.63 -1.97z m-407.88 -1.72 c0.37 -1.72 -0.74 -2.34 -4.68 -2.95 -2.71 -0.49 -5.17 -1.23 -5.54 -1.72 -0.37 -0.49 -0.62 -8.49 -0.74 -17.85 l-0.12 -16.98 4.55 -4.43 4.43 -4.43 4.06 4.92 c2.22 2.71 10.58 13.29 18.46 23.38 7.88 10.22 15.14 19.45 16.12 20.68 1.48 1.72 3.94 2.09 15.51 2.09 13.42 0 13.54 0 13.17 -2.71 -0.25 -2.09 -1.35 -2.95 -4.18 -3.20 -2.58 -0.25 -5.54 -2.22 -9.48 -6.15 -6.65 -6.89 -41.48 -48.49 -41.48 -49.72 0 -1.11 35.45 -34.58 38.52 -36.31 1.48 -0.86 4.80 -1.48 7.38 -1.60 4.06 0 4.55 -0.37 4.55 -3.08 l0 -3.08 -17.85 0 -17.85 0 0 3.08 c0 2.58 0.62 3.08 3.57 3.08 2.09 0 4.06 0.62 4.55 1.35 0.74 1.35 -33.35 36.80 -40.49 41.97 l-3.32 2.46 0.25 -22.65 0.37 -22.52 4.92 -0.62 c3.94 -0.49 4.92 -1.11 4.92 -3.08 0 -2.34 -0.98 -2.46 -18.71 -2.83 l-18.83 -0.37 0 3.20 c0 2.71 0.49 3.08 4.18 3.08 2.34 0 4.68 0.62 5.17 1.35 1.11 1.85 1.11 88.98 0 90.83 -0.49 0.62 -2.71 1.60 -5.05 2.09 -3.20 0.49 -4.31 1.35 -4.31 3.08 0 2.34 0.98 2.34 18.71 2.09 16.62 -0.37 18.83 -0.62 19.20 -2.46z m128.86 1.48 c1.35 -2.09 -1.72 -4.80 -5.91 -5.17 l-3.94 -0.37 0 -46.15 0 -46.15 4.92 -0.62 c3.94 -0.49 4.92 -1.11 4.92 -3.08 0 -2.34 -0.98 -2.46 -18.71 -2.83 l-18.83 -0.37 0 3.08 c0 2.58 0.62 3.08 4.68 3.45 l4.55 0.37 0 46.15 0 46.15 -4.31 0.62 c-3.32 0.49 -4.43 1.23 -4.68 3.45 -0.37 2.71 -0.37 2.71 18.09 2.71 11.45 0 18.71 -0.49 19.20 -1.23z m59.69 -0.98 c0 -1.60 -1.48 -2.58 -5.17 -3.45 -3.94 -0.86 -5.29 -1.85 -5.91 -4.18 -0.49 -1.72 -0.37 -15.02 0.12 -29.54 0.49 -14.52 0.98 -30.52 0.98 -35.32 0.12 -4.92 0.49 -8.98 1.11 -8.98 0.49 0 2.95 4.92 5.42 10.83 11.69 27.69 30.65 68.55 31.75 68.55 1.35 0 5.66 -9.23 24.25 -50.46 5.66 -12.80 11.08 -24.62 11.94 -26.34 1.35 -2.34 1.72 3.20 2.34 33.11 0.37 19.82 0.12 37.29 -0.37 38.89 -0.74 1.97 -2.46 3.08 -5.54 3.69 -3.08 0.49 -4.31 1.35 -4.31 3.08 0 2.22 1.23 2.34 19.69 2.34 18.58 0 19.69 -0.12 19.69 -2.34 0 -1.85 -1.23 -2.58 -4.92 -3.20 -2.95 -0.49 -5.42 -1.72 -6.15 -3.08 -1.97 -3.57 -1.60 -88 0.37 -89.60 0.74 -0.74 3.45 -1.48 5.78 -1.72 3.32 -0.25 4.43 -0.98 4.68 -3.08 0.37 -2.83 0.25 -2.83 -13.66 -2.83 -9.85 0 -14.40 0.49 -15.26 1.60 -0.62 0.74 -8.25 17.60 -16.86 37.17 -8.62 19.69 -16.12 36.06 -16.49 36.55 -0.49 0.49 -4.18 -6.65 -8.25 -16 -4.06 -9.23 -11.57 -26.22 -16.62 -37.78 l-9.35 -20.92 -13.78 -0.37 -13.78 -0.37 0 3.20 c0 2.71 0.49 3.08 4.06 3.08 7.88 0 7.63 -2.22 5.91 45.17 -0.98 26.34 -2.22 44.06 -3.08 45.91 -0.86 1.97 -2.58 3.20 -4.80 3.45 -2.34 0.25 -3.32 1.11 -3.32 2.83 0 2.22 0.98 2.34 14.77 2.34 13.42 0 14.77 -0.25 14.77 -2.22z m309.54 -0.86 c0 -1.97 -0.98 -2.58 -4.92 -3.08 l-4.92 -0.62 0 -46.15 0 -46.15 4.92 -0.62 c3.94 -0.49 4.92 -1.11 4.92 -3.08 0 -2.34 -0.98 -2.46 -18.71 -2.83 l-18.83 -0.37 0 3.20 c0 2.71 0.49 3.08 4.18 3.08 2.34 0 4.55 0.49 4.92 1.11 1.35 2.22 2.22 85.54 0.86 88.98 -0.86 2.46 -2.22 3.32 -5.29 3.69 -3.20 0.25 -4.18 0.98 -4.43 3.20 l-0.37 2.83 18.83 -0.37 c17.85 -0.37 18.83 -0.49 18.83 -2.83z m220.92 0.74 c0 -1.60 -1.35 -2.46 -5.17 -3.32 l-5.29 -1.11 -0.37 -45.29 -0.25 -45.17 10.95 0 c13.66 0 16.49 1.72 19.45 12.43 1.60 5.78 2.46 7.26 4.43 7.26 2.34 0 2.46 -0.62 1.72 -13.05 -0.49 -7.14 -1.11 -13.54 -1.60 -14.15 -0.74 -1.35 -87.51 -1.48 -88.25 -0.12 -0.37 0.49 -0.98 6.77 -1.48 14.15 -0.86 12.68 -0.74 13.17 1.60 13.17 1.97 0 2.95 -1.48 4.55 -6.89 3.08 -10.46 5.54 -12.31 18.34 -13.42 6.28 -0.49 11.32 -0.37 11.94 0.25 0.62 0.62 0.98 20.18 0.86 45.91 l-0.37 44.80 -4.55 1.11 c-3.45 0.86 -4.68 1.72 -4.68 3.45 0 2.22 1.11 2.34 19.08 2.34 17.72 0 19.08 -0.12 19.08 -2.34z m-55.75 -152.74 c2.22 -1.35 4.31 -3.69 4.68 -5.29 0.49 -1.60 -0.37 -8 -1.85 -14.15 -2.09 -8.98 -2.34 -12.06 -1.35 -15.88 2.22 -7.88 1.60 -14.15 -1.72 -19.08 -3.08 -4.68 -3.82 -6.77 -9.85 -33.60 -5.05 -21.78 -17.97 -58.83 -24 -68.31 -4.31 -6.77 -4.18 -6.52 -14.15 -55.14 -4.55 -21.91 -8.49 -40.62 -8.86 -41.48 -0.37 -1.11 0.62 -2.09 2.95 -2.58 5.66 -1.35 6.52 -2.58 5.66 -8.86 -0.37 -3.20 -0.49 -5.54 -0.12 -5.17 1.97 1.97 14.89 34.71 15.38 38.77 0.37 3.08 -0.12 6.89 -1.35 9.72 -3.08 7.38 -2.58 10.22 2.46 13.29 l4.43 2.83 -0.98 8 c-1.23 12.18 -1.11 14.77 1.72 17.48 2.83 2.95 12.18 4.92 15.26 3.32 1.23 -0.62 3.32 -0.62 5.29 0.12 1.85 0.74 4.55 0.86 6.28 0.49 3.82 -0.98 3.82 -4.31 0 -12.92 -1.48 -3.69 -3.82 -10.83 -5.05 -15.88 -1.23 -5.05 -3.20 -12.18 -4.55 -15.88 -1.23 -3.69 -3.32 -13.17 -4.68 -20.92 -2.71 -16 -5.66 -53.17 -4.43 -56.25 0.74 -1.72 3.08 -1.97 20.80 -1.48 23.02 0.62 24.74 1.23 32.74 10.71 5.78 6.89 8.62 8.25 12.68 6.15 3.57 -1.85 5.17 -3.94 8.98 -11.08 4.18 -8.12 11.57 -13.91 26.46 -20.92 19.45 -9.23 20.92 -10.09 24.74 -13.66 2.83 -2.46 3.57 -4.31 3.57 -8.12 0 -2.83 -0.62 -5.42 -1.23 -5.78 -0.74 -0.37 -3.57 1.11 -6.52 3.45 -10.22 8.37 -24.74 13.91 -45.66 17.48 -20.92 3.57 -37.78 1.72 -64.37 -6.89 l-15.26 -5.05 0.37 -22.28 0.37 -22.40 -4.80 -14.15 c-2.58 -7.75 -7.02 -19.45 -9.72 -25.85 -2.58 -6.40 -5.42 -13.91 -6.03 -16.62 -1.97 -7.63 -6.89 -20.18 -11.20 -28.31 l-3.94 -7.38 -21.54 -7.38 c-14.40 -5.05 -23.75 -8.98 -28.18 -12.06 -3.57 -2.46 -7.26 -4.55 -8.25 -4.55 -3.08 0 -5.42 -6.89 -5.42 -15.88 0 -28.68 -13.42 -45.91 -35.45 -45.91 -6.15 0 -9.23 0.74 -15.51 3.82 -9.72 4.80 -21.66 16.74 -21.66 21.78 0 3.69 3.08 7.88 5.91 7.88 1.48 0 1.72 1.48 1.23 8 -0.49 6.03 -0.25 8.25 1.11 9.48 1.48 1.11 1.60 3.20 0.98 9.23 -0.86 8 -0.37 8.74 4.80 7.88 0.49 -0.12 1.72 0.49 2.71 1.23 1.35 1.11 2.22 0.98 3.57 -0.12 2.34 -1.97 2.46 0.25 0.37 3.82 -1.35 2.09 -1.23 2.71 0.62 4.06 1.11 0.86 2.09 2.71 2.09 4.06 0 1.23 0.62 2.95 1.48 3.82 2.09 2.09 8.62 1.85 11.57 -0.37 1.23 -0.98 3.20 -1.72 4.18 -1.72 2.58 -0.12 -8.74 9.72 -19.94 17.23 -9.72 6.65 -11.69 9.35 -14.40 20.18 -1.72 6.65 -7.02 14.77 -14.52 22.28 -5.78 5.78 -6.89 6.40 -15.02 7.75 -4.92 0.74 -9.48 1.11 -10.09 0.62 -1.85 -1.11 1.11 -4.06 7.75 -7.38 7.51 -3.82 8.62 -6.28 4.31 -9.35 -1.97 -1.48 -3.32 -3.57 -3.32 -5.29 0 -1.60 -0.62 -3.32 -1.23 -3.69 -0.74 -0.49 -0.98 -2.58 -0.49 -4.92 0.74 -3.94 0.49 -4.06 -4.68 -5.78 -4.80 -1.60 -5.29 -2.22 -5.91 -6.65 -0.49 -4.18 -1.48 -5.29 -6.77 -8.74 -3.32 -2.22 -6.65 -4.55 -7.14 -5.17 -7.02 -7.75 -6.65 -7.51 -14.03 -7.51 -8.49 0 -18.22 4.06 -22.40 9.35 -4.06 5.17 -9.60 17.85 -11.20 25.97 -1.72 8.12 -0.98 22.40 1.85 38.52 1.11 5.78 1.97 14.89 1.97 20.43 0 8.74 -0.49 11.08 -4.18 19.08 -5.29 11.69 -9.35 15.26 -29.54 25.23 -26.58 13.29 -44.55 25.72 -49.48 34.22 -1.60 2.83 -3.57 8.98 -4.31 13.66 -0.86 4.80 -1.60 9.72 -1.97 11.08 -0.25 1.35 -3.08 6.03 -6.40 10.46 -3.32 4.43 -8.74 12.68 -12.06 18.34 -5.66 9.85 -5.78 10.34 -3.57 11.94 1.23 0.98 2.71 1.72 3.20 1.72 0.37 0 5.05 -3.82 10.09 -8.37 10.09 -8.98 24.37 -17.60 32.86 -19.94 2.95 -0.74 10.95 -1.23 17.97 -1.11 6.89 0.25 13.05 0 13.54 -0.49 2.22 -2.22 -2.71 -3.94 -12.43 -4.43 -5.78 -0.12 -10.46 -0.86 -10.46 -1.35 0 -0.62 6.28 -6.65 13.91 -13.29 15.14 -13.42 21.29 -19.57 20.43 -20.43 -0.37 -0.37 -9.85 7.14 -21.17 16.49 -17.23 14.40 -32.86 25.23 -32.86 22.77 0 -0.25 4.92 -6.15 11.08 -12.92 11.45 -12.80 15.51 -18.09 14.52 -19.08 -0.62 -0.74 -21.54 21.66 -28.06 30.03 -4.31 5.42 -21.42 19.82 -23.63 19.82 -1.60 0 5.91 -13.66 9.85 -17.97 1.85 -1.97 9.35 -8.74 16.62 -15.14 7.26 -6.40 13.17 -12.18 13.17 -12.80 0 -0.62 -3.69 1.48 -8.12 4.68 -4.55 3.08 -8.49 5.42 -8.86 4.92 -0.37 -0.37 -0.62 -3.94 -0.62 -8 0 -5.54 0.62 -8.37 2.46 -10.83 4.06 -5.54 24.62 -19.45 40.37 -27.20 8.12 -4.06 17.85 -9.35 21.54 -11.69 3.69 -2.34 6.89 -4.06 7.14 -3.94 0.12 0.25 -0.25 3.08 -1.11 6.40 -0.74 3.32 -1.23 11.82 -1.11 18.95 0.86 29.91 0.74 30.89 -2.71 37.54 -1.85 3.45 -5.66 8.98 -8.62 12.55 -17.97 21.54 -16.74 19.57 -14.03 23.26 1.48 1.97 3.69 2.46 14.28 2.95 l12.68 0.62 -7.26 4.92 c-11.45 7.88 -20.18 16.98 -20.18 21.17 0 3.32 0.12 3.32 3.08 -1.72 1.97 -3.20 7.51 -8.49 14.52 -13.78 l11.32 -8.62 8.37 8.25 c4.55 4.55 8.25 7.51 8.25 6.65 0 -0.86 -2.83 -5.42 -6.28 -10.09 -3.45 -4.80 -6.03 -9.48 -5.66 -10.34 0.37 -0.86 2.71 -2.09 5.29 -2.58 4.92 -0.86 12.43 -4.31 17.85 -8.12 l3.20 -2.22 0.86 17.48 c1.23 24.74 -1.72 34.95 -12.92 45.91 l-4.68 4.68 -23.14 -7.63 c-18.71 -6.03 -25.23 -7.63 -34.22 -8.25 -6.03 -0.37 -13.66 -1.60 -16.86 -2.58 -3.20 -1.11 -7.38 -1.72 -9.23 -1.48 -2.71 0.25 -0.98 1.23 7.63 4.55 6.15 2.34 15.75 6.28 21.54 8.74 12.31 5.42 27.82 10.46 35.82 11.69 3.08 0.49 6.40 1.35 7.38 1.97 2.46 1.60 -1.97 5.05 -15.51 11.94 -10.83 5.42 -12.55 8 -3.45 5.17 17.85 -5.78 40.62 -24.98 48.37 -40.98 3.57 -7.38 4.18 -9.97 5.05 -23.38 1.72 -28.31 8.25 -40.74 32.74 -62.77 28.68 -25.85 89.48 -68.80 108.06 -76.43 6.03 -2.58 18.46 -3.94 19.57 -2.22 0.37 0.62 -0.37 3.82 -1.85 7.02 -2.46 5.54 -2.58 5.66 -5.17 3.82 -6.52 -4.80 -7.38 -4.06 -9.48 6.65 -3.57 19.32 -8.74 32.37 -22.89 57.85 -7.26 13.05 -3.45 10.34 5.78 -4.06 7.88 -12.18 13.66 -24.49 17.23 -36.80 l2.83 -9.35 3.69 5.66 c3.57 5.42 3.82 6.52 3.69 16.25 -0.25 18.83 -5.66 37.29 -18.58 62.52 -4.92 9.72 -8.49 17.35 -7.88 16.98 1.72 -1.11 12.06 -17.11 15.88 -24.74 8.12 -16.25 15.02 -41.48 15.02 -54.89 0 -5.42 0.37 -5.54 6.52 -2.95 6.15 2.46 10.95 2.34 14.77 -0.62 1.72 -1.35 3.45 -2.46 3.94 -2.46 0.37 0 2.22 3.08 3.94 6.89 5.91 13.05 2.71 24.86 -15.88 57.60 -22.15 39.02 -40.25 53.54 -80.37 64.37 -14.89 3.94 -20.80 6.40 -43.32 17.72 -32.62 16.49 -39.14 18.34 -67.45 19.57 -12.43 0.62 -24.25 1.72 -28.92 2.95 -20.80 5.42 -34.09 11.08 -45.17 19.32 -3.57 2.58 -6.65 4.80 -7.02 4.80 -0.37 0 -1.72 -2.09 -3.08 -4.68 -3.45 -6.89 -10.22 -12.18 -18.22 -14.52 -8.37 -2.46 -15.88 -1.72 -28.68 2.58 -5.05 1.72 -9.60 2.95 -10.09 2.83 -1.48 -0.49 5.66 -9.97 18.46 -24.74 18.34 -21.05 29.05 -26.46 41.48 -21.29 7.88 3.32 4.43 -0.12 -4.80 -4.92 l-9.11 -4.68 -4.92 3.20 c-13.05 8.62 -30.89 24.74 -47.88 42.95 -10.22 11.08 -21.78 23.26 -25.48 26.95 -3.82 3.69 -6.89 7.14 -6.89 7.63 0 0.49 3.45 -0.98 7.75 -3.32 4.18 -2.22 14.03 -6.65 21.78 -9.60 7.75 -2.95 17.97 -7.51 22.52 -9.97 7.02 -3.69 9.72 -4.43 15.75 -4.43 11.94 0 20.68 5.05 25.85 15.14 2.83 5.42 3.20 5.54 23.75 2.09 8.12 -1.35 15.02 -2.22 15.26 -1.85 0.37 0.37 -0.25 1.60 -1.23 2.71 -1.11 1.23 -4.43 7.26 -7.51 13.29 -3.20 6.15 -6.89 12.92 -8.37 15.14 -2.58 3.94 -2.34 3.82 5.54 -2.09 11.69 -8.86 16.25 -9.60 20.80 -3.57 3.08 4.06 4.06 13.78 2.34 23.14 -0.74 3.69 -1.11 7.02 -0.86 7.14 0.25 0.25 1.97 -1.97 3.82 -4.92 11.69 -18.46 24.49 -37.05 29.54 -43.20 l6.03 -7.02 8 0.62 c22.40 1.72 36.92 -5.29 65.23 -31.26 6.03 -5.54 11.08 -9.48 11.08 -8.74 0 0.74 -1.35 6.15 -3.08 12.06 -6.77 23.75 -9.35 40.37 -10.46 67.08 -0.62 14.28 -1.97 28.80 -2.95 32.62 -0.86 3.82 -2.09 10.09 -2.58 13.78 -0.49 3.69 -1.35 7.63 -1.97 8.86 -2.09 3.94 -16.25 12.06 -26.58 15.26 -8.25 2.46 -10.58 3.82 -11.82 6.28 -1.11 2.58 -0.98 3.32 0.86 4.80 6.03 4.43 28.55 3.82 42.46 -1.23 8.12 -2.83 9.35 -2.95 11.20 -1.35 1.60 1.35 3.94 1.60 11.69 0.86 l9.85 -0.86 0.37 -5.78 c0.25 -4.18 0.86 -5.91 2.09 -5.91 2.58 0 3.57 -5.17 2.58 -13.78 -0.62 -6.89 0.12 -14.77 3.08 -32.25 0.74 -4.06 4.92 -17.11 9.35 -28.92 4.31 -11.94 10.95 -29.91 14.52 -40.12 3.57 -10.09 8.74 -24 11.69 -30.77 5.91 -14.15 16.12 -33.85 17.48 -33.85 0.49 0 2.09 2.34 3.57 5.29 1.48 2.83 7.26 13.54 12.92 23.63 6.28 11.32 15.26 30.52 23.26 49.85 7.14 17.23 18.46 42.71 25.23 56.62 7.38 15.26 12.68 28.06 13.54 32.37 1.11 5.29 2.22 7.63 4.55 9.11 3.08 2.09 3.20 2.34 2.34 13.05 -1.11 15.88 0.62 17.85 15.26 17.97 5.91 0.12 9.11 -0.49 11.94 -2.34z m-331.57 -212.92 c1.85 -3.45 5.54 -7.75 8.25 -9.60 5.66 -3.94 6.40 -5.66 1.60 -3.82 -6.28 2.34 -12.06 9.11 -14.40 16.86 -1.60 4.80 0.98 2.83 4.55 -3.45z m160 -49.72 c4.80 -6.89 13.91 -19.20 20.18 -27.57 11.32 -15.02 18.09 -26.34 17.35 -28.80 -0.25 -0.74 -2.46 1.60 -4.68 5.29 -2.34 3.69 -9.48 13.54 -15.75 21.91 -11.32 15.02 -22.77 31.63 -28.55 41.35 -2.95 4.92 -2.95 4.92 -0.12 2.58 1.48 -1.35 6.65 -8 11.57 -14.77z"/>
  <path d="M482.46 855.38 l0 -12.31 3.20 0 c1.85 0 4.68 1.48 6.77 3.57 7.26 7.38 3.32 21.05 -6.28 21.05 l-3.69 0 0 -12.31z"/>
  <path d="M530.09 866.83 c-0.49 -0.37 -0.86 -5.91 -0.86 -12.31 l0 -11.45 3.69 0 c6.15 0 9.85 4.68 9.85 12.31 0 5.05 -0.62 6.89 -3.08 9.23 -2.83 2.95 -7.88 4.06 -9.60 2.22z"/>
  <path d="M727.38 849.35 c0 -5.42 0.37 -6.28 2.46 -6.28 1.23 0 2.95 1.11 3.69 2.34 2.34 4.55 1.23 7.88 -3.32 9.23 -2.71 0.86 -2.83 0.62 -2.83 -5.29z"/>
  <path d="M815.75 866.34 c-4.80 -2.71 -5.54 -16.25 -1.23 -21.05 2.71 -3.20 9.48 -2.83 11.82 0.49 2.95 4.18 2.58 16.37 -0.49 19.45 -2.71 2.71 -6.77 3.08 -10.09 1.11z"/>
  <path d="M900.92 865.23 c-1.85 -1.85 -2.46 -4.06 -2.46 -9.60 0 -8.62 2.34 -12.55 7.38 -12.55 5.78 0 8.62 4.06 8.62 12.55 0 8.12 -2.58 12.06 -8 12.06 -1.72 0 -4.18 -1.11 -5.54 -2.46z"/>
  <path d="M993.23 848.62 c0 -4.55 0.37 -5.54 2.22 -5.54 2.95 0 5.17 2.34 5.17 5.54 0 3.20 -2.22 5.54 -5.17 5.54 -1.85 0 -2.22 -0.98 -2.22 -5.54z"/>
  <path d="M1033.85 856.37 c0.12 -0.86 0.86 -2.95 1.85 -4.68 l1.60 -3.08 1.35 3.45 c1.97 5.05 1.72 5.78 -1.72 5.78 -1.72 0 -3.08 -0.74 -3.08 -1.48z"/>
  <path d="M1076.92 849.23 c0 -5.05 0.37 -6.15 2.22 -6.15 3.08 0 5.17 2.46 5.17 6.15 0 3.69 -2.09 6.15 -5.17 6.15 -1.85 0 -2.22 -1.11 -2.22 -6.15z"/>
  <path d="M1094.15 783.88 c-26.58 -11.94 -33.85 -56.62 -13.54 -82.34 8.74 -10.95 27.32 -14.77 40.25 -8.12 7.88 3.94 15.51 12.55 19.08 21.54 2.46 6.03 2.83 9.11 2.83 24.12 0 16.37 -0.12 17.60 -3.57 24.98 -4.18 9.23 -14.03 18.71 -21.29 20.92 -7.51 2.22 -17.48 1.72 -23.75 -1.11z"/>
  <path d="M641.23 537.60 c0 -2.22 -1.11 -6.40 -2.46 -9.35 -2.71 -6.03 -8 -8.98 -14.65 -7.88 -3.57 0.49 -4.06 0.25 -3.45 -1.48 1.23 -3.20 9.97 -15.51 15.26 -21.42 l4.68 -5.29 11.32 4.31 c6.28 2.46 12.06 4.43 12.92 4.43 0.86 0 2.34 0.49 3.32 1.11 1.23 0.74 -0.25 3.45 -6.28 11.32 -4.31 5.66 -10.34 14.40 -13.29 19.20 -3.08 4.92 -5.91 8.98 -6.40 8.98 -0.62 0 -0.98 -1.85 -0.98 -3.94z"/>
  <path d="M604.31 499.45 c5.05 -4.18 18.71 -10.09 23.63 -10.09 12.43 -0.12 5.42 6.89 -9.72 9.72 -5.29 0.98 -11.20 2.09 -13.29 2.46 l-3.69 0.62 3.08 -2.71z"/>
  <path d="M671.38 497.85 c-7.63 -1.60 -31.26 -9.97 -32.98 -11.69 -1.97 -1.72 10.34 -3.69 29.91 -5.05 32.98 -2.09 46.89 -5.91 71.14 -19.45 15.26 -8.62 24.62 -13.05 25.60 -12.06 1.60 1.60 -35.32 35.20 -46.89 42.46 -11.45 7.26 -29.78 9.60 -46.77 5.78z"/>
  <path d="M654.15 387.82 c-0.37 -0.74 1.23 -4.68 3.82 -8.74 3.82 -6.15 11.32 -23.38 19.94 -45.17 1.11 -2.95 2.34 -5.29 2.83 -5.29 0.37 0 1.72 3.20 2.83 7.14 1.72 5.54 2.09 10.46 1.72 24 l-0.37 16.98 -4.31 3.57 c-6.52 5.42 -24.49 10.46 -26.46 7.51z"/>
  <path d="M865.23 381.17 c0 -0.25 3.32 -6.65 7.38 -14.15 8.25 -15.14 12.80 -26.22 14.15 -34.46 0.49 -2.95 1.35 -4.92 1.85 -4.31 0.62 0.49 2.22 5.54 3.69 11.20 1.35 5.66 3.69 13.05 5.05 16.49 1.85 4.68 2.09 6.52 0.98 7.26 -0.98 0.49 -1.23 2.83 -0.86 6.52 0.37 3.20 0.25 6.03 -0.37 6.40 -2.95 1.85 -31.88 6.40 -31.88 5.05z"/>
  <path d="M708.92 346.58 c0 -5.17 -0.86 -13.42 -2.09 -18.58 -1.11 -5.05 -1.72 -9.48 -1.35 -9.85 0.25 -0.37 3.94 0.62 8.12 1.97 5.91 1.97 8.74 3.82 12.55 8.25 2.71 3.20 4.80 6.40 4.68 7.02 -0.25 0.74 -5.17 5.66 -11.08 10.83 l-10.83 9.60 0 -9.23z"/>
  <path d="M731.69 325.91 c-1.97 -2.95 -3.45 -5.78 -3.45 -6.52 0 -0.74 1.48 -3.57 3.20 -6.52 1.85 -2.83 3.08 -5.17 2.58 -5.17 -0.37 0 -3.08 1.97 -6.03 4.43 l-5.42 4.43 -10.22 -7.88 c-9.97 -7.75 -10.22 -8 -10.58 -13.66 -0.25 -3.20 0.12 -5.78 0.74 -5.78 0.74 0 3.57 1.11 6.52 2.34 2.95 1.35 5.54 2.22 5.78 1.97 0.25 -0.25 -0.98 -2.46 -2.71 -5.17 -3.45 -5.29 -7.51 -15.88 -8.74 -22.77 -0.49 -3.57 -1.35 -4.68 -3.08 -4.68 -5.42 0 -0.62 -6.40 6.77 -9.23 4.18 -1.72 8.12 -1.97 17.48 -1.60 10.34 0.49 13.66 1.11 23.14 5.05 6.03 2.46 11.20 4.31 11.32 4.06 1.60 -1.60 -6.03 -6.65 -17.35 -11.57 -12.06 -5.17 -17.23 -8.74 -15.38 -10.71 0.37 -0.37 4.80 -0.98 9.85 -1.35 l9.11 -0.74 9.23 7.02 c16.25 12.31 22.15 19.45 22.15 26.58 0 2.09 -0.37 2.09 -6.40 0.37 -3.57 -1.11 -11.94 -4.43 -18.46 -7.38 -13.54 -6.15 -18.46 -6.65 -24.49 -2.58 -5.29 3.57 -7.26 7.38 -7.26 14.40 0 8.37 2.22 14.77 6.77 19.32 4.68 4.68 7.38 5.05 11.20 1.48 l2.71 -2.58 19.57 2.09 c10.71 1.23 19.94 2.58 20.43 3.08 0.62 0.49 -1.85 3.20 -5.54 5.78 -3.57 2.71 -13.78 10.22 -22.65 16.74 -8.86 6.52 -16.37 11.94 -16.74 11.94 -0.37 0 -2.22 -2.34 -4.06 -5.17z"/>
  <path d="M869.54 291.08 c-2.22 -10.22 -4.55 -12.92 -11.32 -12.92 -4.55 0 -4.92 -0.74 -2.09 -4.68 2.34 -3.32 5.78 -3.45 11.08 -0.12 5.42 3.32 8.86 9.11 10.58 17.72 1.11 5.78 1.11 7.14 -0.37 8.12 -4.31 2.71 -5.78 1.23 -7.88 -8.12z"/>
  <path d="M881.23 288.74 c-1.60 -7.63 -6.65 -15.51 -12.18 -18.71 -2.09 -1.23 -3.82 -2.58 -3.82 -2.95 0 -0.74 25.23 -13.05 31.38 -15.51 5.05 -1.97 -2.95 -1.97 -8.62 0 l-5.54 1.85 -5.42 -10.09 c-2.95 -5.54 -6.89 -13.05 -8.86 -16.74 -1.97 -3.69 -4.31 -7.02 -5.17 -7.26 -1.97 -0.62 1.35 7.88 8.98 23.02 3.08 6.15 5.54 11.57 5.54 12.18 0 0.49 -4.31 3.08 -9.48 5.66 -8.98 4.43 -10.34 4.80 -21.29 4.92 l-11.82 0.12 -14.40 7.38 -14.40 7.26 -11.32 -3.69 c-6.15 -1.97 -11.69 -4.43 -12.18 -5.42 -1.60 -3.20 -7.02 -21.29 -7.88 -26.46 -1.23 -7.51 -2.34 -8 -3.08 -1.48 l-0.62 5.78 -5.66 -3.94 c-3.08 -2.22 -8.25 -6.40 -11.57 -9.35 l-6.03 -5.29 5.05 -5.17 c8.49 -8.86 11.45 -13.91 14.65 -24.12 2.95 -9.60 3.32 -10.22 9.72 -14.40 3.57 -2.46 7.26 -4.06 7.88 -3.57 2.34 1.35 1.48 4.92 -1.72 8 -2.46 2.22 -3.08 4.06 -3.08 8.49 0.12 10.46 3.57 30.89 7.26 41.97 3.82 11.20 13.91 32.49 16 33.85 0.74 0.37 1.60 -0.86 1.97 -2.71 1.85 -8.74 19.94 -47.26 34.95 -74.71 4.80 -8.62 8.74 -16.25 8.74 -16.86 0 -0.62 -1.60 -1.85 -3.69 -2.95 -4.92 -2.58 -4.68 -3.82 1.60 -5.91 2.95 -0.98 5.17 -2.46 5.05 -3.45 -0.12 -0.98 -0.49 -4.06 -0.98 -6.77 l-0.86 -5.17 19.45 6.77 c17.97 6.15 23.75 8.98 23.75 11.69 0 0.49 2.22 6.03 5.05 12.06 2.83 6.40 4.68 12.06 4.18 13.42 -0.37 1.23 0.62 4.55 2.34 7.63 4.06 7.26 14.89 36.80 18.09 49.11 3.08 12.06 2.46 16.49 -2.95 19.82 -3.69 2.34 -36.18 18.34 -37.17 18.34 -0.25 0 -1.11 -2.95 -1.85 -6.65z"/>
  <path d="M795.69 253.17 c-5.91 -13.42 -9.72 -29.54 -11.20 -47.75 -0.74 -10.09 -0.74 -10.58 2.58 -14.40 2.46 -2.95 3.08 -4.68 2.58 -7.38 -0.62 -2.58 0.12 -4.55 3.20 -8.62 2.22 -2.95 4.18 -4.68 4.43 -4.06 0.25 0.74 -0.74 5.29 -2.09 10.34 -6.03 21.29 -5.78 37.78 0.98 64.49 1.97 7.63 3.32 13.91 2.95 13.91 -0.25 0 -1.85 -2.95 -3.45 -6.52z"/>
  <path d="M807.88 249.72 c1.11 -10.46 7.38 -33.72 15.51 -57.11 8.49 -24.74 15.02 -42.83 15.63 -43.57 0.98 -1.35 6.65 5.66 7.75 9.60 2.22 7.88 1.72 9.48 -3.57 10.95 -6.03 1.85 -8.86 4.92 -6.15 6.52 1.11 0.49 3.20 2.09 4.80 3.32 l2.95 2.34 -4.55 8.49 c-7.38 13.54 -24.25 47.02 -28.80 57.11 l-4.18 9.23 0.62 -6.89z"/>
  <path d="M797.54 211.20 c0 -3.94 1.48 -9.60 4.31 -16.62 2.95 -7.51 4.18 -12.18 3.94 -16 -0.25 -4.80 0.12 -5.78 3.08 -7.38 3.08 -1.72 3.57 -1.72 5.54 0.12 1.72 1.72 1.85 2.71 0.62 5.29 -0.86 1.72 -1.48 6.65 -1.48 10.95 0 7.51 -0.25 8 -7.38 17.97 -4.06 5.66 -7.75 10.58 -8 10.95 -0.37 0.25 -0.62 -2.09 -0.62 -5.29z"/>
 </g>
</svg>