<?xml version="1.0" encoding="UTF-8"?>
<!-- Generator: visioncortex VTracer 0.6.12 -->
<svg version="1.1" xmlns="http://www.w3.org/2000/svg" viewBox="311 140 1075 826">
<path d="M0 0 C2.741 1.701 4.836 3.617 7 6 C7.606 6.648 8.212 7.297 8.836 7.965 C15.948 16.262 18.097 25.891 19.605 36.504 C20 39 20 39 21 42 C20.673 44.001 20.34 46.001 20 48 C20.33 48.66 20.66 49.32 21 50 C20.464 50.557 19.928 51.114 19.375 51.688 C18.921 52.451 18.467 53.214 18 54 C18.812 56.5 18.812 56.5 20 59 C20 60.32 20 61.64 20 63 C21.32 63 22.64 63 24 63 C23.835 61.68 23.835 61.68 23 55 C24.938 55.812 24.938 55.812 27 57 C27.33 57.99 27.66 58.98 28 60 C29.98 60 31.96 60 34 60 C34 60.99 34 61.98 34 63 C35.32 62.67 36.64 62.34 38 62 C38.33 62.495 38.33 62.495 40 65 C38.68 66.32 37.36 67.64 36 69 C36.99 68.67 37.98 68.34 39 68 C39.99 68 40.98 68 42 68 C41.34 69.98 40.68 71.96 40 74 C39.34 73.67 39.34 73.67 36 72 C35.979 72.866 35.959 73.733 35.938 74.625 C34.638 79.304 32.02 81.419 28 84 C25.062 84.875 25.062 84.875 23 85 C25.25 86.125 25.25 86.125 28 87 C30.312 86.125 30.312 86.125 32 85 C30.688 87.5 30.688 87.5 29 90 C28.01 90 27.02 90 26 90 C25.781 90.603 25.562 91.207 25.336 91.828 C23.08 97.513 21.292 99.993 16 103 C16 103.66 16 104.32 16 105 C15.01 105 14.02 105 13 105 C13.846 105.681 14.691 106.361 15.562 107.062 C18 110 18 110 17.812 113.625 C17.678 114.182 17.678 114.182 17 117 C17 120 17 120 18 123 C17.223 125.48 17.223 125.48 16.062 128.188 C15.682 129.089 15.302 129.99 14.91 130.918 C14.61 131.605 14.309 132.292 14 133 C13.34 133 12.68 133 12 133 C12.976 137.13 14.012 141.089 15.5 145.062 C18.638 154.255 19.339 164.344 19 174 C18.464 173.876 18.464 173.876 15.75 173.25 C12 173 12 173 9.562 174.75 C8 177 8 177 8 180 C6.866 180.144 5.731 180.289 4.562 180.438 C1 181 1 181 0 182 C-0.073 184.353 -0.084 186.708 -0.062 189.062 C-0.053 190.353 -0.044 191.643 -0.035 192.973 C-0.024 193.972 -0.012 194.971 0 196 C-2.663 197.012 -5.33 198.009 -8 199 C-9.123 199.422 -10.246 199.843 -11.402 200.277 C-12.006 200.5 -12.006 200.5 -15.062 201.625 C-15.635 201.838 -15.635 201.838 -18.535 202.914 C-22.034 204.011 -25.363 204.583 -29 205 C-31.354 202.449 -31.983 201.29 -32.188 197.75 C-32.157 197.296 -32.157 197.296 -32 195 C-36.485 195.656 -40.669 196.701 -45 198 C-42.275 194.634 -38.931 193.558 -35 192 C-35.33 191.01 -35.66 190.02 -36 189 C-34.35 188.67 -32.7 188.34 -31 188 C-31 186.68 -31 185.36 -31 184 C-31.99 183.67 -32.98 183.34 -34 183 C-34.495 182.67 -34.495 182.67 -37 181 C-36.01 180.67 -35.02 180.34 -34 180 C-34 179.34 -34 178.68 -34 178 C-34.66 178 -35.32 178 -36 178 C-36 177.34 -36 176.68 -36 176 C-36.66 175.67 -37.32 175.34 -38 175 C-37.424 172.614 -36.778 170.333 -36 168 C-36.812 164.375 -36.812 164.375 -38 161 C-38.66 160.67 -39.32 160.34 -40 160 C-39.67 159.34 -39.34 158.68 -39 158 C-38.01 158 -37.02 158 -36 158 C-43.69 151.152 -48.559 148.53 -59 148 C-59 147.34 -59 146.68 -59 146 C-58.505 145.67 -58.505 145.67 -56 144 C-56.33 143.34 -56.66 142.68 -57 142 C-55.02 142.33 -53.04 142.66 -51 143 C-51.351 141.783 -51.701 140.566 -52.062 139.312 C-52.935 135.879 -53.077 133.447 -52 130 C-52.99 129.67 -53.98 129.34 -55 129 C-50.929 124.166 -48.023 123.069 -42 122 C-41.01 122 -40.02 122 -39 122 C-38.34 122.66 -37.68 123.32 -37 124 C-37.041 122.907 -37.082 121.814 -37.125 120.688 C-37 117 -37 117 -35 114 C-35.615 113.963 -36.23 113.925 -36.863 113.887 C-37.672 113.821 -38.48 113.755 -39.312 113.688 C-40.113 113.629 -40.914 113.571 -41.738 113.512 C-44 113 -44 113 -47 110 C-43.04 109.01 -39.08 108.02 -35 107 C-34.67 105.35 -34.34 103.7 -34 102 C-33 101 -33 101 -30.496 100.902 C-29.487 100.914 -28.477 100.926 -27.438 100.938 C-26.426 100.947 -25.414 100.956 -24.371 100.965 C-23.589 100.976 -22.806 100.988 -22 101 C-22 99.68 -22 98.36 -22 97 C-22 95.333 -22 93.667 -22 92 C-22.33 92.165 -22.33 92.165 -24 93 C-25.874 93.07 -27.75 93.084 -29.625 93.062 C-30.628 93.053 -31.631 93.044 -32.664 93.035 C-33.435 93.024 -34.206 93.012 -35 93 C-31.001 90.792 -26.88 89.915 -22.461 88.879 C-20 88 -20 88 -18 85 C-18.349 84.939 -18.349 84.939 -20.117 84.633 C-21.027 84.465 -21.937 84.298 -22.875 84.125 C-23.78 83.963 -24.685 83.8 -25.617 83.633 C-28 83 -28 83 -30 81 C-30.125 77.375 -30.125 77.375 -30 74 C-31.32 73.67 -32.64 73.34 -34 73 C-33.453 69.625 -32.945 67.918 -31 65 C-31.99 65.33 -31.99 65.33 -37 67 C-37.66 66.34 -38.32 65.68 -39 65 C-40.984 64.286 -42.983 63.614 -45 63 C-44.893 62.192 -44.786 61.384 -44.676 60.551 C-44.616 60.016 -44.616 60.016 -44.312 57.312 C-44.185 56.257 -44.057 55.201 -43.926 54.113 C-44.012 50.502 -45.03 48.958 -47 46 C-46.854 42.931 -46.446 41.518 -44.438 39.188 C-44.2 38.992 -44.2 38.992 -43 38 C-43.66 37.67 -44.32 37.34 -45 37 C-45.778 33.18 -46.244 30.732 -45 27 C-45.66 27 -46.32 27 -47 27 C-47.33 28.32 -47.66 29.64 -48 31 C-51.161 29.63 -51.993 29.011 -54 26 C-54 19.677 -51.319 15.405 -47 11 C-46.01 10.67 -45.02 10.34 -44 10 C-43.701 9.381 -43.402 8.762 -43.094 8.125 C-40.06 2.231 -30.477 -1.086 -24.492 -3.305 C-15.946 -5.689 -7.924 -3.603 0 0 Z M-3 33 C-2.856 33.804 -2.711 34.609 -2.562 35.438 C-2.005 38.97 -1.62 42.488 -1.281 46.047 C-1 48 -1 48 0 50 C0.66 50 1.32 50 2 50 C2.33 49.01 2.66 48.02 3 47 C4.65 47 6.3 47 8 47 C7.613 46.576 7.227 46.152 6.828 45.715 C3.261 41.697 0.518 37.746 -2 33 C-2.33 33 -2.66 33 -3 33 Z M-37 47 C-37.66 48.98 -38.32 50.96 -39 53 C-38.505 53.33 -38.505 53.33 -36 55 C-36 52.36 -36 49.72 -36 47 C-36.33 47 -36.66 47 -37 47 Z M-9 56 C-8.34 58.31 -7.68 60.62 -7 63 C-4.438 60.75 -4.438 60.75 -2 58 C-2.188 55.688 -2.188 55.688 -3 54 C-5.084 54 -7.098 55.22 -9 56 Z M12 60 C8.994 65.009 8.707 68.327 9 74 C12.846 72.718 13.427 71.214 15.277 67.781 C16 66 16 66 15.812 63.688 C15.218 62.453 14.613 61.225 14 60 C13.34 60 12.68 60 12 60 Z M22 65 C23 67 23 67 23 67 Z M-1 70 C-2 73 -2 73 -1.004 75.48 C-0.766 75.927 -0.766 75.927 0.438 78.188 C0.911 79.089 1.384 79.99 1.871 80.918 C2.244 81.605 2.616 82.292 3 83 C3.33 83 3.66 83 4 83 C4.276 81.4 4.52 79.795 4.75 78.188 C4.82 77.741 4.82 77.741 5.172 75.48 C5 73 5 73 3.141 71.176 C1 70 1 70 -1 70 Z M20 78 C21 80 21 80 21 80 Z M14 81 C15 83 15 83 15 83 Z M-11 83 C-11 83.66 -11 84.32 -11 85 C-10.01 85.66 -9.02 86.32 -8 87 C-8.33 87.165 -8.33 87.165 -10 88 C-10.344 89.812 -10.344 89.812 -10.5 92 C-10.656 94.188 -10.656 94.188 -11 96 C-11.33 96.165 -11.33 96.165 -13 97 C-13 97.66 -13 98.32 -13 99 C-11.02 99.99 -9.04 100.98 -7 102 C-6.19 99.085 -5.782 97.539 -6.938 94.688 C-7.288 94.131 -7.639 93.574 -8 93 C-5.532 94.152 -3.952 95.048 -2 97 C0.31 96.34 2.62 95.68 5 95 C5.33 95.66 5.66 96.32 6 97 C6.33 95.35 6.66 93.7 7 92 C5.02 92.66 3.04 93.32 1 94 C0.897 92.907 0.794 91.814 0.688 90.688 C0 87 0 87 -1.062 85.125 C-4.21 83.298 -7.397 83.295 -11 83 Z M21 87 C20.34 87.66 19.68 88.32 19 89 C20.32 88.67 21.64 88.34 23 88 C22.34 87.67 21.68 87.34 21 87 Z M-4 97 C-4.33 98.65 -4.66 100.3 -5 102 C-4.34 101.01 -3.68 100.02 -3 99 C-3.33 98.34 -3.66 97.68 -4 97 Z M-26 105 C-27.375 107.625 -27.375 107.625 -28 110 C-23.177 109.562 -21.18 108.618 -18 105 C-17.01 104.34 -16.02 103.68 -15 103 C-19.09 102.759 -22.27 103.259 -26 105 Z M-14 106.625 C-16 109 -16 109 -17.062 112.188 C-17.217 112.652 -17.217 112.652 -18 115 C-18.99 115.33 -19.98 115.66 -21 116 C-21.762 120.316 -22.161 123.744 -21 128 C-19.68 128.33 -18.36 128.66 -17 129 C-16.814 128.381 -16.629 127.762 -16.438 127.125 C-14.286 123.944 -11.625 123.805 -8 123 C-8 122.01 -8 121.02 -8 120 C-7.587 118.948 -7.175 117.896 -6.75 116.812 C-5.753 111.742 -7.337 109.237 -10 105 C-12 105 -12 105 -14 106.625 Z M-22 110 C-21 112 -21 112 -21 112 Z M9 128 C8.34 128.66 7.68 129.32 7 130 C7.66 130.33 7.66 130.33 11 132 C11 130.68 11 129.36 11 128 C10.34 128 9.68 128 9 128 Z M-14 129 C-13.34 130.32 -12.68 131.64 -12 133 C-10.68 132.67 -9.36 132.34 -8 132 C-11.75 129 -11.75 129 -14 129 Z M3 132 C2.34 133.98 1.68 135.96 1 138 C1.99 137.34 2.98 136.68 4 136 C3.67 134.68 3.34 133.36 3 132 Z M-39 133 C-38.34 139.93 -37.68 146.86 -37 154 C-36.67 153.01 -36.34 152.02 -36 151 C-35.34 151 -34.68 151 -34 151 C-33.34 154.3 -32.68 157.6 -32 161 C-31.34 161 -30.68 161 -30 161 C-29.67 159.35 -29.34 157.7 -29 156 C-29.33 156 -29.66 156 -30 156 C-29.67 152.37 -29.34 148.74 -29 145 C-28.34 145 -27.68 145 -27 145 C-27.165 144.092 -27.33 143.185 -27.5 142.25 C-28 139 -28 139 -28 135 C-29.65 135.33 -31.3 135.66 -33 136 C-33.66 134.68 -34.32 133.36 -35 132 C-36 132 -36 132 -39 133 Z M-25 135 C-25.041 137.333 -25.042 139.667 -25 142 C-24.34 142 -23.68 142 -23 142 C-21.716 140.523 -20.434 139.042 -19.219 137.508 C-18 136 -18 136 -16 134 C-23.875 133.875 -23.875 133.875 -25 135 Z M-6 140 C-5.34 140.66 -4.68 141.32 -4 142 C-4 141.34 -4 140.68 -4 140 C-4.66 140 -5.32 140 -6 140 Z M-1 140 C0 142 0 142 0 142 Z M6 140 C5.67 141.32 5.34 142.64 5 144 C5.33 144.165 5.33 144.165 7 145 C7 143.35 7 141.7 7 140 C6.67 140 6.34 140 6 140 Z M-28 153 C-28 156 -28 156 -28 156 Z M-20 154 C-20 154.66 -20 155.32 -20 156 C-17.69 155.34 -15.38 154.68 -13 154 C-16.01 153.066 -16.867 152.956 -20 154 Z M-14 157 C-14.66 158.32 -15.32 159.64 -16 161 C-14.68 161.99 -13.36 162.98 -12 164 C-12 161.69 -12 159.38 -12 157 C-12.66 157 -13.32 157 -14 157 Z M1 161 C1 162.98 1 164.96 1 167 C-0.65 166.67 -2.3 166.34 -4 166 C-3.859 167.625 -3.712 169.25 -3.562 170.875 C-3.481 171.78 -3.4 172.685 -3.316 173.617 C-3 176 -3 176 -2 178 C-0.02 178 1.96 178 4 178 C3.34 177.67 2.68 177.34 2 177 C1.406 174.351 1.258 171.708 1 169 C2.32 169 3.64 169 5 169 C4.502 165.312 3.899 163.395 1 161 Z M6 170 C7 172 7 172 7 172 Z " fill="#000000" transform="translate(890,164)"/>
<path d="M0 0 C0.309 0.066 0.309 0.066 1.871 0.402 C7.576 1.592 13.199 2.439 19 3 C18.67 3.66 18.34 4.32 18 5 C6.478 5.369 6.478 5.369 1 3 C0.959 3.743 0.918 4.485 0.875 5.25 C-0.349 9.096 -2.593 10.043 -6 12 C-6.66 10.68 -7.32 9.36 -8 8 C-7.01 7.67 -6.02 7.34 -5 7 C-3.613 5.371 -3.613 5.371 -2.312 3.438 C-1.876 2.797 -1.439 2.156 -0.988 1.496 C-0.662 1.002 -0.336 0.509 0 0 Z " fill="#000000" transform="translate(934,235)"/>
<path d="M0 0 C2.526 0.969 3.749 1.514 5.012 3.961 C6.876 10.621 7.656 17.097 8 24 C3.611 19.894 3.587 16.331 3.281 10.664 C2.927 7.311 1.7 4.883 0 2 C0 1.34 0 0.68 0 0 Z " fill="#000000" transform="translate(972,245)"/>
<path d="M0 0 C0.781 0.084 1.562 0.168 2.367 0.254 C6.08 0.9 7.716 1.606 9.938 4.688 C11 8 11 8 11.375 11.438 C12.194 16.104 14.071 18.32 17 22 C16.67 22.66 16.34 23.32 16 24 C17.65 23.67 19.3 23.34 21 23 C21 23.99 21 24.98 21 26 C22.072 26.289 23.145 26.577 24.25 26.875 C27.119 27.736 29.364 28.682 32 30 C32.99 30 33.98 30 35 30 C34.907 30.278 34.907 30.278 34.438 31.688 C33.924 34.399 34.336 36.344 35 39 C35.495 39.165 35.495 39.165 38 40 C37.427 42.867 37.139 43.861 35 46 C38.3 47.65 41.6 49.3 45 51 C43.74 54.781 42.065 55.773 38.938 58.188 C38.478 58.545 38.478 58.545 36.152 60.355 C35.442 60.898 34.732 61.441 34 62 C34.33 62.99 34.66 63.98 35 65 C36.98 65.33 38.96 65.66 41 66 C41.412 70.737 40.885 73.511 38.812 77.812 C36.558 82.927 37.279 86.038 39.203 91.164 C39.466 91.77 39.729 92.376 40 93 C38.137 92.805 38.137 92.805 36 92 C34.77 89.82 34.77 89.82 33.812 87.125 C33.489 86.241 33.165 85.356 32.832 84.445 C32.215 82.632 31.606 80.817 31 79 C30.397 79.191 29.793 79.382 29.172 79.578 C26.749 80.25 24.509 80.804 22 81 C19.75 79.062 19.75 79.062 18 77 C14.449 76.909 13.063 77.951 10.25 80.125 C7.609 83.5 7.249 85.775 7 90 C8.65 90.33 10.3 90.66 12 91 C11.578 91.482 11.157 91.964 10.723 92.461 C10.175 93.093 9.627 93.724 9.062 94.375 C8.517 95.001 7.972 95.628 7.41 96.273 C4.052 100.385 4.659 104.909 5 110 C5.33 110.949 5.66 111.897 6 112.875 C7.06 116.189 7.005 118.422 6.875 121.875 C6.758 127.77 7.873 131.033 11 136 C11.66 136.66 12.32 137.32 13 138 C13.66 137.67 14.32 137.34 15 137 C16.65 138.65 18.3 140.3 20 142 C21.32 140.68 22.64 139.36 24 138 C25 140 25 140 25 141 C27.31 138.69 27.31 138.69 39 127 C39.66 127.33 40.32 127.66 41 128 C40.504 128.461 40.007 128.923 39.496 129.398 C34.258 134.428 29.723 139.74 26 146 C26 146.66 26 147.32 26 148 C26.66 148 27.32 148 28 148 C28 148.66 28 149.32 28 150 C28.66 150 29.32 150 30 150 C30.247 149.381 30.495 148.762 30.75 148.125 C32.206 145.649 33.378 145.049 36 144 C35.34 145.32 34.68 146.64 34 148 C34.66 148 35.32 148 36 148 C36.677 150.038 37.341 152.081 38 154.125 C38.371 155.262 38.743 156.399 39.125 157.57 C39.983 160.934 40.4 163.554 40 167 C39.01 167.66 38.02 168.32 37 169 C37 168.34 37 167.68 37 167 C35.35 167.33 33.7 167.66 32 168 C29 164.25 29 164.25 29 162 C28.34 162 27.68 162 27 162 C27.114 163.459 27.242 164.917 27.375 166.375 C27.41 166.781 27.41 166.781 27.586 168.836 C28 171 28 171 30 173 C30 174.875 30 174.875 29 177 C26.04 179.253 23.532 180.823 20 182 C20 181.34 20 180.68 20 180 C19.34 180 18.68 180 18 180 C17.796 185.738 17.729 190.605 20 196 C19.558 196.11 19.558 196.11 17.32 196.668 C13.374 198.251 11.64 200.11 8.875 203.312 C8.461 203.785 8.461 203.785 6.367 206.176 C5.586 207.108 4.805 208.04 4 209 C3.228 209.852 2.456 210.704 1.66 211.582 C0 214 0 214 0.004 216.211 C0.188 216.925 0.373 217.639 0.562 218.375 C1.048 221.169 1.248 222.502 -0.031 225.066 C-1.299 226.754 -2.646 228.381 -4 230 C-4 230.66 -4 231.32 -4 232 C-2.68 232.33 -1.36 232.66 0 233 C-0.875 237.875 -0.875 237.875 -2 239 C-3.666 239.041 -5.334 239.043 -7 239 C-8 234.25 -8 234.25 -8 232 C-8.32 229.998 -8.653 227.998 -9 226 C-7.35 225.67 -5.7 225.34 -4 225 C-4.165 223.845 -4.165 223.845 -5 218 C-6.65 217.34 -8.3 216.68 -10 216 C-9.858 214.25 -9.711 212.5 -9.562 210.75 C-9.481 209.775 -9.4 208.801 -9.316 207.797 C-9 205 -9 205 -8.461 202.867 C-8 201 -8 201 -8.062 197.375 C-8 194 -8 194 -6 192 C-6.577 185.423 -6.577 185.423 -8 184 C-7.967 182.312 -7.898 180.624 -7.812 178.938 C-7.73 171.888 -10.194 167.71 -14 162 C-15.462 164.56 -16.92 167.123 -18.375 169.688 C-18.788 170.409 -19.2 171.13 -19.625 171.873 C-25.064 181.48 -25.064 181.48 -24.863 186.223 C-25.048 191.33 -26.925 194.922 -29.188 199.438 C-29.575 200.245 -29.962 201.053 -30.361 201.885 C-32.306 205.873 -34.361 209.594 -36.855 213.266 C-38.536 215.886 -39.006 216.664 -38.945 219.863 C-38.675 220.672 -38.404 221.48 -38.125 222.312 C-37.32 224.801 -37.32 224.801 -37 227 C-37.93 228.715 -37.93 228.715 -40 230 C-42.717 230.564 -45.256 230.967 -48 231.25 C-48.362 231.295 -48.362 231.295 -50.195 231.523 C-53.513 231.903 -55.796 232.068 -59 231 C-59.557 230.938 -59.557 230.938 -62.375 230.625 C-65.975 230.004 -68.036 229.066 -71 227 C-69.561 223.704 -67.771 221.607 -65.25 219.062 C-60.517 213.907 -56.633 208.315 -52.75 202.5 C-52.455 202.061 -52.455 202.061 -50.962 199.84 C-40.166 183.458 -40.166 183.458 -40 175 C-40.938 172.062 -40.938 172.062 -42 170 C-41.34 170 -40.68 170 -40 170 C-39.67 170.99 -39.34 171.98 -39 173 C-36.938 173.688 -36.938 173.688 -35 174 C-34.01 172.68 -33.02 171.36 -32 170 C-32.99 169.67 -33.98 169.34 -35 169 C-36.386 167.377 -37.726 165.713 -39 164 C-38.01 164 -37.02 164 -36 164 C-35.67 164.33 -35.34 164.66 -35 165 C-34.666 159.76 -35.49 155.925 -37.344 151.016 C-38 149 -38 149 -38 146 C-38.66 146 -39.32 146 -40 146 C-39.34 150.95 -38.68 155.9 -38 161 C-38.66 161 -39.32 161 -40 161 C-41.705 156.579 -42.2 153.037 -42.062 148.312 C-41.903 142.292 -41.903 142.292 -43 139 C-42.34 139 -41.68 139 -41 139 C-41.165 138.67 -41.165 138.67 -42 137 C-41.984 134.793 -41.984 134.793 -41.75 132.188 C-41.716 131.761 -41.716 131.761 -41.547 129.605 C-41 127 -41 127 -39.582 124.723 C-37.45 121.053 -36.783 117.378 -35.938 113.25 C-35.364 110.465 -34.729 107.752 -34 105 C-33.34 104.67 -32.68 104.34 -32 104 C-31.668 95.079 -31.979 86.572 -33.375 77.75 C-33.501 76.941 -33.627 76.131 -33.757 75.298 C-34.998 67.965 -34.998 67.965 -37 65 C-37.33 64.835 -37.33 64.835 -39 64 C-40.4 57.932 -40.4 57.932 -39.074 54.844 C-37.307 50.165 -37.253 45.259 -36.877 40.301 C-36.13 31.891 -33.391 24.666 -30 17 C-29.753 16.175 -29.505 15.35 -29.25 14.5 C-26.005 8.011 -20.144 3.861 -13.68 0.875 C-9.063 -0.633 -4.785 -0.521 0 0 Z M24 30 C22.68 31.65 21.36 33.3 20 35 C21.29 36.376 22.627 37.708 24 39 C24.66 39 25.32 39 26 39 C26.124 40.134 26.247 41.269 26.375 42.438 C26.478 43.025 26.478 43.025 27 46 C27.66 46.33 28.32 46.66 29 47 C28.67 44.03 28.34 41.06 28 38 C29.32 37.67 30.64 37.34 32 37 C31.237 36.402 30.474 35.804 29.688 35.188 C27.652 33.53 25.802 31.897 24 30 Z M3 57 C3.33 57.66 3.66 58.32 4 59 C4.66 58.67 5.32 58.34 6 58 C5.01 57.67 4.02 57.34 3 57 Z M-20.062 103.5 C-24.746 109.241 -24.588 116.903 -25 124 C-25.082 125.158 -25.165 126.315 -25.25 127.508 C-25.546 135.19 -24.302 142.01 -21 149 C-20.34 149.33 -19.68 149.66 -19 150 C-19.523 147.237 -20.109 144.674 -21 142 C-21.093 140.335 -21.13 138.667 -21.125 137 C-21.126 136.567 -21.126 136.567 -21.133 134.375 C-21 132 -21 132 -20 129 C-19.87 125.415 -19.752 121.836 -19.746 118.248 C-19.558 112.573 -19.558 112.573 -16.594 109.531 C-14 108 -14 108 -11.75 106.938 C-10 106 -10 106 -9 103 C-15.831 100.046 -15.831 100.046 -20.062 103.5 Z M-33 109 C-32 112 -32 112 -32 112 Z M-34 112 C-33 114 -33 114 -33 114 Z M-31 133 C-32.001 136.311 -32.104 139.301 -32.062 142.75 C-32.053 143.735 -32.044 144.72 -32.035 145.734 C-32.024 146.482 -32.012 147.23 -32 148 C-31.67 148 -31.34 148 -31 148 C-30.67 143.05 -30.34 138.1 -30 133 C-30.33 133 -30.66 133 -31 133 Z M-38 139 C-38 140.65 -38 142.3 -38 144 C-37.67 144 -37.34 144 -37 144 C-37 142.35 -37 140.7 -37 139 C-37.33 139 -37.66 139 -38 139 Z M-27 142 C-27.33 144.31 -27.66 146.62 -28 149 C-27.34 148.67 -26.68 148.34 -26 148 C-26 147.34 -26 146.68 -26 146 C-25.34 146 -24.68 146 -24 146 C-24 145.34 -24 144.68 -24 144 C-24.66 144 -25.32 144 -26 144 C-26.33 143.34 -26.66 142.68 -27 142 Z M-19 150 C-18 152 -18 152 -18 152 Z M-28 151 C-27 154 -27 154 -27 154 Z M11 151 C11.516 158.882 13.092 166.345 15 174 C17.438 173.188 17.438 173.188 20 172 C21.758 166.727 21.462 161.335 20 156 C17.3 153.442 14.512 152.156 11 151 Z M-18 152 C-17 154 -17 154 -17 154 Z M-16 157 C-15 159 -15 159 -15 159 Z M26 159 C27 162 27 162 27 162 Z M-32 162 C-31 164 -31 164 -31 164 Z M12 180 C13 182 13 182 13 182 Z M-50.125 209.25 C-51.365 209.688 -52.605 210.127 -53.883 210.578 C-57 212 -57 212 -59 215 C-50.983 214.192 -45.134 213.421 -39 208 C-43.102 206.31 -46.114 207.793 -50.125 209.25 Z " fill="#000000" transform="translate(774,247)"/>
<path d="M0 0 C0.66 0.66 1.32 1.32 2 2 C-0.75 11.019 -4.302 19.534 -8.161 28.116 C-9.474 31.063 -10.736 34.031 -12 37 C-13.732 32.908 -12.057 29.677 -10.5 25.812 C-10.232 25.123 -9.963 24.433 -9.687 23.723 C-8.806 21.475 -7.906 19.237 -7 17 C-6.678 16.205 -6.356 15.41 -6.024 14.591 C-4.042 9.717 -2.031 4.855 0 0 Z " fill="#000000" transform="translate(921,258)"/>
<path d="M0 0 C0.33 0 0.66 0 1 0 C0.893 1.151 0.786 2.302 0.676 3.488 C-0.584 19.178 1.102 33.626 6.23 48.531 C7 51 7 51 7 54 C5.845 54.165 5.845 54.165 0 55 C-0.699 52.419 -1.385 49.836 -2.062 47.25 C-2.262 46.52 -2.461 45.791 -2.666 45.039 C-3.637 41.29 -4.154 38.697 -3 35 C-2.34 35.99 -1.68 36.98 -1 38 C-1.072 37.522 -1.072 37.522 -1.438 35.105 C-3.231 22.613 -3.603 12.29 0 0 Z " fill="#000000" transform="translate(943,266)"/>
<path d="M0 0 C3.375 -0.188 3.375 -0.188 7 0 C9.236 3.353 9.173 3.907 8.625 7.688 C8.57 8.092 8.57 8.092 8.289 10.137 C8.194 10.752 8.098 11.366 8 12 C7.34 12 6.68 12 6 12 C4.492 9.883 4.492 9.883 2.875 7.125 C2.336 6.22 1.797 5.315 1.242 4.383 C0 2 0 2 0 0 Z " fill="#000000" transform="translate(980,279)"/>
<path d="M0 0 C5.909 5.491 8.907 14.374 11 22 C10.67 22.66 10.34 23.32 10 24 C0 4.6 0 4.6 0 0 Z " fill="#000000" transform="translate(987,294)"/>
<path d="M0 0 C0.66 0.33 1.32 0.66 2 1 C2.484 3.563 2.844 6.039 3.125 8.625 C3.211 9.325 3.298 10.025 3.387 10.746 C4.266 18.272 4.048 24.704 2 32 C3.98 32.99 5.96 33.98 8 35 C6.549 38.826 4.642 40.223 1 42 C0.01 42 -0.98 42 -2 42 C-2.337 35.682 -2.083 31.652 1 26 C1.535 19.291 -0.736 13.777 -4 8 C-6.248 5.757 -8.187 4.544 -11 3 C-10.01 2.67 -9.02 2.34 -8 2 C-5.438 3.375 -5.438 3.375 -3 5 C-2.34 5.33 -1.68 5.66 -1 6 C-1.33 5.01 -1.66 4.02 -2 3 C-1.34 2.01 -0.68 1.02 0 0 Z " fill="#000000" transform="translate(1003,328)"/>
<path d="M0 0 C3 1 3 1 4.688 3.875 C6 7 6 7 6 10 C4.35 10 2.7 10 1 10 C1.175 10.361 1.175 10.361 2.062 12.188 C3.104 15.312 2.891 16.882 2 20 C5.3 20.33 8.6 20.66 12 21 C11.34 20.216 10.68 19.433 10 18.625 C8 16 8 16 8 14 C7.01 13.67 6.02 13.34 5 13 C8.2 11.933 9.885 12.052 13.188 12.438 C14.089 12.539 14.99 12.641 15.918 12.746 C16.605 12.83 17.292 12.914 18 13 C18.165 13.825 18.165 13.825 19 18 C19.887 18.206 20.774 18.413 21.688 18.625 C25 20 25 20 27.438 22.938 C30.505 26.604 32.577 27.439 37 29 C37 29.99 37 30.98 37 32 C37.984 34.008 38.983 36.009 40 38 C40 38.66 40 39.32 40 40 C32.978 38.562 26.239 36.629 19.438 34.375 C18.392 34.029 17.347 33.683 16.27 33.326 C7.411 30.306 -0.819 26.523 -9 22 C-9.165 22.165 -9.165 22.165 -10 23 C-4.375 26.875 -4.375 26.875 -1 28 C-1 28.66 -1 29.32 -1 30 C-2.65 30.33 -4.3 30.66 -6 31 C58.148 55.164 58.148 55.164 88 56.562 C88.87 56.606 89.74 56.649 90.637 56.693 C92.758 56.798 94.879 56.9 97 57 C97 57.66 97 58.32 97 59 C99.64 58.835 99.64 58.835 113 58 C112.01 57.67 111.02 57.34 110 57 C110 56.34 110 55.68 110 55 C111.485 54.835 111.485 54.835 119 54 C119 54.66 119 55.32 119 56 C124.94 56 130.88 56 137 56 C137.33 55.01 137.66 54.02 138 53 C138.949 53.206 139.898 53.413 140.875 53.625 C148.156 54.657 155.582 52.337 162 49 C162.62 48.379 163.24 47.757 163.879 47.117 C166.825 44.177 170.199 42.071 173.66 39.781 C175.95 38.038 177.408 36.379 179 34 C180.32 34.33 181.64 34.66 183 35 C183.658 38.357 184.121 41.573 184 45 C181.875 47.875 181.875 47.875 179 50 C178.216 50.722 177.432 51.444 176.625 52.188 C173.525 54.328 170.607 54.97 167 56 C166.237 56.625 165.474 57.25 164.688 57.895 C161.721 60.219 159.013 61.346 155.5 62.688 C141.705 68.261 132.952 76.187 125.781 89.258 C123.671 92.506 121.584 94.181 118.188 95.938 C114.453 96.044 111.799 94.275 109 92 C107.134 89.749 105.423 87.417 103.695 85.059 C100.572 81.266 96.645 80.007 92 79 C90.658 78.892 89.312 78.825 87.966 78.795 C87.576 78.785 87.576 78.785 85.601 78.734 C84.768 78.718 83.936 78.701 83.078 78.684 C82.218 78.663 81.358 78.642 80.472 78.621 C77.731 78.555 74.991 78.496 72.25 78.438 C70.389 78.394 68.529 78.351 66.668 78.307 C62.112 78.2 57.556 78.098 53 78 C53.651 86.668 54.318 95.334 55 104 C55.085 105.087 55.171 106.175 55.259 107.295 C56.864 127.478 56.864 127.478 58.578 136.449 C59.027 139.164 59.174 141.815 59.312 144.562 C59.632 148.584 60.511 151.46 62.312 155.062 C64.755 159.947 65.933 164.627 67 169.938 C68.74 178.519 71.092 186.638 76 194 C76.312 196.562 76.312 196.562 76 199 C72.502 201.332 71.173 201.19 67.062 201.062 C61.362 200.9 61.362 200.9 58.934 201.57 C54.871 202.473 50.754 200.499 47 199 C43.387 196.621 43.086 195.412 42.188 191.125 C41.901 187.587 42.358 184.494 43 181 C43.449 177.886 43.729 175.082 43 172 C41.334 170.427 39.602 169.399 37.637 168.23 C36 167 36 167 34.875 163.688 C34.985 160.448 35.259 158.988 36.438 156.125 C40.329 146.56 36.816 138.557 33.062 129.515 C29.454 120.975 25.755 112.476 22 104 C21.34 104 20.68 104 20 104 C19.938 102.824 19.876 101.649 19.812 100.438 C19.257 95.139 17.554 90.289 15.728 85.318 C14.447 81.748 13.717 78.799 14 75 C11.69 74.34 9.38 73.68 7 73 C6.67 74.65 6.34 76.3 6 78 C5.67 78 5.34 78 5 78 C4.67 76.35 4.34 74.7 4 73 C3.773 74.052 3.546 75.104 3.312 76.188 C1.84 81.383 -1.607 84.072 -6 87 C-5.34 84.36 -4.68 81.72 -4 79 C-5.125 80.604 -6.25 82.208 -7.375 83.812 C-8.001 84.706 -8.628 85.599 -9.273 86.52 C-10.536 88.333 -11.775 90.162 -13 92 C-16.125 92.688 -16.125 92.688 -19 93 C-18.424 89.115 -16.462 86.97 -14 84 C-14.748 84.566 -15.495 85.132 -16.266 85.715 C-17.25 86.448 -18.235 87.182 -19.25 87.938 C-20.225 88.668 -21.199 89.399 -22.203 90.152 C-24.627 91.753 -26.176 92.576 -29 93 C-28.67 92.34 -28.34 91.68 -28 91 C-28.675 91.205 -29.351 91.41 -30.047 91.621 C-30.939 91.891 -31.831 92.16 -32.75 92.438 C-33.632 92.704 -34.513 92.971 -35.422 93.246 C-37.606 93.885 -39.788 94.468 -42 95 C-41.435 91.042 -40.191 88.334 -38 85 C-39.155 85.165 -39.155 85.165 -45 86 C-44.924 85.319 -44.847 84.638 -44.769 83.936 C-44.433 80.855 -44.123 77.772 -43.812 74.688 C-43.692 73.616 -43.571 72.544 -43.447 71.439 C-43.397 70.925 -43.397 70.925 -43.145 68.324 C-43.045 67.376 -42.946 66.428 -42.843 65.452 C-43.036 62.444 -43.805 61.935 -46 60 C-46.985 56.201 -47.261 53.818 -46.062 50.062 C-43.656 47.656 -43.08 47.699 -39.812 47.688 C-38.554 47.791 -37.296 47.894 -36 48 C-36 48.99 -36 49.98 -36 51 C-35.031 51.268 -34.061 51.536 -33.062 51.812 C-32.052 52.204 -31.041 52.596 -30 53 C-29.67 53.99 -29.34 54.98 -29 56 C-27.02 56 -25.04 56 -23 56 C-28.302 46.781 -33.22 40.144 -42 34 C-42 34.99 -42 35.98 -42 37 C-43.32 37 -44.64 37 -46 37 C-42.421 23.281 -42.421 23.281 -36 19 C-35.67 18.01 -35.34 17.02 -35 16 C-33.845 15.835 -33.845 15.835 -28 15 C-27.876 15.969 -27.753 16.939 -27.625 17.938 C-27.419 18.948 -27.212 19.959 -27 21 C-25 22 -25 22 -22.652 21.293 C-21.756 20.928 -20.861 20.563 -19.938 20.188 C-19.039 19.83 -18.141 19.473 -17.215 19.105 C-15 18 -15 18 -14 16 C-11.69 16.33 -9.38 16.66 -7 17 C-7.66 16.051 -8.32 15.103 -9 14.125 C-11 11 -11 11 -11 9 C-9.928 8.856 -8.855 8.711 -7.75 8.562 C-5.083 8.163 -2.586 7.724 0 7 C-0.165 6.505 -0.165 6.505 -1 4 C-0.562 1.812 -0.562 1.812 0 0 Z M-3 21 C-2 23 -2 23 -2 23 Z M-44 56 C-44 56.66 -44 57.32 -44 58 C-43.34 57.67 -42.68 57.34 -42 57 C-42.66 56.67 -43.32 56.34 -44 56 Z " fill="#000000" transform="translate(957,340)"/>
<path d="M0 0 C0.99 0 1.98 0 3 0 C5.681 3.506 6.495 6.658 7 11 C3.591 12.136 2.997 11.867 -0.188 10.562 C-0.903 10.275 -1.618 9.988 -2.355 9.691 C-2.898 9.463 -3.441 9.235 -4 9 C-2.941 5.597 -1.991 2.986 0 0 Z " fill="#000000" transform="translate(1002,372)"/>
<path d="M0 0 C0.165 0.33 0.165 0.33 1 2 C-5.446 6.959 -12.15 10.76 -19.465 14.246 C-22.912 15.899 -26.052 17.551 -29 20 C-26 22 -26 22 -23.5 21.812 C-20.863 20.956 -19.743 20.11 -18 18 C-17.34 18.33 -16.68 18.66 -16 19 C-17.833 21.242 -19.671 23.266 -22 25 C-25 24.938 -25 24.938 -28 24 C-31.555 23.068 -33.38 22.747 -36.824 24.152 C-37.769 24.741 -38.714 25.331 -39.688 25.938 C-40.724 26.578 -41.76 27.219 -42.828 27.879 C-46.848 30.567 -50.717 33.421 -54.527 36.398 C-57.094 38.061 -58.99 38.623 -62 39 C-64.339 46.895 -65.449 54.294 -62 62 C-61.325 61.518 -60.649 61.036 -59.953 60.539 C-59.061 59.907 -58.169 59.276 -57.25 58.625 C-56.368 57.999 -55.487 57.372 -54.578 56.727 C-50.362 53.903 -50.362 53.903 -48 53 C-47.01 53.33 -46.02 53.66 -45 54 C-45.545 54.306 -46.091 54.611 -46.652 54.926 C-52.672 58.579 -56.677 62.848 -60.957 68.414 C-62.842 70.801 -64.821 72.885 -67 75 C-69.786 78.196 -71.623 80.982 -73 85 C-73.99 84.34 -74.98 83.68 -76 83 C-75.67 81.02 -75.34 79.04 -75 77 C-75.784 77.99 -76.567 78.98 -77.375 80 C-78.241 80.99 -79.107 81.98 -80 83 C-80.66 83 -81.32 83 -82 83 C-82.268 83.743 -82.536 84.485 -82.812 85.25 C-83.953 87.891 -85.094 89.856 -87 92 C-87.66 92 -88.32 92 -89 92 C-87.729 85.245 -82.445 79.058 -78 74 C-77.505 73.67 -77.505 73.67 -75 72 C-74.296 69.621 -74.296 69.621 -73.824 66.652 C-73.635 65.571 -73.447 64.491 -73.252 63.377 C-72.88 61.112 -72.516 58.847 -72.158 56.58 C-70.267 45.885 -66.017 38.801 -57.438 32.188 C-56.803 31.69 -56.168 31.192 -55.513 30.679 C-42.775 21.011 -28.151 13.826 -13.8 6.876 C-10.854 5.442 -7.928 3.969 -5 2.5 C-3.333 1.667 -1.667 0.833 0 0 Z " fill="#000000" transform="translate(726,377)"/>
<path d="M0 0 C0.66 0.33 1.32 0.66 2 1 C0.68 2.32 -0.64 3.64 -2 5 C2.75 5.125 2.75 5.125 5 4 C5 4.66 5 5.32 5 6 C5.763 5.505 6.526 5.01 7.312 4.5 C10 3 10 3 13 3 C9.83 7.314 9.83 7.314 7 9 C3.751 9.152 0.821 8.823 -2.391 8.332 C-5 8 -5 8 -7 9 C-5.445 5.183 -2.964 2.808 0 0 Z " fill="#000000" transform="translate(817,386)"/>
<path d="M0 0 C0.66 0 1.32 0 2 0 C2.746 2.656 2.746 2.656 3 6 C1.41 8.719 1.41 8.719 -0.938 11.5 C-5.041 16.603 -8.31 21.747 -11.347 27.543 C-13.694 31.898 -13.694 31.898 -17 33 C-16.315 29.334 -14.744 26.51 -12.91 23.281 C-12.6 22.733 -12.6 22.733 -11.033 19.957 C-10.383 18.816 -9.733 17.675 -9.062 16.5 C-7.782 14.24 -6.502 11.98 -5.223 9.719 C-4.653 8.718 -4.083 7.717 -3.496 6.686 C-2.268 4.481 -1.103 2.269 0 0 Z " fill="#000000" transform="translate(907,397)"/>
<path d="M0 0 C0 3.803 -1.034 4.614 -3.438 7.5 C-3.806 7.947 -3.806 7.947 -5.668 10.207 C-6.438 11.129 -7.207 12.05 -8 13 C-9.418 14.728 -10.835 16.457 -12.25 18.188 C-12.996 19.099 -13.743 20.01 -14.512 20.949 C-22.265 30.455 -29.917 39.979 -37 50 C-37.33 49.34 -37.66 48.68 -38 48 C-31.718 38.642 -25.344 29.568 -18 21 C-16.995 19.82 -15.989 18.641 -14.984 17.461 C-12.489 14.538 -9.984 11.624 -7.475 8.713 C-4.978 5.813 -2.489 2.906 0 0 Z " fill="#000000" transform="translate(890,408)"/>
<path d="M0 0 C0 0.99 0 1.98 0 3 C-2.059 4.948 -4.113 6.724 -6.312 8.5 C-16.898 17.304 -26.8 26.895 -35 38 C-24.343 33.213 -16.32 28.306 -8 20 C-6.699 18.842 -5.387 17.695 -4.062 16.562 C-1.647 14.472 0.72 12.34 3.055 10.16 C3.592 9.66 4.13 9.16 4.684 8.644 C5.752 7.648 6.816 6.648 7.877 5.643 C10.253 3.429 11.878 2.041 15 1 C14.333 2.333 13.667 3.667 13 5 C12.587 5.956 12.175 6.913 11.75 7.898 C9.802 11.352 8.072 12.793 4.812 15 C3.828 15.682 2.843 16.364 1.828 17.066 C0.895 17.704 -0.038 18.343 -1 19 C-2.319 19.97 -3.633 20.948 -4.938 21.938 C-5.561 22.407 -6.185 22.876 -6.828 23.359 C-8.549 24.659 -10.267 25.962 -11.984 27.266 C-13.052 28.073 -14.12 28.88 -15.188 29.688 C-16.171 30.434 -17.155 31.18 -18.168 31.949 C-21 34 -21 34 -23.551 35.449 C-27.483 37.939 -30.352 41.426 -33.5 44.82 C-36.307 47.267 -38.3 48 -42 48 C-48.922 52.942 -55.579 58.29 -61.188 64.688 C-63.074 66.668 -63.074 66.668 -65 68 C-68.226 68.072 -69.965 67.301 -73 66 C-71.935 63.515 -71.024 62.022 -69 60.188 C-66.415 57.36 -65.851 54.687 -65 51 C-64.01 51.33 -63.02 51.66 -62 52 C-62.33 52.825 -62.33 52.825 -64 57 C-60.196 54.597 -56.725 51.986 -53.25 49.125 C-49.035 45.69 -44.704 42.922 -39.934 40.324 C-38 39 -38 39 -37 36 C-37.99 35.67 -38.98 35.34 -40 35 C-39.258 34.443 -38.515 33.886 -37.75 33.312 C-35 31 -35 31 -33.062 28.5 C-31 26 -31 26 -28.188 24.188 C-25.395 22.271 -23.768 20.726 -21.625 18.188 C-15.386 10.816 -7.976 5.377 0 0 Z " fill="#000000" transform="translate(701,419)"/>
<path d="M0 0 C0.684 3.434 1.344 6.873 2 10.312 C2.191 11.27 2.382 12.227 2.578 13.213 C3.836 19.882 4.239 26.219 4 33 C4.825 32.835 4.825 32.835 9 32 C9 32.99 9 33.98 9 35 C6.03 35.66 3.06 36.32 0 37 C0 37.66 0 38.32 0 39 C0.99 39.33 1.98 39.66 3 40 C2.196 40.248 1.391 40.495 0.562 40.75 C-2 42 -2 42 -2.875 43.75 C-3.034 46.618 -2.55 49.188 -2 52 C-2 52.66 -2 53.32 -2 54 C-1.67 54.969 -1.34 55.939 -1 56.938 C0 60 0 60 0 63 C1.32 62.67 2.64 62.34 4 62 C3.835 63.114 3.67 64.228 3.5 65.375 C3 69 3 69 3 71 C3.66 71 4.32 71 5 71 C5.66 72.32 6.32 73.64 7 75 C6.34 75 5.68 75 5 75 C5.431 75.822 5.861 76.645 6.305 77.492 C8.148 81.305 9.66 85.156 11.125 89.125 C11.389 89.828 11.654 90.53 11.926 91.254 C15.267 100.225 15.267 100.225 14.312 103 C14 105 14 105 15.562 107.188 C18.416 109.309 20.496 109.681 24 110 C23.453 113.375 22.945 115.082 21 118 C19.023 118.731 17.019 119.394 15 120 C13.657 120.647 12.322 121.311 11 122 C13.113 130.348 13.113 130.348 16.125 132.562 C20.102 133.168 23.986 133.157 28 133 C28.206 133.474 28.206 133.474 29.25 135.875 C31.077 139.138 31.539 139.943 35 141 C37.325 141.387 39.659 141.73 42 142 C42 142.66 42 143.32 42 144 C40.088 144.559 38.17 145.097 36.25 145.625 C35.183 145.927 34.115 146.228 33.016 146.539 C29.781 147.033 28.661 146.796 26 145 C25 147 25 147 25 154 C28.465 153.67 28.465 153.67 46 152 C43.139 154.861 41.718 155.792 38 157 C37.01 157 36.02 157 35 157 C35 158.32 35 159.64 35 161 C38.96 160.67 42.92 160.34 47 160 C47 160.99 47 161.98 47 163 C46.34 163.33 45.68 163.66 45 164 C45.294 164.565 45.589 165.131 45.892 165.713 C47.804 169.66 49.166 173.807 50.625 177.938 C50.95 178.831 51.275 179.725 51.609 180.646 C51.916 181.515 52.223 182.383 52.539 183.277 C52.82 184.064 53.1 184.85 53.389 185.66 C54.051 188.194 54.108 190.392 54 193 C54.66 192.34 55.32 191.68 56 191 C56.33 199.58 56.66 208.16 57 217 C59.375 209.375 59.375 209.375 60.111 207.009 C61.365 202.991 62.654 198.988 64 195 C64.66 195 65.32 195 66 195 C66 200.61 66 206.22 66 212 C66.66 208.7 67.32 205.4 68 202 C68.66 202.33 69.32 202.66 70 203 C72.502 210.506 70.959 218.53 69 226 C69.295 226.027 69.295 226.027 70.789 226.164 C74.016 227.384 74.716 229.407 76.375 232.375 C79.142 236.983 80.871 239.374 86 241 C85.402 241.289 84.804 241.577 84.188 241.875 C82 243 82 243 79 245 C76.312 245.125 76.312 245.125 74 245 C74.66 245.433 75.32 245.866 76 246.312 C76.66 246.869 77.32 247.426 78 248 C78 248.99 78 249.98 78 251 C80.31 250.34 80.31 250.34 92 247 C92 245.68 92 244.36 92 243 C94.25 241.875 94.25 241.875 97 241 C99.312 241.875 99.312 241.875 101 243 C100.67 244.32 100.34 245.64 100 247 C100.99 247.33 101.98 247.66 103 248 C103.33 247.34 103.66 246.68 104 246 C105.98 246.33 107.96 246.66 110 247 C110 247.66 110 248.32 110 249 C108.35 249 106.7 249 105 249 C105 249.66 105 250.32 105 251 C106.65 251.33 108.3 251.66 110 252 C110 252.99 110 253.98 110 255 C108.35 255 106.7 255 105 255 C105 255.66 105 256.32 105 257 C108.273 257 110.847 256.701 114 256 C114.33 256.66 114.66 257.32 115 258 C114.67 258.99 114.34 259.98 114 261 C114.66 261 115.32 261 116 261 C116.33 260.01 116.66 259.02 117 258 C123.373 256.801 127.238 256.935 133 260 C133.33 259.34 133.66 258.68 134 258 C136.343 258.256 138.678 258.593 141 259 C141.33 259.66 141.66 260.32 142 261 C141.01 261.33 140.02 261.66 139 262 C140.32 262.66 141.64 263.32 143 264 C143 264.66 143 265.32 143 266 C142.34 266 141.68 266 141 266 C140.67 266.99 140.34 267.98 140 269 C138.02 268.67 136.04 268.34 134 268 C134.33 267.34 134.66 266.68 135 266 C132.69 266 130.38 266 128 266 C127.34 264.68 126.68 263.36 126 262 C120.574 263.02 115.182 264.151 109.812 265.438 C108.87 265.663 107.928 265.889 106.957 266.121 C104 267 104 267 100.727 268.488 C96.468 270.369 92.142 271.059 87.562 271.75 C87.159 271.819 87.159 271.819 85.115 272.168 C78.605 273.186 73.208 272.679 66.75 271.312 C63.629 270.958 62.521 271.175 60 273 C58.979 274.317 57.977 275.649 57 277 C55.228 276.717 53.457 276.423 51.688 276.125 C50.701 275.963 49.715 275.8 48.699 275.633 C46 275 46 275 43 273 C43 272.34 43 271.68 43 271 C45.31 271.33 47.62 271.66 50 272 C50 270.68 50 269.36 50 268 C48.742 268 47.484 268 46.188 268 C39 268 39 268 36.738 265.812 C35.938 264.884 35.137 263.956 34.312 263 C33.504 262.072 32.696 261.144 31.863 260.188 C31.248 259.466 30.634 258.744 30 258 C30.99 257.67 31.98 257.34 33 257 C33 256.34 33 255.68 33 255 C34.65 255 36.3 255 38 255 C37.782 254.596 37.782 254.596 36.677 252.554 C20.711 222.955 6.188 193.193 -6.386 161.994 C-12.538 146.746 -18.722 131.622 -26.748 117.252 C-28.2 114.641 -29.626 112.017 -31.051 109.391 C-35.658 100.903 -40.298 92.435 -45 84 C-49.434 89.262 -52.163 94.952 -55.125 101.125 C-55.409 101.716 -55.694 102.307 -55.987 102.916 C-62.229 115.949 -67.259 129.353 -72 143 C-72.349 144 -72.697 145 -73.057 146.031 C-74.389 149.858 -75.718 153.685 -77.035 157.518 C-79.377 164.312 -81.881 171.034 -84.438 177.75 C-98.661 215.443 -98.661 215.443 -100.747 233.938 C-100.998 235.982 -101.323 237.999 -101.68 240.027 C-102.746 246.298 -103.542 251.069 -101 257 C-100.34 256.01 -99.68 255.02 -99 254 C-93.461 253.455 -90.637 253.78 -86 257 C-83.688 257.688 -83.688 257.688 -82 258 C-82.312 259.875 -82.312 259.875 -83 262 C-83.99 262.66 -84.98 263.32 -86 264 C-78.74 264.66 -71.48 265.32 -64 266 C-66.816 268.816 -69.658 268.417 -73.438 268.562 C-80.65 268.883 -80.65 268.883 -84 270 C-85.999 270.069 -88 270.085 -90 270.062 C-91.052 270.053 -92.104 270.044 -93.188 270.035 C-94.116 270.024 -95.044 270.012 -96 270 C-96.99 270 -97.98 270 -99 270 C-101 269 -103 268 -105 267 C-105.99 267 -106.98 267 -108 267 C-108 267.99 -108 268.98 -108 270 C-105.69 269.67 -103.38 269.34 -101 269 C-100.67 269.66 -100.34 270.32 -100 271 C-100.66 271.33 -101.32 271.66 -102 272 C-101.313 272.037 -100.626 272.075 -99.918 272.113 C-99.467 272.146 -99.467 272.146 -97.188 272.312 C-96.294 272.371 -95.401 272.429 -94.48 272.488 C-91.694 273.063 -90.759 273.821 -89 276 C-93.896 278.448 -99.692 278.215 -105.066 278.387 C-105.445 278.399 -105.445 278.399 -107.359 278.464 C-108.95 278.516 -110.541 278.565 -112.132 278.613 C-114.559 278.687 -116.985 278.778 -119.412 278.869 C-120.964 278.918 -122.515 278.965 -124.066 279.012 C-124.427 279.026 -124.427 279.026 -126.251 279.1 C-130.316 279.201 -133.347 278.821 -137 277 C-137 276.34 -137 275.68 -137 275 C-136.374 275.005 -135.749 275.01 -135.104 275.016 C-132.278 275.037 -129.451 275.05 -126.625 275.062 C-125.64 275.071 -124.655 275.079 -123.641 275.088 C-122.7 275.091 -121.759 275.094 -120.789 275.098 C-119.92 275.103 -119.05 275.108 -118.155 275.114 C-116 275 -116 275 -114 274 C-114.337 274.003 -114.337 274.003 -116.044 274.016 C-119.155 274.037 -122.265 274.05 -125.375 274.062 C-126.436 274.071 -127.497 274.079 -128.59 274.088 C-135.127 274.108 -141.512 273.806 -148 273 C-147.67 272.01 -147.34 271.02 -147 270 C-152.61 269.67 -158.22 269.34 -164 269 C-164.165 268.505 -164.165 268.505 -165 266 C-168.3 265.67 -171.6 265.34 -175 265 C-174.01 264.67 -173.02 264.34 -172 264 C-172 263.34 -172 262.68 -172 262 C-172.443 262.021 -172.443 262.021 -174.688 262.125 C-177.973 262.001 -180.054 261.386 -183 260 C-183 260.66 -183 261.32 -183 262 C-183.763 261.835 -184.526 261.67 -185.312 261.5 C-188 261 -188 261 -191 261 C-191.99 261 -192.98 261 -194 261 C-194 260.34 -194 259.68 -194 259 C-196.64 258.67 -199.28 258.34 -202 258 C-202 257.34 -202 256.68 -202 256 C-199.03 256 -196.06 256 -193 256 C-193 255.34 -193 254.68 -193 254 C-191.35 254 -189.7 254 -188 254 C-188 253.34 -188 252.68 -188 252 C-186.35 252.33 -184.7 252.66 -183 253 C-183 252.34 -183 251.68 -183 251 C-182.051 250.918 -181.102 250.835 -180.125 250.75 C-179.094 250.503 -178.062 250.255 -177 250 C-176.716 249.359 -176.433 248.719 -176.141 248.059 C-175 246 -175 246 -172.539 244.988 C-171.577 244.765 -170.616 244.542 -169.625 244.312 C-168.669 244.082 -167.712 243.851 -166.727 243.613 C-165.827 243.411 -164.927 243.209 -164 243 C-163.286 242.821 -162.572 242.642 -161.836 242.457 C-154.703 240.681 -148.269 241.224 -141 242 C-140.951 241.019 -140.902 240.038 -140.852 239.027 C-140.776 237.664 -140.701 236.301 -140.625 234.938 C-140.555 233.627 -140.486 232.316 -140.414 230.965 C-140.144 227.032 -139.596 223.176 -139.02 219.277 C-138.166 213.068 -137.721 206.926 -137.473 200.664 C-137.437 199.766 -137.401 198.867 -137.364 197.942 C-137.223 194.228 -137.091 190.514 -136.971 186.799 C-136.879 184.045 -136.77 181.292 -136.66 178.539 C-136.638 177.714 -136.616 176.889 -136.594 176.038 C-136.313 169.39 -135.043 163.143 -131.375 157.5 C-127.804 155.245 -124.154 155.178 -120 155 C-121.98 153.68 -123.96 152.36 -126 151 C-125.75 148.188 -125.75 148.188 -125 145 C-124.358 144.545 -123.716 144.09 -123.055 143.621 C-120.449 141.565 -120.146 140.061 -119.375 136.875 C-118.711 134.18 -118.711 134.18 -118 132 C-117.34 131.67 -116.68 131.34 -116 131 C-116 131.66 -116 132.32 -116 133 C-115.34 133 -114.68 133 -114 133 C-114.023 132.108 -114.046 131.216 -114.07 130.297 C-114.088 129.126 -114.106 127.956 -114.125 126.75 C-114.148 125.59 -114.171 124.43 -114.195 123.234 C-114.01 120.16 -113.772 118.487 -112 116 C-109.438 115.375 -109.438 115.375 -107 115 C-105.569 112.138 -106.4 110.066 -107 107 C-107.66 106.835 -107.66 106.835 -111 106 C-111 105.34 -111 104.68 -111 104 C-110.237 103.587 -109.474 103.175 -108.688 102.75 C-105.376 100.594 -104.624 98.543 -103 95 C-101.812 93.125 -101.812 93.125 -100 92 C-98.086 92.066 -96.171 92.135 -94.258 92.23 C-90.648 91.862 -88.054 89.971 -85.078 87.996 C-83 87 -83 87 -80.812 87.188 C-79 88 -79 88 -77.75 90.562 C-77.503 91.367 -77.255 92.171 -77 93 C-75.68 93 -74.36 93 -73 93 C-72.732 92.237 -72.464 91.474 -72.188 90.688 C-70.363 86.558 -68.877 85.362 -64.645 83.613 C-63.37 83.171 -62.093 82.738 -60.812 82.312 C-60.485 82.2 -60.485 82.2 -58.83 81.631 C-57.223 81.079 -55.612 80.539 -54 80 C-55 77 -55 77 -57 75 C-54.145 73.097 -52.581 72.538 -49.312 71.875 C-48.504 71.707 -47.696 71.54 -46.863 71.367 C-46.248 71.246 -45.634 71.125 -45 71 C-45.99 71 -46.98 71 -48 71 C-46.583 67.577 -44.932 66.175 -42 64 C-41.67 63.01 -41.34 62.02 -41 61 C-40.34 61 -39.68 61 -39 61 C-39 60.34 -39 59.68 -39 59 C-38.536 58.546 -38.072 58.092 -37.594 57.625 C-35.796 55.792 -35.272 54.427 -34.5 52 C-33.514 48.903 -32.439 47.168 -30 45 C-31.32 45.33 -32.64 45.66 -34 46 C-32.13 43.595 -30.341 41.309 -28.078 39.262 C-25.528 36.486 -24.062 33.448 -22.5 30.062 C-20.423 25.591 -18.128 21.828 -15 18 C-14.025 16.228 -13.088 14.436 -12.188 12.625 C-5.474 0 -5.474 0 0 0 Z M27 141 C28 143 28 143 28 143 Z M52 195 C51.3 196.264 50.616 197.537 49.938 198.812 C49.555 199.52 49.172 200.228 48.777 200.957 C48 203 48 203 49 206 C49.7 204.736 50.384 203.463 51.062 202.188 C51.445 201.48 51.828 200.772 52.223 200.043 C53 198 53 198 52 195 Z M58 226 C59 229 59 229 59 229 Z M59 229 C60 231 60 231 60 231 Z M55 234 C56.438 239.607 59.162 244.668 63 249 C65.699 250.266 65.699 250.266 68 251 C65.066 244.276 61.223 239.164 56 234 C55.67 234 55.34 234 55 234 Z M-146 246 C-142 247 -142 247 -142 247 Z M-154 247 C-153.67 247.66 -153.34 248.32 -153 249 C-151.02 248.67 -149.04 248.34 -147 248 C-147 247.67 -147 247.34 -147 247 C-149.31 247 -151.62 247 -154 247 Z M-159 249 C-158.34 249.66 -157.68 250.32 -157 251 C-157 250.34 -157 249.68 -157 249 C-157.66 249 -158.32 249 -159 249 Z M-168 251 C-168 251.33 -168 251.66 -168 252 C-166.35 252 -164.7 252 -163 252 C-163 251.67 -163 251.34 -163 251 C-164.65 251 -166.3 251 -168 251 Z M-180.062 253.875 C-180.961 254.037 -181.859 254.2 -182.785 254.367 C-183.151 254.472 -183.151 254.472 -185 255 C-185.33 255.66 -185.66 256.32 -186 257 C-184.019 256.719 -182.04 256.425 -180.062 256.125 C-178.96 255.963 -177.858 255.8 -176.723 255.633 C-176.273 255.528 -176.273 255.528 -174 255 C-173.67 254.34 -173.34 253.68 -173 253 C-175.441 253 -177.663 253.426 -180.062 253.875 Z M-91 258 C-87 259 -87 259 -87 259 Z M-145 270 C-145 270.33 -145 270.66 -145 271 C-142.69 271 -140.38 271 -138 271 C-138 270.67 -138 270.34 -138 270 C-140.31 270 -142.62 270 -145 270 Z M-111 273 C-107 274 -107 274 -107 274 Z " fill="#000000" transform="translate(962,427)"/>
<path d="M0 0 C0.402 0.01 0.402 0.01 2.438 0.062 C1.778 1.712 1.117 3.363 0.438 5.062 C-6.918 5.77 -14.172 6.21 -21.562 6.062 C-18.103 3.756 -14.943 3.211 -10.938 2.5 C-7.188 1.82 -3.523 0.086 0 0 Z " fill="#000000" transform="translate(929.5625,441.9375)"/>
<path d="M0 0 C0.99 0.33 1.98 0.66 3 1 C2 3.875 2 3.875 0 7 C-2.689 8.146 -5.082 8.522 -8 9 C-6.408 4.7 -3.645 2.603 0 0 Z " fill="#000000" transform="translate(706,453)"/>
<path d="M0 0 C4.026 1.342 4.883 3.423 7 7 C7 7.66 7 8.32 7 9 C3.601 7.867 2.947 6.875 1 4 C0.34 5.98 -0.32 7.96 -1 10 C-2.98 10.33 -4.96 10.66 -7 11 C-4.791 7.244 -2.436 3.612 0 0 Z " fill="#000000" transform="translate(787,455)"/>
<path d="M0 0 C4.75 1.875 4.75 1.875 7 3 C7 3.99 7 4.98 7 6 C5.35 6.66 3.7 7.32 2 8 C1.01 5.69 0.02 3.38 -1 1 C-0.67 0.67 -0.34 0.34 0 0 Z " fill="#000000" transform="translate(737,465)"/>
<path d="M0 0 C3 1 3 1 4.625 4.125 C7.218 9.057 11.526 11.855 16 15 C15.01 15.33 14.02 15.66 13 16 C7.27 13.027 3.285 8.441 0 3 C0 2.01 0 1.02 0 0 Z " fill="#000000" transform="translate(735,478)"/>
<path d="M0 0 C0 0.99 0 1.98 0 3 C-2.238 4.945 -2.238 4.945 -5.312 7.125 C-6.411 7.926 -7.509 8.728 -8.605 9.531 C-9.168 9.94 -9.73 10.349 -10.31 10.77 C-23.295 20.224 -23.295 20.224 -24.688 25.062 C-24.791 26.032 -24.894 27.001 -25 28 C-25.66 28 -26.32 28 -27 28 C-27.938 25.438 -27.938 25.438 -28 22 C-24.807 17.595 -20.249 14.33 -16 11 C-15.711 10.69 -15.711 10.69 -14.246 9.121 C-11.62 6.641 -8.892 5.026 -5.75 3.25 C-4.672 2.636 -3.595 2.023 -2.484 1.391 C-1.665 0.932 -0.845 0.473 0 0 Z " fill="#000000" transform="translate(732,480)"/>
<path d="M0 0 C-1.412 0.986 -2.83 1.964 -4.25 2.938 C-4.644 3.21 -4.644 3.21 -6.641 4.59 C-8.826 5.896 -10.515 6.55 -13 7 C-12.67 7.99 -12.34 8.98 -12 10 C-13.274 11.713 -14.614 13.377 -16 15 C-16.709 16.311 -17.395 17.638 -18 19 C-19.324 16.352 -18.729 15.455 -17.812 12.688 C-15.639 6.66 -13.281 3.419 -7.438 0.625 C-3.433 -1.144 -3.433 -1.144 0 0 Z " fill="#000000" transform="translate(713,490)"/>
<path d="M0 0 C0.99 0.33 1.98 0.66 3 1 C4.684 5.968 5.632 9.87 4 15 C2.68 16.32 1.36 17.64 0 19 C0 12.73 0 6.46 0 0 Z " fill="#000000" transform="translate(766,490)"/>
<path d="M0 0 C0.639 0.763 1.279 1.526 1.938 2.312 C7.193 7.453 13.718 8.19 20.828 8.188 C23.302 8.14 25.776 8.077 28.25 8 C30.734 7.923 33.218 7.86 35.703 7.812 C36.793 7.778 37.882 7.743 39.005 7.707 C42.446 8.044 44.176 9.061 47 11 C48.803 11.89 50.606 12.78 52.418 13.652 C59.95 17.281 66.859 21.339 73.719 26.117 C77.523 28.3 80.735 29.061 85 30 C86.803 31.803 86.464 34.495 86.688 36.938 C86.794 38.019 86.901 39.101 87.012 40.215 C87 43 87 43 85 45 C81.226 46.429 77.225 46.111 73.25 46.062 C72.901 46.06 72.901 46.06 71.137 46.049 C69.424 46.037 67.712 46.019 66 46 C66.66 45.01 67.32 44.02 68 43 C60.41 43.33 52.82 43.66 45 44 C45 43.01 45 42.02 45 41 C44.269 40.729 43.538 40.459 42.785 40.18 C36.99 37.725 31.019 33.893 27 29 C27 28.34 27 27.68 27 27 C25.35 26.67 23.7 26.34 22 26 C24.349 23.651 25.957 23.269 29.125 22.375 C30.035 22.115 30.945 21.854 31.883 21.586 C32.581 21.393 33.28 21.199 34 21 C33.274 20.688 32.548 20.375 31.8 20.054 C28.489 18.625 25.182 17.188 21.875 15.75 C20.733 15.259 19.591 14.768 18.414 14.262 C12.929 11.87 7.829 9.542 3 6 C1.681 5.306 0.354 4.625 -1 4 C-1.33 5.32 -1.66 6.64 -2 8 C-1.404 8.092 -0.809 8.183 -0.195 8.277 C2.526 9.173 3.391 10.316 5.125 12.562 C6.633 14.504 6.633 14.504 8 16 C8.66 16 9.32 16 10 16 C9.67 16.99 9.34 17.98 9 19 C6.118 17.664 3.747 16.164 1.312 14.125 C0.711 13.633 0.109 13.14 -0.512 12.633 C-2.205 10.775 -2.602 9.453 -3 7 C-4.32 7 -5.64 7 -7 7 C-5.547 3.171 -3.571 1.879 0 0 Z M31 28 C35.561 33.538 41.585 36.023 48 39 C48 38.01 48 37.02 48 36 C47.34 36 46.68 36 46 36 C46 35.34 46 34.68 46 34 C46.66 33.67 47.32 33.34 48 33 C42.381 31.049 36.789 29.368 31 28 Z " fill="#000000" transform="translate(666,507)"/>
<path d="M0 0 C2.494 1.204 4.681 2.454 7 4 C7 4.66 7 5.32 7 6 C6.492 6.219 6.492 6.219 3.922 7.328 C-6.423 12.011 -13.52 17.518 -21 26 C-21.652 26.713 -22.305 27.426 -22.977 28.16 C-24.697 30.073 -26.356 32.021 -28 34 C-28.718 34.864 -29.436 35.727 -30.176 36.617 C-34.886 42.333 -39.489 48.125 -44 54 C-39.995 54 -37.607 53.321 -33.875 52 C-28.194 50 -28.194 50 -26 50 C-26.356 52.684 -26.879 53.872 -28.766 55.859 C-36.444 61.703 -44.535 64.728 -53.543 67.984 C-58.749 69.873 -63.82 71.992 -68.875 74.25 C-69.593 74.567 -70.311 74.884 -71.051 75.211 C-75.533 77.228 -79.767 79.502 -84 82 C-82.697 79.122 -81.323 77.082 -79.07 74.875 C-78.479 74.29 -77.887 73.705 -77.278 73.103 C-76.958 72.791 -76.958 72.791 -75.34 71.215 C-74.676 70.559 -74.012 69.902 -73.328 69.226 C-70.497 66.428 -67.655 63.642 -64.814 60.855 C-57.437 53.608 -50.259 46.444 -43.846 38.318 C-41.25 35.059 -38.448 32.065 -35.5 29.125 C-35.209 28.835 -35.209 28.835 -33.739 27.365 C-27.306 21.093 -20.174 15.81 -12.964 10.477 C-8.521 7.136 -4.264 3.564 0 0 Z " fill="#000000" transform="translate(655,514)"/>
<path d="M0 0 C1 6.625 1 6.625 1 10 C1.678 9.893 2.356 9.786 3.055 9.676 C8.295 9.001 12.334 8.832 17.375 10.562 C21.742 12.05 21.742 12.05 24.562 11.5 C24.965 11.253 24.965 11.253 27 10 C27.723 9.62 28.446 9.239 29.191 8.848 C32.917 6.88 36.132 5.133 39 2 C39.33 2.165 39.33 2.165 41 3 C39.898 4.44 38.794 5.877 37.688 7.312 C37.073 8.113 36.458 8.914 35.824 9.738 C29.392 17.713 20.056 19.735 10.551 22.656 C5.89 24.42 2.302 26.865 -1.438 30.125 C-4 32 -4 32 -7.75 33.062 C-8.822 33.372 -9.895 33.681 -11 34 C-11.33 34.99 -11.66 35.98 -12 37 C-12.737 37.031 -13.475 37.062 -14.234 37.094 C-18.156 38.379 -19.354 41.066 -21.25 44.5 C-21.942 45.698 -22.635 46.896 -23.328 48.094 C-23.88 49.053 -24.432 50.012 -25 51 C-25.33 51.33 -25.66 51.66 -26 52 C-12.187 55.221 3.908 53.505 16 46 C16.705 45.446 17.41 44.891 18.137 44.32 C20 43 20 43 22.25 43.312 C22.827 43.539 23.405 43.766 24 44 C21.197 46.365 18.309 48.543 15.25 50.562 C14.657 50.956 14.064 51.349 13.453 51.754 C5.801 55.641 -1.045 56.428 -9.562 56.25 C-10.552 56.245 -11.541 56.24 -12.561 56.234 C-18.12 56.175 -23.5 55.811 -29 55 C-29.547 56.17 -30.093 57.341 -30.656 58.547 C-32.82 62.872 -35.5 66.479 -38.5 70.25 C-45.516 79.337 -51.28 89.064 -57 99 C-57.429 99.743 -57.859 100.486 -58.301 101.251 C-60.555 105.156 -62.788 109.071 -65 113 C-65.33 113 -65.66 113 -66 113 C-65.715 109.328 -65.367 105.665 -65 102 C-64.901 100.928 -64.801 99.855 -64.699 98.75 C-63.183 85.514 -59.264 72.603 -51 62 C-50.34 61.01 -49.68 60.02 -49 59 C-49.547 59.082 -49.547 59.082 -52.312 59.5 C-56 60 -56 60 -59 60 C-60.929 60.703 -60.929 60.703 -63.09 61.68 C-63.874 62.032 -64.659 62.384 -65.467 62.746 C-66.282 63.119 -67.097 63.491 -67.938 63.875 C-68.749 64.24 -69.56 64.605 -70.396 64.98 C-73.966 66.591 -77.506 68.232 -81 70 C-81 70.99 -81 71.98 -81 73 C-77.7 73.33 -74.4 73.66 -71 74 C-74 76 -74 76 -77.562 77.625 C-84.133 80.85 -89.938 85.742 -95 91 C-95.66 90.67 -96.32 90.34 -97 90 C-96.116 89.063 -95.231 88.126 -94.32 87.16 C-90.498 82.699 -88.254 77.769 -85.875 72.438 C-83.257 66.653 -80.725 61.159 -77 56 C-86.488 55.667 -94.872 56.025 -104.109 58.441 C-106.905 58.982 -108.365 58.966 -111 58 C-101.92 48.962 -91.912 42.874 -80.102 37.941 C-76.89 36.503 -73.882 34.73 -70.848 32.953 C-69 32 -69 32 -67 32 C-67.33 32.99 -67.66 33.98 -68 35 C-67.67 35.165 -67.67 35.165 -66 36 C-66 36.99 -66 37.98 -66 39 C-61.123 39.348 -58.229 38.417 -54 36 C-55.32 35.67 -56.64 35.34 -58 35 C-51.743 32.226 -45.763 29.724 -39.02 28.473 C-37 28 -37 28 -33.375 26.312 C-29.425 24.776 -27.084 25.083 -23 26 C-23.99 22.7 -24.98 19.4 -26 16 C-24.536 15.464 -23.071 14.928 -21.562 14.375 C-19.059 13.273 -19.059 13.273 -17 12 C-16.125 9 -16.125 9 -16 6 C-14.336 2.672 -13.221 2.083 -9.688 0.75 C-6.322 0.066 -3.418 -0.167 0 0 Z M-28 27 C-28.99 27.99 -29.98 28.98 -31 30 C-28.69 31.65 -26.38 33.3 -24 35 C-25.125 32.028 -26.223 29.666 -28 27 Z M-59 44 C-58 46 -58 46 -58 46 Z M-81 52 C-81 52.33 -81 52.66 -81 53 C-79.35 53 -77.7 53 -76 53 C-76 52.67 -76 52.34 -76 52 C-77.65 52 -79.3 52 -81 52 Z M-49 74 C-48 76 -48 76 -48 76 Z " fill="#000000" transform="translate(781,527)"/>
<path d="M0 0 C5.165 0.66 10.269 1.792 15 4 C15 4.66 15 5.32 15 6 C4.442 5.036 4.442 5.036 0 4 C-0.33 3.01 -0.66 2.02 -1 1 C-0.67 0.67 -0.34 0.34 0 0 Z " fill="#000000" transform="translate(754,685)"/>
<path d="M0 0 C0.53 0.097 0.53 0.097 3.211 0.59 C4.008 0.746 4.804 0.902 5.625 1.062 C6.625 4.062 6.625 4.062 7.062 6.062 C7.625 8.062 7.625 8.062 9.625 11.062 C9.058 11.197 9.058 11.197 6.188 11.875 C5.012 12.267 3.836 12.659 2.625 13.062 C2.295 14.053 1.965 15.043 1.625 16.062 C-3.313 18.408 -8.039 18.276 -13.375 18.062 C-13.375 17.403 -13.375 16.742 -13.375 16.062 C-10.075 16.062 -6.775 16.062 -3.375 16.062 C-3.375 15.403 -3.375 14.742 -3.375 14.062 C-4.592 14.145 -5.809 14.227 -7.062 14.312 C-11.437 14.328 -13.074 12.94 -16.375 10.062 C-18.692 9.176 -20.951 8.633 -23.375 8.062 C-23.045 7.072 -22.715 6.082 -22.375 5.062 C-20.389 4.356 -18.387 3.694 -16.375 3.062 C-15.715 2.547 -15.055 2.031 -14.375 1.5 C-9.964 -1.67 -5.084 -0.96 0 0 Z M-9.375 4.062 C-11.375 7.062 -11.375 7.062 -11.375 10.062 C-9.395 9.732 -7.415 9.403 -5.375 9.062 C-5.688 7.125 -5.688 7.125 -6.375 5.062 C-7.365 4.732 -8.355 4.403 -9.375 4.062 Z " fill="#000000" transform="translate(987.375,685.9375)"/>
<path d="M0 0 C7.121 -0.129 14.09 0.148 21 2 C15.744 5.504 11.189 5.114 5.125 4.062 C3.973 3.868 2.82 3.673 1.633 3.473 C1.198 3.395 1.198 3.395 -1 3 C-0.67 2.01 -0.34 1.02 0 0 Z " fill="#000000" transform="translate(1069,693)"/>
<path d="M0 0 C4.64 1.077 4.64 1.077 6.5 3.812 C6.5 4.472 6.5 5.133 6.5 5.812 C7.175 5.789 7.851 5.766 8.547 5.742 C8.993 5.733 8.993 5.733 11.25 5.688 C11.691 5.676 11.691 5.676 13.922 5.617 C16.614 5.821 18.199 6.447 20.5 7.812 C20.5 8.472 20.5 9.133 20.5 9.812 C17.833 9.812 15.167 9.812 12.5 9.812 C15.553 11.339 18.258 10.65 21.625 10.375 C22.906 10.273 24.188 10.171 25.508 10.066 C26.002 10.025 26.002 10.025 28.5 9.812 C26.671 14.017 24.762 15.058 20.5 16.812 C15.918 18.175 11.237 17.905 6.5 17.812 C6.335 17.317 6.335 17.317 5.5 14.812 C5.83 14.153 6.16 13.492 6.5 12.812 C5.51 12.482 4.52 12.153 3.5 11.812 C3.83 10.822 4.16 9.832 4.5 8.812 C3.84 8.812 3.18 8.812 2.5 8.812 C2.5 9.472 2.5 10.133 2.5 10.812 C-11.068 12.164 -11.068 12.164 -14.5 11.812 C-15.16 10.822 -15.82 9.832 -16.5 8.812 C-20.984 7.318 -25.825 7.721 -30.5 7.812 C-30.83 7.153 -31.16 6.492 -31.5 5.812 C-24.521 2.323 -17.636 3.598 -10.5 5.812 C-9.84 6.472 -9.18 7.133 -8.5 7.812 C-7.84 7.482 -7.18 7.153 -6.5 6.812 C-4.5 7.146 -2.5 7.479 -0.5 7.812 C0.16 7.482 0.82 7.153 1.5 6.812 C1.5 5.822 1.5 4.832 1.5 3.812 C0.551 3.854 -0.398 3.895 -1.375 3.938 C-4.5 3.812 -4.5 3.812 -6.5 1.812 C-3.5 -0.188 -3.5 -0.188 0 0 Z " fill="#000000" transform="translate(910.5,692.1875)"/>
<path d="M0 0 C1.312 2.062 1.312 2.062 2 4 C-4.75 5.125 -4.75 5.125 -7 4 C-7 3.34 -7 2.68 -7 2 C-7.66 2 -8.32 2 -9 2 C-8.67 2.825 -8.67 2.825 -7 7 C-9.375 7.625 -9.375 7.625 -12 8 C-12.66 7.34 -13.32 6.68 -14 6 C-15.848 5.988 -15.848 5.988 -18.062 6.312 C-18.862 6.422 -19.661 6.532 -20.484 6.645 C-21.315 6.762 -22.145 6.879 -23 7 C-24.604 7.171 -26.208 7.338 -27.812 7.5 C-30.628 7.787 -33.267 8.263 -36 9 C-36 9.66 -36 10.32 -36 11 C-35.34 11 -34.68 11 -34 11 C-34 11.66 -34 12.32 -34 13 C-33.175 13.33 -33.175 13.33 -29 15 C-29.33 15.66 -29.66 16.32 -30 17 C-36.75 17.125 -36.75 17.125 -39 16 C-39.382 16.082 -39.382 16.082 -41.312 16.5 C-44.218 17.041 -46.162 16.73 -49 16 C-49 15.34 -49 14.68 -49 14 C-51.31 14 -53.62 14 -56 14 C-56.33 13.01 -56.66 12.02 -57 11 C-58.32 11.33 -59.64 11.66 -61 12 C-59.68 12.33 -58.36 12.66 -57 13 C-57.33 13.99 -57.66 14.98 -58 16 C-59.98 16 -61.96 16 -64 16 C-64 15.01 -64 14.02 -64 13 C-64.66 12.753 -65.32 12.505 -66 12.25 C-69.764 10.682 -73.371 8.855 -77 7 C-77 6.67 -77 6.34 -77 6 C-74.625 5.831 -72.25 5.665 -69.875 5.5 C-69.21 5.452 -68.545 5.405 -67.859 5.355 C-56.782 4.595 -56.782 4.595 -52 7 C-49.614 7.314 -47.214 7.536 -44.812 7.688 C-43.561 7.774 -42.309 7.86 -41.02 7.949 C-40.521 7.958 -40.521 7.958 -38 8 C-37.67 7.67 -37.34 7.34 -37 7 C-37.66 6.67 -38.32 6.34 -39 6 C-38.375 4.125 -38.375 4.125 -37 2 C-25.442 -2.579 -12.009 -3.138 0 0 Z " fill="#000000" transform="translate(1072,700)"/>
<path d="M0 0 C0.371 0.309 0.371 0.309 2.25 1.875 C4.488 3.604 6.437 4.861 9 6 C9 6.66 9 7.32 9 8 C10.155 7.835 10.155 7.835 16 7 C15.67 7.99 15.34 8.98 15 10 C9.962 12.099 6.385 11.947 1.059 11.156 C-1.676 10.949 -3.489 11.97 -6 13 C-13.173 13 -17.37 10.262 -23 6 C-22.67 5.01 -22.34 4.02 -22 3 C-20.35 2.67 -18.7 2.34 -17 2 C-17 2.66 -17 3.32 -17 4 C-15.02 4 -13.04 4 -11 4 C-10.67 3.34 -10.34 2.68 -10 2 C-7.969 1.621 -7.969 1.621 -5.5 1.438 C-1.096 1.096 -1.096 1.096 0 0 Z " fill="#000000" transform="translate(965,698)"/>
<path d="M0 0 C4.29 0 8.58 0 13 0 C13.66 1.32 14.32 2.64 15 4 C9.848 4.09 5.081 3.847 0 3 C0 2.01 0 1.02 0 0 Z " fill="#000000" transform="translate(1072,705)"/>
<path d="M0 0 C0.358 0.188 0.358 0.188 2.172 1.137 C2.172 3.137 2.172 3.137 0.672 4.762 C0.177 5.215 -0.318 5.669 -0.828 6.137 C-0.065 6.26 0.698 6.384 1.484 6.512 C4.172 7.137 4.172 7.137 7.172 9.137 C3.826 12.115 3.826 12.115 0.91 12.211 C0.11 12.083 -0.691 11.956 -1.516 11.824 C-5.022 11.34 -8.35 11.075 -11.891 11.137 C-13.19 11.137 -14.489 11.137 -15.828 11.137 C-16.158 10.807 -16.488 10.477 -16.828 10.137 C-20.164 10.064 -23.488 10.141 -26.824 10.199 C-29.828 10.137 -29.828 10.137 -31.828 9.137 C-31.828 8.477 -31.828 7.817 -31.828 7.137 C-31.284 7.057 -31.284 7.057 -28.531 6.656 C-20.198 5.358 -12.944 3.806 -5.344 -0.07 C-2.828 -0.863 -2.828 -0.863 0 0 Z " fill="#000000" transform="translate(940.828125,706.86328125)"/>
<path d="M0 0 C1.485 0.396 2.963 0.818 4.438 1.25 C5.261 1.482 6.085 1.714 6.934 1.953 C9 3 9 3 9.785 5.109 C9.856 5.733 9.927 6.357 10 7 C6.206 9.53 4.143 9.173 -0.375 9.062 C-7.541 8.9 -7.541 8.9 -10.832 9.617 C-11.547 9.744 -12.263 9.87 -13 10 C-15.312 8.062 -15.312 8.062 -17 6 C-13.911 5.182 -12.147 4.963 -9 5.75 C-6 6 -6 6 -3.188 3.625 C-2.466 2.759 -1.744 1.893 -1 1 C-0.67 0.67 -0.34 0.34 0 0 Z " fill="#000000" transform="translate(1061,709)"/>
<path d="M0 0 C0.66 0 1.32 0 2 0 C2.66 1.98 3.32 3.96 4 6 C3.392 5.99 3.392 5.99 0.312 5.938 C-1.901 6.179 -1.901 6.179 -4 7 C-5.515 9.073 -5.515 9.073 -6.77 11.566 C-6.982 11.979 -6.982 11.979 -8.058 14.069 C-8.213 14.387 -8.213 14.387 -9 16 C-12.75 16.029 -16.5 16.047 -20.25 16.062 C-20.782 16.067 -20.782 16.067 -23.473 16.088 C-24.497 16.091 -25.522 16.094 -26.578 16.098 C-27.049 16.1 -27.049 16.1 -29.435 16.114 C-31.781 16.01 -33.756 15.667 -36 15 C-35.67 14.01 -35.34 13.02 -35 12 C-34.131 12.035 -33.262 12.07 -32.367 12.105 C-20.55 12.383 -20.55 12.383 -16 9 C-15.443 8.175 -14.886 7.35 -14.312 6.5 C-11.121 3.05 -7.857 2.602 -3.363 1.578 C-1 1 -1 1 0 0 Z " fill="#000000" transform="translate(868,711)"/>
<path d="M0 0 C3.833 -0.029 7.667 -0.047 11.5 -0.062 C12.578 -0.071 13.655 -0.079 14.766 -0.088 C20.613 -0.106 26.219 0.109 32 1 C31.67 1.66 31.34 2.32 31 3 C22.535 5.617 11.004 7.045 2.688 3.5 C1.801 3.005 0.914 2.51 0 2 C0 1.34 0 0.68 0 0 Z " fill="#000000" transform="translate(874,716)"/>
<path d="M0 0 C0.66 0.99 1.32 1.98 2 3 C0.126 3.482 -1.749 3.961 -3.625 4.438 C-4.669 4.704 -5.713 4.971 -6.789 5.246 C-9.849 5.965 -12.895 6.52 -16 7 C-16.33 5.35 -16.66 3.7 -17 2 C-16.687 1.97 -16.687 1.97 -15.102 1.816 C-14.693 1.775 -14.693 1.775 -12.625 1.562 C-11.813 1.481 -11.001 1.4 -10.164 1.316 C-0.739 -0.062 -0.739 -0.062 0 0 Z " fill="#000000" transform="translate(951,719)"/>
<path d="M0 0 C4.53 1.049 9.157 1.491 13.77 2.043 C14.239 2.136 14.239 2.136 16.613 2.605 C16.778 2.935 16.778 2.935 17.613 4.605 C13.653 4.605 9.693 4.605 5.613 4.605 C5.613 5.595 5.613 6.585 5.613 7.605 C-0.698 8.8 -6.741 8.552 -13.137 8.23 C-14.177 8.187 -15.217 8.143 -16.289 8.098 C-23.985 7.739 -23.985 7.739 -27.387 6.605 C-27.387 5.945 -27.387 5.285 -27.387 4.605 C-26.954 4.657 -26.954 4.657 -24.762 4.918 C-20.875 4.558 -19.861 3.347 -17.074 0.793 C-12.031 -2.756 -5.577 -1.476 0 0 Z " fill="#000000" transform="translate(990.38671875,719.39453125)"/>
<path d="M0 0 C2.516 0.836 2.516 0.836 8.516 -0.164 C9.176 7.756 9.836 15.676 10.516 23.836 C9.856 23.836 9.196 23.836 8.516 23.836 C8.213 22.967 7.91 22.098 7.598 21.203 C4.014 11.346 1.102 5.542 -8.484 0.836 C-15.742 -1.552 -25.798 -1.433 -32.801 1.715 C-36.949 4.477 -39.916 8.132 -41.484 12.836 C-42.018 19.128 -41.406 23.747 -37.484 28.836 C-30.852 33.806 -23.14 36.824 -15.484 39.836 C8.943 49.446 8.943 49.446 14.68 61.227 C17.116 68.832 15.929 76.597 12.633 83.723 C8.686 91.189 2.117 95.216 -5.746 97.984 C-18.879 100.976 -31.226 98.931 -43.484 93.836 C-44.446 93.452 -45.408 93.068 -46.398 92.672 C-47.087 92.396 -47.775 92.12 -48.484 91.836 C-48.814 92.826 -49.144 93.816 -49.484 94.836 C-49.814 94.836 -50.144 94.836 -50.484 94.836 C-50.824 92.024 -51.156 89.212 -51.484 86.398 C-51.58 85.615 -51.675 84.832 -51.773 84.025 C-52.399 78.592 -52.572 73.305 -52.484 67.836 C-50.484 68.836 -50.484 68.836 -49.59 71.059 C-49.438 71.527 -49.438 71.527 -48.672 73.898 C-45.777 82.103 -42.45 88.721 -34.484 92.836 C-25.706 96.675 -15.683 97.371 -6.484 94.586 C-1.013 92.405 2.193 89.912 4.828 84.586 C7.207 78.653 7.573 73.727 5.016 67.711 C0.762 60.312 -6.815 56.925 -14.484 53.961 C-20.887 51.373 -27.176 48.664 -33.359 45.586 C-33.683 45.427 -33.683 45.427 -35.32 44.625 C-42.911 40.796 -47.164 36.831 -50.234 28.898 C-51.181 21.092 -50.454 14.274 -46.008 7.629 C-34.874 -6.072 -15.336 -7.186 0 0 Z " fill="#000000" transform="translate(778.484375,768.1640625)"/>
<path d="M0 0 C1.402 1.198 2.779 2.426 4.125 3.688 C4.739 4.26 5.352 4.832 5.984 5.422 C15.668 15.449 19.924 28.381 20.438 42.062 C20.096 56.162 15.023 68.361 5.387 78.621 C-8.324 91.148 -23.525 93.496 -41.332 92.862 C-53.232 92.044 -66.108 85.686 -74.215 76.902 C-83.871 64.02 -88.28 50.007 -86.441 33.887 C-83.548 18.931 -76.45 7.142 -63.832 -1.523 C-44.435 -13.259 -18.686 -13.919 0 0 Z M-63.625 5.375 C-73.325 17.253 -76.316 33.715 -74.875 48.688 C-72.596 62.894 -67.365 75.012 -55.934 84.258 C-46.062 90.918 -34.685 92.162 -23.074 90.219 C-12.391 87.427 -4.27 80.651 1.562 71.41 C9.383 57.05 10.387 39.394 6.152 23.742 C2.396 12.573 -3.359 3.008 -13.824 -3.008 C-31.131 -11.095 -50.257 -8.715 -63.625 5.375 Z " fill="#000000" transform="translate(1219.875,774.3125)"/>
<path d="M0 0 C10.89 0 21.78 0 33 0 C33 0.66 33 1.32 33 2 C30.982 2.423 28.964 2.846 26.945 3.27 C25 4 25 4 23 7 C22.759 9.221 22.759 9.221 22.773 11.839 C22.773 12.819 22.773 13.8 22.773 14.811 C22.784 15.867 22.794 16.923 22.805 18.012 C22.806 18.553 22.806 18.553 22.813 21.295 C22.824 24.759 22.85 28.223 22.875 31.688 C22.885 34.035 22.894 36.382 22.902 38.729 C22.924 44.486 22.958 50.243 23 56 C23.33 55.577 23.33 55.577 25 53.438 C27.681 50.215 30.692 47.571 33.874 44.853 C37.531 41.666 40.956 38.247 44.402 34.836 C45.166 34.081 45.929 33.326 46.715 32.548 C48.312 30.964 49.908 29.379 51.502 27.793 C53.134 26.173 54.77 24.557 56.41 22.946 C58.793 20.607 61.161 18.254 63.527 15.898 C64.263 15.181 64.998 14.463 65.756 13.723 C66.43 13.045 67.105 12.368 67.801 11.669 C68.396 11.08 68.991 10.49 69.605 9.883 C71.281 7.62 71.635 5.765 72 3 C69.69 2.67 67.38 2.34 65 2 C65 1.34 65 0.68 65 0 C73.91 0 82.82 0 92 0 C92 0.66 92 1.32 92 2 C91.674 2.085 91.674 2.085 90.023 2.516 C81.152 4.975 75.873 8.881 69.539 15.488 C67.502 17.504 65.443 19.369 63.273 21.234 C58.632 25.257 54.317 29.572 50 33.938 C49.225 34.717 48.451 35.496 47.652 36.299 C45.766 38.197 43.882 40.097 42 42 C44.474 45.898 46.977 49.188 50.312 52.375 C53.718 55.703 56.903 59.11 60.004 62.719 C63.036 66.184 66.172 69.552 69.307 72.925 C71.877 75.692 74.429 78.47 76.938 81.293 C90.088 96.051 90.088 96.051 101 98 C101 98.66 101 99.32 101 100 C97.937 100.054 94.875 100.094 91.812 100.125 C90.948 100.142 90.084 100.159 89.193 100.176 C83.201 100.222 79.258 99.953 74.57 95.898 C73.763 95.066 72.956 94.233 72.125 93.375 C71.689 92.925 71.689 92.925 69.48 90.648 C66.842 87.831 64.272 84.972 61.758 82.043 C55.769 75.083 49.513 68.354 43.249 61.642 C40.042 58.188 36.99 54.644 34 51 C29.304 53.222 25.67 55.417 23 60 C22.203 64.699 22.199 69.227 22.362 73.98 C22.438 76.193 22.465 78.402 22.482 80.615 C22.674 92.587 22.674 92.587 25 96 C26.945 96.828 26.945 96.828 29.125 97.25 C30.404 97.497 31.683 97.745 33 98 C32.67 98.66 32.34 99.32 32 100 C21.77 100 11.54 100 1 100 C0.67 99.34 0.34 98.68 0 98 C0.638 97.818 1.276 97.636 1.934 97.449 C2.76 97.198 3.586 96.946 4.438 96.688 C5.261 96.444 6.085 96.2 6.934 95.949 C7.616 95.636 8.297 95.323 9 95 C10.242 91.274 10.164 87.802 10.177 83.92 C10.184 83.097 10.19 82.274 10.197 81.426 C10.217 78.702 10.228 75.978 10.238 73.254 C10.242 72.324 10.246 71.394 10.251 70.436 C10.271 65.516 10.286 60.597 10.295 55.677 C10.306 50.592 10.341 45.507 10.38 40.421 C10.406 36.513 10.415 32.606 10.418 28.698 C10.423 26.823 10.435 24.948 10.453 23.073 C10.478 20.451 10.477 17.831 10.47 15.209 C10.483 14.434 10.496 13.658 10.509 12.859 C10.475 9.366 10.279 7.377 8.174 4.534 C5.475 2.629 3.258 2.296 0 2 C0 1.34 0 0.68 0 0 Z " fill="#000000" transform="translate(331,766)"/>
<path d="M0 0 C10.89 0 21.78 0 33 0 C32.67 0.66 32.34 1.32 32 2 C30.866 2.309 29.731 2.619 28.562 2.938 C25 4 25 4 23 7 C22.805 9.763 22.727 12.424 22.741 15.188 C22.738 16.022 22.734 16.856 22.731 17.716 C22.722 20.477 22.728 23.239 22.734 26 C22.733 27.917 22.731 29.833 22.729 31.75 C22.726 35.768 22.73 39.786 22.739 43.805 C22.751 48.96 22.744 54.115 22.732 59.27 C22.725 63.228 22.727 67.186 22.732 71.145 C22.734 73.046 22.732 74.947 22.727 76.848 C22.722 79.503 22.73 82.157 22.741 84.812 C22.737 85.601 22.733 86.39 22.729 87.202 C22.759 91.005 22.838 92.757 25 96 C26.945 96.73 26.945 96.73 29.125 97.188 C29.764 97.322 29.764 97.322 33 98 C32.67 98.66 32.34 99.32 32 100 C21.44 100 10.88 100 0 100 C0 99.34 0 98.68 0 98 C0.638 97.83 1.276 97.66 1.934 97.484 C2.76 97.242 3.586 97 4.438 96.75 C5.261 96.518 6.085 96.286 6.934 96.047 C9 95 9 95 9.62 93.435 C10.163 89.956 10.147 86.502 10.145 82.99 C10.149 82.187 10.152 81.383 10.155 80.555 C10.165 77.901 10.167 75.247 10.168 72.594 C10.171 70.748 10.175 68.903 10.178 67.057 C10.184 63.19 10.186 59.323 10.185 55.457 C10.185 50.5 10.199 45.543 10.216 40.587 C10.227 36.776 10.229 32.966 10.229 29.155 C10.23 27.327 10.234 25.5 10.242 23.672 C10.252 21.118 10.249 18.564 10.243 16.01 C10.246 15.632 10.246 15.632 10.26 13.721 C10.238 10.024 10.193 7.074 8 4 C6.055 3.172 6.055 3.172 3.875 2.75 C2.596 2.503 1.317 2.255 0 2 C0 1.34 0 0.68 0 0 Z " fill="#000000" transform="translate(461,766)"/>
<path d="M0 0 C7.26 0 14.52 0 22 0 C22.437 0.965 22.437 0.965 24.648 5.848 C31.963 21.985 39.328 38.099 46.75 54.188 C46.946 54.612 46.946 54.612 47.935 56.759 C49.055 59.188 50.176 61.615 51.297 64.043 C51.628 64.76 51.958 65.478 52.299 66.217 C54.132 70.18 56.025 74.104 58 78 C58.376 77.168 58.752 76.336 59.139 75.479 C67.512 56.958 76 38.497 84.66 20.109 C87.809 13.422 90.911 6.715 94 0 C100.93 0 107.86 0 115 0 C115 0.66 115 1.32 115 2 C112.982 2.391 110.964 2.781 108.945 3.172 C107 4 107 4 105.893 5.764 C104.907 8.232 104.756 9.952 104.77 12.602 C104.771 13.546 104.772 14.49 104.773 15.463 C104.786 16.506 104.799 17.55 104.812 18.625 C104.816 19.179 104.816 19.179 104.834 21.982 C104.935 33.156 105.185 44.329 105.438 55.5 C105.457 56.382 105.476 57.264 105.496 58.173 C105.612 63.281 105.756 68.388 105.926 73.495 C106.002 76.057 106.043 78.617 106.083 81.18 C106.128 82.818 106.175 84.456 106.223 86.094 C106.224 86.471 106.224 86.471 106.234 88.38 C106.313 90.49 106.313 90.49 107 94 C109.821 96.29 112.444 97.342 116 98 C116 98.66 116 99.32 116 100 C105.44 100 94.88 100 84 100 C83.67 99.34 83.34 98.68 83 98 C84.65 97.67 84.65 97.67 93 96 C94.167 89.646 94.054 83.467 93.914 77.023 C93.893 75.862 93.872 74.701 93.85 73.505 C93.804 71.046 93.755 68.586 93.703 66.127 C93.626 62.436 93.558 58.746 93.492 55.055 C93.226 41.022 92.767 27.015 92 13 C89.186 19.062 86.374 25.125 83.562 31.188 C83.139 32.1 82.716 33.012 82.28 33.952 C75.238 49.142 68.232 64.348 61.258 79.569 C60.917 80.312 60.577 81.055 60.226 81.82 C59.594 83.197 58.963 84.575 58.333 85.953 C56.938 88.995 55.523 92.02 54 95 C50.665 91.922 49.152 88.324 47.367 84.223 C47.018 83.436 46.668 82.649 46.308 81.838 C45.552 80.136 44.8 78.433 44.049 76.729 C42.059 72.21 40.046 67.7 38.031 63.191 C37.619 62.268 37.206 61.344 36.782 60.392 C32.442 50.7 27.929 41.093 23.375 31.5 C23 30.71 22.625 29.919 22.239 29.105 C20.164 24.734 18.085 20.366 16 16 C14.622 18.757 14.782 21.071 14.684 24.156 C14.662 24.813 14.662 24.813 14.555 28.136 C14.515 29.591 14.476 31.045 14.438 32.5 C14.418 33.233 14.398 33.967 14.378 34.722 C14.253 39.587 14.148 44.452 14.053 49.317 C14.017 51.146 13.979 52.975 13.939 54.804 C13.813 60.573 13.717 66.341 13.659 72.111 C13.636 73.994 13.605 75.878 13.565 77.761 C13.512 80.412 13.49 83.063 13.477 85.715 C13.454 86.51 13.431 87.306 13.408 88.125 C13.417 90.344 13.417 90.344 14 94 C17.115 96.61 20.011 97.43 24 98 C23.67 98.66 23.34 99.32 23 100 C15.08 100 7.16 100 -1 100 C-1 99.34 -1 98.68 -1 98 C-0.434 97.807 0.132 97.613 0.715 97.414 C1.082 97.284 1.082 97.284 2.938 96.625 C3.668 96.37 4.399 96.115 5.152 95.852 C7 95 7 95 8 93 C9.233 85.141 9.288 77.106 9.535 69.172 C9.578 67.865 9.621 66.559 9.665 65.212 C9.756 62.459 9.844 59.706 9.93 56.953 C10.039 53.466 10.154 49.979 10.27 46.492 C10.381 43.115 10.489 39.737 10.598 36.359 C10.638 35.129 10.679 33.898 10.721 32.63 C10.831 29.087 10.921 25.544 11 22 C11.016 21.358 11.016 21.358 11.099 18.11 C11.119 16.856 11.138 15.602 11.158 14.31 C11.179 13.178 11.2 12.047 11.222 10.881 C11 8 11 8 8.875 4.688 C5.811 2.889 3.528 2.246 0 2 C0 1.34 0 0.68 0 0 Z " fill="#000000" transform="translate(529,766)"/>
<path d="M0 0 C10.56 0 21.12 0 32 0 C32 0.66 32 1.32 32 2 C29.36 2.66 26.72 3.32 24 4 C22.354 9.037 21.71 13.532 21.741 18.844 C21.738 19.594 21.734 20.345 21.731 21.118 C21.722 23.579 21.728 26.039 21.734 28.5 C21.733 30.222 21.731 31.944 21.729 33.666 C21.726 37.267 21.73 40.868 21.739 44.469 C21.751 49.072 21.744 53.675 21.732 58.278 C21.725 61.831 21.727 65.385 21.732 68.938 C21.734 70.635 21.732 72.332 21.727 74.029 C21.722 76.405 21.73 78.78 21.741 81.156 C21.737 81.849 21.733 82.543 21.729 83.257 C21.769 87.885 22.576 91.645 24 96 C26.64 96.66 29.28 97.32 32 98 C32 98.66 32 99.32 32 100 C21.44 100 10.88 100 0 100 C0 99.34 0 98.68 0 98 C0.566 97.807 1.132 97.613 1.715 97.414 C2.082 97.284 2.082 97.284 3.938 96.625 C4.668 96.37 5.399 96.115 6.152 95.852 C8 95 8 95 9 93 C9.109 90.27 9.157 87.565 9.161 84.834 C9.164 84.412 9.164 84.412 9.176 82.277 C9.191 79.477 9.198 76.678 9.203 73.879 C9.209 71.938 9.215 69.998 9.22 68.057 C9.231 63.986 9.237 59.915 9.24 55.844 C9.246 50.62 9.27 45.396 9.298 40.173 C9.317 36.164 9.322 32.155 9.324 28.147 C9.327 26.22 9.335 24.294 9.348 22.368 C9.365 19.677 9.363 16.986 9.356 14.295 C9.361 13.895 9.361 13.895 9.384 11.872 C9.344 6.513 9.344 6.513 7.677 4.025 C5.231 2.53 2.816 2.313 0 2 C0 1.34 0 0.68 0 0 Z " fill="#000000" transform="translate(829,766)"/>
<path d="M0 0 C17.1 -1.942 17.1 -1.942 23.098 2.074 C25.199 4.646 27.044 7.252 28.778 10.083 C31.065 13.671 33.762 16.959 36.375 20.312 C37.486 21.772 38.595 23.233 39.703 24.695 C43.266 29.37 46.929 33.959 50.614 38.537 C54.004 42.75 57.356 46.99 60.688 51.25 C64.607 56.257 68.587 61.207 72.637 66.109 C74.825 68.786 76.989 71.48 79.148 74.181 C79.869 75.083 80.59 75.985 81.333 76.914 C81.883 77.602 82.433 78.291 83 79 C83.046 69.812 83.082 60.624 83.104 51.435 C83.114 47.169 83.128 42.903 83.151 38.636 C83.173 34.519 83.185 30.402 83.19 26.284 C83.193 24.714 83.201 23.143 83.211 21.572 C83.226 19.372 83.228 17.172 83.227 14.972 C83.231 13.719 83.236 12.467 83.241 11.176 C83.012 8.162 82.694 6.472 81 4 C79.055 3.172 79.055 3.172 76.875 2.75 C75.596 2.503 74.317 2.255 73 2 C73 1.34 73 0.68 73 0 C80.92 0 88.84 0 97 0 C97 0.66 97 1.32 97 2 C94.03 2.66 91.06 3.32 88 4 C87.67 35.68 87.34 67.36 87 100 C82.237 98.809 80.964 96.833 78.25 93.062 C77.36 91.865 76.47 90.669 75.578 89.473 C75.359 89.176 75.359 89.176 74.252 87.676 C72.556 85.406 70.784 83.201 69 81 C66.012 77.288 63.086 73.532 60.188 69.75 C52.228 59.371 44.126 49.12 35.856 38.986 C31.283 33.372 26.797 27.694 22.34 21.988 C20.244 19.311 18.129 16.651 16 14 C15.208 18.846 14.892 23.449 14.947 28.356 C14.95 28.706 14.95 28.706 14.966 30.473 C14.989 32.758 15.019 35.043 15.051 37.328 C15.07 38.925 15.089 40.522 15.108 42.119 C15.149 45.455 15.194 48.79 15.242 52.125 C15.303 56.401 15.35 60.677 15.393 64.953 C15.428 68.246 15.472 71.538 15.519 74.831 C15.54 76.408 15.558 77.985 15.573 79.563 C15.594 81.762 15.628 83.962 15.665 86.161 C15.673 86.787 15.673 86.787 15.715 89.953 C16 93 16 93 18 96 C19.945 96.73 19.945 96.73 22.125 97.188 C22.764 97.322 22.764 97.322 26 98 C25.67 98.66 25.34 99.32 25 100 C17.08 100 9.16 100 1 100 C0.67 99.34 0.34 98.68 0 98 C0.626 97.865 1.253 97.729 1.898 97.59 C2.716 97.375 3.533 97.159 4.375 96.938 C5.187 96.74 5.999 96.543 6.836 96.34 C9.578 94.642 9.83 93.034 10.614 90.003 C11.254 86.684 11.278 83.382 11.259 80.017 C11.262 79.252 11.266 78.487 11.269 77.698 C11.278 75.191 11.272 72.683 11.266 70.176 C11.267 68.424 11.269 66.673 11.271 64.921 C11.274 61.26 11.27 57.6 11.261 53.939 C11.249 49.248 11.256 44.558 11.268 39.867 C11.275 36.254 11.273 32.642 11.268 29.029 C11.266 27.299 11.268 25.569 11.273 23.839 C11.278 21.424 11.27 19.01 11.259 16.595 C11.263 15.882 11.267 15.168 11.271 14.433 C11.24 10.819 11.117 8.009 9 5 C6.836 3.953 6.836 3.953 4.375 3.25 C3.558 3.008 2.74 2.765 1.898 2.516 C1.272 2.345 0.645 2.175 0 2 C0 1.34 0 0.68 0 0 Z " fill="#000000" transform="translate(895,766)"/>
<path d="M0 0 C26.4 0 52.8 0 80 0 C82.25 11.25 82.25 11.25 82.625 17.125 C82.662 17.683 82.662 17.683 82.852 20.508 C82.901 21.33 82.95 22.153 83 23 C81 22 81 22 80.105 19.672 C79.954 19.19 79.954 19.19 79.188 16.75 C77.542 12.068 76.096 9.024 72 6 C63.561 2.331 55.168 3 46 3 C46.33 33.69 46.66 64.38 47 96 C50.3 96.66 53.6 97.32 57 98 C56.67 98.66 56.34 99.32 56 100 C45.44 100 34.88 100 24 100 C23.835 99.67 23.835 99.67 23 98 C23.638 97.807 24.276 97.613 24.934 97.414 C25.76 97.154 26.586 96.893 27.438 96.625 C28.261 96.37 29.085 96.115 29.934 95.852 C32 95 32 95 33 93 C33.123 90.163 33.186 87.349 33.205 84.511 C33.215 83.633 33.225 82.755 33.235 81.85 C33.267 78.939 33.292 76.028 33.316 73.117 C33.337 71.102 33.358 69.087 33.379 67.072 C33.435 61.762 33.484 56.452 33.532 51.142 C33.582 45.726 33.638 40.31 33.693 34.895 C33.801 24.263 33.902 13.632 34 3 C32.413 2.992 30.826 2.986 29.239 2.981 C28.356 2.978 27.472 2.975 26.561 2.971 C19.665 3.049 12.763 3.857 6.375 6.5 C2.056 11.046 0.406 16.984 -1 23 C-1.66 23 -2.32 23 -3 23 C-2.69 20.104 -2.377 17.208 -2.062 14.312 C-1.975 13.496 -1.888 12.679 -1.799 11.838 C-1.712 11.042 -1.625 10.246 -1.535 9.426 C-1.457 8.698 -1.378 7.97 -1.297 7.22 C-0.973 4.796 -0.48 2.398 0 0 Z " fill="#000000" transform="translate(1024,766)"/>
<path d="M0 0 C16.636 -1.358 16.636 -1.358 21.691 1.547 C23.754 3.907 25.355 6.332 27 9 C28.171 10.53 29.344 12.059 30.539 13.571 C31.835 15.216 33.103 16.878 34.367 18.547 C37.021 22.039 39.723 25.492 42.438 28.938 C42.667 29.229 42.667 29.229 43.828 30.702 C44.758 31.883 45.688 33.063 46.618 34.243 C47.977 35.97 49.331 37.701 50.684 39.434 C56.037 46.283 61.457 53.071 66.97 59.792 C72.414 66.449 77.699 73.23 83 80 C83.046 71.124 83.082 62.249 83.104 53.373 C83.114 49.251 83.128 45.13 83.151 41.008 C83.173 37.027 83.185 33.046 83.19 29.065 C83.193 27.549 83.201 26.034 83.211 24.519 C83.226 22.389 83.228 20.259 83.227 18.129 C83.231 16.918 83.236 15.708 83.241 14.461 C82.98 10.709 82.265 7.54 81 4 C78.836 2.66 78.836 2.66 76.375 2.062 C75.558 1.847 74.74 1.632 73.898 1.41 C73.272 1.275 72.645 1.139 72 1 C72 0.67 72 0.34 72 0 C80.25 0 88.5 0 97 0 C96.67 0.66 96.34 1.32 96 2 C93.667 2.667 91.333 3.333 89 4 C84.734 12.533 86.872 27.535 86.925 37.058 C86.938 39.426 86.944 41.793 86.949 44.161 C86.96 49.17 86.98 54.179 87 59.188 C87.024 65.038 87.044 70.889 87.056 76.739 C87.062 79.064 87.075 81.389 87.088 83.714 C87.091 85.138 87.095 86.561 87.098 87.985 C87.103 89.223 87.108 90.46 87.114 91.735 C87.013 94.626 86.672 97.194 86 100 C81.782 98.461 79.658 95.344 77.062 91.875 C76.087 90.602 75.111 89.33 74.133 88.059 C73.878 87.726 73.878 87.726 72.587 86.042 C69.931 82.625 67.181 79.285 64.438 75.938 C60.018 70.528 55.692 65.062 51.455 59.509 C48.399 55.507 45.273 51.568 42.117 47.645 C38.194 42.745 34.332 37.797 30.458 32.858 C28.96 30.949 27.459 29.04 25.957 27.133 C25.462 26.503 24.967 25.874 24.456 25.226 C23.51 24.023 22.563 22.82 21.616 21.618 C19.376 18.77 17.168 15.903 15 13 C14.954 23.084 14.918 33.167 14.896 43.251 C14.886 47.933 14.872 52.615 14.849 57.298 C14.827 61.817 14.815 66.336 14.81 70.855 C14.807 72.579 14.799 74.303 14.789 76.026 C14.774 78.442 14.772 80.857 14.773 83.272 C14.766 83.984 14.759 84.695 14.751 85.428 C14.768 89.377 15.127 92.491 17 96 C18.945 96.926 18.945 96.926 21.125 97.312 C22.404 97.539 23.682 97.766 25 98 C25 98.66 25 99.32 25 100 C16.75 100 8.5 100 0 100 C0 99.34 0 98.68 0 98 C1.485 97.67 1.485 97.67 9 96 C9.931 91.265 10.154 86.665 10.161 81.855 C10.166 81.061 10.171 80.266 10.176 79.448 C10.191 76.838 10.198 74.228 10.203 71.617 C10.209 69.797 10.215 67.977 10.22 66.156 C10.231 62.348 10.237 58.541 10.24 54.733 C10.246 49.853 10.27 44.972 10.298 40.092 C10.317 36.336 10.322 32.581 10.324 28.825 C10.327 27.025 10.335 25.225 10.348 23.426 C10.365 20.912 10.363 18.4 10.356 15.886 C10.361 15.515 10.361 15.515 10.384 13.635 C10.359 10.547 10.177 8.331 8.708 5.585 C6.153 3.214 3.341 2.756 0 2 C0 1.34 0 0.68 0 0 Z " fill="#000000" transform="translate(1270,766)"/>
<path d="M0 0 C2.64 0 5.28 0 8 0 C8.33 0.66 8.66 1.32 9 2 C8.34 2 7.68 2 7 2 C9.31 7.94 11.62 13.88 14 20 C17.438 11.978 17.438 11.978 16 7 C14.475 3.237 14.475 3.237 12 2 C12 1.34 12 0.68 12 0 C14.64 0 17.28 0 20 0 C20 2.31 20 4.62 20 7 C20.66 7 21.32 7 22 7 C22 5.02 22 3.04 22 1 C23.65 0.67 25.3 0.34 27 0 C27 0.66 27 1.32 27 2 C26.67 2.165 26.67 2.165 25 3 C22.829 6.999 22.82 9.643 24 14 C24.99 15.65 25.98 17.3 27 19 C28.98 13.39 30.96 7.78 33 2 C32.34 2 31.68 2 31 2 C31 1.34 31 0.68 31 0 C32.98 0 34.96 0 37 0 C37.165 0.33 37.165 0.33 38 2 C37.547 2.394 37.094 2.788 36.628 3.195 C34.707 5.325 33.95 7.201 32.957 9.887 C32.606 10.825 32.254 11.762 31.893 12.729 C31.536 13.705 31.18 14.681 30.812 15.688 C30.444 16.676 30.076 17.664 29.697 18.682 C28.791 21.118 27.892 23.558 27 26 C26.01 26 25.02 26 24 26 C22.35 22.37 20.7 18.74 19 15 C17.02 19.29 15.04 23.58 13 28 C10.156 26.578 9.975 24.88 8.836 21.941 C8.436 20.916 8.037 19.891 7.625 18.834 C7.419 18.294 7.419 18.294 6.375 15.562 C6.165 15.025 6.165 15.025 5.102 12.303 C2 4.282 2 4.282 2 2 C1.34 2 0.68 2 0 2 C0 1.34 0 0.68 0 0 Z " fill="#000000" transform="translate(457,919)"/>
<path d="M0 0 C2.979 -0.027 5.958 -0.047 8.938 -0.062 C9.788 -0.071 10.638 -0.079 11.514 -0.088 C12.323 -0.091 13.131 -0.094 13.965 -0.098 C14.714 -0.103 15.463 -0.108 16.234 -0.114 C18 0 18 0 19 1 C19.041 3 19.043 5 19 7 C18.845 6.68 18.845 6.68 18.062 5.062 C14.811 1.811 11.506 2.261 7 2 C7 5.63 7 9.26 7 13 C12.75 11.25 12.75 11.25 15 9 C15 11.97 15 14.94 15 18 C14.34 16.68 13.68 15.36 13 14 C11.02 14 9.04 14 7 14 C7 17.96 7 21.92 7 26 C10.63 25.67 14.26 25.34 18 25 C18.33 23.68 18.66 22.36 19 21 C19.66 21.33 20.32 21.66 21 22 C20.67 23.65 20.34 25.3 20 27 C15.655 28.139 11.614 27.931 7.188 27.562 C6.495 27.51 5.802 27.458 5.088 27.404 C3.391 27.276 1.696 27.139 0 27 C0.66 26.67 1.32 26.34 2 26 C2 18.08 2 10.16 2 2 C1.34 2 0.68 2 0 2 C0 1.34 0 0.68 0 0 Z " fill="#000000" transform="translate(514,919)"/>
<path d="M0 0 C17.095 -0.463 17.095 -0.463 22.875 4.438 C25.931 8.123 26.351 11.189 26.281 15.938 C25.682 20.332 23.114 23.077 19.812 25.812 C13.296 28.564 6.848 28.121 0 27 C0.66 26.67 1.32 26.34 2 26 C2 18.08 2 10.16 2 2 C1.34 2 0.68 2 0 2 C0 1.34 0 0.68 0 0 Z M7 2 C7 9.92 7 17.84 7 26 C15 26 15 26 17.938 24.125 C21.838 20.106 21.325 16.325 21.293 10.93 C20.921 7.209 19.835 5.418 17 3 C15 2 15 2 7 2 Z " fill="#000000" transform="translate(555,919)"/>
<path d="M0 0 C16.989 -0.572 16.989 -0.572 23 4.562 C25.46 8.791 26.289 12.127 26 17 C24.762 20.861 23.438 22.605 20.438 25.312 C13.85 28.546 7.083 28.386 0 27 C0.66 26.67 1.32 26.34 2 26 C2 18.08 2 10.16 2 2 C1.34 2 0.68 2 0 2 C0 1.34 0 0.68 0 0 Z M6 2 C5.971 5.812 5.953 9.625 5.938 13.438 C5.929 14.526 5.921 15.615 5.912 16.736 C5.909 17.771 5.906 18.805 5.902 19.871 C5.897 20.829 5.892 21.788 5.886 22.775 C6 25 6 25 7 26 C14.119 26.712 14.119 26.712 17.938 23.625 C21.628 18.928 21.672 14.849 21 9 C19.689 5.887 18.094 3.547 15 2 C13.46 1.93 11.917 1.915 10.375 1.938 C9.558 1.947 8.74 1.956 7.898 1.965 C7.272 1.976 6.645 1.988 6 2 Z " fill="#000000" transform="translate(602,919)"/>
<path d="M0 0 C2.97 0 5.94 0 9 0 C9 0.66 9 1.32 9 2 C8.67 2.165 8.67 2.165 7 3 C6.942 6.625 6.906 10.25 6.875 13.875 C6.858 14.908 6.841 15.94 6.824 17.004 C6.818 17.99 6.811 18.976 6.805 19.992 C6.794 20.903 6.784 21.815 6.773 22.753 C7 25 7 25 9 27 C5.7 27 2.4 27 -1 27 C-0.01 26.67 0.98 26.34 2 26 C2 18.08 2 10.16 2 2 C1.34 2 0.68 2 0 2 C0 1.34 0 0.68 0 0 Z " fill="#000000" transform="translate(649,919)"/>
<path d="M0 0 C4.596 0.153 6.476 0.47 9.766 3.801 C10.614 4.957 11.442 6.128 12.25 7.312 C12.67 7.895 13.09 8.477 13.523 9.076 C14.698 10.706 15.85 12.353 17 14 C17.99 15.32 18.98 16.64 20 18 C20.33 12.72 20.66 7.44 21 2 C20.34 2 19.68 2 19 2 C19 1.34 19 0.68 19 0 C20.98 0 22.96 0 25 0 C25 0.66 25 1.32 25 2 C24.34 2 23.68 2 23 2 C23 10.25 23 18.5 23 27 C19.206 25.103 18.19 24.332 15.801 21.121 C15.232 20.365 14.663 19.609 14.076 18.83 C13.494 18.041 12.912 17.251 12.312 16.438 C11.142 14.873 9.972 13.31 8.801 11.746 C8.287 11.052 7.773 10.358 7.243 9.642 C6 8 6 8 5 7 C4.946 9.959 4.906 12.916 4.875 15.875 C4.858 16.717 4.841 17.559 4.824 18.426 C4.818 19.231 4.811 20.037 4.805 20.867 C4.794 21.611 4.784 22.354 4.773 23.121 C5 25 5 25 7 27 C4.69 27.33 2.38 27.66 0 28 C0 27.34 0 26.68 0 26 C0.66 26 1.32 26 2 26 C2 18.41 2 10.82 2 3 C1.34 2.67 0.68 2.34 0 2 C0 1.34 0 0.68 0 0 Z " fill="#000000" transform="translate(680,919)"/>
<path d="M0 0 C0 2.31 0 4.62 0 7 C-0.701 6.196 -1.403 5.391 -2.125 4.562 C-5.308 1.726 -6.791 1.09 -11 1 C-13.594 1.793 -14.632 2.425 -16.094 4.707 C-17.231 7.583 -17.265 9.913 -17.25 13 C-17.255 14.031 -17.26 15.062 -17.266 16.125 C-17 19.003 -16.654 20.645 -15 23 C-8.941 25.314 -8.941 25.314 -5 24 C-4.375 20.625 -4.375 20.625 -4 17 C-4.66 16.34 -5.32 15.68 -6 15 C-3.03 15 -0.06 15 3 15 C2.34 15.33 1.68 15.66 1 16 C1 18.97 1 21.94 1 25 C-4.999 26.959 -10.021 28.051 -16.188 25.875 C-19.669 23.554 -21.18 21.781 -23 18 C-23.673 13.711 -23.506 10.199 -21.812 6.188 C-15.391 -1.562 -9.53 -1.86 0 0 Z " fill="#000000" transform="translate(749,920)"/>
<path d="M0 0 C4.941 0.071 8.163 0.618 12.375 3.25 C14 6.125 14 6.125 14.375 9.25 C13.094 12.567 12.071 13.875 8.938 15.562 C6.375 16.25 6.375 16.25 2.375 16.25 C2.045 19.55 1.715 22.85 1.375 26.25 C2.365 26.58 3.355 26.91 4.375 27.25 C1.092 28.892 -2.05 27.769 -5.625 27.25 C-4.965 26.59 -4.305 25.93 -3.625 25.25 C-3.306 22.912 -3.306 22.912 -3.211 20.023 C-3.172 18.992 -3.134 17.961 -3.094 16.898 C-3.063 15.818 -3.032 14.738 -3 13.625 C-2.961 12.537 -2.923 11.449 -2.883 10.328 C-2.788 7.636 -2.703 4.943 -2.625 2.25 C-3.615 1.92 -4.605 1.59 -5.625 1.25 C-4.004 -0.371 -2.234 0.04 0 0 Z M1.375 2.25 C1.375 6.21 1.375 10.17 1.375 14.25 C3.355 14.25 5.335 14.25 7.375 14.25 C9.688 10.78 9.715 9.325 9.375 5.25 C8.715 4.26 8.055 3.27 7.375 2.25 C5.395 2.25 3.415 2.25 1.375 2.25 Z " fill="#000000" transform="translate(804.625,918.75)"/>
<path d="M0 0 C2.97 0.33 5.94 0.66 9 1 C8.67 1.165 8.67 1.165 7 2 C7 5.63 7 9.26 7 13 C8.98 12.835 8.98 12.835 19 12 C19 8.7 19 5.4 19 2 C18.34 2 17.68 2 17 2 C17 1.34 17 0.68 17 0 C19.97 0 22.94 0 26 0 C26 0.66 26 1.32 26 2 C25.34 2 24.68 2 24 2 C24 9.92 24 17.84 24 26 C24.99 26.33 25.98 26.66 27 27 C23.7 27 20.4 27 17 27 C17.66 26.67 18.32 26.34 19 26 C19 22.04 19 18.08 19 14 C15.04 14 11.08 14 7 14 C7 17.96 7 21.92 7 26 C7.99 26.33 8.98 26.66 10 27 C6.785 28.607 3.564 28.057 0 28 C-0.33 27.34 -0.66 26.68 -1 26 C-0.01 26 0.98 26 2 26 C2 18.08 2 10.16 2 2 C1.34 2 0.68 2 0 2 C0 1.34 0 0.68 0 0 Z " fill="#000000" transform="translate(839,919)"/>
<path d="M0 0 C3.04 1.811 4.541 3.213 6.312 6.25 C7.63 11.519 7.842 15.95 5.375 20.812 C2.737 24.353 1.163 25.612 -3 27 C-7.226 27.528 -9.38 27.316 -13.188 25.375 C-16.707 22.403 -19.467 19.719 -20.383 15.047 C-20.675 9.947 -19.328 6.975 -16 3 C-10.938 -1.449 -6.33 -1.435 0 0 Z M-13 3 C-15.841 7.464 -15.507 12.893 -15 18 C-13.938 21.5 -13.938 21.5 -12 24 C-8.625 25.562 -8.625 25.562 -5 26 C-2.093 24.837 -0.57 23.896 1.113 21.25 C3.06 16.309 2.973 9.946 1.312 4.918 C-0.343 2.083 -1.876 1.045 -4.938 -0.062 C-8.627 0.013 -10.173 0.645 -13 3 Z " fill="#000000" transform="translate(906,920)"/>
<path d="M0 0 C3.479 -0.029 6.958 -0.047 10.438 -0.062 C10.934 -0.067 10.934 -0.067 13.447 -0.088 C14.392 -0.091 15.336 -0.094 16.309 -0.098 C16.746 -0.1 16.746 -0.1 18.959 -0.114 C21 0 21 0 22 1 C22.041 3 22.043 5 22 7 C21.814 6.68 21.814 6.68 20.875 5.062 C19 3 19 3 13 2 C13 9.92 13 17.84 13 26 C13.99 26.33 14.98 26.66 16 27 C12.7 27 9.4 27 6 27 C6.66 26.34 7.32 25.68 8 25 C8.319 22.662 8.319 22.662 8.414 19.773 C8.453 18.742 8.491 17.711 8.531 16.648 C8.562 15.568 8.593 14.488 8.625 13.375 C8.644 12.831 8.644 12.831 8.742 10.078 C8.837 7.386 8.922 4.693 9 2 C1.277 4.054 1.277 4.054 -1 7 C-0.67 4.69 -0.34 2.38 0 0 Z " fill="#000000" transform="translate(932,919)"/>
<path d="M0 0 C4.031 1.48 6.455 3.226 8.938 6.75 C10.649 11.984 10.649 16.016 8.938 21.25 C6.454 24.775 4.031 26.517 0 28 C-4.971 28.71 -8.341 27.923 -12.488 25.258 C-15.525 22.731 -16.697 19.891 -17.312 16.047 C-17.625 10.925 -16.419 7.959 -13 4 C-8.639 0.317 -5.686 -0.798 0 0 Z M-10 4 C-12.937 8.656 -12.5 13.684 -12 19 C-10.808 22.397 -9.988 24.217 -7.188 26.438 C-4.01 27.255 -2.12 27.04 1 26 C4.825 22.276 5.303 19.29 5.5 14 C5.303 8.71 4.825 5.724 1 2 C-3.651 0.318 -6.181 0.924 -10 4 Z " fill="#000000" transform="translate(989,919)"/>
<path d="M0 0 C0.846 0.33 1.691 0.66 2.562 1 C2.562 2.98 2.562 4.96 2.562 7 C1.861 6.196 1.16 5.391 0.438 4.562 C-2.745 1.726 -4.228 1.09 -8.438 1 C-11.032 1.793 -12.069 2.425 -13.531 4.707 C-14.668 7.583 -14.703 9.913 -14.688 13 C-14.693 14.031 -14.698 15.062 -14.703 16.125 C-14.439 18.984 -14.006 20.62 -12.438 23 C-8.512 25.29 -5.785 25.011 -1.438 24 C-1.312 20.625 -1.312 20.625 -1.438 17 C-2.098 16.34 -2.757 15.68 -3.438 15 C-0.467 15 2.503 15 5.562 15 C4.902 15.33 4.243 15.66 3.562 16 C3.562 18.97 3.562 21.94 3.562 25 C-1.715 26.723 -6.878 28.36 -12.328 26.277 C-16.329 24.201 -18.843 22.22 -20.438 18 C-21.132 13.313 -20.915 9.973 -18.812 5.688 C-13.107 -0.769 -8.333 -2.424 0 0 Z " fill="#000000" transform="translate(1039.4375,920)"/>
<path d="M0 0 C5.142 0.066 9.348 0.35 13.25 4 C14.312 6.188 14.312 6.188 14.25 8.688 C13.142 11.641 11.671 13.133 9.312 15.188 C14.499 23.634 14.499 23.634 17.312 27.188 C15.562 27.875 15.562 27.875 13.312 28.188 C9.659 26.589 8.743 24.071 7.312 20.562 C7.024 19.766 6.735 18.969 6.438 18.148 C6.066 17.501 5.695 16.854 5.312 16.188 C3.993 15.857 2.672 15.528 1.312 15.188 C1.312 18.817 1.312 22.447 1.312 26.188 C2.303 26.518 3.293 26.847 4.312 27.188 C1.013 27.188 -2.287 27.188 -5.688 27.188 C-4.697 26.857 -3.707 26.528 -2.688 26.188 C-2.688 18.268 -2.688 10.347 -2.688 2.188 C-3.678 1.857 -4.668 1.528 -5.688 1.188 C-4.058 -0.442 -2.241 0.017 0 0 Z M1.312 2.188 C1.312 5.817 1.312 9.447 1.312 13.188 C4.188 13.312 4.188 13.312 7.312 13.188 C9.312 11.188 9.312 11.188 9.562 7.688 C9.312 4.188 9.312 4.188 7.312 2.188 C4.188 2.062 4.188 2.062 1.312 2.188 Z " fill="#000000" transform="translate(1070.6875,918.8125)"/>
<path d="M0 0 C1.773 2.66 2.817 4.858 3.945 7.816 C4.3 8.745 4.654 9.674 5.02 10.631 C5.384 11.598 5.749 12.566 6.125 13.562 C6.311 14.048 6.311 14.048 7.254 16.506 C10 23.743 10 23.743 10 26 C10.66 26.33 11.32 26.66 12 27 C9.03 27 6.06 27 3 27 C3.66 26.67 4.32 26.34 5 26 C4.34 23.36 3.68 20.72 3 18 C0.36 18 -2.28 18 -5 18 C-5.99 20.64 -6.98 23.28 -8 26 C-7.34 26 -6.68 26 -6 26 C-6 26.66 -6 27.32 -6 28 C-8.31 27.67 -10.62 27.34 -13 27 C-12.551 26.447 -12.102 25.893 -11.639 25.323 C-9.918 22.884 -8.873 20.602 -7.773 17.832 C-7.382 16.857 -6.99 15.882 -6.586 14.877 C-6.186 13.866 -5.787 12.854 -5.375 11.812 C-4.572 9.797 -3.768 7.783 -2.961 5.77 C-2.608 4.879 -2.255 3.988 -1.892 3.07 C-1 1 -1 1 0 0 Z M-2 7 C-2.99 9.97 -3.98 12.94 -5 16 C-2.69 16 -0.38 16 2 16 C1.01 13.03 0.02 10.06 -1 7 C-1.33 7 -1.66 7 -2 7 Z " fill="#000000" transform="translate(1118,919)"/>
<path d="M0 0 C12.355 -0.603 12.355 -0.603 18 3 C19.625 5.875 19.625 5.875 20 9 C18.733 12.279 17.703 13.611 14.625 15.312 C12 16 12 16 7 16 C7 19.3 7 22.6 7 26 C7.99 26.33 8.98 26.66 10 27 C7.043 28.478 4.258 28.06 1 28 C0.67 27.34 0.34 26.68 0 26 C0.66 25.67 1.32 25.34 2 25 C2 17.74 2 10.48 2 3 C1.34 2.67 0.68 2.34 0 2 C0 1.34 0 0.68 0 0 Z M7 2 C7 5.96 7 9.92 7 14 C8.98 14 10.96 14 13 14 C15.313 10.53 15.34 9.075 15 5 C14.34 4.01 13.68 3.02 13 2 C11.02 2 9.04 2 7 2 Z " fill="#000000" transform="translate(1149,919)"/>
<path d="M0 0 C2.97 0 5.94 0 9 0 C9 0.66 9 1.32 9 2 C8.34 2 7.68 2 7 2 C7 5.63 7 9.26 7 13 C10.96 13 14.92 13 19 13 C19 9.7 19 6.4 19 3 C18.34 2.67 17.68 2.34 17 2 C17.33 1.34 17.66 0.68 18 0 C20.64 0.33 23.28 0.66 26 1 C25.67 1.165 25.67 1.165 24 2 C24 9.92 24 17.84 24 26 C24.66 26.33 25.32 26.66 26 27 C23.03 27 20.06 27 17 27 C17.66 26.67 18.32 26.34 19 26 C19 22.04 19 18.08 19 14 C15.04 14 11.08 14 7 14 C7 17.96 7 21.92 7 26 C7.66 26.33 8.32 26.66 9 27 C6.03 27 3.06 27 0 27 C0.66 26.67 1.32 26.34 2 26 C2 18.08 2 10.16 2 2 C1.34 2 0.68 2 0 2 C0 1.34 0 0.68 0 0 Z " fill="#000000" transform="translate(1189,919)"/>
<path d="M0 0 C3.3 0 6.6 0 10 0 C10 0.66 10 1.32 10 2 C9.34 2 8.68 2 8 2 C8.361 2.626 8.722 3.253 9.094 3.898 C9.558 4.716 10.022 5.533 10.5 6.375 C10.964 7.187 11.428 7.999 11.906 8.836 C13 11 13 11 13 13 C13.66 13 14.32 13 15 13 C15.66 11.35 16.32 9.7 17 8 C17.33 8.66 17.66 9.32 18 10 C17.704 10.572 17.407 11.145 17.102 11.734 C15.701 14.615 15.583 17.064 15.375 20.25 C15.3 21.328 15.225 22.405 15.148 23.516 C15.099 24.335 15.05 25.155 15 26 C15.66 26 16.32 26 17 26 C16.67 26.66 16.34 27.32 16 28 C13.36 27.67 10.72 27.34 8 27 C8.66 26.67 9.32 26.34 10 26 C9.973 18.003 8.839 12.595 4.277 5.961 C3 4 3 4 3 2 C2.01 2 1.02 2 0 2 C0 1.34 0 0.68 0 0 Z " fill="#000000" transform="translate(1234,919)"/>
</svg>
